<?xml version="1.0" encoding="UTF-8" standalone="no"?>
<!-- Created with Inkscape (http://www.inkscape.org/) -->

<svg
   xmlns:dc="http://purl.org/dc/elements/1.1/"
   xmlns:cc="http://creativecommons.org/ns#"
   xmlns:rdf="http://www.w3.org/1999/02/22-rdf-syntax-ns#"
   xmlns:svg="http://www.w3.org/2000/svg"
   xmlns="http://www.w3.org/2000/svg"
   xmlns:sodipodi="http://sodipodi.sourceforge.net/DTD/sodipodi-0.dtd"
   xmlns:inkscape="http://www.inkscape.org/namespaces/inkscape"
   width="959.99445"
   height="959.99445"
   id="svg2"
   version="1.1"
   inkscape:version="0.48.4 r9939"
   sodipodi:docname="basketball.svg">
  <defs
     id="defs4">
    <inkscape:perspective
       sodipodi:type="inkscape:persp3d"
       inkscape:vp_x="0 : 526.18109 : 1"
       inkscape:vp_y="0 : 1000 : 0"
       inkscape:vp_z="744.09448 : 526.18109 : 1"
       inkscape:persp3d-origin="372.04724 : 350.78739 : 1"
       id="perspective10" />
    <inkscape:perspective
       id="perspective2824"
       inkscape:persp3d-origin="0.5 : 0.33333333 : 1"
       inkscape:vp_z="1 : 0.5 : 1"
       inkscape:vp_y="0 : 1000 : 0"
       inkscape:vp_x="0 : 0.5 : 1"
       sodipodi:type="inkscape:persp3d" />
  </defs>
  <sodipodi:namedview
     id="base"
     pagecolor="#ffffff"
     bordercolor="#666666"
     borderopacity="1.0"
     inkscape:pageopacity="0.0"
     inkscape:pageshadow="2"
     inkscape:zoom="0.49497475"
     inkscape:cx="-329.55723"
     inkscape:cy="501.9958"
     inkscape:document-units="px"
     inkscape:current-layer="layer1"
     showgrid="false"
     inkscape:window-width="1600"
     inkscape:window-height="847"
     inkscape:window-x="-8"
     inkscape:window-y="-8"
     inkscape:window-maximized="1"
     fit-margin-top="0"
     fit-margin-left="0"
     fit-margin-right="0"
     fit-margin-bottom="0" />
  <metadata
     id="metadata7">
    <rdf:RDF>
      <cc:Work
         rdf:about="">
        <dc:format>image/svg+xml</dc:format>
        <dc:type
           rdf:resource="http://purl.org/dc/dcmitype/StillImage" />
        <dc:title />
      </cc:Work>
    </rdf:RDF>
  </metadata>
  <g
     inkscape:label="Camada 1"
     inkscape:groupmode="layer"
     id="layer1"
     transform="translate(318.6477,186.1653)"
     style="display:inline">
    <rect
       y="-185.62465"
       x="-318.10834"
       height="958.90009"
       width="958.90009"
       id="rect2985"
       style="fill:#bb0000;fill-opacity:1;stroke:#ffffff;stroke-width:1.10000002;stroke-miterlimit:4;stroke-opacity:1;stroke-dasharray:none" />
    <g
       transform="matrix(1.3303808,0,0,1.3303808,834.29556,-100.46889)"
       id="g3805">
      <path
         transform="matrix(4.7951499,1.6507403,-1.6507111,4.7952346,-949.28287,-2496.1748)"
         d="m 317.85715,503.07648 c 0,28.99495 -23.50505,52.5 -52.5,52.5 -28.99495,0 -52.5,-23.50505 -52.5,-52.5 0,-28.99495 23.50505,-52.5 52.5,-52.5 28.99495,0 52.5,23.50505 52.5,52.5 z"
         sodipodi:ry="52.5"
         sodipodi:rx="52.5"
         sodipodi:cy="503.07648"
         sodipodi:cx="265.35715"
         id="path2830"
         style="fill:#666666;fill-opacity:1;stroke:#000000;stroke-width:0.59286928;stroke-miterlimit:4;stroke-opacity:1;stroke-dasharray:none"
         sodipodi:type="arc" />
      <path
         inkscape:connector-curvature="0"
         sodipodi:nodetypes="cc"
         id="path3604"
         d="m -444.93478,94.913669 c 30.24491,125.034191 96.71094,205.401041 201.07069,248.680361"
         style="fill:#666666;fill-opacity:1;stroke:#000000;stroke-width:3.00665784;stroke-linecap:butt;stroke-linejoin:miter;stroke-miterlimit:4;stroke-opacity:1;stroke-dasharray:none" />
      <path
         inkscape:connector-curvature="0"
         sodipodi:nodetypes="cc"
         id="path3606"
         d="m -681.1579,152.6266 c 215.31308,27.08383 363.33605,127.42201 383.02587,367.46812"
         style="fill:#666666;fill-opacity:1;stroke:#000000;stroke-width:3.00665784;stroke-linecap:butt;stroke-linejoin:miter;stroke-miterlimit:4;stroke-opacity:1;stroke-dasharray:none" />
      <path
         inkscape:connector-curvature="0"
         sodipodi:nodetypes="cc"
         id="path3608"
         d="m -774.81143,357.91238 c 318.44222,-127.55397 476.77362,-100.93717 284.96008,262.83404"
         style="fill:#666666;fill-opacity:1;stroke:#000000;stroke-width:3.00665784;stroke-linecap:butt;stroke-linejoin:miter;stroke-miterlimit:4;stroke-opacity:1;stroke-dasharray:none" />
      <path
         inkscape:connector-curvature="0"
         sodipodi:nodetypes="cc"
         id="path3610"
         d="M -319.8396,170.25306 C -420.71779,323.80775 -561.21264,430.21591 -696.93096,542.30852"
         style="fill:none;stroke:#000000;stroke-width:3.00665784;stroke-linecap:butt;stroke-linejoin:miter;stroke-miterlimit:4;stroke-opacity:1;stroke-dasharray:none" />
    </g>
  </g>
  <g
     inkscape:groupmode="layer"
     id="layer3"
     inkscape:label="Text"
     style="display:none">
    <text
       transform="scale(1.0000721,0.99992791)"
       sodipodi:linespacing="125%"
       id="text3755-2"
       y="138.87144"
       x="8.7597065"
       style="font-size:150.67648315px;font-style:normal;font-variant:normal;font-weight:normal;font-stretch:normal;line-height:125%;letter-spacing:0px;word-spacing:0px;fill:#ffffff;fill-opacity:1;stroke:#000000;stroke-width:3.99999976;stroke-miterlimit:4;stroke-opacity:1;stroke-dasharray:none;display:inline;font-family:Arial;-inkscape-font-specification:Arial"
       xml:space="preserve"><tspan
         style="stroke:#000000;stroke-width:3.99999976;stroke-opacity:1"
         y="138.87144"
         x="8.7597065"
         id="tspan3757-4"
         sodipodi:role="line">CHAMPIONS</tspan></text>
    <text
       transform="scale(1.0148959,0.98532274)"
       sodipodi:linespacing="125%"
       id="text3759-5"
       y="409.46201"
       x="473.77005"
       style="font-size:123.01776123px;font-style:normal;font-variant:normal;font-weight:normal;font-stretch:normal;line-height:125%;letter-spacing:0px;word-spacing:0px;fill:#ffffff;fill-opacity:1;stroke:#000000;stroke-width:4;stroke-miterlimit:4;stroke-opacity:1;stroke-dasharray:none;display:inline;font-family:Arial;-inkscape-font-specification:Arial"
       xml:space="preserve"><tspan
         id="tspan3812-5"
         style="text-align:center;text-anchor:middle;stroke-width:4"
         y="409.46201"
         x="473.77005"
         sodipodi:role="line">Duke University</tspan><tspan
         id="tspan3814-1"
         style="font-size:144px;text-align:center;text-anchor:middle;stroke-width:4"
         y="563.23419"
         x="473.77005"
         sodipodi:role="line" /><tspan
         id="tspan3822-7"
         style="text-align:center;text-anchor:middle;stroke-width:4"
         y="717.00641"
         x="473.77005"
         sodipodi:role="line">Men's Basketball</tspan></text>
    <text
       transform="scale(1.0109143,0.98920353)"
       sodipodi:linespacing="125%"
       id="text3759-1-1"
       y="595.49127"
       x="-2.948086"
       style="font-size:162.36959839px;font-style:normal;font-variant:normal;font-weight:normal;font-stretch:normal;line-height:125%;letter-spacing:0px;word-spacing:0px;fill:#ffffff;fill-opacity:1;stroke:#000000;stroke-width:4.00000048;stroke-miterlimit:4;stroke-opacity:1;stroke-dasharray:none;display:inline;font-family:Arial;-inkscape-font-specification:Arial"
       xml:space="preserve"><tspan
         id="tspan3822-0-1"
         style="font-size:190.06378174px;stroke-width:4.00000048"
         y="595.49127"
         x="-2.948086"
         sodipodi:role="line">Blue Devils</tspan></text>
  </g>
  <g
     inkscape:groupmode="layer"
     id="layer2"
     inkscape:label="PathsFromText"
     style="display:inline">
    <g
       transform="scale(1.0000721,0.99992791)"
       style="font-size:150.67648315px;font-style:normal;font-variant:normal;font-weight:normal;font-stretch:normal;line-height:125%;letter-spacing:0px;word-spacing:0px;fill:#ffffff;fill-opacity:1;stroke:#000000;stroke-width:3.99999976;stroke-miterlimit:4;stroke-opacity:1;display:inline;font-family:Arial;-inkscape-font-specification:Arial"
       id="text3755-1">
      <path
         d="m 97.340998,101.05518 14.273062,3.60505 c -2.99204,11.72258 -8.37509,20.66163 -16.14916,26.81718 -7.77424,6.15557 -17.277346,9.23335 -28.509345,9.23335 -11.624502,0 -21.078559,-2.36658 -28.362199,-7.09975 -7.2837,-4.73315 -12.826157,-11.58765 -16.627385,-20.56351 -3.801256,-8.97581 -5.701877,-18.613802 -5.701869,-28.913996 -8e-6,-11.232003 2.145855,-21.029398 6.437594,-29.392215 4.291711,-8.362648 10.398222,-14.714401 18.319552,-19.055278 7.921266,-4.34067 16.639599,-6.511056 26.155025,-6.511166 10.790564,1.1e-4 19.864497,2.746814 27.221825,8.24012 7.357162,5.493509 12.482702,13.218614 15.376652,23.175338 L 95.722403,63.901066 C 93.220854,56.053415 89.591281,50.33929 84.833673,46.758673 80.075913,43.17824 74.092023,41.387978 66.881983,41.38788 c -8.289219,9.8e-5 -15.217289,1.986553 -20.784232,5.959373 -5.567018,3.973002 -9.478618,9.307003 -11.734814,16.002019 -2.256247,6.695166 -3.384357,13.598712 -3.384335,20.710659 -2.2e-5,9.172084 1.336544,17.179219 4.009701,24.021419 2.673106,6.84227 6.829948,11.95555 12.470539,15.33987 5.640514,3.38435 11.747026,5.07651 18.319553,5.0765 7.994814,1e-5 14.763477,-2.30526 20.306011,-6.91581 5.542379,-4.61052 9.294572,-11.45276 11.256592,-20.52673 z"
         style="stroke:#000000"
         id="path3318"
         inkscape:connector-curvature="0" />
      <path
         d="m 129.7129,138.87144 0,-107.857283 14.27306,0 0,44.290646 56.06225,0 0,-44.290646 14.27306,0 0,107.857283 -14.27306,0 0,-50.838594 -56.06225,0 0,50.838594 z"
         style="stroke:#000000"
         id="path3320"
         inkscape:connector-curvature="0" />
      <path
         d="m 226.31359,138.87144 41.42131,-107.857283 15.37666,0 44.1435,107.857283 -16.25952,0 -12.5809,-32.66619 -45.09995,0 -11.84517,32.66619 z m 31.12116,-44.290641 36.56554,0 -11.2566,-29.870436 c -3.43343,-9.073858 -5.98394,-16.529198 -7.65154,-22.36604 -1.3734,6.915904 -3.3108,13.782664 -5.81222,20.6003 z"
         style="stroke:#000000"
         id="path3322"
         inkscape:connector-curvature="0" />
      <path
         d="m 338.36451,138.87144 0,-107.857283 21.48317,0 25.52966,76.368253 c 2.35426,7.11204 4.07095,12.43378 5.15007,15.96524 1.22615,-3.92385 3.13903,-9.68702 5.73866,-17.28954 l 25.82395,-75.043953 19.20242,0 0,107.857283 -13.75806,0 0,-90.273455 -31.34188,90.273455 -12.87519,0 -31.19474,-91.818477 0,91.818477 z"
         style="stroke:#000000"
         id="path3324"
         inkscape:connector-curvature="0" />
      <path
         d="m 464.46778,138.87144 0,-107.857283 40.68559,0 c 7.161,1.08e-4 12.62988,0.343446 16.40667,1.030015 5.29715,0.882976 9.73602,2.56288 13.31662,5.039717 3.58045,2.47704 6.46203,5.947206 8.64477,10.410509 2.18256,4.463485 3.27389,9.368314 3.27398,14.7145 -9e-5,9.172106 -2.91847,16.933997 -8.75513,23.285697 -5.83683,6.351806 -16.38221,9.527683 -31.63617,9.527639 l -27.66326,0 0,43.849206 z m 14.27307,-56.577249 27.88397,0 c 9.22103,5.7e-5 15.76897,-1.716633 19.64386,-5.150075 3.87474,-3.433318 5.81215,-8.264574 5.81223,-14.493783 -8e-5,-4.512366 -1.14045,-8.374918 -3.42112,-11.587669 -2.28082,-3.212575 -5.28503,-5.333913 -9.01263,-6.364021 -2.40344,-0.637534 -6.84231,-0.956348 -13.31663,-0.956443 l -27.58968,0 z"
         style="stroke:#000000"
         id="path3326"
         inkscape:connector-curvature="0" />
      <path
         d="m 567.54283,138.87144 0,-107.857283 14.27306,0 0,107.857283 z"
         style="stroke:#000000"
         id="path3328"
         inkscape:connector-curvature="0" />
      <path
         d="m 602.56334,86.340679 c 0,-17.902572 4.80673,-31.91812 14.42021,-42.046685 9.61345,-10.128376 22.02266,-15.192612 37.22769,-15.192722 9.95674,1.1e-4 18.93258,2.378952 26.92753,7.136533 7.99479,4.757786 14.08904,11.391567 18.28277,19.901362 4.19353,8.50996 6.29034,18.16021 6.29045,28.950779 -1.1e-4,10.937821 -2.20728,20.722954 -6.62153,29.355424 -4.41444,8.63253 -10.6681,15.16821 -18.76098,19.60708 -8.09306,4.43887 -16.82365,6.65831 -26.19181,6.65831 -10.15306,0 -19.22699,-2.45242 -27.22183,-7.35725 -7.9949,-4.90483 -14.05236,-11.59992 -18.17241,-20.0853 -4.12007,-8.48532 -6.18009,-17.46116 -6.18009,-26.927531 z m 14.7145,0.220717 c -2e-5,12.997848 3.49467,23.236674 10.48408,30.716524 6.98935,7.47988 15.75673,11.21981 26.30217,11.2198 10.74152,1e-5 19.58247,-3.77671 26.52289,-11.33016 6.94025,-7.55342 10.41041,-18.270468 10.41051,-32.151186 -10e-5,-8.77959 -1.48381,-16.443384 -4.45114,-22.991407 -2.96751,-6.547869 -7.30828,-11.624367 -13.02233,-15.229508 -5.7142,-3.604957 -12.12727,-5.407481 -19.23921,-5.407579 -10.104,9.8e-5 -18.79781,3.470264 -26.08145,10.410509 -7.2837,6.94042 -10.92554,18.528077 -10.92552,34.763007 z"
         style="stroke:#000000"
         id="path3330"
         inkscape:connector-curvature="0" />
      <path
         d="m 723.88442,138.87144 0,-107.857283 14.64092,0 56.65083,84.681953 0,-84.681953 13.68449,0 0,107.857283 -14.64093,0 -56.65083,-84.755517 0,84.755517 z"
         style="stroke:#000000"
         id="path3332"
         inkscape:connector-curvature="0" />
      <path
         d="m 828.06304,104.2188 13.46377,-1.17716 c 0.63761,5.39534 2.12132,9.82195 4.45114,13.27983 2.32977,3.45793 5.94708,6.25368 10.85194,8.38727 4.9048,2.13361 10.42273,3.20041 16.55382,3.2004 5.4443,1e-5 10.25104,-0.80928 14.42021,-2.42789 4.16903,-1.61858 7.27134,-3.83802 9.30692,-6.65831 2.03543,-2.82026 3.05318,-5.89804 3.05326,-9.23335 -8e-5,-3.3843 -0.98105,-6.33946 -2.9429,-8.86549 -1.96201,-2.525946 -5.1992,-4.647284 -9.71157,-6.364019 -2.89392,-1.128066 -9.29472,-2.881542 -19.20243,-5.260434 -9.9078,-2.378792 -16.84813,-4.622751 -20.82101,-6.731883 -5.1501,-2.6976 -8.98813,-6.045145 -11.5141,-10.042647 -2.526,-3.997369 -3.789,-8.473025 -3.78899,-13.426981 -10e-6,-5.44428 1.54501,-10.53304 4.63507,-15.266295 3.09003,-4.733064 7.60247,-8.325851 13.53734,-10.778371 5.93482,-2.452308 12.53181,-3.678515 19.79101,-3.678625 7.99482,1.1e-4 15.04551,1.287627 21.15209,3.862556 6.10644,2.575141 10.80281,6.364121 14.08913,11.366952 3.28615,5.003019 5.05189,10.668096 5.29722,16.995248 l -13.68448,1.030015 c -0.7358,-6.817636 -3.225,-11.967706 -7.46761,-15.450226 -4.24275,-3.482336 -10.50866,-5.22355 -18.79777,-5.223647 -8.63255,9.7e-5 -14.92299,1.581904 -18.87135,4.745426 -3.94842,3.163707 -5.92261,6.977211 -5.92259,11.440524 -2e-5,3.874895 1.39785,7.063034 4.19364,9.564425 2.74667,2.501534 9.91998,5.064307 21.51995,7.688327 11.59987,2.624147 19.55796,4.917154 23.87428,6.879029 6.2781,2.893905 10.91317,6.560264 13.9052,10.999088 2.99186,4.438916 4.48783,9.552198 4.48792,15.339868 -9e-5,5.73868 -1.64321,11.14625 -4.92935,16.22274 -3.28633,5.07651 -8.00722,9.02489 -14.16271,11.84517 -6.15563,2.82028 -13.0837,4.23042 -20.78423,4.23042 -9.76066,0 -17.93947,-1.4224 -24.53643,-4.26721 -6.59702,-2.8448 -11.77162,-7.12426 -15.5238,-12.8384 -3.75221,-5.71411 -5.7264,-12.17622 -5.92259,-19.38635 z"
         style="stroke:#000000"
         id="path3334"
         inkscape:connector-curvature="0" />
    </g>
    <g
       transform="scale(1.0148959,0.98532274)"
       style="font-size:123.01776123px;font-style:normal;font-variant:normal;font-weight:normal;font-stretch:normal;line-height:125%;letter-spacing:0px;word-spacing:0px;fill:#ffffff;fill-opacity:1;stroke:#000000;stroke-width:4;stroke-miterlimit:4;stroke-opacity:1;display:inline;font-family:Arial;-inkscape-font-specification:Arial"
       id="text3759-4">
      <path
         d="m 52.33811,409.46201 0,-88.05862 30.33397,0 c 6.847621,9e-5 12.073468,0.42056 15.677556,1.26142 5.045594,1.16138 9.350404,3.26373 12.914464,6.30706 4.64513,3.92447 8.11901,8.94008 10.42167,15.04685 2.3025,6.1069 3.45378,13.0847 3.45387,20.93344 -9e-5,6.68753 -0.78096,12.61416 -2.34263,17.77991 -1.56182,5.16581 -3.56406,9.44059 -6.00672,12.82436 -2.44281,3.3838 -5.1158,6.04678 -8.01898,7.98895 -2.90332,1.94218 -6.40724,3.41383 -10.511775,4.41494 -4.104648,1.00113 -8.819923,1.50169 -14.145841,1.50169 z m 11.65305,-10.39164 18.801054,0 c 5.806457,10e-6 10.361553,-0.5406 13.665303,-1.62182 3.303643,-1.0812 5.936593,-2.6029 7.898843,-4.56511 2.76303,-2.76307 4.91544,-6.47723 6.45723,-11.14248 1.54166,-4.66519 2.31252,-10.32152 2.31259,-16.969 -7e-5,-9.21026 -1.51176,-16.28818 -4.53507,-21.23378 -3.02345,-4.94547 -6.69756,-8.25917 -11.022348,-9.94113 -3.12355,-1.20127 -8.149173,-1.80194 -15.076884,-1.80202 l -18.500718,0 z"
         style="text-align:center;text-anchor:middle"
         id="path3337"
         inkscape:connector-curvature="0" />
      <path
         d="m 181.66293,409.46201 0,-9.3705 c -4.9656,7.20808 -11.71315,10.81211 -20.24267,10.81211 -3.76424,0 -7.27817,-0.72081 -10.5418,-2.16242 -3.26367,-1.44161 -5.68638,-3.25364 -7.26814,-5.43609 -1.58178,-2.18243 -2.69303,-4.85543 -3.33373,-8.01898 -0.44051,-2.12236 -0.66075,-5.48612 -0.66074,-10.0913 l 0,-39.52426 10.8121,0 0,35.37962 c -2e-5,5.64634 0.22023,9.4506 0.66074,11.41278 0.68075,2.8432 2.12236,5.0757 4.32485,6.6975 2.20244,1.62182 4.92548,2.43273 8.16914,2.43272 3.2436,1e-5 6.28701,-0.83092 9.13023,-2.49279 2.84314,-1.66185 4.85539,-3.92438 6.03676,-6.7876 1.18127,-2.86319 1.77193,-7.01783 1.77198,-12.46396 l 0,-34.17827 10.81211,0 0,63.79144 z"
         style="text-align:center;text-anchor:middle"
         id="path3339"
         inkscape:connector-curvature="0" />
      <path
         d="m 208.39287,409.46201 0,-88.05862 10.8121,0 0,50.21624 25.58866,-25.94906 13.99567,0 -24.38731,23.6665 26.85007,40.12494 -13.33493,0 -21.08361,-32.61653 -7.62855,7.32821 0,25.28832 z"
         style="text-align:center;text-anchor:middle"
         id="path3341"
         inkscape:connector-curvature="0" />
      <path
         d="m 313.51058,388.919 11.17251,1.38155 c -1.76203,6.52732 -5.02568,11.59299 -9.79096,15.19702 -4.76539,3.60403 -10.8522,5.40605 -18.26045,5.40605 -9.33047,0 -16.72875,-2.87322 -22.19485,-8.61965 -5.46613,-5.74642 -8.19919,-13.80544 -8.19919,-24.17708 0,-10.73197 2.76309,-19.06129 8.28929,-24.98798 5.52617,-5.92657 12.69419,-8.88989 21.50408,-8.88996 8.52951,7e-5 15.4973,2.90332 20.90341,8.70976 5.40599,5.80655 8.10901,13.97569 8.10908,24.50744 -7e-5,0.64075 -0.0201,1.60183 -0.0601,2.88323 l -47.57327,0 c 0.40043,7.00787 2.38265,12.37388 5.94665,16.09803 3.56397,3.72418 8.00894,5.58626 13.33494,5.58625 3.9644,10e-6 7.34818,-1.04115 10.15137,-3.12349 2.80309,-2.08232 5.02557,-5.40604 6.66746,-9.97117 z m -35.49975,-17.47957 35.61989,0 c -0.48059,-5.36597 -1.84212,-9.39047 -4.08458,-12.07352 -3.4439,-4.16461 -7.90889,-6.24694 -13.395,-6.247 -4.96559,6e-5 -9.14026,1.66192 -12.52402,4.98558 -3.38381,3.32377 -5.25591,7.76875 -5.61629,13.33494 z"
         style="text-align:center;text-anchor:middle"
         id="path3343"
         inkscape:connector-curvature="0" />
      <path
         d="m 431.60283,321.40339 11.65305,0 0,50.87698 c -8e-5,8.84994 -1.0012,15.8778 -3.00336,21.08361 -2.00232,5.20584 -5.61636,9.44058 -10.84214,12.70423 -5.22592,3.26365 -12.08359,4.89548 -20.57304,4.89548 -8.24928,0 -14.99683,-1.42159 -20.24267,-4.26478 -5.24589,-2.84318 -8.99008,-6.95778 -11.23258,-12.34382 -2.24252,-5.38601 -3.36378,-12.74425 -3.36377,-22.07472 l 0,-50.87698 11.65305,0 0,50.81691 c -2e-5,7.6486 0.71078,13.2849 2.13239,16.90894 1.42157,3.62407 3.8643,6.4172 7.32821,8.37938 3.46384,1.96221 7.69858,2.9433 12.70422,2.9433 8.56955,0 14.67638,-1.94217 18.32052,-5.82653 3.64402,-3.88433 5.46605,-11.35269 5.46612,-22.40509 z"
         style="text-align:center;text-anchor:middle"
         id="path3345"
         inkscape:connector-curvature="0" />
      <path
         d="m 461.33611,409.46201 0,-63.79144 9.7309,0 0,9.07016 c 4.68522,-7.00779 11.45279,-10.51171 20.30273,-10.51178 3.84427,7e-5 7.37822,0.69084 10.60188,2.07233 3.22355,1.3816 5.63625,3.19363 7.2381,5.43608 1.60174,2.24257 2.72299,4.90555 3.36377,7.98895 0.40039,2.00229 0.60061,5.50621 0.60067,10.51177 l 0,39.22393 -10.81211,0 0,-38.80346 c -5e-5,-4.40489 -0.42052,-7.69857 -1.26141,-9.88106 -0.84099,-2.1824 -2.33266,-3.92435 -4.47501,-5.22586 -2.14244,-1.3014 -4.65525,-1.95213 -7.53844,-1.95218 -4.60519,5e-5 -8.57964,1.46169 -11.92336,4.38491 -3.34376,2.92332 -5.01563,8.46953 -5.01561,16.63863 l 0,34.83902 z"
         style="text-align:center;text-anchor:middle"
         id="path3347"
         inkscape:connector-curvature="0" />
      <path
         d="m 529.87286,333.83732 0,-12.43393 10.81211,0 0,12.43393 z m 0,75.62469 0,-63.79144 10.81211,0 0,63.79144 z"
         style="text-align:center;text-anchor:middle"
         id="path3349"
         inkscape:connector-curvature="0" />
      <path
         d="m 574.92332,409.46201 -24.26717,-63.79144 11.41278,0 13.69534,38.20278 c 1.48163,4.12464 2.84315,8.40943 4.08457,12.8544 0.96104,-3.36376 2.30255,-7.40828 4.02451,-12.13359 l 14.17587,-38.92359 11.11245,0 -24.14704,63.79144 z"
         style="text-align:center;text-anchor:middle"
         id="path3351"
         inkscape:connector-curvature="0" />
      <path
         d="m 662.38126,388.919 11.17252,1.38155 c -1.76204,6.52732 -5.02569,11.59299 -9.79097,15.19702 -4.76538,3.60403 -10.85219,5.40605 -18.26045,5.40605 -9.33047,0 -16.72875,-2.87322 -22.19485,-8.61965 -5.46613,-5.74642 -8.19919,-13.80544 -8.19918,-24.17708 -10e-6,-10.73197 2.76308,-19.06129 8.28928,-24.98798 5.52617,-5.92657 12.69419,-8.88989 21.50408,-8.88996 8.52951,7e-5 15.4973,2.90332 20.90341,8.70976 5.40599,5.80655 8.10902,13.97569 8.10908,24.50744 -6e-5,0.64075 -0.0201,1.60183 -0.0601,2.88323 l -47.57327,0 c 0.40043,7.00787 2.38265,12.37388 5.94666,16.09803 3.56396,3.72418 8.00894,5.58626 13.33493,5.58625 3.9644,10e-6 7.34819,-1.04115 10.15137,-3.12349 2.80309,-2.08232 5.02558,-5.40604 6.66746,-9.97117 z m -35.49975,-17.47957 35.61989,0 c -0.48059,-5.36597 -1.84211,-9.39047 -4.08458,-12.07352 -3.4439,-4.16461 -7.90889,-6.24694 -13.395,-6.247 -4.96559,6e-5 -9.14026,1.66192 -12.52402,4.98558 -3.38381,3.32377 -5.2559,7.76875 -5.61629,13.33494 z"
         style="text-align:center;text-anchor:middle"
         id="path3353"
         inkscape:connector-curvature="0" />
      <path
         d="m 687.06891,409.46201 0,-63.79144 9.7309,0 0,9.67083 c 2.48276,-4.52501 4.77532,-7.50835 6.8777,-8.95002 2.10233,-1.44155 4.41492,-2.16236 6.93777,-2.16243 3.64405,7e-5 7.34819,1.16137 11.11244,3.48391 l -3.72417,10.03123 c -2.64299,-1.5617 -5.28595,-2.34257 -7.92888,-2.34262 -2.36267,5e-5 -4.48504,0.71085 -6.36713,2.13238 -1.88213,1.42165 -3.22363,3.39385 -4.0245,5.91663 -1.20137,3.84435 -1.80204,8.04905 -1.80202,12.61413 l 0,33.3974 z"
         style="text-align:center;text-anchor:middle"
         id="path3355"
         inkscape:connector-curvature="0" />
      <path
         d="m 723.9502,390.42068 10.69197,-1.68188 c 0.60066,4.28481 2.27253,7.56849 5.01562,9.85103 2.74305,2.28257 6.57734,3.42384 11.50288,3.42383 4.96553,10e-6 8.64965,-1.01112 11.05238,-3.03339 2.40265,-2.02225 3.60399,-4.39491 3.60404,-7.11797 -5e-5,-2.44272 -1.06124,-4.36487 -3.18357,-5.76646 -1.4817,-0.96105 -5.16582,-2.18242 -11.05238,-3.6641 -7.9289,-2.00222 -13.42505,-3.73416 -16.48846,-5.19582 -3.06344,-1.46161 -5.38604,-3.48387 -6.9678,-6.0668 -1.58178,-2.58285 -2.37267,-5.43604 -2.37266,-8.55958 -10e-6,-2.84314 0.65072,-5.47608 1.95219,-7.89885 1.30144,-2.42265 3.07343,-4.4349 5.31595,-6.03676 1.68187,-1.24133 3.97443,-2.2925 6.8777,-3.15353 2.90323,-0.8609 6.01671,-1.29138 9.34046,-1.29145 5.00557,7e-5 9.40049,0.72088 13.18477,2.16243 3.78419,1.44167 6.57731,3.39386 8.37938,5.85655 1.80196,2.46282 3.04335,5.7565 3.72417,9.88107 l -10.57184,1.44161 c -0.48058,-3.28362 -1.87214,-5.84649 -4.17467,-7.68861 -2.30262,-1.842 -5.55626,-2.76303 -9.76094,-2.76309 -4.96558,6e-5 -8.50955,0.82097 -10.6319,2.46276 -2.1224,1.64189 -3.18358,3.56404 -3.18357,5.76646 -1e-5,1.40161 0.44048,2.66302 1.32148,3.78423 0.88097,1.16135 2.26252,2.12242 4.14464,2.88323 1.08119,0.40049 4.26476,1.32152 9.5507,2.7631 7.64853,2.04232 12.9845,3.71419 16.00793,5.01561 3.02333,1.30149 5.39599,3.19361 7.11797,5.67636 1.72187,2.48281 2.58283,5.56626 2.58289,9.25036 -6e-5,3.60405 -1.05123,6.99785 -3.15353,10.1814 -2.10241,3.18357 -5.1358,5.64633 -9.10019,7.38827 -3.96448,1.74195 -8.4495,2.61293 -13.45507,2.61293 -8.28931,0 -14.60637,-1.72193 -18.95122,-5.16578 -4.34488,-3.44385 -7.11798,-8.54957 -8.31932,-15.31716 z"
         style="text-align:center;text-anchor:middle"
         id="path3357"
         inkscape:connector-curvature="0" />
      <path
         d="m 789.84402,333.83732 0,-12.43393 10.81211,0 0,12.43393 z m 0,75.62469 0,-63.79144 10.81211,0 0,63.79144 z"
         style="text-align:center;text-anchor:middle"
         id="path3359"
         inkscape:connector-curvature="0" />
      <path
         d="m 840.78102,399.79118 1.56175,9.55069 c -3.04344,0.64072 -5.76649,0.96108 -8.16915,0.96108 -3.92442,0 -6.96782,-0.6207 -9.13023,-1.86209 -2.16243,-1.24139 -3.68414,-2.87321 -4.56511,-4.89548 -0.881,-2.02226 -1.32149,-6.27702 -1.32148,-12.76429 l 0,-36.7011 -7.92888,0 0,-8.40942 7.92888,0 0,-15.79769 10.75204,-6.48727 0,22.28496 10.87218,0 0,8.40942 -10.87218,0 0,37.30177 c -2e-5,3.08347 0.19019,5.06568 0.57064,5.94666 0.3804,0.881 1.0011,1.58178 1.86209,2.10235 0.86094,0.52059 2.09231,0.78089 3.69413,0.78088 1.20132,10e-6 2.78309,-0.14015 4.74532,-0.42047 z"
         style="text-align:center;text-anchor:middle"
         id="path3361"
         inkscape:connector-curvature="0" />
      <path
         d="m 850.81227,434.02952 -1.20135,-10.15137 c 2.36264,0.6407 4.42495,0.96106 6.18693,0.96108 2.40268,-2e-5 4.32483,-0.40047 5.76646,-1.20135 1.44159,-0.80091 2.62291,-1.92216 3.54397,-3.36377 0.68074,-1.08122 1.78197,-3.76422 3.3037,-8.04901 0.2002,-0.60067 0.52055,-1.48166 0.96107,-2.64296 l -24.20711,-63.91157 11.65305,0 13.27487,36.94137 c 1.7219,4.68527 3.26362,9.61078 4.62518,14.77655 1.24136,-4.96555 2.72301,-9.81097 4.44498,-14.53628 l 13.63527,-37.18164 10.8121,0 -24.26717,64.87265 c -2.60295,7.00784 -4.62521,11.83323 -6.06679,14.47621 -1.92219,3.56397 -4.12465,6.17689 -6.6074,7.83878 -2.48281,1.66183 -5.44612,2.49276 -8.88996,2.49279 -2.08234,-3e-5 -4.40494,-0.44052 -6.9678,-1.32148 z"
         style="text-align:center;text-anchor:middle"
         id="path3363"
         inkscape:connector-curvature="0" />
      <path
         d="m 19.541383,717.00641 0,-88.05861 17.539642,0 20.843341,62.34982 c 1.922103,5.80652 3.323671,10.15138 4.204709,13.0346 1.001068,-3.20358 2.562815,-7.90884 4.685246,-14.11581 l 21.083611,-61.26861 15.677558,0 0,88.05861 -11.23258,0 0,-73.70254 -25.588656,73.70254 -10.511771,0 -25.468521,-74.96395 0,74.96395 z"
         style="text-align:center;text-anchor:middle"
         id="path3365"
         inkscape:connector-curvature="0" />
      <path
         d="m 164.78404,696.4634 11.17251,1.38155 c -1.76204,6.52732 -5.02569,11.59299 -9.79097,15.19702 -4.76538,3.60404 -10.85219,5.40605 -18.26045,5.40605 -9.33047,0 -16.72875,-2.87321 -22.19485,-8.61965 -5.46613,-5.74642 -8.19919,-13.80544 -8.19918,-24.17707 -1e-5,-10.73198 2.76308,-19.0613 8.28928,-24.98799 5.52617,-5.92657 12.69419,-8.88989 21.50408,-8.88995 8.52951,6e-5 15.49731,2.90331 20.90341,8.70975 5.40599,5.80655 8.10902,13.97569 8.10908,24.50745 -6e-5,0.64074 -0.0201,1.60182 -0.0601,2.88322 l -47.57327,0 c 0.40043,7.00787 2.38265,12.37388 5.94666,16.09803 3.56396,3.72418 8.00894,5.58627 13.33493,5.58626 3.9644,10e-6 7.34819,-1.04116 10.15137,-3.1235 2.80309,-2.08232 5.02558,-5.40604 6.66747,-9.97117 z m -35.49976,-17.47957 35.61989,0 c -0.48059,-5.36597 -1.84211,-9.39047 -4.08457,-12.07352 -3.4439,-4.16461 -7.9089,-6.24694 -13.395,-6.247 -4.96559,6e-5 -9.14026,1.66192 -12.52403,4.98559 -3.38381,3.32377 -5.2559,7.76874 -5.61629,13.33493 z"
         style="text-align:center;text-anchor:middle"
         id="path3367"
         inkscape:connector-curvature="0" />
      <path
         d="m 189.59182,717.00641 0,-63.79144 9.7309,0 0,9.07016 c 4.68522,-7.00779 11.45279,-10.51171 20.30273,-10.51177 3.84426,6e-5 7.37822,0.69084 10.60187,2.07232 3.22356,1.38161 5.63626,3.19363 7.23811,5.43609 1.60174,2.24256 2.72299,4.90554 3.36377,7.98894 0.40039,2.00229 0.60061,5.50621 0.60067,10.51177 l 0,39.22393 -10.81211,0 0,-38.80346 c -5e-5,-4.40488 -0.42052,-7.69857 -1.26141,-9.88106 -0.84099,-2.18239 -2.33266,-3.92434 -4.47501,-5.22585 -2.14244,-1.3014 -4.65525,-1.95213 -7.53844,-1.95219 -4.60519,6e-5 -8.57964,1.46169 -11.92336,4.38491 -3.34376,2.92332 -5.01563,8.46953 -5.01561,16.63863 l 0,34.83902 z"
         style="text-align:center;text-anchor:middle"
         id="path3369"
         inkscape:connector-curvature="0" />
      <path
         d="m 258.12857,660.12271 -2.76309,-16.45843 0,-14.71648 12.31379,0 0,14.71648 -2.88323,16.45843 z"
         style="text-align:center;text-anchor:middle"
         id="path3371"
         inkscape:connector-curvature="0" />
      <path
         d="M 277.29003,697.96509 287.982,696.2832 c 0.60066,4.28482 2.27253,7.56849 5.01562,9.85103 2.74305,2.28257 6.57734,3.42385 11.50288,3.42384 4.96553,10e-6 8.64965,-1.01113 11.05238,-3.0334 2.40265,-2.02225 3.60399,-4.39491 3.60404,-7.11797 -5e-5,-2.44272 -1.06124,-4.36487 -3.18357,-5.76646 -1.4817,-0.96105 -5.16582,-2.18242 -11.05238,-3.6641 -7.9289,-2.00221 -13.42505,-3.73415 -16.48846,-5.19582 -3.06344,-1.4616 -5.38604,-3.48387 -6.9678,-6.06679 -1.58178,-2.58286 -2.37267,-5.43605 -2.37266,-8.55959 -10e-6,-2.84313 0.65072,-5.47608 1.95219,-7.89884 1.30144,-2.42266 3.07343,-4.43491 5.31595,-6.03676 1.68187,-1.24133 3.97443,-2.29251 6.8777,-3.15354 2.90323,-0.8609 6.01671,-1.29138 9.34046,-1.29144 5.00557,6e-5 9.40049,0.72087 13.18477,2.16242 3.78419,1.44168 6.57731,3.39386 8.37938,5.85656 1.80196,2.46281 3.04335,5.7565 3.72417,9.88106 l -10.57184,1.44162 c -0.48058,-3.28363 -1.87214,-5.8465 -4.17467,-7.68861 -2.30262,-1.84201 -5.55626,-2.76304 -9.76094,-2.7631 -4.96558,6e-5 -8.50955,0.82098 -10.6319,2.46276 -2.1224,1.64189 -3.18358,3.56404 -3.18357,5.76646 -10e-6,1.40161 0.44048,2.66303 1.32148,3.78424 0.88097,1.16134 2.26252,2.12242 4.14464,2.88322 1.08119,0.40049 4.26475,1.32152 9.5507,2.7631 7.64853,2.04232 12.9845,3.71419 16.00793,5.01562 3.02333,1.30149 5.39599,3.1936 7.11797,5.67635 1.72187,2.48281 2.58283,5.56626 2.58289,9.25036 -6e-5,3.60405 -1.05123,6.99785 -3.15353,10.1814 -2.10241,3.18357 -5.1358,5.64633 -9.10019,7.38828 -3.96448,1.74195 -8.4495,2.61292 -13.45507,2.61292 -8.28931,0 -14.60637,-1.72192 -18.95122,-5.16578 -4.34488,-3.44385 -7.11798,-8.54956 -8.31932,-15.31715 z"
         style="text-align:center;text-anchor:middle"
         id="path3373"
         inkscape:connector-curvature="0" />
      <path
         d="m 378.14296,717.00641 0,-88.05861 33.03699,0 c 6.72749,8e-5 12.12353,0.89108 16.18813,2.67299 4.06449,1.78208 7.24805,4.52515 9.5507,8.22922 2.30251,3.70422 3.4538,7.57855 3.45387,11.62301 -7e-5,3.76428 -1.02122,7.30824 -3.06343,10.63191 -2.04236,3.32377 -5.12581,6.00677 -9.25036,8.04901 5.3259,1.5618 9.42048,4.22477 12.28375,7.98895 2.86313,3.76425 4.29474,8.20922 4.29481,13.33493 -7e-5,4.12464 -0.87105,7.95893 -2.61292,11.50288 -1.74203,3.54398 -3.89443,6.27704 -6.45723,8.19918 -2.56294,1.92216 -5.77653,3.37378 -9.6408,4.35488 -3.86438,0.9811 -8.59968,1.47165 -14.20591,1.47165 z m 11.65305,-51.05718 19.04132,0 c 5.16574,5e-5 8.86989,-0.34033 11.11245,-1.02114 2.96326,-0.88093 5.19576,-2.34257 6.6975,-4.38491 1.50162,-2.04223 2.25246,-4.6051 2.25252,-7.68861 -6e-5,-2.92321 -0.70085,-5.49609 -2.10236,-7.71865 -1.40162,-2.22241 -3.40386,-3.74411 -6.00672,-4.56511 -2.60297,-0.82084 -7.06796,-1.2313 -13.395,-1.23138 l -17.59971,0 z m 0,40.66554 21.92455,0 c 3.76417,10e-6 6.40713,-0.14014 7.92888,-0.42047 2.68295,-0.48053 4.92546,-1.28142 6.72753,-2.40269 1.80196,-1.12124 3.28362,-2.75307 4.44498,-4.89548 1.16124,-2.14238 1.74189,-4.61515 1.74195,-7.41831 -6e-5,-3.28365 -0.841,-6.13684 -2.52282,-8.55958 -1.68195,-2.42268 -4.01456,-4.12459 -6.99784,-5.10572 -2.98339,-0.98106 -7.2782,-1.47161 -12.88443,-1.47165 l -20.3628,0 z"
         style="text-align:center;text-anchor:middle"
         id="path3375"
         inkscape:connector-curvature="0" />
      <path
         d="m 501.04059,709.1376 c -4.00453,3.40381 -7.85884,5.8065 -11.56295,7.20807 -3.70418,1.40157 -7.67863,2.10235 -11.92335,2.10235 -7.00787,0 -12.39389,-1.71191 -16.15809,-5.13575 -3.76422,-3.42383 -5.64633,-7.79872 -5.64633,-13.1247 0,-3.12347 0.71079,-5.97667 2.13239,-8.55958 1.42159,-2.58287 3.28367,-4.65518 5.58626,-6.21696 2.30256,-1.56172 4.89546,-2.74304 7.77871,-3.54397 2.12235,-0.56059 5.32594,-1.1012 9.61076,-1.62182 8.72974,-1.04113 15.15693,-2.28252 19.28159,-3.72417 0.04,-1.48162 0.06,-2.42267 0.0601,-2.82316 -5e-5,-4.40489 -1.02119,-7.50836 -3.06343,-9.31043 -2.76314,-2.44268 -6.86773,-3.66404 -12.31379,-3.6641 -5.08572,6e-5 -8.83992,0.89105 -11.26261,2.67299 -2.42273,1.78205 -4.21474,4.93558 -5.37602,9.4606 l -10.57184,-1.44162 c 0.96107,-4.52501 2.54284,-8.1791 4.74531,-10.96227 2.20246,-2.78306 5.38602,-4.92546 9.5507,-6.4272 4.16464,-1.50162 8.99004,-2.25246 14.47621,-2.25252 5.44606,6e-5 9.87101,0.64078 13.27487,1.92215 3.40376,1.2815 5.90656,2.8933 7.5084,4.83542 1.60174,1.94223 2.72299,4.39497 3.36377,7.35824 0.36034,1.84211 0.54055,5.16583 0.54061,9.97116 l 0,14.41615 c -6e-5,10.05127 0.23019,16.40838 0.69077,19.07135 0.46045,2.66299 1.37147,5.21585 2.73306,7.65858 l -11.29265,0 c -1.1213,-2.24251 -1.84211,-4.86545 -2.16242,-7.86881 z m -0.90101,-24.14704 c -3.92444,1.60182 -9.81102,2.96334 -17.65977,4.08457 -4.44501,0.64074 -7.58852,1.36155 -9.43056,2.16242 -1.84209,0.80092 -3.26368,1.97223 -4.26478,3.51394 -1.00114,1.54174 -1.5017,3.25366 -1.50168,5.13575 -2e-5,2.88324 1.0912,5.28593 3.27367,7.20807 2.18242,1.92216 5.37599,2.88324 9.58072,2.88323 4.16463,1e-5 7.86878,-0.91101 11.11245,-2.73306 3.24359,-1.82203 5.62625,-4.31482 7.148,-7.47838 1.16126,-2.44271 1.7419,-6.04674 1.74195,-10.8121 z"
         style="text-align:center;text-anchor:middle"
         id="path3377"
         inkscape:connector-curvature="0" />
      <path
         d="m 523.56582,697.96509 10.69197,-1.68189 c 0.60066,4.28482 2.27253,7.56849 5.01562,9.85103 2.74305,2.28257 6.57734,3.42385 11.50288,3.42384 4.96552,10e-6 8.64965,-1.01113 11.05238,-3.0334 2.40264,-2.02225 3.60399,-4.39491 3.60403,-7.11797 -4e-5,-2.44272 -1.06123,-4.36487 -3.18356,-5.76646 -1.4817,-0.96105 -5.16582,-2.18242 -11.05238,-3.6641 -7.9289,-2.00221 -13.42505,-3.73415 -16.48846,-5.19582 -3.06345,-1.4616 -5.38604,-3.48387 -6.96781,-6.06679 -1.58177,-2.58286 -2.37266,-5.43605 -2.37265,-8.55959 -10e-6,-2.84313 0.65072,-5.47608 1.95218,-7.89884 1.30145,-2.42266 3.07343,-4.43491 5.31596,-6.03676 1.68186,-1.24133 3.97443,-2.29251 6.8777,-3.15354 2.90323,-0.8609 6.01671,-1.29138 9.34046,-1.29144 5.00557,6e-5 9.40049,0.72087 13.18476,2.16242 3.78419,1.44168 6.57732,3.39386 8.37939,5.85656 1.80196,2.46281 3.04335,5.7565 3.72417,9.88106 l -10.57184,1.44162 c -0.48058,-3.28363 -1.87214,-5.8465 -4.17468,-7.68861 -2.30261,-1.84201 -5.55625,-2.76304 -9.76093,-2.7631 -4.96558,6e-5 -8.50955,0.82098 -10.6319,2.46276 -2.1224,1.64189 -3.18359,3.56404 -3.18357,5.76646 -2e-5,1.40161 0.44048,2.66303 1.32148,3.78424 0.88097,1.16134 2.26251,2.12242 4.14464,2.88322 1.08119,0.40049 4.26475,1.32152 9.5507,2.7631 7.64852,2.04232 12.98449,3.71419 16.00792,5.01562 3.02334,1.30149 5.39599,3.1936 7.11797,5.67635 1.72188,2.48281 2.58284,5.56626 2.5829,9.25036 -6e-5,3.60405 -1.05124,6.99785 -3.15353,10.1814 -2.10241,3.18357 -5.1358,5.64633 -9.10019,7.38828 -3.96449,1.74195 -8.4495,2.61292 -13.45507,2.61292 -8.28931,0 -14.60638,-1.72192 -18.95123,-5.16578 -4.34487,-3.44385 -7.11797,-8.54956 -8.31931,-15.31715 z"
         style="text-align:center;text-anchor:middle"
         id="path3379"
         inkscape:connector-curvature="0" />
      <path
         d="m 589.45958,717.00641 0,-88.05861 10.81211,0 0,50.21623 25.58865,-25.94906 13.99568,0 -24.38731,23.6665 26.85006,40.12494 -13.33493,0 -21.08361,-32.61653 -7.62854,7.32821 0,25.28832 z"
         style="text-align:center;text-anchor:middle"
         id="path3381"
         inkscape:connector-curvature="0" />
      <path
         d="m 694.57733,696.4634 11.17251,1.38155 c -1.76204,6.52732 -5.02569,11.59299 -9.79097,15.19702 -4.76538,3.60404 -10.85219,5.40605 -18.26045,5.40605 -9.33047,0 -16.72875,-2.87321 -22.19485,-8.61965 -5.46613,-5.74642 -8.19919,-13.80544 -8.19918,-24.17707 -10e-6,-10.73198 2.76308,-19.0613 8.28928,-24.98799 5.52617,-5.92657 12.69419,-8.88989 21.50408,-8.88995 8.52951,6e-5 15.49731,2.90331 20.90341,8.70975 5.40599,5.80655 8.10902,13.97569 8.10908,24.50745 -6e-5,0.64074 -0.0201,1.60182 -0.0601,2.88322 l -47.57327,0 c 0.40043,7.00787 2.38265,12.37388 5.94666,16.09803 3.56396,3.72418 8.00894,5.58627 13.33493,5.58626 3.9644,10e-6 7.34819,-1.04116 10.15137,-3.1235 2.80309,-2.08232 5.02558,-5.40604 6.66747,-9.97117 z m -35.49976,-17.47957 35.61989,0 c -0.48059,-5.36597 -1.84211,-9.39047 -4.08457,-12.07352 -3.44391,-4.16461 -7.9089,-6.24694 -13.395,-6.247 -4.96559,6e-5 -9.14027,1.66192 -12.52403,4.98559 -3.38381,3.32377 -5.2559,7.76874 -5.61629,13.33493 z"
         style="text-align:center;text-anchor:middle"
         id="path3383"
         inkscape:connector-curvature="0" />
      <path
         d="m 742.99154,707.33558 1.56175,9.55069 c -3.04344,0.64072 -5.76648,0.96108 -8.16915,0.96108 -3.92441,0 -6.96782,-0.62069 -9.13022,-1.86208 -2.16244,-1.24139 -3.68414,-2.87322 -4.56511,-4.89549 -0.881,-2.02225 -1.32149,-6.27701 -1.32148,-12.76429 l 0,-36.7011 -7.92888,0 0,-8.40942 7.92888,0 0,-15.79769 10.75204,-6.48726 0,22.28495 10.87217,0 0,8.40942 -10.87217,0 0,37.30177 c -2e-5,3.08347 0.19019,5.06569 0.57064,5.94666 0.3804,0.881 1.0011,1.58178 1.86208,2.10236 0.86094,0.52059 2.09232,0.78088 3.69414,0.78087 1.20132,1e-5 2.78309,-0.14015 4.74531,-0.42047 z"
         style="text-align:center;text-anchor:middle"
         id="path3385"
         inkscape:connector-curvature="0" />
      <path
         d="m 763.4745,717.00641 -10.03123,0 0,-88.05861 10.8121,0 0,31.41518 c 4.56509,-5.72635 10.39161,-8.58956 17.47958,-8.58962 3.92435,6e-5 7.63851,0.79095 11.14248,2.37265 3.50387,1.58184 6.38709,3.80432 8.64968,6.66747 2.26248,2.86326 4.03446,6.31713 5.31595,10.3616 1.28138,4.04458 1.92209,8.36941 1.92216,12.97453 -7e-5,10.93227 -2.70309,19.38172 -8.10908,25.34839 -5.40611,5.96668 -11.89337,8.95002 -19.4618,8.95002 -7.52846,0 -13.43507,-3.14352 -17.71984,-9.43056 z m -0.12014,-32.37626 c -1e-5,7.64859 1.04115,13.17478 3.1235,16.57857 3.40379,5.56624 8.00894,8.34936 13.81547,8.34935 4.72526,10e-6 8.80983,-2.05229 12.25373,-6.1569 3.4438,-4.10458 5.16573,-10.22142 5.16578,-18.35055 -5e-5,-8.32928 -1.6519,-14.47616 -4.95555,-18.44065 -3.30374,-3.96438 -7.29821,-5.9466 -11.98342,-5.94666 -4.72532,6e-5 -8.80989,2.05236 -12.25372,6.1569 -3.44388,4.10464 -5.1658,10.04128 -5.16579,17.80994 z"
         style="text-align:center;text-anchor:middle"
         id="path3387"
         inkscape:connector-curvature="0" />
      <path
         d="m 863.60663,709.1376 c -4.00453,3.40381 -7.85884,5.8065 -11.56295,7.20807 -3.70418,1.40157 -7.67863,2.10235 -11.92335,2.10235 -7.00787,0 -12.39389,-1.71191 -16.15809,-5.13575 -3.76422,-3.42383 -5.64633,-7.79872 -5.64633,-13.1247 0,-3.12347 0.71079,-5.97667 2.13239,-8.55958 1.42159,-2.58287 3.28367,-4.65518 5.58626,-6.21696 2.30256,-1.56172 4.89546,-2.74304 7.77871,-3.54397 2.12235,-0.56059 5.32594,-1.1012 9.61076,-1.62182 8.72974,-1.04113 15.15693,-2.28252 19.28159,-3.72417 0.04,-1.48162 0.06,-2.42267 0.0601,-2.82316 -5e-5,-4.40489 -1.02119,-7.50836 -3.06343,-9.31043 -2.76314,-2.44268 -6.86773,-3.66404 -12.31379,-3.6641 -5.08572,6e-5 -8.83992,0.89105 -11.26261,2.67299 -2.42273,1.78205 -4.21474,4.93558 -5.37602,9.4606 L 820.178,671.41535 c 0.96107,-4.52501 2.54284,-8.1791 4.74531,-10.96227 2.20246,-2.78306 5.38602,-4.92546 9.5507,-6.4272 4.16464,-1.50162 8.99004,-2.25246 14.47621,-2.25252 5.44606,6e-5 9.87101,0.64078 13.27487,1.92215 3.40376,1.2815 5.90656,2.8933 7.5084,4.83542 1.60174,1.94223 2.72299,4.39497 3.36377,7.35824 0.36034,1.84211 0.54055,5.16583 0.54061,9.97116 l 0,14.41615 c -6e-5,10.05127 0.23019,16.40838 0.69077,19.07135 0.46045,2.66299 1.37147,5.21585 2.73306,7.65858 l -11.29265,0 c -1.1213,-2.24251 -1.84211,-4.86545 -2.16242,-7.86881 z m -0.90101,-24.14704 c -3.92444,1.60182 -9.81102,2.96334 -17.65977,4.08457 -4.44501,0.64074 -7.58852,1.36155 -9.43056,2.16242 -1.84209,0.80092 -3.26368,1.97223 -4.26478,3.51394 -1.00114,1.54174 -1.5017,3.25366 -1.50168,5.13575 -2e-5,2.88324 1.0912,5.28593 3.27367,7.20807 2.18242,1.92216 5.37599,2.88324 9.58072,2.88323 4.16463,1e-5 7.86878,-0.91101 11.11245,-2.73306 3.24359,-1.82203 5.62625,-4.31482 7.148,-7.47838 1.16126,-2.44271 1.7419,-6.04674 1.74195,-10.8121 z"
         style="text-align:center;text-anchor:middle"
         id="path3389"
         inkscape:connector-curvature="0" />
      <path
         d="m 890.21643,717.00641 0,-88.05861 10.81211,0 0,88.05861 z"
         style="text-align:center;text-anchor:middle"
         id="path3391"
         inkscape:connector-curvature="0" />
      <path
         d="m 917.60706,717.00641 0,-88.05861 10.81211,0 0,88.05861 z"
         style="text-align:center;text-anchor:middle"
         id="path3393"
         inkscape:connector-curvature="0" />
    </g>
    <g
       transform="scale(1.0109143,0.98920353)"
       style="font-size:162.36959839px;font-style:normal;font-variant:normal;font-weight:normal;font-stretch:normal;line-height:125%;letter-spacing:0px;word-spacing:0px;fill:#ffffff;fill-opacity:1;stroke:#000000;stroke-width:4.00000048;stroke-miterlimit:4;stroke-opacity:1;display:inline;font-family:Arial;-inkscape-font-specification:Arial"
       id="text3759-1-8">
      <path
         d="m 10.972601,595.49127 0,-136.05151 51.04252,0 c 10.394037,1.3e-4 18.730974,1.37673 25.010834,4.1298 6.279681,2.75333 11.198318,6.9914 14.755925,12.71423 3.5574,5.72306 5.33616,11.70895 5.33627,17.95768 -1.1e-4,5.81585 -1.57779,11.29132 -4.73304,16.42642 -3.155455,5.13526 -7.919418,9.28053 -14.291902,12.43581 8.228573,2.41299 14.554742,6.52732 18.978532,12.34301 4.42358,5.81581 6.63542,12.68334 6.63553,20.60262 -1.1e-4,6.37261 -1.34578,12.29663 -4.037,17.77207 -2.69144,5.47549 -6.01693,9.69809 -9.97649,12.66783 -3.95976,2.96975 -8.9248,5.21253 -14.895135,6.72833 -5.97051,1.51581 -13.286597,2.27371 -21.948283,2.27371 z m 18.004089,-78.88389 29.419052,0 c 7.981125,8e-5 13.704068,-0.52582 17.168847,-1.57768 4.578277,-1.36105 8.02751,-3.61929 10.347711,-6.77473 2.320024,-3.15527 3.48008,-7.11493 3.480172,-11.87899 -9.2e-5,-4.51639 -1.082811,-8.49151 -3.24816,-11.92539 -2.165527,-3.43365 -5.25901,-5.7847 -9.280458,-7.05315 -4.021608,-1.26821 -10.920075,-1.90237 -20.695422,-1.90249 l -27.191742,0 z m 0,62.8287 33.873672,0 c 5.815682,2e-5 9.899079,-0.21653 12.250205,-0.64963 4.145189,-0.74242 7.60989,-1.97981 10.394113,-3.71219 2.784046,-1.73233 5.073223,-4.25351 6.867539,-7.56357 1.794124,-3.31 2.691234,-7.13045 2.691332,-11.46136 -9.8e-5,-5.07328 -1.29936,-9.48149 -3.897792,-13.22466 -2.59862,-3.74306 -6.202527,-6.37252 -10.811734,-7.88839 -4.609373,-1.51574 -11.244893,-2.27365 -19.906582,-2.27371 l -31.460753,0 z"
         style="font-size:190.06378174px"
         id="path3396"
         inkscape:connector-curvature="0" />
      <path
         d="m 136.16598,595.49127 0,-136.05151 16.70482,0 0,136.05151 z"
         style="font-size:190.06378174px"
         id="path3398"
         inkscape:connector-curvature="0" />
      <path
         d="m 243.44808,595.49127 0,-14.47751 c -7.67192,11.13655 -18.09695,16.70482 -31.27514,16.70482 -5.8158,0 -11.24486,-1.11365 -16.28721,-3.34096 -5.04241,-2.22731 -8.78552,-5.02691 -11.22935,-8.39882 -2.44387,-3.37188 -4.16076,-7.50168 -5.15066,-12.38941 -0.68058,-3.27907 -1.02086,-8.47612 -1.02085,-15.59117 l 0,-61.06541 16.70483,0 0,54.6619 c -3e-5,8.72366 0.34025,14.60128 1.02085,17.63287 1.05175,4.39277 3.27906,7.842 6.68193,10.34771 3.40279,2.50573 7.60993,3.75859 12.62142,3.75858 5.01139,10e-6 9.71349,-1.28378 14.1063,-3.85139 4.39268,-2.56757 7.50163,-6.06321 9.32686,-10.48692 1.82508,-4.42365 2.73766,-10.84263 2.73773,-19.25695 l 0,-52.8058 16.70483,0 0,98.55846 z"
         style="font-size:190.06378174px"
         id="path3400"
         inkscape:connector-curvature="0" />
      <path
         d="m 352.12225,563.75211 17.26165,2.1345 c -2.72236,10.08478 -7.76474,17.9113 -15.12715,23.47956 -7.36257,5.56828 -16.76676,8.35241 -28.21259,8.35241 -14.41568,0 -25.8461,-4.43915 -34.29129,-13.31746 -8.44523,-8.87828 -12.66783,-21.32955 -12.66783,-37.35384 0,-16.58102 4.269,-29.44991 12.80703,-38.6067 8.538,-9.15663 19.61267,-13.73498 33.22404,-13.73508 13.17819,1e-4 23.94351,4.48565 32.296,13.45666 8.35232,8.97119 12.52852,21.5926 12.52862,37.86427 -10e-5,0.98996 -0.031,2.47484 -0.0928,4.45462 l -73.50123,0 c 0.61868,10.82724 3.68122,19.11777 9.18766,24.87163 5.50636,5.7539 12.3739,8.63084 20.60261,8.63082 6.12505,2e-5 11.35303,-1.6086 15.68398,-4.82583 4.33081,-3.21721 7.76457,-8.35239 10.30131,-15.40556 z m -54.84751,-27.00614 55.03312,0 c -0.74252,-8.29047 -2.84609,-14.50837 -6.31072,-18.65372 -5.32086,-6.43437 -12.21933,-9.65159 -20.69542,-9.65167 -7.67189,8e-5 -14.1218,2.56767 -19.34975,7.70278 -5.22802,5.13526 -8.12043,12.00279 -8.67723,20.60261 z"
         style="font-size:190.06378174px"
         id="path3402"
         inkscape:connector-curvature="0" />
      <path
         d="m 445.29805,595.49127 0,-136.05151 46.86631,0 c 10.57965,1.3e-4 18.65364,0.64976 24.22199,1.94889 7.7955,1.79436 14.44648,5.04251 19.95299,9.74448 7.17677,6.06335 12.54397,13.81253 16.10159,23.24755 3.55739,9.43523 5.33614,20.21601 5.33627,32.3424 -1.3e-4,10.3323 -1.20659,19.48901 -3.61938,27.47015 -2.41304,7.98123 -5.50652,14.58582 -9.28046,19.81378 -3.77416,5.22801 -7.90396,9.34234 -12.38941,12.34301 -4.48565,3.00069 -9.89925,5.2744 -16.2408,6.82114 -6.34173,1.54674 -13.62688,2.32011 -21.85548,2.32011 z m 18.00408,-16.05519 29.04784,0 c 8.97104,2e-5 16.00871,-0.83522 21.11304,-2.50572 5.10416,-1.67047 9.17209,-4.02151 12.2038,-7.05315 4.26891,-4.26898 7.59441,-10.00739 9.9765,-17.21525 2.38187,-7.20777 3.57286,-15.94686 3.57297,-26.2173 -1.1e-4,-14.22995 -2.33569,-25.16541 -7.00674,-32.80642 -4.67127,-7.6408 -10.34781,-12.76051 -17.02964,-15.35915 -4.82592,-1.85598 -12.59057,-2.78402 -23.29395,-2.78414 l -28.58382,0 z"
         style="font-size:190.06378174px"
         id="path3404"
         inkscape:connector-curvature="0" />
      <path
         d="m 647.98324,563.75211 17.26165,2.1345 c -2.72236,10.08478 -7.76474,17.9113 -15.12715,23.47956 -7.36257,5.56828 -16.76675,8.35241 -28.21259,8.35241 -14.41568,0 -25.8461,-4.43915 -34.29129,-13.31746 -8.44523,-8.87828 -12.66783,-21.32955 -12.66783,-37.35384 0,-16.58102 4.269,-29.44991 12.80704,-38.6067 8.53799,-9.15663 19.61266,-13.73498 33.22404,-13.73508 13.17818,1e-4 23.9435,4.48565 32.29599,13.45666 8.35232,8.97119 12.52852,21.5926 12.52862,37.86427 -1e-4,0.98996 -0.031,2.47484 -0.0928,4.45462 l -73.50122,0 c 0.61867,10.82724 3.68122,19.11777 9.18765,24.87163 5.50637,5.7539 12.3739,8.63084 20.60262,8.63082 6.12504,2e-5 11.35303,-1.6086 15.68397,-4.82583 4.33081,-3.21721 7.76457,-8.35239 10.30131,-15.40556 z m -54.84751,-27.00614 55.03312,0 c -0.74252,-8.29047 -2.84609,-14.50837 -6.31071,-18.65372 -5.32087,-6.43437 -12.21933,-9.65159 -20.69542,-9.65167 -7.6719,8e-5 -14.12181,2.56767 -19.34976,7.70278 -5.22802,5.13526 -8.12043,12.00279 -8.67723,20.60261 z"
         style="font-size:190.06378174px"
         id="path3406"
         inkscape:connector-curvature="0" />
      <path
         d="m 713.6889,595.49127 -37.49305,-98.55846 17.63287,0 21.15945,59.02371 c 2.28913,6.37261 4.3927,12.99267 6.31071,19.86018 1.48482,-5.19703 3.55746,-11.44587 6.2179,-18.74652 l 21.90189,-60.13737 17.16884,0 -37.30744,98.55846 z"
         style="font-size:190.06378174px"
         id="path3408"
         inkscape:connector-curvature="0" />
      <path
         d="m 781.43628,478.6503 0,-19.21054 16.70482,0 0,19.21054 z m 0,116.84097 0,-98.55846 16.70482,0 0,98.55846 z"
         style="font-size:190.06378174px"
         id="path3410"
         inkscape:connector-curvature="0" />
      <path
         d="m 823.2911,595.49127 0,-136.05151 16.70483,0 0,136.05151 z"
         style="font-size:190.06378174px"
         id="path3412"
         inkscape:connector-curvature="0" />
      <path
         d="m 859.2993,566.07222 16.51921,-2.59853 c 0.92803,6.62009 3.51108,11.6934 7.74919,15.21995 4.23804,3.52659 10.16206,5.28988 17.77207,5.28986 7.67179,2e-5 13.3638,-1.56219 17.07605,-4.68663 3.71211,-3.1244 5.5682,-6.79018 5.56827,-10.99734 -7e-5,-3.77402 -1.63962,-6.74377 -4.91864,-8.90924 -2.28924,-1.48484 -7.98125,-3.37186 -17.07604,-5.66108 -12.25025,-3.09344 -20.74186,-5.7693 -25.47486,-8.0276 -4.73305,-2.25819 -8.32149,-5.38261 -10.76533,-9.37326 -2.44387,-3.99053 -3.66579,-8.39875 -3.66578,-13.22465 -10e-6,-4.39267 1.00537,-8.4606 3.01614,-12.2038 2.01076,-3.74303 4.74849,-6.85198 8.21321,-9.32686 2.59851,-1.91787 6.14054,-3.54195 10.62612,-4.87224 4.48552,-1.3301 9.29589,-1.9952 14.43112,-1.9953 7.73366,1e-4 14.52385,1.11375 20.3706,3.34096 5.84662,2.22741 10.16203,5.24355 12.94624,9.04845 2.78406,3.80507 4.70202,8.89385 5.75389,15.26635 l -16.33361,2.22731 c -0.7425,-5.07324 -2.89247,-9.0329 -6.44992,-11.87898 -3.55757,-2.84593 -8.58448,-4.26893 -15.08074,-4.26901 -7.67189,8e-5 -13.14735,1.26841 -16.42641,3.80498 -3.27913,2.53674 -4.91867,5.50649 -4.91865,8.90924 -2e-5,2.16552 0.68054,4.11441 2.0417,5.84669 1.36111,1.79429 3.49561,3.27916 6.40352,4.45462 1.67045,0.61876 6.58909,2.04176 14.75593,4.26901 11.81705,3.15541 20.06119,5.73847 24.73242,7.74918 4.67109,2.01082 8.33686,4.93416 10.99734,8.77004 2.66031,3.83596 3.99051,8.59992 3.9906,14.2919 -9e-5,5.5683 -1.62417,10.81175 -4.87224,15.73038 -3.24824,4.91865 -7.93487,8.72363 -14.0599,11.41496 -6.12516,2.69133 -13.05456,4.037 -20.78822,4.037 -12.80707,0 -22.56701,-2.6604 -29.27985,-7.98119 -6.71287,-5.32079 -10.99735,-13.20917 -12.85343,-23.66517 z"
         style="font-size:190.06378174px"
         id="path3414"
         inkscape:connector-curvature="0" />
    </g>
  </g>
</svg>
