<?xml version="1.0" encoding="UTF-8" standalone="no"?>
<!-- Created with Inkscape (http://www.inkscape.org/) -->

<svg
   xmlns:dc="http://purl.org/dc/elements/1.1/"
   xmlns:cc="http://creativecommons.org/ns#"
   xmlns:rdf="http://www.w3.org/1999/02/22-rdf-syntax-ns#"
   xmlns:svg="http://www.w3.org/2000/svg"
   xmlns="http://www.w3.org/2000/svg"
   xmlns:sodipodi="http://sodipodi.sourceforge.net/DTD/sodipodi-0.dtd"
   xmlns:inkscape="http://www.inkscape.org/namespaces/inkscape"
   width="960"
   height="960"
   id="svg2"
   version="1.1"
   inkscape:version="0.48.4 r9939"
   sodipodi:docname="beer.svg">
  <defs
     id="defs4" />
  <sodipodi:namedview
     id="base"
     pagecolor="#ffffff"
     bordercolor="#666666"
     borderopacity="1.0"
     inkscape:pageopacity="0.0"
     inkscape:pageshadow="2"
     inkscape:zoom="0.35"
     inkscape:cx="-311.42857"
     inkscape:cy="520.00001"
     inkscape:document-units="px"
     inkscape:current-layer="layer5"
     showgrid="false"
     fit-margin-top="0"
     fit-margin-left="0"
     fit-margin-right="0"
     fit-margin-bottom="0"
     inkscape:window-width="1600"
     inkscape:window-height="847"
     inkscape:window-x="-8"
     inkscape:window-y="-8"
     inkscape:window-maximized="1" />
  <metadata
     id="metadata7">
    <rdf:RDF>
      <cc:Work
         rdf:about="">
        <dc:format>image/svg+xml</dc:format>
        <dc:type
           rdf:resource="http://purl.org/dc/dcmitype/StillImage" />
        <dc:title />
      </cc:Work>
    </rdf:RDF>
  </metadata>
  <g
     inkscape:label="Layer 1"
     inkscape:groupmode="layer"
     id="layer1"
     transform="translate(1.2218952e-5,-92.36217)"
     style="display:inline">
    <rect
       style="fill:#bb0000;fill-opacity:1;stroke:#ffffff;stroke-width:1.10000002;stroke-miterlimit:4;stroke-opacity:1;stroke-dasharray:none"
       id="rect2985"
       width="958.90002"
       height="958.90002"
       x="0.54997557"
       y="92.91217" />
    <g
       transform="scale(0.9983607,1.001642)"
       style="font-size:716.8694458px;font-style:normal;font-variant:normal;font-weight:normal;font-stretch:normal;line-height:125%;letter-spacing:0px;word-spacing:0px;fill:#666666;fill-opacity:1;stroke:#000000;stroke-width:4;stroke-miterlimit:4;stroke-opacity:1;font-family:FontAwesome;-inkscape-font-specification:FontAwesome"
       id="text3800">
      <path
         d="m 502.87273,758.66654 c -2.83393,2.6e-4 -8.26792,2.6e-4 -16.30195,0 -8.03452,2.6e-4 -19.66924,2.6e-4 -34.90418,0 -14.56028,-0.35812 -26.64506,-5.34205 -36.25436,-14.95179 -9.60964,-9.6092 -14.59356,-21.69397 -14.95177,-36.25434 -1.5e-4,-1.06649 -1.5e-4,-11.73442 0,-32.00383 -1.5e-4,-20.26874 -1.5e-4,-43.73819 0,-70.40843 l 102.41226,0 0,153.61839 z m 409.64906,179.22147 -51.20613,-76.8092 0,-320.03833 25.60307,-12.80153 -12.80154,-76.8092 -384.04599,0 -12.80153,51.20613 -192.023,0 -12.80153,51.20613 25.60306,25.60307 0,128.01533 c 1.10009,43.50548 16.10187,79.70978 45.00539,108.61301 28.90333,28.90362 65.10763,43.90541 108.61301,45.00539 3.78358,1.5e-4 12.31793,1.5e-4 25.60307,0 13.28468,1.5e-4 21.81902,1.5e-4 25.60306,0 l -51.20613,76.8092 0,76.80919 460.85519,0 z"
         id="path3300"
         inkscape:connector-curvature="0" />
    </g>
    <path
       style="fill:#666666;fill-opacity:1;fill-rule:evenodd;stroke:#010101;stroke-width:4;stroke-miterlimit:4;stroke-dasharray:none"
       inkscape:connector-curvature="0"
       id="svg_2"
       d="m 671.09523,297.9336 -1,0 0,1 -1,0 0,0 0,1 0,0 0,0 -1,0 0,0 0,1 -1,0 0,0 0,1 -2,0 -1,0 0,-1 1,-1 0,-1 0,-1 1,0 0,0 0,-1 1,0 0,0 0,-1 0,0 0,0 1,-1 1,-1 0,0 0,0 0,-1 q 0,0 3,-2 2,-3 10,-7 8,-4 17,-4 10,0 16,3 7,3 15,9 7,6 14,15 7,9 10,19 3,11 3,22 0,12 -3,21.99999 -3,11 -11,22 -6,11 -14,18 -8,7 -21,14 -13,8 -30,12 -17,6 -37,8 -19,2 -44,0 -26,0 -54,-6 -28,-6 -52,-14 -24,-8 -42,-18 -17,-10 -26,-18 -10,-8 -12,-9 -2,-1 -6,2 -3,3 -16,13 -13,10 -31,18 -18,8 -43,16 -24,8 -54,13 -30,5 -50,6 -19,1 -28,-1 -9,0 -28,-5 -20,-5 -34,-11 -13,-6 -22.000004,-12 -9,-8 -16,-17 -8,-10 -12,-22 -4,-12 -5,-24.99999 -1,-12 1,-20 2,-7 6,-17 6,-10 9,-13 4,-4 4,-5 0,-1 2,-2 2,-1 11,-6 9.000004,-5 20.000004,-5 12,0 20,3 l 8,3 0,1 0,0 1,0 0,1 0,0 1,0 0,0 0,0 1,1 1,1 0,0 0,0 1,0 0,0 0,1 1,0 0,1 0,1 -2,0 -3,-1 -1,0 -1,0 0,-1 -1,0 0,0 0,-1 -4,0 q -3,-2 -11,-1 -8,1 -14,5 -5,5 -9,12 -4,7 -4,20 0,14 4,19 3,5 8,8 5,3 14,3 10,0 24,-6 15,-6 38,-19 24,-13 47,-27 24,-14 41,-22 18,-8 30,-10 13,-4 29,-3 16,1 31,5 15,6 26,13 12,7 13,8 1,1 12,-7 11,-8 26,-12 15,-6 22,-6 7,-2 25,-1 18,1 32,4 13,3 32,13 19,10 55,34 36,24 49,28 12,6 23,6 11,0 19,-4 8,-4 12,-8 4,-5 4,-17 0,-12 -4,-19 -4,-7 -9,-12 -5,-4 -9,-6 -5,-2 -12,-2 -6,0 -10,3 -3,3 -4,3 z" />
  </g>
  <g
     inkscape:groupmode="layer"
     id="layer4"
     inkscape:label="Text"
     style="display:none">
    <text
       xml:space="preserve"
       style="font-size:150.67648315px;font-style:normal;font-variant:normal;font-weight:normal;font-stretch:normal;line-height:125%;letter-spacing:0px;word-spacing:0px;fill:#ffffff;fill-opacity:1;stroke:#000000;stroke-width:4;stroke-miterlimit:4;stroke-opacity:1;stroke-dasharray:none;font-family:Arial;-inkscape-font-specification:Arial"
       x="8.7703104"
       y="138.8808"
       id="text3755"
       sodipodi:linespacing="125%"
       transform="scale(1.0000721,0.99992791)"><tspan
         sodipodi:role="line"
         id="tspan3757"
         x="8.7703104"
         y="138.8808"
         style="stroke:#000000;stroke-width:4;stroke-opacity:1">CHAMPIONS</tspan></text>
    <text
       xml:space="preserve"
       style="font-size:228.8407135px;font-style:normal;font-variant:normal;font-weight:normal;font-stretch:normal;line-height:125%;letter-spacing:0px;word-spacing:0px;fill:#ffffff;fill-opacity:1;stroke:#000000;stroke-width:4;stroke-miterlimit:4;stroke-opacity:1;stroke-dasharray:none;font-family:Arial;-inkscape-font-specification:Arial"
       x="16.509813"
       y="568.6922"
       id="text3759"
       sodipodi:linespacing="125%"
       transform="scale(1.0029094,0.99709904)"><tspan
         sodipodi:role="line"
         id="tspan3761"
         x="16.509813"
         y="568.6922"
         style="stroke-width:4">fuss over</tspan></text>
    <text
       xml:space="preserve"
       style="font-size:221.14602661px;font-style:normal;font-variant:normal;font-weight:normal;font-stretch:normal;line-height:125%;letter-spacing:0px;word-spacing:0px;fill:#ffffff;fill-opacity:1;stroke:#000000;stroke-width:3.99999976;stroke-miterlimit:4;stroke-opacity:1;stroke-dasharray:none;font-family:Arial;-inkscape-font-specification:Arial"
       x="0.15238681"
       y="846.57013"
       id="text3759-1"
       sodipodi:linespacing="125%"
       transform="scale(1.0038191,0.99619543)"><tspan
         sodipodi:role="line"
         id="tspan3761-7"
         x="0.15238681"
         y="846.57013"
         style="stroke:#000000;stroke-width:3.99999976;stroke-opacity:1">craft beer</tspan></text>
  </g>
  <g
     inkscape:groupmode="layer"
     id="layer5"
     inkscape:label="PathsFromText"
     style="display:inline">
    <g
       transform="scale(1.0000721,0.99992791)"
       style="font-size:150.67648315px;font-style:normal;font-variant:normal;font-weight:normal;font-stretch:normal;line-height:125%;letter-spacing:0px;word-spacing:0px;fill:#ffffff;fill-opacity:1;stroke:#000000;stroke-width:4;stroke-miterlimit:4;stroke-opacity:1;display:inline;font-family:Arial;-inkscape-font-specification:Arial"
       id="text3755-5">
      <path
         d="m 97.351602,101.06453 14.273068,3.60506 c -2.99205,11.72257 -8.3751,20.66162 -16.149167,26.81717 -7.774239,6.15557 -17.277345,9.23335 -28.509344,9.23335 -11.624502,0 -21.078559,-2.36658 -28.362199,-7.09975 -7.2837,-4.73315 -12.826157,-11.58765 -16.627386,-20.56351 -3.801255,-8.97581 -5.701876,-18.613798 -5.701868,-28.913993 -8e-6,-11.232002 2.145855,-21.029397 6.437593,-29.392214 4.291711,-8.362649 10.398223,-14.714402 18.319553,-19.055278 7.921266,-4.34067 16.639599,-6.511057 26.155025,-6.511166 10.790564,1.09e-4 19.864497,2.746813 27.221825,8.24012 7.357158,5.493509 12.482708,13.218614 15.376658,23.175338 l -14.052353,3.310762 c -2.501549,-7.84765 -6.131122,-13.561776 -10.88873,-17.142393 -4.75776,-3.580432 -10.741651,-5.370695 -17.95169,-5.370792 -8.289219,9.7e-5 -15.217289,1.986553 -20.784232,5.959372 -5.567018,3.973003 -9.478619,9.307004 -11.734814,16.00202 -2.256247,6.695166 -3.384357,13.598712 -3.384335,20.710659 -2.2e-5,9.172084 1.336543,17.179215 4.009701,24.021425 2.673106,6.84226 6.829948,11.95555 12.470539,15.33986 5.640514,3.38435 11.747026,5.07652 18.319553,5.07651 7.994814,1e-5 14.763477,-2.30526 20.306011,-6.91582 5.542378,-4.61052 9.294572,-11.45276 11.256592,-20.52673 z"
         style="stroke:#000000"
         id="path3596"
         inkscape:connector-curvature="0" />
      <path
         d="m 129.7235,138.8808 0,-107.857289 14.27306,0 0,44.290646 56.06225,0 0,-44.290646 14.27307,0 0,107.857289 -14.27307,0 0,-50.8386 -56.06225,0 0,50.8386 z"
         style="stroke:#000000"
         id="path3598"
         inkscape:connector-curvature="0" />
      <path
         d="m 226.32419,138.8808 41.42132,-107.857289 15.37665,0 44.1435,107.857289 -16.25952,0 -12.5809,-32.66619 -45.09994,0 -11.84517,32.66619 z m 31.12117,-44.290648 36.56553,0 -11.25659,-29.870435 c -3.43344,-9.073859 -5.98395,-16.529198 -7.65154,-22.366041 -1.3734,6.915905 -3.31081,13.782665 -5.81223,20.600301 z"
         style="stroke:#000000"
         id="path3600"
         inkscape:connector-curvature="0" />
      <path
         d="m 338.37511,138.8808 0,-107.857289 21.48317,0 25.52966,76.368259 c 2.35426,7.11203 4.07095,12.43377 5.15008,15.96523 1.22614,-3.92385 3.13902,-9.68702 5.73865,-17.28954 l 25.82395,-75.043949 19.20242,0 0,107.857289 -13.75805,0 0,-90.273461 -31.34189,90.273461 -12.87519,0 -31.19474,-91.818484 0,91.818484 z"
         style="stroke:#000000"
         id="path3602"
         inkscape:connector-curvature="0" />
      <path
         d="m 464.47838,138.8808 0,-107.857289 40.6856,0 c 7.16099,1.08e-4 12.62988,0.343446 16.40667,1.030015 5.29714,0.882976 9.73601,2.56288 13.31662,5.039716 3.58044,2.477041 6.46203,5.947207 8.64477,10.410509 2.18255,4.463486 3.27388,9.368314 3.27397,14.714501 -9e-5,9.172106 -2.91846,16.933997 -8.75512,23.285696 -5.83684,6.351807 -16.38222,9.527683 -31.63618,9.527639 l -27.66326,0 0,43.849213 z m 14.27307,-56.577255 27.88398,0 c 9.22102,5.6e-5 15.76897,-1.716634 19.64386,-5.150075 3.87474,-3.433319 5.81214,-8.264575 5.81222,-14.493783 -8e-5,-4.512366 -1.14045,-8.374919 -3.42112,-11.587669 -2.28082,-3.212575 -5.28503,-5.333913 -9.01263,-6.364022 -2.40343,-0.637533 -6.8423,-0.956347 -13.31662,-0.956442 l -27.58969,0 z"
         style="stroke:#000000"
         id="path3604"
         inkscape:connector-curvature="0" />
      <path
         d="m 567.55343,138.8808 0,-107.857289 14.27307,0 0,107.857289 z"
         style="stroke:#000000"
         id="path3606"
         inkscape:connector-curvature="0" />
      <path
         d="m 602.57395,86.350032 c -10e-6,-17.902571 4.80672,-31.918119 14.42021,-42.046684 9.61344,-10.128377 22.02266,-15.192612 37.22768,-15.192722 9.95675,1.1e-4 18.93258,2.378952 26.92754,7.136533 7.99478,4.757786 14.08903,11.391567 18.28276,19.901361 4.19353,8.509961 6.29034,18.160211 6.29045,28.95078 -1.1e-4,10.937821 -2.20728,20.72295 -6.62152,29.35543 -4.41445,8.63252 -10.66811,15.1682 -18.76099,19.60707 -8.09305,4.43887 -16.82365,6.65831 -26.19181,6.65831 -10.15305,0 -19.22699,-2.45242 -27.22183,-7.35725 -7.9949,-4.90482 -14.05236,-11.59991 -18.1724,-20.08529 -4.12007,-8.48533 -6.1801,-17.461166 -6.18009,-26.927538 z m 14.7145,0.220718 c -3e-5,12.997848 3.49467,23.23668 10.48408,30.71652 6.98935,7.47988 15.75673,11.21982 26.30217,11.21981 10.74151,1e-5 19.58247,-3.77671 26.52288,-11.33017 6.94025,-7.55341 10.41042,-18.270464 10.41051,-32.151183 -9e-5,-8.779589 -1.4838,-16.443384 -4.45113,-22.991407 -2.96752,-6.547869 -7.30829,-11.624366 -13.02234,-15.229507 -5.7142,-3.604957 -12.12726,-5.407482 -19.2392,-5.407579 -10.10401,9.7e-5 -18.79782,3.470263 -26.08146,10.410509 -7.2837,6.940419 -10.92554,18.528077 -10.92551,34.763007 z"
         style="stroke:#000000"
         id="path3608"
         inkscape:connector-curvature="0" />
      <path
         d="m 723.89502,138.8808 0,-107.857289 14.64093,0 56.65082,84.681949 0,-84.681949 13.68449,0 0,107.857289 -14.64093,0 -56.65082,-84.755523 0,84.755523 z"
         style="stroke:#000000"
         id="path3610"
         inkscape:connector-curvature="0" />
      <path
         d="m 828.07365,104.22815 13.46377,-1.17716 c 0.6376,5.39535 2.12131,9.82196 4.45113,13.27984 2.32977,3.45792 5.94708,6.25368 10.85195,8.38726 4.90479,2.13362 10.42272,3.20042 16.55381,3.20041 5.44431,1e-5 10.25104,-0.80929 14.42021,-2.4279 4.16904,-1.61858 7.27134,-3.83801 9.30692,-6.65831 2.03543,-2.82025 3.05318,-5.89803 3.05326,-9.23335 -8e-5,-3.3843 -0.98104,-6.33946 -2.9429,-8.86548 -1.96201,-2.525952 -5.19919,-4.647291 -9.71157,-6.364025 -2.89392,-1.128066 -9.29472,-2.881542 -19.20242,-5.260434 -9.9078,-2.378792 -16.84814,-4.622751 -20.82102,-6.731884 -5.1501,-2.697599 -8.98813,-6.045145 -11.5141,-10.042646 -2.526,-3.997369 -3.78899,-8.473025 -3.78898,-13.426982 -10e-6,-5.44428 1.54501,-10.533039 4.63507,-15.266294 3.09002,-4.733064 7.60246,-8.325851 13.53734,-10.778371 5.93481,-2.452309 12.5318,-3.678516 19.791,-3.678625 7.99482,1.09e-4 15.04551,1.287627 21.15209,3.862556 6.10645,2.575141 10.80282,6.364121 14.08914,11.366951 3.28615,5.00302 5.05189,10.668097 5.29722,16.995248 l -13.68449,1.030015 c -0.7358,-6.817635 -3.225,-11.967705 -7.46761,-15.450225 -4.24274,-3.482336 -10.50866,-5.223551 -18.79777,-5.223648 -8.63255,9.7e-5 -14.92299,1.581905 -18.87135,4.745427 -3.94841,3.163706 -5.92261,6.977211 -5.92258,11.440524 -3e-5,3.874895 1.39785,7.063034 4.19363,9.564425 2.74667,2.501534 9.91999,5.064307 21.51996,7.688326 11.59986,2.624147 19.55795,4.917155 23.87427,6.879029 6.27811,2.893906 10.91317,6.560265 13.90521,10.999089 2.99185,4.438916 4.48783,9.552204 4.48792,15.339864 -9e-5,5.73868 -1.64321,11.14626 -4.92936,16.22274 -3.28632,5.07651 -8.00722,9.0249 -14.16271,11.84517 -6.15563,2.82028 -13.0837,4.23042 -20.78423,4.23042 -9.76066,0 -17.93946,-1.4224 -24.53643,-4.2672 -6.59702,-2.8448 -11.77161,-7.12427 -15.5238,-12.83841 -3.7522,-5.71411 -5.7264,-12.17622 -5.92258,-19.38635 z"
         style="stroke:#000000"
         id="path3612"
         inkscape:connector-curvature="0" />
    </g>
    <g
       transform="scale(1.0029094,0.99709904)"
       style="font-size:228.8407135px;font-style:normal;font-variant:normal;font-weight:normal;font-stretch:normal;line-height:125%;letter-spacing:0px;word-spacing:0px;fill:#ffffff;fill-opacity:1;stroke:#000000;stroke-width:4;stroke-miterlimit:4;stroke-opacity:1;display:inline;font-family:Arial;-inkscape-font-specification:Arial"
       id="text3759-7">
      <path
         d="m 36.399289,568.6922 0,-103.02302 -17.766442,0 0,-15.6434 17.766442,0 0,-12.62647 c -2e-5,-7.97055 0.707658,-13.89269 2.123034,-17.76644 1.936779,-5.21432 5.344804,-9.44176 10.224085,-12.68234 4.879216,-3.24025 11.713889,-4.86046 20.504038,-4.86063 5.661366,1.7e-4 11.918723,0.6706 18.77209,2.0113 l -3.016943,17.54296 c -4.17164,-0.74477 -8.119734,-1.11724 -11.844294,-1.11738 -6.108429,1.4e-4 -10.428985,1.30376 -12.961682,3.91085 -2.532783,2.60738 -3.799153,7.48662 -3.799113,14.63776 l 0,10.95039 23.129896,0 0,15.6434 -23.129896,0 0,103.02302 z"
         id="path3615"
         inkscape:connector-curvature="0" />
      <path
         d="m 172.83216,568.6922 0,-17.43123 c -9.23715,13.40864 -21.78911,20.11295 -37.65592,20.11296 -7.00234,-10e-6 -13.53904,-1.34087 -19.61013,-4.02259 -6.07116,-2.68173 -10.57795,-6.05251 -13.52038,-10.11235 -2.942466,-4.05982 -5.009629,-9.03219 -6.201491,-14.91711 -0.819431,-3.94806 -1.229139,-10.20542 -1.229124,-18.77209 l 0,-73.52401 20.112955,0 0,65.81405 c -4e-5,10.50347 0.40967,17.58024 1.22912,21.23034 1.26634,5.28899 3.94806,9.44193 8.04518,12.45885 4.09704,3.01696 9.16252,4.52543 15.19646,4.52542 6.03382,10e-6 11.69524,-1.5457 16.98427,-4.63715 5.28888,-3.09142 9.03212,-7.30023 11.22973,-12.62647 2.19744,-5.32617 3.2962,-13.05475 3.29629,-23.18576 l 0,-63.57928 20.11295,0 0,118.66642 z"
         id="path3617"
         inkscape:connector-curvature="0" />
      <path
         d="m 214.39893,533.27105 19.88947,-3.12868 c 1.11736,7.97072 4.22742,14.07909 9.33018,18.32514 5.10269,4.24608 12.23533,6.36911 21.39795,6.3691 9.23699,1e-5 16.09028,-1.88092 20.5599,-5.6428 4.46947,-3.76185 6.70424,-8.17552 6.70432,-13.24103 -8e-5,-4.544 -1.97413,-8.11963 -5.92215,-10.72691 -2.75629,-1.78777 -9.60959,-4.05979 -20.5599,-6.81605 -14.74955,-3.72457 -24.97362,-6.94636 -30.67226,-9.6654 -5.69869,-2.71891 -10.01925,-6.48077 -12.96168,-11.2856 -2.94246,-4.80468 -4.41369,-10.11226 -4.41368,-15.92275 -1e-5,-5.28887 1.21049,-10.18674 3.63151,-14.69363 2.42099,-4.50669 5.71727,-8.24993 9.88887,-11.22973 3.12865,-2.30915 7.39334,-4.26458 12.79407,-5.86628 5.40066,-1.60147 11.19244,-2.40226 17.37536,-2.40238 9.31149,1.2e-4 17.48702,1.34098 24.52663,4.02259 7.03945,2.68184 12.23529,6.31334 15.58754,10.89451 3.35206,4.58139 5.66132,10.70839 6.92779,18.38101 l -19.666,2.68173 c -0.89399,-6.10829 -3.4826,-10.8758 -7.76583,-14.30255 -4.28339,-3.42655 -10.33589,-5.13987 -18.15753,-5.13997 -9.23711,10e-5 -15.82968,1.52719 -19.77774,4.58128 -3.94813,3.05429 -5.92217,6.62992 -5.92214,10.72691 -3e-5,2.60732 0.81938,4.95383 2.45825,7.03953 1.6388,2.16036 4.20878,3.94818 7.70996,5.36346 2.01125,0.745 7.9334,2.45832 17.76644,5.13997 14.22798,3.79918 24.15409,6.90924 29.77835,9.33018 5.62408,2.42106 10.03775,5.94082 13.24103,10.5593 3.20307,4.61858 4.80465,10.35449 4.80476,17.20775 -1.1e-4,6.70434 -1.95553,13.01757 -5.86628,18.93969 -3.91095,5.92216 -9.55374,10.50344 -16.9284,13.74386 -7.37483,3.24042 -15.71797,4.86062 -25.02946,4.86063 -15.41997,-10e-6 -27.17114,-3.20318 -35.25353,-9.60953 -8.08245,-6.40633 -13.24104,-15.9041 -15.4758,-28.49335 z"
         id="path3619"
         inkscape:connector-curvature="0" />
      <path
         d="m 328.81927,533.27105 19.88948,-3.12868 c 1.11736,7.97072 4.22741,14.07909 9.33018,18.32514 5.10269,4.24608 12.23533,6.36911 21.39794,6.3691 9.237,1e-5 16.09029,-1.88092 20.55991,-5.6428 4.46946,-3.76185 6.70423,-8.17552 6.70432,-13.24103 -9e-5,-4.544 -1.97413,-8.11963 -5.92215,-10.72691 -2.75629,-1.78777 -9.60959,-4.05979 -20.55991,-6.81605 -14.74954,-3.72457 -24.97361,-6.94636 -30.67225,-9.6654 -5.69869,-2.71891 -10.01925,-6.48077 -12.96168,-11.2856 -2.94246,-4.80468 -4.41369,-10.11226 -4.41368,-15.92275 -10e-6,-5.28887 1.21049,-10.18674 3.63151,-14.69363 2.42099,-4.50669 5.71727,-8.24993 9.88887,-11.22973 3.12865,-2.30915 7.39334,-4.26458 12.79407,-5.86628 5.40066,-1.60147 11.19244,-2.40226 17.37536,-2.40238 9.31149,1.2e-4 17.48702,1.34098 24.52663,4.02259 7.03945,2.68184 12.23529,6.31334 15.58754,10.89451 3.35206,4.58139 5.66132,10.70839 6.92779,18.38101 l -19.666,2.68173 c -0.89399,-6.10829 -3.4826,-10.8758 -7.76583,-14.30255 -4.28339,-3.42655 -10.33589,-5.13987 -18.15753,-5.13997 -9.23711,10e-5 -15.82968,1.52719 -19.77774,4.58128 -3.94813,3.05429 -5.92217,6.62992 -5.92214,10.72691 -3e-5,2.60732 0.81938,4.95383 2.45825,7.03953 1.63879,2.16036 4.20878,3.94818 7.70996,5.36346 2.01125,0.745 7.9334,2.45832 17.76644,5.13997 14.22798,3.79918 24.15409,6.90924 29.77835,9.33018 5.62408,2.42106 10.03775,5.94082 13.24103,10.5593 3.20307,4.61858 4.80465,10.35449 4.80476,17.20775 -1.1e-4,6.70434 -1.95553,13.01757 -5.86628,18.93969 -3.91095,5.92216 -9.55374,10.50344 -16.9284,13.74386 -7.37483,3.24042 -15.71797,4.86062 -25.02946,4.86063 -15.41997,-10e-6 -27.17114,-3.20318 -35.25353,-9.60953 -8.08245,-6.40633 -13.24104,-15.9041 -15.47581,-28.49335 z"
         id="path3621"
         inkscape:connector-curvature="0" />
      <path
         d="m 507.26588,509.35899 c -10e-6,-21.97519 6.10836,-38.25176 18.32513,-48.82978 10.20543,-8.78999 22.64565,-13.18504 37.3207,-13.18516 16.31376,1.2e-4 29.64789,5.34495 40.00243,16.03449 10.35434,10.68976 15.53155,25.45787 15.53167,44.30437 -1.2e-4,15.27099 -2.29075,27.28288 -6.87192,36.03571 -4.58139,8.75287 -11.24846,15.5503 -20.00122,20.3923 -8.75294,4.842 -18.30658,7.263 -28.66096,7.26301 -16.61185,-10e-6 -30.0391,-5.32621 -40.28177,-15.97863 -10.24272,-10.65239 -15.36407,-25.99781 -15.36406,-46.03631 z m 20.67164,0 c -2e-5,15.1965 3.31488,26.5752 9.94474,34.13615 6.62978,7.561 14.97292,11.34148 25.02945,11.34147 9.98192,1e-5 18.28781,-3.7991 24.91772,-11.39734 6.62973,-7.59819 9.94464,-19.18175 9.94474,-34.75071 -10e-5,-14.67494 -3.33363,-25.79292 -10.00061,-33.35399 -6.66715,-7.56088 -14.95443,-11.34136 -24.86185,-11.34147 -10.05653,1.1e-4 -18.39967,3.76197 -25.02945,11.28561 -6.62986,7.52382 -9.94476,18.8839 -9.94474,34.08028 z"
         id="path3623"
         inkscape:connector-curvature="0" />
      <path
         d="m 675.09728,568.6922 -45.14241,-118.66642 21.23034,0 25.47641,71.06576 c 2.75617,7.67276 5.28891,15.64344 7.59823,23.91207 1.78776,-6.25733 4.28325,-13.78106 7.48649,-22.5712 l 26.37031,-72.40663 20.67165,0 -44.91893,118.66642 z"
         id="path3625"
         inkscape:connector-curvature="0" />
      <path
         d="m 837.78872,530.47759 20.78338,2.56999 c -3.27778,12.14228 -9.3489,21.56557 -18.21339,28.26987 -8.86469,6.70432 -20.18753,10.05647 -33.96855,10.05648 -17.35678,-10e-6 -31.11924,-5.34483 -41.28742,-16.0345 -10.16823,-10.68963 -15.25233,-25.68122 -15.25232,-44.97479 -10e-6,-19.9639 5.13996,-35.4583 15.41993,-46.48327 10.27992,-11.02477 23.61405,-16.5372 40.00243,-16.53732 15.8668,1.2e-4 28.82847,5.40081 38.88504,16.2021 10.05636,10.80149 15.0846,25.99793 15.08471,45.58936 -1.1e-4,1.19194 -0.0374,2.97975 -0.11173,5.36345 l -88.497,0 c 0.7449,13.03622 4.43227,23.01819 11.06213,29.94596 6.62977,6.92781 14.89842,10.3917 24.80597,10.39169 7.37468,1e-5 13.66928,-1.93679 18.88383,-5.81041 5.21438,-3.87358 9.3487,-10.05645 12.40299,-18.54861 z m -66.03753,-32.51594 66.261,0 c -0.894,-9.98191 -3.42674,-17.46839 -7.59822,-22.45947 -6.40643,-7.74711 -14.71233,-11.62071 -24.91772,-11.62081 -9.23711,10e-5 -17.00294,3.09153 -23.2975,9.2743 -6.29465,6.18296 -9.77716,14.45161 -10.44756,24.80598 z"
         id="path3627"
         inkscape:connector-curvature="0" />
      <path
         d="m 883.71334,568.6922 0,-118.66642 18.10165,0 0,17.98991 c 4.6185,-8.41753 8.88318,-13.96721 12.79408,-16.64905 3.9108,-2.68161 8.21273,-4.02247 12.90581,-4.02259 6.77874,1.2e-4 13.66929,2.1604 20.67165,6.48084 l -6.9278,18.66035 c -4.91657,-2.90511 -9.83306,-4.35771 -14.7495,-4.35781 -4.3951,10e-5 -8.3432,1.32234 -11.84429,3.96672 -3.50119,2.64458 -5.99668,6.31333 -7.48649,11.00626 -2.23481,7.15135 -3.3522,14.97305 -3.35216,23.46511 l 0,62.12668 z"
         id="path3629"
         inkscape:connector-curvature="0" />
    </g>
    <g
       transform="scale(1.0038191,0.99619543)"
       style="font-size:221.14602661px;font-style:normal;font-variant:normal;font-weight:normal;font-stretch:normal;line-height:125%;letter-spacing:0px;word-spacing:0px;fill:#ffffff;fill-opacity:1;stroke:#000000;stroke-width:3.99999976;stroke-miterlimit:4;stroke-opacity:1;display:inline;font-family:Arial;-inkscape-font-specification:Arial"
       id="text3759-1-1">
      <path
         d="m 89.561034,804.56534 19.112716,2.48358 c -2.08775,13.17376 -7.43282,23.48598 -16.035244,30.93668 -8.602607,7.45073 -19.166782,11.17608 -31.692558,11.17608 -15.693351,0 -28.309172,-5.12911 -37.847501,-15.38735 C 13.560071,823.51611 8.7908948,808.81265 8.7909035,789.6639 c -8.7e-6,-12.3818 2.0516365,-23.21593 6.1549435,-32.50242 4.103276,-9.2863 10.348198,-16.2511 18.734783,-20.89441 8.386518,-4.64309 17.510942,-6.96469 27.373299,-6.9648 12.453788,1.1e-4 22.640029,3.14957 30.558753,9.44837 7.918541,6.29902 12.993668,15.24348 15.225388,26.8334 l -18.896758,2.9155 c -1.799777,-7.7026 -4.985226,-13.4976 -9.556359,-17.38502 -4.571288,-3.88723 -10.096334,-5.8309 -16.575153,-5.831 -9.790371,1e-4 -17.744997,3.5095 -23.863903,10.52819 -6.118981,7.01888 -9.178452,18.12296 -9.178424,33.31228 -2.8e-5,15.4054 2.951462,26.59947 8.85448,33.58224 5.902943,6.98281 13.605613,10.47421 23.108032,10.4742 7.630621,10e-6 14.001521,-2.33958 19.112718,-7.0188 5.111038,-4.67917 8.350478,-11.87792 9.718331,-21.59629 z"
         style="stroke:#000000"
         id="path3632"
         inkscape:connector-curvature="0" />
      <path
         d="m 125.08693,846.57013 0,-114.67631 17.493,0 0,17.38502 c 4.4632,-8.1345 8.58449,-13.49758 12.36388,-16.08924 3.7793,-2.59144 7.93658,-3.88722 12.47186,-3.88733 6.55081,1.1e-4 13.20966,2.08775 19.97657,6.26292 l -6.69485,18.0329 c -4.75125,-2.80742 -9.50243,-4.21118 -14.25356,-4.21127 -4.24732,9e-5 -8.06266,1.27787 -11.44603,3.83334 -3.38346,2.55565 -5.79505,6.10104 -7.23476,10.63617 -2.15966,6.91089 -3.23948,14.46959 -3.23944,22.67611 l 0,60.03769 z"
         style="stroke:#000000"
         id="path3634"
         inkscape:connector-curvature="0" />
      <path
         d="m 273.99336,832.42456 c -7.19884,6.11896 -14.12765,10.43821 -20.78643,12.95777 -6.65892,2.51957 -13.80368,3.77935 -21.43432,3.77935 -12.59787,0 -22.2802,-3.07747 -29.04701,-9.23241 -6.76685,-6.15493 -10.15027,-14.01957 -10.15026,-23.59395 -1e-5,-5.615 1.27777,-10.74411 3.83334,-15.38736 2.55555,-4.64315 5.90297,-8.36851 10.04228,-11.17608 4.13926,-2.80746 8.80046,-4.93109 13.9836,-6.3709 3.8153,-1.00777 9.57431,-1.9796 17.27703,-2.9155 15.69324,-1.87161 27.24724,-4.10323 34.66205,-6.69485 0.0719,-2.66347 0.10789,-4.35518 0.10798,-5.07513 -9e-5,-7.91856 -1.83577,-13.49759 -5.50705,-16.73713 -4.96723,-4.39115 -12.34595,-6.58677 -22.1362,-6.58687 -9.14248,1e-4 -15.89132,1.60183 -20.24653,4.80518 -4.35528,3.20354 -7.57673,8.87256 -9.66434,17.00708 l -19.00473,-2.59156 c 1.72769,-8.13451 4.5712,-14.70338 8.53053,-19.70661 3.9593,-5.00304 9.68231,-8.85437 17.16905,-11.55402 7.48667,-2.69942 16.16118,-4.04919 26.02354,-4.0493 9.79024,1.1e-4 17.74487,1.15191 23.8639,3.4554 6.11885,2.30372 10.61808,5.20122 13.49768,8.69251 2.8794,3.4915 4.89505,7.90074 6.04696,13.22773 0.64778,3.31152 0.97173,9.28649 0.97184,17.92492 l 0,25.91555 c -1.1e-4,18.06893 0.41382,29.49695 1.24178,34.28411 0.82775,4.78719 2.46547,9.3764 4.91316,13.76764 l -20.30052,0 c -2.01574,-4.0313 -3.31152,-8.74649 -3.88733,-14.14557 z m -1.61972,-43.40855 c -7.05487,2.87956 -17.63704,5.32714 -31.74655,7.34274 -7.99068,1.15185 -13.6417,2.44763 -16.95309,3.88733 -3.31147,1.4398 -5.86702,3.54544 -7.66668,6.31692 -1.79972,2.77156 -2.69957,5.84903 -2.69954,9.23241 -3e-5,5.18314 1.96163,9.50239 5.88499,12.95778 3.92329,3.45542 9.6643,5.18312 17.22304,5.18311 7.48666,1e-5 14.14551,-1.63771 19.97657,-4.91316 5.83092,-3.27541 10.11419,-7.75664 12.8498,-13.44369 2.08755,-4.39121 3.13137,-10.87009 3.13146,-19.43666 z"
         style="stroke:#000000"
         id="path3636"
         inkscape:connector-curvature="0" />
      <path
         d="m 326.90428,846.57013 0,-99.55891 -17.16906,0 0,-15.1174 17.16906,0 0,-12.2019 c -2e-5,-7.70255 0.68386,-13.42556 2.05164,-17.16906 1.87166,-5.03898 5.16509,-9.12428 9.88031,-12.25589 4.71515,-3.1313 11.32001,-4.69703 19.81459,-4.69719 5.47101,1.6e-4 11.51796,0.64804 18.14089,1.94366 l -2.9155,16.95309 c -4.03137,-0.71973 -7.84671,-1.07967 -11.44603,-1.07981 -5.90304,1.4e-4 -10.07832,1.25992 -12.52585,3.77935 -2.44762,2.5197 -3.67141,7.23489 -3.67137,14.14557 l 0,10.58218 22.35216,0 0,15.1174 -22.35216,0 0,99.55891 z"
         style="stroke:#000000"
         id="path3638"
         inkscape:connector-curvature="0" />
      <path
         d="m 426.03125,829.18511 2.80752,17.16906 c -5.47112,1.1518 -10.36627,1.7277 -14.68548,1.7277 -7.05483,0 -12.52588,-1.11581 -16.41318,-3.34743 -3.88736,-2.23161 -6.62289,-5.1651 -8.20659,-8.80048 -1.58375,-3.63537 -2.37561,-11.28404 -2.37559,-22.94606 l 0,-65.97668 -14.25356,0 0,-15.1174 14.25356,0 0,-28.39912 19.32868,-11.662 0,40.06112 19.54464,0 0,15.1174 -19.54464,0 0,67.05649 c -4e-5,5.54308 0.3419,9.10646 1.02582,10.69016 0.68384,1.58375 1.79965,2.84354 3.34743,3.77936 1.54769,0.93585 3.7613,1.40377 6.64086,1.40375 2.15957,2e-5 5.00308,-0.25194 8.53053,-0.75587 z"
         style="stroke:#000000"
         id="path3640"
         inkscape:connector-curvature="0" />
      <path
         d="m 524.18639,846.57013 -18.0329,0 0,-158.30082 19.43666,0 0,56.4743 c 8.20655,-10.29412 18.68074,-15.44123 31.4226,-15.44134 7.05472,1.1e-4 13.73157,1.42187 20.03057,4.26526 6.29882,2.84363 11.48193,6.83894 15.54933,11.98595 4.06719,5.14721 7.25264,11.35613 9.55635,18.6268 2.3035,7.27082 3.4553,15.04548 3.45541,23.32399 -1.1e-4,19.65267 -4.85927,34.84204 -14.5775,45.56818 -9.71842,10.72616 -21.3804,16.08923 -34.98599,16.08923 -13.53373,0 -24.15189,-5.65102 -31.85453,-16.95308 z m -0.21596,-58.20201 c -3e-5,13.74969 1.87164,23.68397 5.61503,29.80289 6.11891,10.0063 14.39748,15.00943 24.83574,15.00942 8.49447,10e-6 15.8372,-3.68935 22.02822,-11.0681 6.19084,-7.3787 9.28631,-18.3748 9.2864,-32.98834 -9e-5,-14.97335 -2.96958,-26.02344 -8.90847,-33.1503 -5.93906,-7.12668 -13.11982,-10.69007 -21.5423,-10.69017 -8.4946,1e-4 -15.83733,3.68947 -22.02822,11.0681 -6.19097,7.37882 -9.28643,18.05097 -9.2864,32.0165 z"
         style="stroke:#000000"
         id="path3642"
         inkscape:connector-curvature="0" />
      <path
         d="m 707.86284,809.64047 20.08455,2.48357 c -3.16757,11.73401 -9.03456,20.84044 -17.60098,27.31931 -8.56662,6.47889 -19.50873,9.71833 -32.82636,9.71833 -16.77317,0 -30.07287,-5.16511 -39.89915,-15.49533 -9.82633,-10.33021 -14.73948,-24.81771 -14.73947,-43.46254 -10e-6,-19.29261 4.96713,-34.26603 14.90144,-44.92029 9.93426,-10.65406 22.82004,-15.98114 38.65736,-15.98125 15.33329,1.1e-4 27.85913,5.21921 37.57755,15.65731 9.71822,10.4383 14.57738,25.12376 14.5775,44.05643 -1.2e-4,1.15186 -0.0361,2.87956 -0.10799,5.18311 l -85.52131,0 c 0.71985,12.59788 4.28323,22.24421 10.69016,28.93903 6.40686,6.69487 14.39748,10.04229 23.97189,10.04228 7.1267,10e-6 13.20965,-1.87166 18.24886,-5.61504 5.03905,-3.74333 9.03436,-9.7183 11.98595,-17.92492 z m -63.81705,-31.4226 64.03301,0 c -0.86395,-9.64627 -3.31152,-16.88102 -7.34274,-21.70428 -6.19102,-7.48661 -14.21763,-11.22997 -24.07987,-11.23007 -8.92652,1e-4 -16.43122,2.98759 -22.51413,8.96246 -6.08299,5.97506 -9.44841,13.96568 -10.09627,23.97189 z"
         style="stroke:#000000"
         id="path3644"
         inkscape:connector-curvature="0" />
      <path
         d="m 830.96171,809.64047 20.08455,2.48357 c -3.16756,11.73401 -9.03455,20.84044 -17.60097,27.31931 -8.56662,6.47889 -19.50873,9.71833 -32.82637,9.71833 -16.77316,0 -30.07287,-5.16511 -39.89915,-15.49533 -9.82632,-10.33021 -14.73947,-24.81771 -14.73946,-43.46254 -10e-6,-19.29261 4.96713,-34.26603 14.90144,-44.92029 9.93426,-10.65406 22.82003,-15.98114 38.65736,-15.98125 15.33329,1.1e-4 27.85913,5.21921 37.57755,15.65731 9.71822,10.4383 14.57738,25.12376 14.57749,44.05643 -1.1e-4,1.15186 -0.0361,2.87956 -0.10798,5.18311 l -85.52131,0 c 0.71984,12.59788 4.28323,22.24421 10.69016,28.93903 6.40686,6.69487 14.39748,10.04229 23.97188,10.04228 7.12671,10e-6 13.20966,-1.87166 18.24887,-5.61504 5.03905,-3.74333 9.03436,-9.7183 11.98594,-17.92492 z m -63.81704,-31.4226 64.03301,0 c -0.86395,-9.64627 -3.31153,-16.88102 -7.34274,-21.70428 -6.19102,-7.48661 -14.21763,-11.22997 -24.07987,-11.23007 -8.92652,1e-4 -16.43122,2.98759 -22.51413,8.96246 -6.08299,5.97506 -9.44841,13.96568 -10.09627,23.97189 z"
         style="stroke:#000000"
         id="path3646"
         inkscape:connector-curvature="0" />
      <path
         d="m 875.34211,846.57013 0,-114.67631 17.49299,0 0,17.38502 c 4.4632,-8.1345 8.58449,-13.49758 12.36388,-16.08924 3.7793,-2.59144 7.93659,-3.88722 12.47186,-3.88733 6.55081,1.1e-4 13.20966,2.08775 19.97657,6.26292 l -6.69485,18.0329 c -4.75125,-2.80742 -9.50243,-4.21118 -14.25355,-4.21127 -4.24733,9e-5 -8.06267,1.27787 -11.44604,3.83334 -3.38346,2.55565 -5.79504,6.10104 -7.23476,10.63617 -2.15966,6.91089 -3.23947,14.46959 -3.23944,22.67611 l 0,60.03769 z"
         style="stroke:#000000"
         id="path3648"
         inkscape:connector-curvature="0" />
    </g>
  </g>
</svg>
