<?xml version="1.0" encoding="UTF-8" standalone="no"?>
<!-- Created with Inkscape (http://www.inkscape.org/) -->

<svg
   xmlns:dc="http://purl.org/dc/elements/1.1/"
   xmlns:cc="http://creativecommons.org/ns#"
   xmlns:rdf="http://www.w3.org/1999/02/22-rdf-syntax-ns#"
   xmlns:svg="http://www.w3.org/2000/svg"
   xmlns="http://www.w3.org/2000/svg"
   xmlns:sodipodi="http://sodipodi.sourceforge.net/DTD/sodipodi-0.dtd"
   xmlns:inkscape="http://www.inkscape.org/namespaces/inkscape"
   width="960"
   height="960"
   id="svg2"
   version="1.1"
   inkscape:version="0.48.4 r9939"
   sodipodi:docname="beer.svg">
  <defs
     id="defs4" />
  <sodipodi:namedview
     id="base"
     pagecolor="#ffffff"
     bordercolor="#666666"
     borderopacity="1.0"
     inkscape:pageopacity="0.0"
     inkscape:pageshadow="2"
     inkscape:zoom="0.35"
     inkscape:cx="17.142854"
     inkscape:cy="520.00001"
     inkscape:document-units="px"
     inkscape:current-layer="layer1"
     showgrid="false"
     fit-margin-top="0"
     fit-margin-left="0"
     fit-margin-right="0"
     fit-margin-bottom="0"
     inkscape:window-width="1600"
     inkscape:window-height="847"
     inkscape:window-x="-8"
     inkscape:window-y="-8"
     inkscape:window-maximized="1" />
  <metadata
     id="metadata7">
    <rdf:RDF>
      <cc:Work
         rdf:about="">
        <dc:format>image/svg+xml</dc:format>
        <dc:type
           rdf:resource="http://purl.org/dc/dcmitype/StillImage" />
        <dc:title />
      </cc:Work>
    </rdf:RDF>
  </metadata>
  <g
     inkscape:label="Layer 1"
     inkscape:groupmode="layer"
     id="layer1"
     transform="translate(1.2218952e-5,-92.36217)">
    <rect
       style="fill:#bb0000;fill-opacity:1;stroke:#ffffff;stroke-width:1.10000002;stroke-miterlimit:4;stroke-opacity:1;stroke-dasharray:none"
       id="rect2985"
       width="958.90002"
       height="958.90002"
       x="0.54997557"
       y="92.91217" />
    <text
       xml:space="preserve"
       style="font-size:150.67648315px;font-style:normal;font-variant:normal;font-weight:normal;font-stretch:normal;line-height:125%;letter-spacing:0px;word-spacing:0px;fill:#ffffff;fill-opacity:1;stroke:#000000;stroke-width:4;stroke-miterlimit:4;stroke-opacity:1;stroke-dasharray:none;font-family:Arial;-inkscape-font-specification:Arial"
       x="8.770298"
       y="231.24963"
       id="text3755"
       sodipodi:linespacing="125%"
       transform="scale(1.0000721,0.99992791)"><tspan
         sodipodi:role="line"
         id="tspan3757"
         x="8.770298"
         y="231.24963"
         style="stroke:#000000;stroke-width:4;stroke-opacity:1">CHAMPIONS</tspan></text>
    <text
       xml:space="preserve"
       style="font-size:716.8694458px;font-style:normal;font-variant:normal;font-weight:normal;font-stretch:normal;line-height:125%;letter-spacing:0px;word-spacing:0px;fill:#666666;fill-opacity:1;stroke:#000000;stroke-width:4;stroke-miterlimit:4;stroke-opacity:1;stroke-dasharray:none;font-family:FontAwesome;-inkscape-font-specification:FontAwesome"
       x="246.84207"
       y="1014.6972"
       id="text3800"
       sodipodi:linespacing="125%"
       transform="scale(0.9983607,1.001642)"><tspan
         sodipodi:role="line"
         id="tspan3802"
         x="246.84207"
         y="1014.6972"
         style="stroke-width:4"></tspan></text>
    <text
       xml:space="preserve"
       style="font-size:228.8407135px;font-style:normal;font-variant:normal;font-weight:normal;font-stretch:normal;line-height:125%;letter-spacing:0px;word-spacing:0px;fill:#ffffff;fill-opacity:1;stroke:#000000;stroke-width:4;stroke-miterlimit:4;stroke-opacity:1;stroke-dasharray:none;font-family:Arial;-inkscape-font-specification:Arial"
       x="16.509802"
       y="661.32312"
       id="text3759"
       sodipodi:linespacing="125%"
       transform="scale(1.0029094,0.99709904)"><tspan
         sodipodi:role="line"
         id="tspan3761"
         x="16.509802"
         y="661.32312"
         style="stroke-width:4">fuss over</tspan></text>
    <text
       xml:space="preserve"
       style="font-size:221.14602661px;font-style:normal;font-variant:normal;font-weight:normal;font-stretch:normal;line-height:125%;letter-spacing:0px;word-spacing:0px;fill:#ffffff;fill-opacity:1;stroke:#000000;stroke-width:3.99999976;stroke-miterlimit:4;stroke-opacity:1;stroke-dasharray:none;font-family:Arial;-inkscape-font-specification:Arial"
       x="0.15237461"
       y="939.2851"
       id="text3759-1"
       sodipodi:linespacing="125%"
       transform="scale(1.0038191,0.99619543)"><tspan
         sodipodi:role="line"
         id="tspan3761-7"
         x="0.15237461"
         y="939.2851"
         style="stroke:#000000;stroke-width:3.99999976;stroke-opacity:1">craft beer</tspan></text>
    <path
       style="fill:#666666;fill-rule:evenodd;stroke:#010101;stroke-width:4;fill-opacity:1;stroke-miterlimit:4;stroke-dasharray:none"
       inkscape:connector-curvature="0"
       id="svg_2"
       d="m 671.09523,297.9336 -1,0 0,1 -1,0 0,0 0,1 0,0 0,0 -1,0 0,0 0,1 -1,0 0,0 0,1 -2,0 -1,0 0,-1 1,-1 0,-1 0,-1 1,0 0,0 0,-1 1,0 0,0 0,-1 0,0 0,0 1,-1 1,-1 0,0 0,0 0,-1 q 0,0 3,-2 2,-3 10,-7 8,-4 17,-4 10,0 16,3 7,3 15,9 7,6 14,15 7,9 10,19 3,11 3,22 0,12 -3,21.99999 -3,11 -11,22 -6,11 -14,18 -8,7 -21,14 -13,8 -30,12 -17,6 -37,8 -19,2 -44,0 -26,0 -54,-6 -28,-6 -52,-14 -24,-8 -42,-18 -17,-10 -26,-18 -10,-8 -12,-9 -2,-1 -6,2 -3,3 -16,13 -13,10 -31,18 -18,8 -43,16 -24,8 -54,13 -30,5 -50,6 -19,1 -28,-1 -9,0 -28,-5 -20,-5 -34,-11 -13,-6 -22.000004,-12 -9,-8 -16,-17 -8,-10 -12,-22 -4,-12 -5,-24.99999 -1,-12 1,-20 2,-7 6,-17 6,-10 9,-13 4,-4 4,-5 0,-1 2,-2 2,-1 11,-6 9.000004,-5 20.000004,-5 12,0 20,3 l 8,3 0,1 0,0 1,0 0,1 0,0 1,0 0,0 0,0 1,1 1,1 0,0 0,0 1,0 0,0 0,1 1,0 0,1 0,1 -2,0 -3,-1 -1,0 -1,0 0,-1 -1,0 0,0 0,-1 -4,0 q -3,-2 -11,-1 -8,1 -14,5 -5,5 -9,12 -4,7 -4,20 0,14 4,19 3,5 8,8 5,3 14,3 10,0 24,-6 15,-6 38,-19 24,-13 47,-27 24,-14 41,-22 18,-8 30,-10 13,-4 29,-3 16,1 31,5 15,6 26,13 12,7 13,8 1,1 12,-7 11,-8 26,-12 15,-6 22,-6 7,-2 25,-1 18,1 32,4 13,3 32,13 19,10 55,34 36,24 49,28 12,6 23,6 11,0 19,-4 8,-4 12,-8 4,-5 4,-17 0,-12 -4,-19 -4,-7 -9,-12 -5,-4 -9,-6 -5,-2 -12,-2 -6,0 -10,3 -3,3 -4,3 z" />
  </g>
</svg>
