<?xml version="1.0" encoding="UTF-8" standalone="no"?>
<!-- Created with Inkscape (http://www.inkscape.org/) -->

<svg
   xmlns:dc="http://purl.org/dc/elements/1.1/"
   xmlns:cc="http://creativecommons.org/ns#"
   xmlns:rdf="http://www.w3.org/1999/02/22-rdf-syntax-ns#"
   xmlns:svg="http://www.w3.org/2000/svg"
   xmlns="http://www.w3.org/2000/svg"
   xmlns:sodipodi="http://sodipodi.sourceforge.net/DTD/sodipodi-0.dtd"
   xmlns:inkscape="http://www.inkscape.org/namespaces/inkscape"
   width="960"
   height="960"
   id="svg2"
   version="1.1"
   inkscape:version="0.48.4 r9939"
   sodipodi:docname="bike.svg">
  <defs
     id="defs4" />
  <sodipodi:namedview
     id="base"
     pagecolor="#ffffff"
     bordercolor="#666666"
     borderopacity="1.0"
     inkscape:pageopacity="0.0"
     inkscape:pageshadow="2"
     inkscape:zoom="0.35"
     inkscape:cx="-317.17852"
     inkscape:cy="520.00001"
     inkscape:document-units="px"
     inkscape:current-layer="layer1"
     showgrid="false"
     fit-margin-top="0"
     fit-margin-left="0"
     fit-margin-right="0"
     fit-margin-bottom="0"
     inkscape:window-width="1600"
     inkscape:window-height="847"
     inkscape:window-x="-8"
     inkscape:window-y="-8"
     inkscape:window-maximized="1" />
  <metadata
     id="metadata7">
    <rdf:RDF>
      <cc:Work
         rdf:about="">
        <dc:format>image/svg+xml</dc:format>
        <dc:type
           rdf:resource="http://purl.org/dc/dcmitype/StillImage" />
        <dc:title />
      </cc:Work>
    </rdf:RDF>
  </metadata>
  <g
     inkscape:label="Layer 1"
     inkscape:groupmode="layer"
     id="layer1"
     transform="translate(1.2218952e-5,-92.36217)">
    <rect
       style="fill:#bb0000;fill-opacity:1;stroke:#ffffff;stroke-width:1.10000002;stroke-miterlimit:4;stroke-opacity:1;stroke-dasharray:none"
       id="rect2985"
       width="958.90002"
       height="958.90002"
       x="0.54997557"
       y="92.91217" />
    <g
       style="font-size:717.32019043px;font-style:normal;font-variant:normal;font-weight:normal;font-stretch:normal;line-height:125%;letter-spacing:0px;word-spacing:0px;fill:#666666;fill-opacity:1;stroke:#000000;stroke-width:4;stroke-miterlimit:4;stroke-opacity:1;font-family:FontAwesome;-inkscape-font-specification:FontAwesome"
       id="text3804">
      <path
         d="m 323.8832,748.171 c -6.61359,29.83911 -21.30791,54.22399 -44.08299,73.15472 -22.77561,18.93088 -49.97926,28.70485 -81.61103,29.32194 -36.16052,-0.93398 -66.31638,-13.47668 -90.46768,-37.62815 -24.15147,-24.15129 -36.694174,-54.30716 -37.628146,-90.46768 0.933987,-36.16016 13.47669,-66.31602 37.628146,-90.46767 24.15128,-24.15111 54.30714,-36.69382 90.46768,-37.62815 19.68118,0.13373 37.9615,4.27016 54.84102,12.40928 l -75.2563,100.47517 c -6.07971,9.05695 -6.93035,17.9636 -2.55192,26.71998 4.37812,8.75671 12.03385,13.46023 22.9672,14.11056 l 125.69402,0 z m -74.45569,-51.23833 44.43323,-59.24432 c 7.43026,8.2481 13.68493,17.37158 18.76402,27.37048 5.07851,9.99937 8.83132,20.62397 11.25844,31.87384 z m 192.14373,0 -66.04941,0 C 372.64431,677.21815 366.89,658.8044 358.25889,641.69135 349.6271,624.57882 338.56885,609.36745 325.0841,596.05721 l 39.62965,-52.83953 192.14373,0 z m 448.33538,25.61916 c -0.93489,36.16054 -13.4776,66.3164 -37.62815,90.46768 -24.15221,24.15146 -54.30808,36.69416 -90.46767,37.62815 -36.16109,-0.93398 -66.31695,-13.47668 -90.46768,-37.62815 -24.15203,-24.15129 -36.69474,-54.30716 -37.62815,-90.46768 0.12449,-17.71305 3.477,-34.22539 10.05753,-49.53707 6.57928,-15.31122 15.63604,-28.8213 27.17032,-40.5303 l 69.65211,104.07785 c 2.45943,3.81133 5.54506,6.69681 9.25691,8.65646 3.71038,1.95995 7.6967,2.94403 11.95896,2.95223 5.003,0.13358 9.80658,-1.33418 14.41078,-4.4033 5.86196,-4.06122 9.44797,-9.44858 10.75804,-16.1621 1.30853,-6.71317 -0.009,-13.20134 -3.95295,-19.46455 L 713.37456,604.0632 c 15.14395,-6.20435 31.28934,-9.40674 48.43624,-9.60719 36.15961,0.93435 66.31547,13.47705 90.46767,37.62815 24.15054,24.15164 36.69324,54.3075 37.62815,90.46767 z m 51.23833,0 C 939.8514,671.82244 922.32163,629.57421 888.55561,595.807 c -33.76777,-33.76659 -76.016,-51.29634 -126.74481,-52.58932 -13.83609,0.0337 -27.19608,1.56821 -40.08,4.60346 -12.88533,3.03595 -25.14449,7.37252 -36.7775,13.00972 L 578.07335,400.71108 c -2.46074,-3.44373 -5.54639,-6.16243 -9.25694,-8.1561 -3.71166,-1.99266 -7.69796,-3.01009 -11.95893,-3.05229 l -102.47666,0 c -7.19748,0.19233 -13.21865,2.71088 -18.06352,7.55566 -4.84571,4.84579 -7.36425,10.86695 -7.55564,18.06351 0.1914,7.19753 2.70995,13.2187 7.55565,18.06351 4.84487,4.84575 10.86603,7.3643 18.06351,7.55565 l 88.86648,0 34.02545,51.23833 -174.13026,0 0,-51.23833 -153.71498,0 c -7.19728,0.19228 -13.21845,2.71083 -18.06352,7.55566 -4.84551,4.84573 -7.36405,10.8669 -7.55565,18.06351 0.19161,7.19748 2.71016,13.21864 7.55566,18.06351 4.84507,4.8457 10.86623,7.36425 18.06351,7.55565 l 89.66707,0 -54.84102,73.2548 c -12.84322,-7.04659 -26.48675,-12.46731 -40.93064,-16.26217 -14.44434,-3.79416 -29.4889,-5.71225 -45.13374,-5.7543 -50.72975,1.29299 -92.97799,18.82275 -126.744835,52.58933 -33.76695,33.7672 -51.296706,76.01543 -52.589321,126.74482 1.29263,50.72974 18.822389,92.97797 52.589332,126.7448 33.766834,33.76695 76.015074,51.29671 126.744824,52.58936 46.19265,-0.97573 85.50535,-15.73676 117.9382,-44.28314 32.43225,-28.54629 52.23038,-65.02354 59.39445,-109.43185 l 78.85899,0 c 4.0526,-0.008 7.85543,-0.89218 11.40853,-2.65199 3.5522,-1.7595 6.55444,-4.34476 9.00674,-7.7558 l 141.30571,-187.74044 26.01946,39.22935 c -18.42273,16.6127 -32.91689,36.32743 -43.48253,59.14424 -10.5668,22.81731 -15.95416,47.53578 -16.16208,74.15547 1.29206,50.72974 18.82182,92.97797 52.58933,126.7448 33.76627,33.76695 76.0145,51.29671 126.74482,52.58936 50.72881,-1.29263 92.97704,-18.8224 126.7448,-52.58935 33.76602,-33.76684 51.29578,-76.01507 52.58935,-126.74481 z"
         style=""
         id="path3331" />
    </g>
    <text
       xml:space="preserve"
       style="font-size:150.67648315px;font-style:normal;font-variant:normal;font-weight:normal;font-stretch:normal;line-height:125%;letter-spacing:0px;word-spacing:0px;fill:#ffffff;fill-opacity:1;stroke:#000000;stroke-width:4;stroke-miterlimit:4;stroke-opacity:1;stroke-dasharray:none;font-family:Arial;-inkscape-font-specification:Arial"
       x="23.631962"
       y="231.24963"
       id="text3755"
       sodipodi:linespacing="125%"
       transform="scale(1.0000721,0.99992791)"><tspan
         sodipodi:role="line"
         id="tspan3757"
         x="23.631962"
         y="231.24963"
         style="stroke:#000000;stroke-width:4;stroke-opacity:1">CHAMPIONS</tspan></text>
    <text
       xml:space="preserve"
       style="font-size:595.3114624px;font-style:normal;font-variant:normal;font-weight:normal;font-stretch:normal;line-height:125%;letter-spacing:0px;word-spacing:0px;fill:#ffffff;fill-opacity:1;stroke:#000000;stroke-width:4;stroke-miterlimit:4;stroke-opacity:1;stroke-dasharray:none;font-family:Arial;-inkscape-font-specification:Arial"
       x="-23.634077"
       y="664.73279"
       id="text3759"
       sodipodi:linespacing="125%"
       transform="scale(0.9994613,1.000539)"><tspan
         sodipodi:role="line"
         x="-23.634077"
         y="664.73279"
         id="tspan3762"
         style="stroke-width:4">ride</tspan></text>
    <text
       xml:space="preserve"
       style="font-size:487.13244629px;font-style:normal;font-variant:normal;font-weight:normal;font-stretch:normal;line-height:125%;letter-spacing:0px;word-spacing:0px;fill:#ffffff;fill-opacity:1;stroke:#000000;stroke-width:4;stroke-miterlimit:4;stroke-opacity:1;stroke-dasharray:none;font-family:Arial;-inkscape-font-specification:Arial"
       x="-6.2041469"
       y="1030.2665"
       id="text3759-1"
       sodipodi:linespacing="125%"
       transform="scale(0.9995528,1.0004474)"><tspan
         sodipodi:role="line"
         x="-6.2041469"
         y="1030.2665"
         id="tspan3762-4"
         style="stroke-width:4">hard</tspan></text>
  </g>
</svg>
