<?xml version="1.0" encoding="UTF-8" standalone="no"?>
<!-- Created with Inkscape (http://www.inkscape.org/) -->

<svg
   xmlns:dc="http://purl.org/dc/elements/1.1/"
   xmlns:cc="http://creativecommons.org/ns#"
   xmlns:rdf="http://www.w3.org/1999/02/22-rdf-syntax-ns#"
   xmlns:svg="http://www.w3.org/2000/svg"
   xmlns="http://www.w3.org/2000/svg"
   xmlns:sodipodi="http://sodipodi.sourceforge.net/DTD/sodipodi-0.dtd"
   xmlns:inkscape="http://www.inkscape.org/namespaces/inkscape"
   width="960"
   height="960"
   id="svg2"
   version="1.1"
   inkscape:version="0.48.4 r9939"
   sodipodi:docname="bike.svg">
  <defs
     id="defs4" />
  <sodipodi:namedview
     id="base"
     pagecolor="#ffffff"
     bordercolor="#666666"
     borderopacity="1.0"
     inkscape:pageopacity="0.0"
     inkscape:pageshadow="2"
     inkscape:zoom="0.35"
     inkscape:cx="-380.89904"
     inkscape:cy="520.00001"
     inkscape:document-units="px"
     inkscape:current-layer="layer1"
     showgrid="false"
     fit-margin-top="0"
     fit-margin-left="0"
     fit-margin-right="0"
     fit-margin-bottom="0"
     inkscape:window-width="1600"
     inkscape:window-height="847"
     inkscape:window-x="-8"
     inkscape:window-y="-8"
     inkscape:window-maximized="1" />
  <metadata
     id="metadata7">
    <rdf:RDF>
      <cc:Work
         rdf:about="">
        <dc:format>image/svg+xml</dc:format>
        <dc:type
           rdf:resource="http://purl.org/dc/dcmitype/StillImage" />
        <dc:title />
      </cc:Work>
    </rdf:RDF>
  </metadata>
  <g
     inkscape:label="Layer 1"
     inkscape:groupmode="layer"
     id="layer1"
     transform="translate(1.2218952e-5,-92.36217)">
    <rect
       style="fill:#bb0000;fill-opacity:1;stroke:#ffffff;stroke-width:1.10000002;stroke-miterlimit:4;stroke-opacity:1;stroke-dasharray:none"
       id="rect2985"
       width="958.90002"
       height="958.90002"
       x="0.54997557"
       y="92.91217" />
    <g
       style="font-size:717.32019043px;font-style:normal;font-variant:normal;font-weight:normal;font-stretch:normal;line-height:125%;letter-spacing:0px;word-spacing:0px;fill:#666666;fill-opacity:1;stroke:#000000;stroke-width:4;stroke-miterlimit:4;stroke-opacity:1;font-family:FontAwesome;-inkscape-font-specification:FontAwesome"
       id="text3804">
      <path
         d="m 323.8832,748.171 c -6.61359,29.83911 -21.30791,54.22399 -44.08299,73.15472 -22.77561,18.93088 -49.97926,28.70485 -81.61103,29.32194 -36.16052,-0.93398 -66.31638,-13.47668 -90.46768,-37.62815 -24.15147,-24.15129 -36.694174,-54.30716 -37.628146,-90.46768 0.933987,-36.16016 13.47669,-66.31602 37.628146,-90.46767 24.15128,-24.15111 54.30714,-36.69382 90.46768,-37.62815 19.68118,0.13373 37.9615,4.27016 54.84102,12.40928 l -75.2563,100.47517 c -6.07971,9.05695 -6.93035,17.9636 -2.55192,26.71998 4.37812,8.75671 12.03385,13.46023 22.9672,14.11056 l 125.69402,0 z m -74.45569,-51.23833 44.43323,-59.24432 c 7.43026,8.2481 13.68493,17.37158 18.76402,27.37048 5.07851,9.99937 8.83132,20.62397 11.25844,31.87384 z m 192.14373,0 -66.04941,0 C 372.64431,677.21815 366.89,658.8044 358.25889,641.69135 349.6271,624.57882 338.56885,609.36745 325.0841,596.05721 l 39.62965,-52.83953 192.14373,0 z m 448.33538,25.61916 c -0.93489,36.16054 -13.4776,66.3164 -37.62815,90.46768 -24.15221,24.15146 -54.30808,36.69416 -90.46767,37.62815 -36.16109,-0.93398 -66.31695,-13.47668 -90.46768,-37.62815 -24.15203,-24.15129 -36.69474,-54.30716 -37.62815,-90.46768 0.12449,-17.71305 3.477,-34.22539 10.05753,-49.53707 6.57928,-15.31122 15.63604,-28.8213 27.17032,-40.5303 l 69.65211,104.07785 c 2.45943,3.81133 5.54506,6.69681 9.25691,8.65646 3.71038,1.95995 7.6967,2.94403 11.95896,2.95223 5.003,0.13358 9.80658,-1.33418 14.41078,-4.4033 5.86196,-4.06122 9.44797,-9.44858 10.75804,-16.1621 1.30853,-6.71317 -0.009,-13.20134 -3.95295,-19.46455 L 713.37456,604.0632 c 15.14395,-6.20435 31.28934,-9.40674 48.43624,-9.60719 36.15961,0.93435 66.31547,13.47705 90.46767,37.62815 24.15054,24.15164 36.69324,54.3075 37.62815,90.46767 z m 51.23833,0 C 939.8514,671.82244 922.32163,629.57421 888.55561,595.807 c -33.76777,-33.76659 -76.016,-51.29634 -126.74481,-52.58932 -13.83609,0.0337 -27.19608,1.56821 -40.08,4.60346 -12.88533,3.03595 -25.14449,7.37252 -36.7775,13.00972 L 578.07335,400.71108 c -2.46074,-3.44373 -5.54639,-6.16243 -9.25694,-8.1561 -3.71166,-1.99266 -7.69796,-3.01009 -11.95893,-3.05229 l -102.47666,0 c -7.19748,0.19233 -13.21865,2.71088 -18.06352,7.55566 -4.84571,4.84579 -7.36425,10.86695 -7.55564,18.06351 0.1914,7.19753 2.70995,13.2187 7.55565,18.06351 4.84487,4.84575 10.86603,7.3643 18.06351,7.55565 l 88.86648,0 34.02545,51.23833 -174.13026,0 0,-51.23833 -153.71498,0 c -7.19728,0.19228 -13.21845,2.71083 -18.06352,7.55566 -4.84551,4.84573 -7.36405,10.8669 -7.55565,18.06351 0.19161,7.19748 2.71016,13.21864 7.55566,18.06351 4.84507,4.8457 10.86623,7.36425 18.06351,7.55565 l 89.66707,0 -54.84102,73.2548 c -12.84322,-7.04659 -26.48675,-12.46731 -40.93064,-16.26217 -14.44434,-3.79416 -29.4889,-5.71225 -45.13374,-5.7543 -50.72975,1.29299 -92.97799,18.82275 -126.744835,52.58933 -33.76695,33.7672 -51.296706,76.01543 -52.589321,126.74482 1.29263,50.72974 18.822389,92.97797 52.589332,126.7448 33.766834,33.76695 76.015074,51.29671 126.744824,52.58936 46.19265,-0.97573 85.50535,-15.73676 117.9382,-44.28314 32.43225,-28.54629 52.23038,-65.02354 59.39445,-109.43185 l 78.85899,0 c 4.0526,-0.008 7.85543,-0.89218 11.40853,-2.65199 3.5522,-1.7595 6.55444,-4.34476 9.00674,-7.7558 l 141.30571,-187.74044 26.01946,39.22935 c -18.42273,16.6127 -32.91689,36.32743 -43.48253,59.14424 -10.5668,22.81731 -15.95416,47.53578 -16.16208,74.15547 1.29206,50.72974 18.82182,92.97797 52.58933,126.7448 33.76627,33.76695 76.0145,51.29671 126.74482,52.58936 50.72881,-1.29263 92.97704,-18.8224 126.7448,-52.58935 33.76602,-33.76684 51.29578,-76.01507 52.58935,-126.74481 z"
         style=""
         id="path3331" />
    </g>
  </g>
  <g
     inkscape:groupmode="layer"
     id="layer6"
     inkscape:label="Text"
     style="display:none">
    <text
       xml:space="preserve"
       style="font-size:150.67648315px;font-style:normal;font-variant:normal;font-weight:normal;font-stretch:normal;line-height:125%;letter-spacing:0px;word-spacing:0px;fill:#ffffff;fill-opacity:1;stroke:#000000;stroke-width:4;stroke-miterlimit:4;stroke-opacity:1;stroke-dasharray:none;font-family:Arial;-inkscape-font-specification:Arial"
       x="23.631975"
       y="138.8808"
       id="text3755-2"
       sodipodi:linespacing="125%"
       transform="scale(1.0000721,0.99992791)"><tspan
         sodipodi:role="line"
         id="tspan3757-3"
         x="23.631975"
         y="138.8808"
         style="stroke:#000000;stroke-width:4;stroke-opacity:1">CHAMPIONS</tspan></text>
    <text
       xml:space="preserve"
       style="font-size:595.3114624px;font-style:normal;font-variant:normal;font-weight:normal;font-stretch:normal;line-height:125%;letter-spacing:0px;word-spacing:0px;fill:#ffffff;fill-opacity:1;stroke:#000000;stroke-width:4;stroke-miterlimit:4;stroke-opacity:1;stroke-dasharray:none;font-family:Arial;-inkscape-font-specification:Arial"
       x="-23.634066"
       y="572.42041"
       id="text3759-2"
       sodipodi:linespacing="125%"
       transform="scale(0.9994613,1.000539)"><tspan
         sodipodi:role="line"
         x="-23.634066"
         y="572.42041"
         id="tspan3762-2"
         style="stroke-width:4">ride</tspan></text>
    <text
       xml:space="preserve"
       style="font-size:487.13244629px;font-style:normal;font-variant:normal;font-weight:normal;font-stretch:normal;line-height:125%;letter-spacing:0px;word-spacing:0px;fill:#ffffff;fill-opacity:1;stroke:#000000;stroke-width:4;stroke-miterlimit:4;stroke-opacity:1;stroke-dasharray:none;font-family:Arial;-inkscape-font-specification:Arial"
       x="-6.2041335"
       y="937.94562"
       id="text3759-1-1"
       sodipodi:linespacing="125%"
       transform="scale(0.9995528,1.0004474)"><tspan
         sodipodi:role="line"
         x="-6.2041335"
         y="937.94562"
         id="tspan3762-4-6"
         style="stroke-width:4">hard</tspan></text>
  </g>
  <g
     inkscape:groupmode="layer"
     id="layer7"
     inkscape:label="PathsFromText"
     style="display:inline">
    <g
       transform="scale(1.0000721,0.99992791)"
       style="font-size:150.67648315px;font-style:normal;font-variant:normal;font-weight:normal;font-stretch:normal;line-height:125%;letter-spacing:0px;word-spacing:0px;fill:#ffffff;fill-opacity:1;stroke:#000000;stroke-width:4;stroke-miterlimit:4;stroke-opacity:1;font-family:Arial;-inkscape-font-specification:Arial"
       id="text3755-8">
      <path
         d="m 112.21327,101.06453 14.27306,3.60506 c -2.99205,11.72257 -8.3751,20.66162 -16.14916,26.81717 -7.77424,6.15557 -17.277347,9.23335 -28.509346,9.23335 -11.624502,0 -21.078559,-2.36658 -28.362199,-7.09975 -7.283701,-4.73315 -12.826157,-11.58765 -16.627386,-20.56351 -3.801255,-8.97581 -5.701876,-18.613798 -5.701869,-28.913993 -7e-6,-11.232002 2.145855,-21.029397 6.437594,-29.392214 4.291711,-8.362649 10.398223,-14.714402 18.319553,-19.055278 7.921266,-4.34067 16.639599,-6.511057 26.155024,-6.511166 10.790565,1.09e-4 19.864499,2.746813 27.221829,8.24012 7.35715,5.493509 12.4827,13.218614 15.37665,23.175338 l -14.05235,3.310762 c -2.50155,-7.84765 -6.13112,-13.561776 -10.888728,-17.142393 -4.75776,-3.580432 -10.741651,-5.370695 -17.951691,-5.370792 -8.289218,9.7e-5 -15.217288,1.986553 -20.784231,5.959372 -5.567018,3.973003 -9.478619,9.307004 -11.734814,16.00202 -2.256247,6.695166 -3.384358,13.598712 -3.384335,20.710659 -2.3e-5,9.172084 1.336543,17.179215 4.009701,24.021425 2.673105,6.84226 6.829947,11.95555 12.470539,15.33986 5.640514,3.38435 11.747026,5.07652 18.319553,5.07651 7.994813,1e-5 14.763477,-2.30526 20.306006,-6.91582 5.54238,-4.61052 9.29458,-11.45276 11.2566,-20.52673 z"
         style="stroke:#000000"
         id="path3731"
         inkscape:connector-curvature="0" />
      <path
         d="m 144.58516,138.8808 0,-107.857289 14.27307,0 0,44.290646 56.06225,0 0,-44.290646 14.27306,0 0,107.857289 -14.27306,0 0,-50.8386 -56.06225,0 0,50.8386 z"
         style="stroke:#000000"
         id="path3733"
         inkscape:connector-curvature="0" />
      <path
         d="m 241.18585,138.8808 41.42132,-107.857289 15.37666,0 44.1435,107.857289 -16.25953,0 -12.58089,-32.66619 -45.09995,0 -11.84517,32.66619 z m 31.12117,-44.290648 36.56554,0 -11.2566,-29.870435 c -3.43343,-9.073859 -5.98394,-16.529198 -7.65154,-22.366041 -1.3734,6.915905 -3.3108,13.782665 -5.81222,20.600301 z"
         style="stroke:#000000"
         id="path3735"
         inkscape:connector-curvature="0" />
      <path
         d="m 353.23678,138.8808 0,-107.857289 21.48317,0 25.52966,76.368259 c 2.35426,7.11203 4.07095,12.43377 5.15007,15.96523 1.22615,-3.92385 3.13903,-9.68702 5.73866,-17.28954 l 25.82395,-75.043949 19.20242,0 0,107.857289 -13.75806,0 0,-90.273461 -31.34188,90.273461 -12.87519,0 -31.19474,-91.818484 0,91.818484 z"
         style="stroke:#000000"
         id="path3737"
         inkscape:connector-curvature="0" />
      <path
         d="m 479.34005,138.8808 0,-107.857289 40.68559,0 c 7.161,1.08e-4 12.62988,0.343446 16.40667,1.030015 5.29715,0.882976 9.73602,2.56288 13.31662,5.039716 3.58045,2.477041 6.46203,5.947207 8.64477,10.410509 2.18256,4.463486 3.27388,9.368314 3.27398,14.714501 -10e-5,9.172106 -2.91847,16.933997 -8.75513,23.285696 -5.83683,6.351807 -16.38221,9.527683 -31.63618,9.527639 l -27.66326,0 0,43.849213 z m 14.27306,-56.577255 27.88398,0 c 9.22103,5.6e-5 15.76897,-1.716634 19.64386,-5.150075 3.87474,-3.433319 5.81215,-8.264575 5.81223,-14.493783 -8e-5,-4.512366 -1.14045,-8.374919 -3.42112,-11.587669 -2.28082,-3.212575 -5.28503,-5.333913 -9.01264,-6.364022 -2.40343,-0.637533 -6.8423,-0.956347 -13.31662,-0.956442 l -27.58969,0 z"
         style="stroke:#000000"
         id="path3739"
         inkscape:connector-curvature="0" />
      <path
         d="m 582.4151,138.8808 0,-107.857289 14.27306,0 0,107.857289 z"
         style="stroke:#000000"
         id="path3741"
         inkscape:connector-curvature="0" />
      <path
         d="m 617.43561,86.350032 c -10e-6,-17.902571 4.80673,-31.918119 14.42021,-42.046684 9.61344,-10.128377 22.02266,-15.192612 37.22769,-15.192722 9.95674,1.1e-4 18.93258,2.378952 26.92753,7.136533 7.99479,4.757786 14.08904,11.391567 18.28277,19.901361 4.19352,8.509961 6.29034,18.160211 6.29045,28.95078 -1.1e-4,10.937821 -2.20728,20.72295 -6.62153,29.35543 -4.41445,8.63252 -10.6681,15.1682 -18.76098,19.60707 -8.09306,4.43887 -16.82365,6.65831 -26.19182,6.65831 -10.15305,0 -19.22698,-2.45242 -27.22182,-7.35725 -7.9949,-4.90482 -14.05237,-11.59991 -18.17241,-20.08529 -4.12007,-8.48533 -6.1801,-17.461166 -6.18009,-26.927538 z m 14.7145,0.220718 c -2e-5,12.997848 3.49467,23.23668 10.48408,30.71652 6.98935,7.47988 15.75673,11.21982 26.30217,11.21981 10.74152,1e-5 19.58247,-3.77671 26.52289,-11.33017 6.94025,-7.55341 10.41041,-18.270464 10.41051,-32.151183 -1e-4,-8.779589 -1.48381,-16.443384 -4.45114,-22.991407 -2.96751,-6.547869 -7.30828,-11.624366 -13.02233,-15.229507 -5.7142,-3.604957 -12.12727,-5.407482 -19.23921,-5.407579 -10.10401,9.7e-5 -18.79781,3.470263 -26.08145,10.410509 -7.28371,6.940419 -10.92554,18.528077 -10.92552,34.763007 z"
         style="stroke:#000000"
         id="path3743"
         inkscape:connector-curvature="0" />
      <path
         d="m 738.75669,138.8808 0,-107.857289 14.64092,0 56.65083,84.681949 0,-84.681949 13.68448,0 0,107.857289 -14.64092,0 -56.65083,-84.755523 0,84.755523 z"
         style="stroke:#000000"
         id="path3745"
         inkscape:connector-curvature="0" />
      <path
         d="m 842.93531,104.22815 13.46377,-1.17716 c 0.63761,5.39535 2.12132,9.82196 4.45114,13.27984 2.32977,3.45792 5.94708,6.25368 10.85194,8.38726 4.90479,2.13362 10.42273,3.20042 16.55381,3.20041 5.44431,1e-5 10.25104,-0.80929 14.42021,-2.4279 4.16904,-1.61858 7.27135,-3.83801 9.30693,-6.65831 2.03542,-2.82025 3.05318,-5.89803 3.05325,-9.23335 -7e-5,-3.3843 -0.98104,-6.33946 -2.9429,-8.86548 -1.962,-2.525952 -5.19919,-4.647291 -9.71157,-6.364025 -2.89391,-1.128066 -9.29471,-2.881542 -19.20242,-5.260434 -9.9078,-2.378792 -16.84813,-4.622751 -20.82102,-6.731884 -5.15009,-2.697599 -8.98812,-6.045145 -11.51409,-10.042646 -2.526,-3.997369 -3.789,-8.473025 -3.78899,-13.426982 -1e-5,-5.44428 1.54501,-10.533039 4.63507,-15.266294 3.09003,-4.733064 7.60247,-8.325851 13.53734,-10.778371 5.93481,-2.452309 12.53181,-3.678516 19.791,-3.678625 7.99483,1.09e-4 15.04552,1.287627 21.1521,3.862556 6.10644,2.575141 10.80281,6.364121 14.08913,11.366951 3.28615,5.00302 5.05189,10.668097 5.29722,16.995248 l -13.68448,1.030015 c -0.7358,-6.817635 -3.225,-11.967705 -7.46761,-15.450225 -4.24275,-3.482336 -10.50867,-5.223551 -18.79778,-5.223648 -8.63254,9.7e-5 -14.92299,1.581905 -18.87134,4.745427 -3.94842,3.163706 -5.92261,6.977211 -5.92259,11.440524 -2e-5,3.874895 1.39785,7.063034 4.19363,9.564425 2.74668,2.501534 9.91999,5.064307 21.51996,7.688326 11.59987,2.624147 19.55795,4.917155 23.87428,6.879029 6.2781,2.893906 10.91317,6.560265 13.9052,10.999089 2.99186,4.438916 4.48783,9.552204 4.48792,15.339864 -9e-5,5.73868 -1.64321,11.14626 -4.92936,16.22274 -3.28632,5.07651 -8.00722,9.0249 -14.1627,11.84517 -6.15563,2.82028 -13.08371,4.23042 -20.78423,4.23042 -9.76066,0 -17.93947,-1.4224 -24.53643,-4.2672 -6.59703,-2.8448 -11.77162,-7.12427 -15.5238,-12.83841 -3.75221,-5.71411 -5.7264,-12.17622 -5.92259,-19.38635 z"
         style="stroke:#000000"
         id="path3747"
         inkscape:connector-curvature="0" />
    </g>
    <g
       transform="scale(0.9994613,1.000539)"
       style="font-size:595.3114624px;font-style:normal;font-variant:normal;font-weight:normal;font-stretch:normal;line-height:125%;letter-spacing:0px;word-spacing:0px;fill:#ffffff;fill-opacity:1;stroke:#000000;stroke-width:4;stroke-miterlimit:4;stroke-opacity:1;font-family:Arial;-inkscape-font-specification:Arial"
       id="text3759-7">
      <path
         d="m 15.026298,572.42041 0,-308.70155 47.090067,0 0,46.79939 c 12.014652,-21.89757 23.108905,-36.33463 33.282794,-43.31124 10.173651,-6.97599 21.364801,-10.46414 33.573471,-10.46446 17.63438,3.2e-4 35.5596,5.62012 53.7757,16.85941 l -18.02213,48.54347 c -12.79007,-7.55741 -25.57995,-11.33624 -38.36968,-11.3365 -11.43353,2.6e-4 -21.70419,3.43996 -30.812021,10.31912 -9.108066,6.87965 -15.5999,16.42362 -19.475522,28.63192 -5.813682,18.60369 -8.720474,38.95123 -8.720383,61.04268 l 0,161.61776 z"
         id="path3750"
         inkscape:connector-curvature="0" />
      <path
         d="m 214.72306,206.45501 0,-60.17064 52.32229,0 0,60.17064 z m 0,365.9654 0,-308.70155 52.32229,0 0,308.70155 z"
         id="path3752"
         inkscape:connector-curvature="0" />
      <path
         d="m 547.26032,572.42041 0,-38.95104 c -19.57263,30.61824 -48.34987,45.92734 -86.33179,45.92735 -24.61098,-10e-6 -47.23551,-6.78252 -67.87364,-20.34756 -20.63831,-13.56502 -36.62566,-32.50761 -47.96211,-56.82783 -11.33652,-24.32009 -17.00476,-52.27373 -17.00474,-83.86102 -2e-5,-30.81183 5.13531,-58.76547 15.40601,-83.86101 10.27062,-25.09506 25.67662,-44.32833 46.21802,-57.69987 20.54125,-13.37094 43.5049,-20.05656 68.89103,-20.05688 18.60331,3.2e-4 35.17202,3.92449 49.70618,11.77252 14.53376,7.84864 26.35471,18.07086 35.46289,30.66668 l 0,-152.89738 52.03162,0 0,426.13604 z M 381.86373,418.36031 c -7e-5,39.53252 8.33273,69.0849 24.99843,88.65723 16.66551,19.57246 36.33479,29.35866 59.00792,29.35862 22.8666,4e-5 42.29366,-9.35014 58.28123,-28.05056 15.98713,-18.7003 23.98081,-47.2353 23.98105,-85.60509 -2.4e-4,-42.24522 -8.13926,-73.251 -24.41707,-93.01742 -16.27825,-19.76594 -36.33511,-29.64903 -60.17064,-29.6493 -23.25449,2.7e-4 -42.68154,9.49579 -58.28123,28.48658 -15.59987,18.99128 -23.39976,48.93123 -23.39969,89.81994 z"
         id="path3754"
         inkscape:connector-curvature="0" />
      <path
         d="m 889.68068,473.00805 54.06638,6.68562 c -8.5269,31.58723 -24.32046,56.10117 -47.38075,73.5419 -23.0608,17.44077 -52.51629,26.16114 -88.36655,26.16115 -45.15232,-10e-6 -80.9543,-13.90416 -107.40604,-41.7125 -26.45187,-27.80827 -39.67777,-66.80772 -39.67774,-116.99847 -3e-5,-51.93452 13.37121,-92.24203 40.11376,-120.92264 26.74241,-28.68007 61.43012,-43.02024 104.06323,-43.02056 41.27627,3.2e-4 74.99505,14.04981 101.15644,42.14852 26.16086,28.09926 39.24142,67.63162 39.24172,118.59721 -3e-4,3.10073 -0.0972,7.7516 -0.29068,13.95261 l -230.2181,0 c 1.93778,33.91271 11.5302,59.88004 28.77726,77.90208 17.24686,18.02217 38.75712,27.03323 64.53083,27.03319 19.18466,4e-5 35.55958,-5.0384 49.12483,-15.11533 13.5648,-10.07682 24.31993,-26.16107 32.26541,-48.25278 z m -171.79154,-84.58772 172.3729,0 c -2.32568,-25.96715 -8.91441,-45.44265 -19.7662,-58.42656 -16.66583,-20.15351 -38.27298,-30.23039 -64.82151,-30.23066 -24.02964,2.7e-4 -44.23184,8.04239 -60.60666,24.12639 -16.37503,16.0845 -25.43453,37.59475 -27.17853,64.53083 z"
         id="path3756"
         inkscape:connector-curvature="0" />
    </g>
    <g
       transform="scale(0.9995528,1.0004474)"
       style="font-size:487.13244629px;font-style:normal;font-variant:normal;font-weight:normal;font-stretch:normal;line-height:125%;letter-spacing:0px;word-spacing:0px;fill:#ffffff;fill-opacity:1;stroke:#000000;stroke-width:4;stroke-miterlimit:4;stroke-opacity:1;font-family:Arial;-inkscape-font-specification:Arial"
       id="text3759-1-18">
      <path
         d="m 25.906648,937.94562 0,-348.6993 42.814375,0 0,125.11312 c 19.979947,-23.15123 45.192827,-34.72696 75.638727,-34.72722 18.7113,2.6e-4 34.96489,3.68705 48.76082,11.06038 13.79553,7.37383 23.66661,17.56205 29.61327,30.56471 5.94621,13.00309 8.91943,31.87311 8.91967,56.61012 l 0,160.07819 -42.81438,0 0,-160.07819 c -1.9e-4,-21.40701 -4.63841,-36.98667 -13.91467,-46.73903 -9.27662,-9.75195 -22.39842,-14.62802 -39.36544,-14.62824 -12.68587,2.2e-4 -24.61838,3.29058 -35.797575,9.87109 -11.179404,6.58093 -19.147627,15.50058 -23.904693,26.75898 -4.75723,11.25877 -7.135804,26.79879 -7.135729,46.6201 l 0,138.19529 z"
         id="path3759"
         inkscape:connector-curvature="0" />
      <path
         d="m 461.89971,906.78627 c -15.85736,13.47861 -31.11988,22.99291 -45.7876,28.54291 -14.66802,5.55001 -30.40625,8.32502 -47.21474,8.32502 -27.75013,0 -49.07801,-6.77894 -63.98371,-20.33683 -14.90577,-13.55785 -22.35863,-30.8818 -22.35861,-51.97189 -2e-5,-12.36852 2.81462,-23.66675 8.44394,-33.89472 5.62927,-10.22776 13.00285,-18.43384 22.12076,-24.61826 9.11782,-6.18417 19.38533,-10.86203 30.80257,-14.0336 8.40421,-2.21986 21.08994,-4.36058 38.05722,-6.42216 34.56849,-4.12271 60.01923,-9.03843 76.3523,-14.74717 0.15838,-5.86699 0.23767,-9.59342 0.23786,-11.17931 -1.9e-4,-17.44271 -4.04377,-29.732 -12.13074,-36.86793 -10.94162,-9.67266 -27.19521,-14.5091 -48.76082,-14.50932 -20.13872,2.2e-4 -35.00481,3.52844 -44.5983,10.58466 -9.59367,7.05665 -16.68975,19.54417 -21.28826,37.46258 l -41.86295,-5.70858 c 3.8057,-17.91841 10.06928,-32.38807 18.79076,-43.40902 8.72139,-11.0205 21.32783,-19.50408 37.81936,-25.45077 16.49137,-5.94618 35.59924,-8.9194 57.32369,-8.91966 21.5656,2.6e-4 39.08776,2.5374 52.56654,7.61145 13.4784,5.07454 23.38912,11.45704 29.73221,19.14754 6.34264,7.69095 10.78264,17.40346 13.32002,29.13756 1.42691,7.29449 2.14049,20.45594 2.14072,39.48436 l 0,57.08584 c -2.3e-4,39.80158 0.91155,64.97482 2.73537,75.5198 1.82333,10.54504 5.43083,20.65398 10.82252,30.32685 l -44.71724,0 c -4.44021,-8.88001 -7.2945,-19.26645 -8.56287,-31.15935 z m -3.56787,-95.61877 c -15.54021,6.34299 -38.85023,11.73442 -69.93014,16.17432 -17.60157,2.53725 -30.04945,5.39154 -37.34365,8.56287 -7.29438,3.17153 -12.92367,7.80975 -16.8879,13.91467 -3.96435,6.1051 -5.9465,12.88403 -5.94644,20.33683 -6e-5,11.41722 4.32102,20.93152 12.96324,28.54292 8.64208,7.61147 21.28817,11.41719 37.9383,11.41716 16.49133,3e-5 31.1592,-3.60747 44.00366,-10.82252 12.84414,-7.21497 22.27915,-17.08605 28.30506,-29.61327 4.59839,-9.6728 6.89768,-23.94425 6.89787,-42.81438 z"
         id="path3761"
         inkscape:connector-curvature="0" />
      <path
         d="m 567.74636,937.94562 0,-252.60482 38.53294,0 0,38.29508 c 9.83137,-17.91837 18.90959,-29.73196 27.2347,-35.44078 8.32491,-5.70833 17.48242,-8.56262 27.47256,-8.56288 14.42989,2.6e-4 29.09776,4.59884 44.00366,13.79574 l -14.74717,39.72223 c -10.46588,-6.18409 -20.93161,-9.27623 -31.39721,-9.27645 -9.35585,2.2e-4 -17.76014,2.81486 -25.21291,8.44395 -7.45296,5.6295 -12.76511,13.43915 -15.93646,23.42898 -4.75723,15.22305 -7.13581,31.87307 -7.13573,49.9501 l 0,132.24885 z"
         id="path3763"
         inkscape:connector-curvature="0" />
      <path
         d="m 894.80063,937.94562 0,-31.87293 c -16.01593,25.05435 -39.56381,37.58151 -70.64372,37.58151 -20.13872,0 -38.65195,-5.55001 -55.53976,-16.65003 -16.88794,-11.1 -29.9701,-26.60038 -39.24651,-46.50117 -9.27647,-19.90068 -13.91468,-42.77463 -13.91467,-68.62193 -10e-6,-25.21276 4.20213,-48.08671 12.60646,-68.62193 8.40426,-20.53483 21.0107,-36.27306 37.81936,-47.21474 16.80852,-10.9412 35.59926,-16.41192 56.37226,-16.41218 15.22275,2.6e-4 28.78062,3.21133 40.67366,9.63324 11.8927,6.42239 21.56557,14.78705 29.01863,25.09398 l 0,-125.11312 42.57652,0 0,348.6993 z M 759.45964,811.88107 c -7e-5,32.34873 6.81851,56.5309 20.45575,72.54658 13.63708,16.01578 29.7321,24.02365 48.2851,24.02362 18.71132,3e-5 34.60813,-7.65105 47.69046,-22.95326 13.08198,-15.30211 19.62306,-38.65178 19.62326,-70.04908 -2e-4,-34.56848 -6.66021,-59.93994 -19.98005,-76.11444 -13.32019,-16.17411 -29.73235,-24.26126 -49.23653,-24.26148 -19.02872,2.2e-4 -34.92552,7.77023 -47.69045,23.31005 -12.7651,15.54021 -19.14761,40.03953 -19.14754,73.49801 z"
         id="path3765"
         inkscape:connector-curvature="0" />
    </g>
  </g>
</svg>
