<?xml version="1.0" encoding="UTF-8" standalone="no"?>
<!-- Created with Inkscape (http://www.inkscape.org/) -->

<svg
   xmlns:dc="http://purl.org/dc/elements/1.1/"
   xmlns:cc="http://creativecommons.org/ns#"
   xmlns:rdf="http://www.w3.org/1999/02/22-rdf-syntax-ns#"
   xmlns:svg="http://www.w3.org/2000/svg"
   xmlns="http://www.w3.org/2000/svg"
   xmlns:sodipodi="http://sodipodi.sourceforge.net/DTD/sodipodi-0.dtd"
   xmlns:inkscape="http://www.inkscape.org/namespaces/inkscape"
   width="960"
   height="960"
   id="svg2759"
   sodipodi:version="0.32"
   inkscape:version="0.48.4 r9939"
   version="1.0"
   sodipodi:docname="by.svg"
   inkscape:output_extension="org.inkscape.output.svg.inkscape">
  <defs
     id="defs2761" />
  <sodipodi:namedview
     id="base"
     pagecolor="#ffffff"
     bordercolor="#8b8b8b"
     borderopacity="1"
     gridtolerance="10000"
     guidetolerance="10"
     objecttolerance="10"
     inkscape:pageopacity="0.0"
     inkscape:pageshadow="2"
     inkscape:zoom="0.5"
     inkscape:cx="360.00001"
     inkscape:cy="388.56992"
     inkscape:document-units="px"
     inkscape:current-layer="layer9"
     width="120px"
     height="42px"
     inkscape:showpageshadow="false"
     inkscape:window-width="1600"
     inkscape:window-height="847"
     inkscape:window-x="-8"
     inkscape:window-y="-8"
     showgrid="false"
     inkscape:window-maximized="1"
     fit-margin-top="0"
     fit-margin-left="0"
     fit-margin-right="0"
     fit-margin-bottom="0" />
  <metadata
     id="metadata2764">
    <rdf:RDF>
      <cc:Work
         rdf:about="">
        <dc:format>image/svg+xml</dc:format>
        <dc:type
           rdf:resource="http://purl.org/dc/dcmitype/StillImage" />
      </cc:Work>
    </rdf:RDF>
  </metadata>
  <g
     inkscape:label="Layer 1"
     inkscape:groupmode="layer"
     id="layer1"
     transform="translate(420.00001,619.00001)"
     style="display:inline">
    <rect
       style="fill:#bb0000;fill-opacity:1;stroke:#ffffff;stroke-width:1.10000002;stroke-miterlimit:4;stroke-opacity:1;stroke-dasharray:none"
       id="rect2985"
       width="958.90002"
       height="958.90002"
       x="-419.45001"
       y="-618.45001" />
    <g
       transform="matrix(7.7679905,0,0,7.7671838,-1797.9643,0.40000986)"
       id="g260"
       inkscape:export-filename="/mnt/hgfs/Bov/Documents/Work/2007/cc/identity/srr buttons/big/by.png"
       inkscape:export-xdpi="300.23013"
       inkscape:export-ydpi="300.23013">
      <path
         id="path3817_1_"
         nodetypes="ccccccc"
         d="m 181.96579,0.51074 114.06396,0.20264 c 1.59375,0 3.01758,-0.23633 3.01758,3.18066 l -0.13965,37.56689 -119.82031,0 0,-37.70654 c 0,-1.68505 0.16309,-3.24365 2.87842,-3.24365 z"
         style="fill:#aab2ab"
         inkscape:connector-curvature="0" />
      <path
         d="m 297.29636,0 -116.229,0 c -1.24658,0 -2.26123,1.01416 -2.26123,2.26074 l 0,39.49658 c 0,0.28174 0.229,0.51025 0.51074,0.51025 l 119.73047,0 c 0.28174,0 0.51074,-0.22852 0.51074,-0.51025 l 0,-39.49658 C 299.55807,1.01416 298.54343,0 297.29636,0 z m -116.22901,1.02148 116.229,0 c 0.68408,0 1.24023,0.55566 1.24023,1.23926 0,0 0,15.94824 0,27.44971 l -83.34424,0 c -3.04492,5.50586 -8.91113,9.24414 -15.64355,9.24414 -6.73535,0 -12.6001,-3.73486 -15.64355,-9.24414 l -4.07764,0 c 0,-11.50146 0,-27.44971 0,-27.44971 1e-5,-0.68359 0.55616,-1.23926 1.23975,-1.23926 z"
         id="path263"
         inkscape:connector-curvature="0" />
      <g
         enable-background="new    "
         id="g265">
        <path
           d="m 253.07761,32.95605 c 0.31738,0 0.60742,0.02832 0.87012,0.08398 0.26172,0.05566 0.48535,0.14746 0.67285,0.27539 0.18652,0.12695 0.33203,0.29688 0.43457,0.50781 0.10254,0.21191 0.1543,0.47266 0.1543,0.78418 0,0.33594 -0.0762,0.61523 -0.22949,0.83887 -0.15234,0.22461 -0.37891,0.40723 -0.67773,0.55078 0.41211,0.11816 0.71973,0.3252 0.92285,0.62109 0.20312,0.29589 0.30469,0.65234 0.30469,1.06934 0,0.33594 -0.0654,0.62695 -0.19629,0.87305 -0.13086,0.24512 -0.30762,0.44629 -0.52832,0.60156 -0.22168,0.15625 -0.47461,0.27148 -0.75781,0.3457 -0.28418,0.0752 -0.5752,0.1123 -0.875,0.1123 l -3.23635,0 0,-6.66406 3.14161,0 0,10e-6 z m -0.1875,2.69532 c 0.26172,0 0.47656,-0.0625 0.64551,-0.18652 0.16797,-0.12402 0.25195,-0.3252 0.25195,-0.60449 0,-0.15527 -0.0283,-0.2832 -0.084,-0.38184 -0.0566,-0.09961 -0.13086,-0.17676 -0.22461,-0.2334 -0.0937,-0.05566 -0.20117,-0.09473 -0.32227,-0.11621 -0.1211,-0.02148 -0.24805,-0.03223 -0.37793,-0.03223 l -1.37402,0 0,1.55469 1.48535,0 z m 0.0859,2.82812 c 0.14355,0 0.28027,-0.01367 0.41113,-0.04199 0.13086,-0.02832 0.24609,-0.0752 0.34668,-0.13965 0.0996,-0.06543 0.17871,-0.1543 0.23828,-0.2666 0.0596,-0.11133 0.0889,-0.25488 0.0889,-0.42871 0,-0.3418 -0.0967,-0.58594 -0.29004,-0.73242 -0.19336,-0.14551 -0.44922,-0.21875 -0.7666,-0.21875 l -1.59961,0 0,1.82812 1.57129,0 z"
           id="path267"
           style="fill:#ffffff"
           inkscape:connector-curvature="0" />
        <path
           d="m 255.78854,32.95605 1.64355,0 1.56055,2.63184 1.55078,-2.63184 1.63379,0 -2.47363,4.10645 0,2.55762 -1.46875,0 0,-2.59473 -2.44629,-4.06934 z"
           id="path269"
           style="fill:#ffffff"
           inkscape:connector-curvature="0" />
      </g>
      <g
         id="g5908_1_"
         transform="matrix(0.872921,0,0,0.872921,50.12536,143.2144)">
        <path
           id="path5906_1_"
           cx="296.35416"
           ry="22.939548"
           cy="264.3577"
           type="arc"
           rx="22.939548"
           d="m 186.90065,-141.46002 c 0.006,8.68079 -7.02786,15.7215 -15.70808,15.72711 -8.68022,0.006 -15.72206,-7.02734 -15.7271,-15.70807 0,-0.006 0,-0.0123 0,-0.019 -0.005,-8.68079 7.02786,-15.7215 15.70808,-15.72656 8.68135,-0.006 15.72206,7.02734 15.7271,15.70813 0,0.006 0,0.0123 0,0.0184 z"
           style="fill:#ffffff"
           inkscape:connector-curvature="0" />
        <g
           id="g5706_1_"
           transform="translate(-289.6157,99.0653)">
          <path
             id="path5708_1_"
             d="m 473.57574,-253.32751 c 3.48541,3.48541 5.22839,7.75391 5.22839,12.80219 0,5.04938 -1.71277,9.27203 -5.13831,12.66791 -3.63531,3.5766 -7.93182,5.36432 -12.88947,5.36432 -4.89777,0 -9.11987,-1.77319 -12.66513,-5.31952 -3.54581,-3.54584 -5.31845,-7.78302 -5.31845,-12.71271 0,-4.92859 1.77264,-9.19598 5.31845,-12.80219 3.4552,-3.48651 7.67728,-5.22949 12.66513,-5.22949 5.0483,-10e-6 9.31404,1.74297 12.79939,5.22949 z m -23.11798,2.34484 c -2.94672,2.97638 -4.41953,6.46289 -4.41953,10.46234 0,3.99835 1.45828,7.45526 4.37424,10.37067 2.9165,2.9165 6.38849,4.37421 10.41705,4.37421 4.02856,0 7.53015,-1.47223 10.50653,-4.4184 2.82593,-2.73645 4.23944,-6.17706 4.23944,-10.32648 0,-4.11804 -1.43646,-7.61346 -4.30768,-10.48468 -2.87067,-2.87067 -6.34991,-4.30658 -10.43829,-4.30658 -4.0884,1e-5 -7.54638,1.44318 -10.37176,4.32892 z m 7.75449,8.70319 c -0.45029,-0.98169 -1.1243,-1.47284 -2.02322,-1.47284 -1.58917,0 -2.38345,1.07007 -2.38345,3.20911 0,2.13953 0.79428,3.2085 2.38345,3.2085 1.04938,0 1.79892,-0.52075 2.24866,-1.56451 l 2.20276,1.17297 c -1.04993,1.86548 -2.62509,2.79846 -4.72549,2.79846 -1.6199,0 -2.91763,-0.4967 -3.89206,-1.48901 -0.9761,-0.99341 -1.46274,-2.36273 -1.46274,-4.10852 0,-1.71503 0.50229,-3.07654 1.50748,-4.08502 1.00519,-1.00854 2.25702,-1.51257 3.75781,-1.51257 2.22012,0 3.80981,0.87488 4.77081,2.62286 l -2.38401,1.22057 z m 10.36337,0 c -0.45087,-0.98169 -1.11145,-1.47284 -1.98242,-1.47284 -1.62103,0 -2.43213,1.07007 -2.43213,3.20911 0,2.13953 0.8111,3.2085 2.43213,3.2085 1.05109,0 1.78717,-0.52075 2.20728,-1.56451 l 2.25201,1.17297 c -1.04828,1.86548 -2.62122,2.79846 -4.71771,2.79846 -1.61768,0 -2.9126,-0.4967 -3.88647,-1.48901 -0.97217,-0.99341 -1.45935,-2.36273 -1.45935,-4.10852 0,-1.71503 0.49445,-3.07654 1.48285,-4.08502 0.98785,-1.00854 2.2453,-1.51257 3.7735,-1.51257 2.21619,0 3.80365,0.87488 4.76129,2.62286 l -2.43098,1.22057 z"
             inkscape:connector-curvature="0" />
        </g>
      </g>
      <g
         id="g275">
        <circle
           cx="255.55124"
           cy="15.31348"
           r="10.80664"
           id="circle277"
           sodipodi:cx="255.55124"
           sodipodi:cy="15.31348"
           sodipodi:rx="10.80664"
           sodipodi:ry="10.80664"
           style="fill:#ffffff"
           d="m 266.35788,15.31348 c 0,5.968343 -4.8383,10.80664 -10.80664,10.80664 -5.96834,0 -10.80664,-4.838297 -10.80664,-10.80664 0,-5.9683419 4.8383,-10.8066393 10.80664,-10.8066393 5.96834,0 10.80664,4.8382974 10.80664,10.8066393 z" />
        <g
           id="g279">
          <path
             d="m 258.67819,12.18701 c 0,-0.4165 -0.33789,-0.75391 -0.75293,-0.75391 l -4.77344,0 c -0.41504,0 -0.75293,0.3374 -0.75293,0.75391 l 0,4.77295 1.33105,0 0,5.65186 3.61719,0 0,-5.65186 1.33105,0 0,-4.77295 10e-6,0 z"
             id="path281"
             inkscape:connector-curvature="0" />
          <circle
             cx="255.53854"
             cy="9.1723604"
             r="1.63281"
             id="circle283"
             sodipodi:cx="255.53854"
             sodipodi:cy="9.1723604"
             sodipodi:rx="1.63281"
             sodipodi:ry="1.63281"
             d="m 257.17135,9.1723604 c 0,0.9017756 -0.73103,1.6328096 -1.63281,1.6328096 -0.90177,0 -1.63281,-0.731034 -1.63281,-1.6328096 0,-0.901776 0.73104,-1.63281 1.63281,-1.63281 0.90178,0 1.63281,0.731034 1.63281,1.63281 z" />
        </g>
        <path
           clip-rule="evenodd"
           d="m 255.5239,3.40723 c -3.23242,0 -5.96875,1.12793 -8.20801,3.38379 -2.29785,2.3335 -3.44629,5.0957 -3.44629,8.28467 0,3.18897 1.14844,5.93164 3.44629,8.22656 2.29785,2.29443 5.03418,3.44189 8.20801,3.44189 3.21289,0 5.99805,-1.15625 8.35352,-3.47119 2.21973,-2.19727 3.33008,-4.92969 3.33008,-8.19727 0,-3.26758 -1.12988,-6.02881 -3.3877,-8.28467 -2.25977,-2.25585 -5.02442,-3.38378 -8.2959,-3.38378 z m 0.0293,2.09961 c 2.64844,0 4.89746,0.93408 6.74707,2.80127 1.86914,1.84717 2.80371,4.10303 2.80371,6.76758 0,2.68359 -0.91504,4.91064 -2.74512,6.68018 -1.92871,1.90625 -4.19629,2.85889 -6.80566,2.85889 -2.61035,0 -4.85938,-0.94287 -6.74707,-2.82959 -1.88965,-1.88672 -2.83301,-4.12305 -2.83301,-6.70947 0,-2.58691 0.9541,-4.84229 2.8623,-6.76758 1.83009,-1.8672 4.06934,-2.80128 6.71778,-2.80128 z"
           id="path285"
           style="fill-rule:evenodd"
           inkscape:connector-curvature="0" />
      </g>
    </g>
    <path
       style="fill:#666666;fill-opacity:0;stroke:#000000;stroke-width:0;stroke-linecap:round;stroke-linejoin:round;stroke-miterlimit:4;stroke-opacity:1;stroke-dasharray:none"
       d="M 156.70933,919.5438 C 139.84816,917.81728 120.99165,911.62102 103.75301,902.14232 88.583612,893.8014 64.283568,870.91836 57.227754,858.33008 l -4.764308,-8.5 -16.631718,0 -16.631718,0 0,-107 c 0,-104.33333 0.09969,-107.09969 4,-111 3.976408,-3.97641 6.666667,-4 456.13148,-4 307.84098,0 453.36606,0.66072 456,2.07037 3.752,2.008 3.86852,5.35137 3.86852,111 l 0,108.92963 -323.78602,0 c -257.17758,0 -323.9858,0.5143 -324.7571,2.5 -2.82208,7.26534 -21.24788,28.58074 -32.32712,37.39676 -29.10848,23.16232 -64.67994,33.5995 -101.62044,29.81696 l 0,0 z m 38.32685,-25.93546 c 17.59083,-2.9689 42.38195,-14.75932 57.44751,-27.3215 15.19034,-12.6662 31.21538,-36.18872 36.8188,-54.04484 5.83018,-18.5787 7.1779,-47.23178 3.12376,-66.41192 -4.97928,-23.55696 -15.3654,-42.39848 -33.0607,-59.97557 -24.48454,-24.32098 -52.80248,-36.02443 -87.16554,-36.02443 -91.819412,0 -150.54791,94.9631 -109.893988,177.69694 5.633706,11.46502 11.57943,19.36284 23.70682,31.49022 30.459368,30.45938 66.239958,41.8119 109.023338,34.5911 l 0,0 z m 434.77723,-68.7616 c 17.29508,-4.50479 29.40594,-11.47449 42.33186,-24.36163 35.06882,-34.96362 34.8519,-93.17787 -0.47886,-128.50864 -18.806,-18.80598 -36.82756,-26.10309 -64.4664,-26.10309 -27.63884,0 -45.6604,7.29711 -64.4664,26.10309 -35.63932,35.63932 -35.85722,92.77832 -0.48862,128.12347 23.99202,23.9761 55.90386,32.99438 87.56842,24.7468 z"
       id="path3823"
       inkscape:connector-curvature="0"
       transform="translate(-420.00001,-619.00001)" />
    <path
       style="fill:#666666;fill-opacity:0;stroke:#000000;stroke-width:0;stroke-linecap:round;stroke-linejoin:round;stroke-miterlimit:4;stroke-opacity:1;stroke-dasharray:none"
       d="M 151.67099,919.22094 C 115.75156,913.83696 81.679996,892.636 59.90326,862.11864 l -9.05436,-12.68856 -15.824445,0 -15.824445,0 0,-106.61774 c 0,-88.92223 0.471146,-107.26209 2.838714,-110.5 2.793592,-3.82055 10.023506,-3.89041 454.835766,-4.3952 292.15564,-0.33155 453.82328,0.18139 457.16128,1.45049 l 5.16424,1.96345 0,109.0495 0,109.0495 -323.67896,0 -323.67898,0 -2.12172,4.65668 c -4.02436,8.83248 -22.948,29.66662 -35.21746,38.77292 -29.57788,21.9525 -67.45872,31.66338 -102.8319,26.36126 z m 59.94094,-29.59738 c 17.06722,-5.47166 40.5253,-21.12518 53.62946,-35.78678 39.83132,-44.56538 39.70304,-118.23574 -0.28402,-163.10022 -12.89192,-14.46441 -36.46576,-30.11195 -53.34544,-35.40896 -18.39627,-5.77293 -47.26503,-7.17832 -65.8917,-3.20775 -76.940838,16.40118 -119.382405,104.77439 -83.823878,174.54079 16.357994,32.09464 44.998208,56.01158 77.626258,64.82434 19.53485,5.2763 52.4787,4.42566 72.08932,-1.86142 l 0,0 z m 420.78446,-65.33662 c 24.1917,-7.03272 46.87324,-25.99329 56.98452,-47.63608 28.85362,-61.75992 -14.64832,-131.22078 -82.1809,-131.22078 -67.59212,0 -111.27878,69.26705 -82.41934,130.67936 10.04364,21.37266 32.99746,41.05558 56.21962,48.20837 12.45962,3.83777 38.14154,3.82235 51.3961,-0.0309 l 0,-1e-5 z"
       id="path4593"
       inkscape:connector-curvature="0"
       transform="translate(-420.00001,-619.00001)" />
    <path
       style="fill:#666666;fill-opacity:1;stroke:#000000;stroke-width:0;stroke-linecap:round;stroke-linejoin:round;stroke-miterlimit:4;stroke-opacity:1;stroke-dasharray:none"
       d="M 151.67099,919.22094 C 115.75156,913.83696 81.679996,892.636 59.90326,862.11864 l -9.05436,-12.68856 -15.824445,0 -15.824445,0 0,-106.61774 c 0,-88.92223 0.471146,-107.26209 2.838714,-110.5 2.793592,-3.82055 10.023506,-3.89041 454.835766,-4.3952 292.15564,-0.33155 453.82328,0.18139 457.16128,1.45049 l 5.16424,1.96345 0,109.0495 0,109.0495 -323.67896,0 -323.67898,0 -2.12172,4.65668 c -4.02436,8.83248 -22.948,29.66662 -35.21746,38.77292 -29.57788,21.9525 -67.45872,31.66338 -102.8319,26.36126 z m 59.94094,-29.59738 c 17.06722,-5.47166 40.5253,-21.12518 53.62946,-35.78678 39.83132,-44.56538 39.70304,-118.23574 -0.28402,-163.10022 -12.89192,-14.46441 -36.46576,-30.11195 -53.34544,-35.40896 -18.39627,-5.77293 -47.26503,-7.17832 -65.8917,-3.20775 -76.940838,16.40118 -119.382405,104.77439 -83.823878,174.54079 16.357994,32.09464 44.998208,56.01158 77.626258,64.82434 19.53485,5.2763 52.4787,4.42566 72.08932,-1.86142 l 0,0 z m 420.78446,-65.33662 c 24.1917,-7.03272 46.87324,-25.99329 56.98452,-47.63608 28.85362,-61.75992 -14.64832,-131.22078 -82.1809,-131.22078 -67.59212,0 -111.27878,69.26705 -82.41934,130.67936 10.04364,21.37266 32.99746,41.05558 56.21962,48.20837 12.45962,3.83777 38.14154,3.82235 51.3961,-0.0309 l 0,-1e-5 z"
       id="path4595"
       inkscape:connector-curvature="0"
       transform="translate(-420.00001,-619.00001)" />
  </g>
  <g
     inkscape:groupmode="layer"
     id="layer8"
     inkscape:label="Text"
     style="display:none">
    <text
       xml:space="preserve"
       style="font-size:150.67648315px;font-style:normal;font-variant:normal;font-weight:normal;font-stretch:normal;line-height:125%;letter-spacing:0px;word-spacing:0px;fill:#ffffff;fill-opacity:1;stroke:#000000;stroke-width:4;stroke-miterlimit:4;stroke-opacity:1;stroke-dasharray:none;display:inline;font-family:Arial;-inkscape-font-specification:Arial"
       x="-396.33774"
       y="-480.16385"
       id="text3755"
       sodipodi:linespacing="125%"
       transform="matrix(1.0000721,0,0,0.99992791,420.00001,619.00001)"><tspan
         sodipodi:role="line"
         id="tspan3757"
         x="-396.33774"
         y="-480.16385"
         style="stroke:#000000;stroke-width:4;stroke-opacity:1">CHAMPIONS</tspan></text>
    <text
       xml:space="preserve"
       style="font-size:372.72262573px;font-style:normal;font-variant:normal;font-weight:normal;font-stretch:normal;line-height:125%;letter-spacing:0px;word-spacing:0px;fill:#ffffff;fill-opacity:1;stroke:#000000;stroke-width:3.99999976;stroke-miterlimit:4;stroke-opacity:1;stroke-dasharray:none;display:inline;font-family:Arial;-inkscape-font-specification:Arial"
       x="-404.51382"
       y="-209.49393"
       id="text3759"
       sodipodi:linespacing="125%"
       transform="matrix(0.99959227,0,0,1.0004079,420.00001,619.00001)"><tspan
         sodipodi:role="line"
         id="tspan3761"
         x="-404.51382"
         y="-209.49393"
         style="stroke-width:3.99999976">share</tspan></text>
    <text
       xml:space="preserve"
       style="font-size:274.65563965px;font-style:normal;font-variant:normal;font-weight:normal;font-stretch:normal;line-height:125%;letter-spacing:0px;word-spacing:0px;fill:#ffffff;fill-opacity:1;stroke:#000000;stroke-width:4;stroke-miterlimit:4;stroke-opacity:1;stroke-dasharray:none;display:inline;font-family:Arial;-inkscape-font-specification:Arial"
       x="-416.81842"
       y="-7.8455939"
       id="text3759-1"
       sodipodi:linespacing="125%"
       transform="matrix(0.98340224,0,0,1.0168779,420.00001,619.00001)"><tspan
         sodipodi:role="line"
         id="tspan3761-7"
         x="-416.81842"
         y="-7.8455939"
         style="stroke:#000000;stroke-width:4;stroke-opacity:1">the love</tspan></text>
  </g>
  <g
     inkscape:groupmode="layer"
     id="layer9"
     inkscape:label="PathsFromText">
    <g
       transform="scale(1.0000721,0.99992791)"
       style="font-size:150.67648315px;font-style:normal;font-variant:normal;font-weight:normal;font-stretch:normal;line-height:125%;letter-spacing:0px;word-spacing:0px;fill:#ffffff;fill-opacity:1;stroke:#000000;stroke-width:4;stroke-miterlimit:4;stroke-opacity:1;display:inline;font-family:Arial;-inkscape-font-specification:Arial"
       id="text3755-2">
      <path
         d="m 112.21328,101.06453 14.27307,3.60506 c -2.99205,11.72257 -8.3751,20.66162 -16.14916,26.81717 -7.77424,6.15557 -17.27735,9.23335 -28.509349,9.23335 -11.624502,0 -21.078559,-2.36658 -28.362199,-7.09975 -7.2837,-4.73315 -12.826157,-11.58765 -16.627386,-20.56351 -3.801255,-8.97581 -5.701876,-18.613798 -5.701869,-28.913993 -7e-6,-11.232002 2.145855,-21.029397 6.437594,-29.392214 4.291711,-8.362649 10.398223,-14.714402 18.319553,-19.055278 7.921266,-4.34067 16.639599,-6.511057 26.155025,-6.511166 10.790564,1.09e-4 19.864501,2.746813 27.221821,8.24012 7.35716,5.493509 12.48271,13.218614 15.37666,23.175338 l -14.05235,3.310762 c -2.50155,-7.84765 -6.13112,-13.561776 -10.888731,-17.142393 -4.75776,-3.580432 -10.741651,-5.370695 -17.95169,-5.370792 -8.289219,9.7e-5 -15.217289,1.986553 -20.784232,5.959372 -5.567018,3.973003 -9.478619,9.307004 -11.734814,16.00202 -2.256247,6.695166 -3.384357,13.598712 -3.384335,20.710659 -2.2e-5,9.172084 1.336543,17.179215 4.009701,24.021425 2.673105,6.84226 6.829948,11.95555 12.470539,15.33986 5.640514,3.38435 11.747026,5.07652 18.319553,5.07651 7.994814,1e-5 14.763477,-2.30526 20.306009,-6.91582 5.54238,-4.61052 9.29457,-11.45276 11.25659,-20.52673 z"
         style="stroke:#000000"
         id="path4655" />
      <path
         d="m 144.58518,138.8808 0,-107.857289 14.27307,0 0,44.290646 56.06224,0 0,-44.290646 14.27307,0 0,107.857289 -14.27307,0 0,-50.8386 -56.06224,0 0,50.8386 z"
         style="stroke:#000000"
         id="path4657" />
      <path
         d="m 241.18587,138.8808 41.42132,-107.857289 15.37665,0 44.1435,107.857289 -16.25952,0 -12.5809,-32.66619 -45.09994,0 -11.84517,32.66619 z m 31.12117,-44.290648 36.56553,0 -11.25659,-29.870435 c -3.43344,-9.073859 -5.98395,-16.529198 -7.65154,-22.366041 -1.3734,6.915905 -3.31081,13.782665 -5.81223,20.600301 z"
         style="stroke:#000000"
         id="path4659" />
      <path
         d="m 353.2368,138.8808 0,-107.857289 21.48317,0 25.52965,76.368259 c 2.35426,7.11203 4.07095,12.43377 5.15008,15.96523 1.22614,-3.92385 3.13903,-9.68702 5.73865,-17.28954 l 25.82395,-75.043949 19.20243,0 0,107.857289 -13.75806,0 0,-90.273461 -31.34189,90.273461 -12.87519,0 -31.19474,-91.818484 0,91.818484 z"
         style="stroke:#000000"
         id="path4661" />
      <path
         d="m 479.34007,138.8808 0,-107.857289 40.68559,0 c 7.161,1.08e-4 12.62988,0.343446 16.40667,1.030015 5.29714,0.882976 9.73601,2.56288 13.31662,5.039716 3.58044,2.477041 6.46203,5.947207 8.64477,10.410509 2.18256,4.463486 3.27388,9.368314 3.27397,14.714501 -9e-5,9.172106 -2.91846,16.933997 -8.75512,23.285696 -5.83683,6.351807 -16.38222,9.527683 -31.63618,9.527639 l -27.66326,0 0,43.849213 z m 14.27306,-56.577255 27.88398,0 c 9.22102,5.6e-5 15.76897,-1.716634 19.64386,-5.150075 3.87474,-3.433319 5.81215,-8.264575 5.81222,-14.493783 -7e-5,-4.512366 -1.14045,-8.374919 -3.42112,-11.587669 -2.28082,-3.212575 -5.28503,-5.333913 -9.01263,-6.364022 -2.40343,-0.637533 -6.8423,-0.956347 -13.31662,-0.956442 l -27.58969,0 z"
         style="stroke:#000000"
         id="path4663" />
      <path
         d="m 582.41511,138.8808 0,-107.857289 14.27307,0 0,107.857289 z"
         style="stroke:#000000"
         id="path4665" />
      <path
         d="m 617.43563,86.350032 c -10e-6,-17.902571 4.80672,-31.918119 14.42021,-42.046684 9.61344,-10.128377 22.02266,-15.192612 37.22768,-15.192722 9.95675,1.1e-4 18.93258,2.378952 26.92754,7.136533 7.99478,4.757786 14.08903,11.391567 18.28277,19.901361 4.19352,8.509961 6.29034,18.160211 6.29045,28.95078 -1.1e-4,10.937821 -2.20729,20.72295 -6.62153,29.35543 -4.41445,8.63252 -10.66811,15.1682 -18.76099,19.60707 -8.09305,4.43887 -16.82364,6.65831 -26.19181,6.65831 -10.15305,0 -19.22698,-2.45242 -27.22182,-7.35725 -7.99491,-4.90482 -14.05237,-11.59991 -18.17241,-20.08529 -4.12007,-8.48533 -6.1801,-17.461166 -6.18009,-26.927538 z m 14.7145,0.220718 c -2e-5,12.997848 3.49467,23.23668 10.48408,30.71652 6.98935,7.47988 15.75673,11.21982 26.30217,11.21981 10.74152,1e-5 19.58247,-3.77671 26.52289,-11.33017 6.94024,-7.55341 10.41041,-18.270464 10.41051,-32.151183 -10e-5,-8.779589 -1.48381,-16.443384 -4.45114,-22.991407 -2.96751,-6.547869 -7.30829,-11.624366 -13.02233,-15.229507 -5.71421,-3.604957 -12.12727,-5.407482 -19.23921,-5.407579 -10.10401,9.7e-5 -18.79782,3.470263 -26.08145,10.410509 -7.28371,6.940419 -10.92554,18.528077 -10.92552,34.763007 z"
         style="stroke:#000000"
         id="path4667" />
      <path
         d="m 738.7567,138.8808 0,-107.857289 14.64093,0 56.65083,84.681949 0,-84.681949 13.68448,0 0,107.857289 -14.64093,0 -56.65082,-84.755523 0,84.755523 z"
         style="stroke:#000000"
         id="path4669" />
      <path
         d="m 842.93533,104.22815 13.46377,-1.17716 c 0.63761,5.39535 2.12132,9.82196 4.45113,13.27984 2.32977,3.45792 5.94708,6.25368 10.85195,8.38726 4.90479,2.13362 10.42272,3.20042 16.55381,3.20041 5.44431,1e-5 10.25104,-0.80929 14.42021,-2.4279 4.16904,-1.61858 7.27134,-3.83801 9.30692,-6.65831 2.03543,-2.82025 3.05318,-5.89803 3.05326,-9.23335 -8e-5,-3.3843 -0.98104,-6.33946 -2.9429,-8.86548 -1.96201,-2.525952 -5.19919,-4.647291 -9.71157,-6.364025 -2.89391,-1.128066 -9.29471,-2.881542 -19.20242,-5.260434 -9.9078,-2.378792 -16.84813,-4.622751 -20.82102,-6.731884 -5.1501,-2.697599 -8.98812,-6.045145 -11.5141,-10.042646 -2.526,-3.997369 -3.78899,-8.473025 -3.78898,-13.426982 -10e-6,-5.44428 1.54501,-10.533039 4.63507,-15.266294 3.09002,-4.733064 7.60247,-8.325851 13.53734,-10.778371 5.93481,-2.452309 12.53181,-3.678516 19.791,-3.678625 7.99482,1.09e-4 15.04551,1.287627 21.1521,3.862556 6.10644,2.575141 10.80281,6.364121 14.08913,11.366951 3.28615,5.00302 5.05189,10.668097 5.29722,16.995248 l -13.68449,1.030015 c -0.7358,-6.817635 -3.225,-11.967705 -7.4676,-15.450225 -4.24275,-3.482336 -10.50867,-5.223551 -18.79778,-5.223648 -8.63255,9.7e-5 -14.92299,1.581905 -18.87135,4.745427 -3.94841,3.163706 -5.92261,6.977211 -5.92258,11.440524 -3e-5,3.874895 1.39785,7.063034 4.19363,9.564425 2.74668,2.501534 9.91999,5.064307 21.51996,7.688326 11.59987,2.624147 19.55795,4.917155 23.87427,6.879029 6.27811,2.893906 10.91317,6.560265 13.90521,10.999089 2.99185,4.438916 4.48783,9.552204 4.48792,15.339864 -9e-5,5.73868 -1.64321,11.14626 -4.92936,16.22274 -3.28632,5.07651 -8.00722,9.0249 -14.1627,11.84517 -6.15564,2.82028 -13.08371,4.23042 -20.78424,4.23042 -9.76066,0 -17.93946,-1.4224 -24.53643,-4.2672 -6.59702,-2.8448 -11.77161,-7.12427 -15.52379,-12.83841 -3.75221,-5.71411 -5.7264,-12.17622 -5.92259,-19.38635 z"
         style="stroke:#000000"
         id="path4671" />
    </g>
    <g
       transform="scale(0.99959227,1.0004079)"
       style="font-size:372.72262573px;font-style:normal;font-variant:normal;font-weight:normal;font-stretch:normal;line-height:125%;letter-spacing:0px;word-spacing:0px;fill:#ffffff;fill-opacity:1;stroke:#000000;stroke-width:3.99999976;stroke-miterlimit:4;stroke-opacity:1;display:inline;font-family:Arial;-inkscape-font-specification:Arial"
       id="text3759-9">
      <path
         d="m 27.123091,351.56176 32.394837,-5.09581 c 1.819889,12.98225 6.885369,22.93121 15.196455,29.84692 8.310968,6.91578 19.928206,10.37365 34.851747,10.37363 15.04469,2e-5 26.20694,-3.06353 33.4868,-9.19067 7.27961,-6.12707 10.91947,-13.31581 10.91961,-21.56622 -1.4e-4,-7.40101 -3.21535,-13.2248 -9.64565,-17.47138 -4.4893,-2.91182 -15.65156,-6.61235 -33.4868,-11.1016 C 86.816878,321.29027 70.164492,316.0428 60.882879,311.6142 51.601176,307.18579 44.564103,301.05868 39.771637,293.23286 c -4.792514,-7.8256 -7.188759,-16.47028 -7.188742,-25.93407 -1.7e-5,-8.61421 1.971577,-16.59158 5.914788,-23.93214 3.943165,-7.34023 9.311967,-13.43701 16.106422,-18.29035 5.095773,-3.76101 12.04185,-6.94589 20.838252,-9.55466 8.796282,-2.60837 18.229601,-3.91266 28.299983,-3.91286 15.16602,2e-4 28.48186,2.18412 39.94757,6.55177 11.46545,4.36803 19.92813,10.28281 25.38809,17.74436 5.45964,7.4619 9.22084,17.4412 11.28359,29.93793 l -32.03085,4.36784 c -1.45608,-9.94883 -5.67226,-17.71387 -12.64854,-23.29516 -6.97653,-5.58097 -16.8345,-8.37153 -29.57394,-8.3717 -15.044872,1.7e-4 -25.782476,2.48741 -32.212848,7.46173 -6.430487,4.97465 -9.645702,10.79843 -9.645653,17.47137 -4.9e-5,4.24666 1.334568,8.06852 4.003856,11.46559 2.669182,3.51867 6.855028,6.43057 12.557549,8.73569 3.275814,1.21341 12.921459,4.00398 28.936966,8.3717 23.17371,6.18789 39.34078,11.25337 48.50126,15.19645 9.16018,3.94329 16.34892,9.67608 21.56622,17.19839 5.21698,7.52247 7.82555,16.86479 7.82572,28.02699 -1.7e-4,10.91965 -3.18505,21.20227 -9.55466,30.84789 -6.36992,9.64567 -15.56058,17.1074 -27.57201,22.3852 -12.01169,5.27781 -25.60052,7.91671 -40.76653,7.91672 C 84.632958,413.62153 65.493331,408.40439 52.329186,397.9701 39.164968,387.53583 30.762945,372.0664 27.123091,351.56176 z"
         style=""
         id="path4674" />
      <path
         d="m 226.58793,409.25369 0,-266.80242 32.75883,0 0,95.72856 c 15.28738,-17.71384 34.57867,-26.57085 57.87392,-26.57105 14.31669,2e-4 26.7529,2.8211 37.30866,8.4627 10.55546,5.64198 18.10818,13.43736 22.65819,23.38616 4.54966,9.94913 6.82457,24.38727 6.82475,43.31445 l 0,122.4816 -32.75882,0 0,-122.4816 c -1.5e-4,-16.37928 -3.54902,-28.29984 -10.64662,-35.76172 -7.09787,-7.46157 -17.13784,-11.19243 -30.11992,-11.1926 -9.70641,1.7e-4 -18.83641,2.51775 -27.39001,7.55273 -8.55377,5.03531 -14.65054,11.86006 -18.29035,20.47427 -3.63993,8.61449 -5.45986,20.50472 -5.4598,35.67072 l 0,105.7382 z"
         style=""
         id="path4676" />
      <path
         d="m 560.18196,385.41255 c -12.13304,10.31297 -23.81094,17.59271 -35.03375,21.83921 -11.22303,4.24652 -23.26492,6.36977 -36.1257,6.36978 -21.23263,-10e-6 -37.55136,-5.18682 -48.95624,-15.56045 -11.40495,-10.3736 -17.1074,-23.62878 -17.10739,-39.76557 -1e-5,-9.4636 2.15357,-18.10828 6.46077,-25.93407 4.30715,-7.82563 9.94895,-14.1044 16.92539,-18.83632 6.97637,-4.73173 14.83242,-8.31093 23.56816,-10.73762 6.43037,-1.69849 16.13667,-3.33643 29.11895,-4.91382 26.4496,-3.15444 45.92288,-6.91563 58.41991,-11.2836 0.12118,-4.48904 0.18184,-7.34027 0.18199,-8.55369 -1.5e-4,-13.34604 -3.09404,-22.74903 -9.28167,-28.20899 -8.37183,-7.4009 -20.80804,-11.10143 -37.30866,-11.1016 -15.40887,1.7e-4 -26.78345,2.69974 -34.12378,8.09871 -7.34046,5.3993 -12.76992,14.95395 -16.28841,28.66397 l -32.03085,-4.36784 c 2.91187,-13.71002 7.70436,-24.78128 14.37748,-33.21381 6.67306,-8.43218 16.3187,-14.92328 28.93696,-19.4733 12.61814,-4.54964 27.23827,-6.82456 43.86043,-6.82476 16.50062,2e-4 29.90746,1.94146 40.22056,5.8238 10.3128,3.88271 17.89586,8.7662 22.74918,14.65047 4.85299,5.88463 8.25019,13.31602 10.19164,22.2942 1.09178,5.58128 1.63776,15.65158 1.63794,30.21092 l 0,43.67843 c -1.8e-4,30.45362 0.69746,49.71458 2.09292,57.78293 1.3951,8.06839 4.15533,15.8031 8.2807,23.20416 l -34.21477,0 c -3.39736,-6.79441 -5.58128,-14.74145 -6.55176,-23.84114 z m -2.7299,-73.16138 c -11.89038,4.85325 -29.72572,8.97844 -53.50608,12.37556 -13.4676,1.94135 -22.99192,4.12527 -28.57298,6.55176 -5.58119,2.42666 -9.88837,5.97553 -12.92154,10.64662 -3.03327,4.67123 -4.54988,9.85804 -4.54983,15.56044 -5e-5,8.73573 3.30616,16.01546 9.91864,21.83922 6.61237,5.82382 16.28834,8.73571 29.02796,8.73569 12.61811,2e-5 23.84103,-2.76021 33.66879,-8.28071 9.82752,-5.52043 17.04659,-13.07315 21.65722,-22.65818 3.5184,-7.40101 5.27767,-18.32061 5.27782,-32.75883 z"
         style=""
         id="path4678" />
      <path
         d="m 641.16903,409.25369 0,-193.27706 29.48294,0 0,29.30095 c 7.52234,-13.71 14.46841,-22.749 20.83825,-27.11703 6.36969,-4.36765 13.37644,-6.55157 21.02025,-6.55177 11.04083,2e-4 22.26375,3.51874 33.66879,10.55563 l -11.28359,30.39291 c -8.00783,-4.73167 -16.01553,-7.09759 -24.02314,-7.09775 -7.1585,1.6e-4 -13.58893,2.15375 -19.29131,6.46077 -5.70253,4.30733 -9.76705,10.28278 -12.19356,17.92635 -3.63993,11.64771 -5.45986,24.38724 -5.45981,38.21863 l 0,101.18837 z"
         style=""
         id="path4680" />
      <path
         d="m 898.32579,347.01193 33.85079,4.18585 c -5.33867,19.77666 -15.22697,35.12476 -29.66494,46.04434 -14.4383,10.91961 -32.88028,16.37941 -55.32601,16.37942 -28.26973,-10e-6 -50.68524,-8.70535 -67.24659,-26.11607 -16.56143,-17.41067 -24.84212,-41.8281 -24.84211,-73.25237 -1e-5,-32.51604 8.37168,-57.75244 25.1151,-75.70928 16.74334,-17.9565 38.46121,-26.93484 65.15366,-26.93504 25.84294,2e-4 46.95416,8.79654 63.33373,26.38906 16.37923,17.59285 24.56892,42.34394 24.56912,74.25333 -2e-4,1.94136 -0.0609,4.85325 -0.182,8.73569 l -144.13883,0 c 1.21325,21.23264 7.21902,37.49071 18.01736,48.77425 10.7982,11.28362 24.2657,16.92541 40.40255,16.92539 12.01145,2e-5 22.26374,-3.15453 30.75689,-9.46366 8.49289,-6.30907 15.22664,-16.37936 20.20128,-30.21091 z m -107.55814,-52.9601 107.92213,0 c -1.45611,-16.25796 -5.58129,-28.45151 -12.37556,-36.58069 -10.43443,-12.61805 -23.96259,-18.92715 -40.58454,-18.92732 -15.04489,1.7e-4 -27.69342,5.03532 -37.94564,15.10546 -10.25236,10.07045 -15.92448,23.53795 -17.01639,40.40255 z"
         style=""
         id="path4682" />
    </g>
    <g
       transform="scale(0.98340224,1.0168779)"
       style="font-size:274.65563965px;font-style:normal;font-variant:normal;font-weight:normal;font-stretch:normal;line-height:125%;letter-spacing:0px;word-spacing:0px;fill:#ffffff;fill-opacity:1;stroke:#000000;stroke-width:4;stroke-miterlimit:4;stroke-opacity:1;display:inline;font-family:Arial;-inkscape-font-specification:Arial"
       id="text3759-1-4">
      <path
         d="m 81.079963,579.28879 3.486839,21.32336 c -6.794934,1.4305 -12.874545,2.14575 -18.238851,2.14575 -8.761848,0 -15.556708,-1.3858 -20.384598,-4.15739 -4.827962,-2.77158 -8.225392,-6.41488 -10.1923,-10.9299 -1.966958,-4.51499 -2.950424,-14.01438 -2.950402,-28.4982 l 0,-81.94072 -17.702414,0 0,-18.77529 17.702414,0 0,-35.27072 24.005547,-14.48379 0,49.75451 24.273765,0 0,18.77529 -24.273765,0 0,83.28181 c -4.7e-5,6.88431 0.424632,11.30991 1.274037,13.27681 0.84931,1.96696 2.235103,3.53157 4.157385,4.69382 1.922178,1.16231 4.671414,1.74345 8.247716,1.74342 2.682121,3e-5 6.21366,-0.3129 10.594627,-0.93876 z"
         style="stroke:#000000"
         id="path4685" />
      <path
         d="m 104.54907,600.88037 0,-196.60408 24.13966,0 0,70.54143 c 11.26512,-13.05315 25.48068,-19.57979 42.64673,-19.57994 10.54982,1.5e-4 19.71394,2.07884 27.49238,6.23608 7.77821,4.15752 13.34374,9.90186 16.6966,17.23303 3.35259,7.33142 5.02896,17.97074 5.02909,31.91799 l 0,90.25549 -24.13965,0 0,-90.25549 c -1.1e-4,-12.06973 -2.61524,-20.85387 -7.84539,-26.35246 -5.23036,-5.49835 -12.62871,-8.24759 -22.19508,-8.24771 -7.15256,1.2e-4 -13.88036,1.8553 -20.18343,5.56553 -6.30319,3.71047 -10.79584,8.73956 -13.47797,15.08728 -2.68223,6.34794 -4.02332,15.10973 -4.02328,26.28541 l 0,77.91744 z"
         style="stroke:#000000"
         id="path4687" />
      <path
         d="m 354.93095,555.01503 24.94431,3.08451 c -3.934,14.57322 -11.2206,25.88309 -21.8598,33.92962 -10.63943,8.04656 -24.22915,12.06983 -40.76919,12.06983 -20.83169,0 -37.34945,-6.41488 -49.55335,-19.24467 -12.20395,-12.82975 -18.30592,-30.82272 -18.30591,-53.97895 -1e-5,-23.96075 6.16901,-42.55721 18.50707,-55.78943 12.33801,-13.23197 28.34169,-19.84801 48.0111,-19.84816 19.04341,1.5e-4 34.60006,6.48208 46.67,19.44583 12.06969,12.96401 18.1046,31.20284 18.10474,54.71656 -1.4e-4,1.43057 -0.0448,3.57631 -0.13411,6.43724 l -106.21449,0 c 0.89403,15.64612 5.31963,27.62653 13.27681,35.94126 7.95709,8.3148 17.88117,12.47218 29.77225,12.47216 8.85112,2e-5 16.40593,-2.32454 22.66445,-6.97368 6.25832,-4.64909 11.22036,-12.06979 14.88612,-22.26212 z m -79.25853,-39.02578 79.52675,0 c -1.07299,-11.98033 -4.11279,-20.96563 -9.11942,-26.95595 -7.68903,-9.29812 -17.6578,-13.94723 -29.90636,-13.94736 -11.08642,1.3e-4 -20.407,3.71048 -27.96176,11.13107 -7.55486,7.42081 -11.7346,17.34488 -12.53921,29.77224 z"
         style="stroke:#000000"
         id="path4689" />
      <path
         d="m 485.95565,600.88037 0,-196.60408 24.13965,0 0,196.60408 z"
         style="stroke:#000000"
         id="path4691" />
      <path
         d="m 538.66054,529.66839 c 0,-26.37472 7.33129,-45.90994 21.99391,-58.60572 12.2486,-10.54979 27.17941,-15.82474 44.79248,-15.82489 19.57984,1.5e-4 35.58352,6.41503 48.01109,19.24467 12.42731,12.82989 18.64103,30.55464 18.64118,53.1743 -1.5e-4,18.32831 -2.74938,32.74503 -8.24772,43.25022 -5.4986,10.50524 -13.50045,18.66354 -24.00555,24.47492 -10.50532,5.8114 -21.97164,8.7171 -34.399,8.7171 -19.93763,0 -36.05307,-6.39253 -48.34637,-19.17761 -12.29336,-12.78505 -18.44002,-31.2027 -18.44002,-55.25299 z m 24.81021,0 c -4e-5,18.2389 3.97853,31.89567 11.93571,40.97036 7.9571,9.07474 17.97057,13.6121 30.04047,13.61208 11.98033,2e-5 21.9491,-4.55969 29.90635,-13.67914 7.95703,-9.11938 11.9356,-23.02202 11.93572,-41.70796 -1.2e-4,-17.61292 -4.00104,-30.95677 -12.00278,-40.03159 -8.00194,-9.07461 -17.94837,-13.61196 -29.83929,-13.61209 -12.0699,1.3e-4 -22.08337,4.51513 -30.04047,13.54503 -7.95718,9.03012 -11.93575,22.66454 -11.93571,40.90331 z"
         style="stroke:#000000"
         id="path4693" />
      <path
         d="m 740.0926,600.88037 -54.18012,-142.42397 25.48075,0 30.57689,85.29345 c 3.30797,9.20888 6.34777,18.77533 9.11943,28.69937 2.14568,-7.51008 5.14078,-16.54009 8.98532,-27.09006 l 31.64977,-86.90276 24.8102,0 -53.9119,142.42397 z"
         style="stroke:#000000"
         id="path4695" />
      <path
         d="m 935.35559,555.01503 24.94431,3.08451 c -3.93401,14.57322 -11.2206,25.88309 -21.8598,33.92962 -10.63944,8.04656 -24.22916,12.06983 -40.7692,12.06983 -20.83168,0 -37.34945,-6.41488 -49.55334,-19.24467 -12.20396,-12.82975 -18.30592,-30.82272 -18.30591,-53.97895 -10e-6,-23.96075 6.16901,-42.55721 18.50707,-55.78943 12.338,-13.23197 28.34169,-19.84801 48.01109,-19.84816 19.04341,1.5e-4 34.60006,6.48208 46.67,19.44583 12.0697,12.96401 18.1046,31.20284 18.10475,54.71656 -1.5e-4,1.43057 -0.0448,3.57631 -0.13411,6.43724 l -106.21449,0 c 0.89403,15.64612 5.31963,27.62653 13.27681,35.94126 7.95709,8.3148 17.88116,12.47218 29.77224,12.47216 8.85112,2e-5 16.40593,-2.32454 22.66446,-6.97368 6.25832,-4.64909 11.22036,-12.06979 14.88612,-22.26212 z m -79.25854,-39.02578 79.52676,0 c -1.07299,-11.98033 -4.1128,-20.96563 -9.11943,-26.95595 -7.68902,-9.29812 -17.6578,-13.94723 -29.90635,-13.94736 -11.08643,1.3e-4 -20.40701,3.71048 -27.96177,11.13107 -7.55486,7.42081 -11.73459,17.34488 -12.53921,29.77224 z"
         style="stroke:#000000"
         id="path4697" />
    </g>
  </g>
</svg>
