<?xml version="1.0" encoding="UTF-8" standalone="no"?>
<svg
   xmlns:dc="http://purl.org/dc/elements/1.1/"
   xmlns:cc="http://creativecommons.org/ns#"
   xmlns:rdf="http://www.w3.org/1999/02/22-rdf-syntax-ns#"
   xmlns:svg="http://www.w3.org/2000/svg"
   xmlns="http://www.w3.org/2000/svg"
   xmlns:xlink="http://www.w3.org/1999/xlink"
   xmlns:sodipodi="http://sodipodi.sourceforge.net/DTD/sodipodi-0.dtd"
   xmlns:inkscape="http://www.inkscape.org/namespaces/inkscape"
   width="960"
   height="960"
   id="svg2"
   version="1.1"
   inkscape:version="0.48.4 r9939"
   sodipodi:docname="champagne-glass-black.svg">
  <defs
     id="defs17">
    <linearGradient
       inkscape:collect="always"
       id="linearGradient3795">
      <stop
         style="stop-color:#666666;stop-opacity:1;"
         offset="0"
         id="stop3797" />
      <stop
         style="stop-color:#666666;stop-opacity:0;"
         offset="1"
         id="stop3799" />
    </linearGradient>
    <linearGradient
       inkscape:collect="always"
       xlink:href="#linearGradient3795"
       id="linearGradient3801"
       x1="122.982"
       y1="232.0994"
       x2="523.27899"
       y2="232.0994"
       gradientUnits="userSpaceOnUse" />
    <clipPath
       clipPathUnits="userSpaceOnUse"
       id="clipPath4229">
      <path
         inkscape:connector-curvature="0"
         style="fill:url(#linearGradient4233);fill-opacity:1;fill-rule:nonzero;stroke:none;stroke-width:1;marker:none;visibility:visible;display:inline;overflow:visible;enable-background:accumulate"
         d="m 1311.3886,869.85417 c -8.6558,0.041 -12.4628,2.81551 -13,4.53125 -0.5404,1.72632 -0.7822,3.59469 -0.625,5 0.1575,1.40531 0.5775,1.92229 0.5625,3.46875 -0.015,1.54646 -0.1085,10.2873 -0.1875,11.9375 -0.079,1.65021 -0.962,2.86791 -0.875,5 0.087,2.13209 1.4938,3.48705 1.4687,7.34375 1.2435,64.99295 -25.4323,87.42308 -24.9062,137.87508 l -0.4688,84 c -0.039,20.1032 32.1865,18.2187 37.9688,18.2187 l 0.2812,0 c 5.7836,0 38.0078,1.8845 37.9688,-18.2187 l -0.4688,-84 c 0.5262,-50.452 -26.1496,-72.88213 -24.9062,-137.87508 -0.025,-3.8567 1.3819,-5.21166 1.4688,-7.34375 0.087,-2.13209 -0.7965,-3.34979 -0.875,-5 -0.079,-1.6502 -0.2042,-10.39104 -0.2188,-11.9375 -0.015,-1.54646 0.405,-2.06344 0.5625,-3.46875 0.1572,-1.4053 -0.053,-3.27369 -0.5937,-5 -0.5372,-1.71574 -4.3441,-4.53125 -13,-4.53125 l -0.1563,0 0,0 z"
         id="path4231"
         sodipodi:nodetypes="csssssccczzcccssssssc"
         transform="translate(-1.79485,-2.324217)" />
    </clipPath>
  </defs>
  <sodipodi:namedview
     pagecolor="#ffffff"
     bordercolor="#666666"
     borderopacity="1"
     objecttolerance="10"
     gridtolerance="10"
     guidetolerance="10"
     inkscape:pageopacity="0"
     inkscape:pageshadow="2"
     inkscape:window-width="1600"
     inkscape:window-height="847"
     id="namedview15"
     showgrid="false"
     fit-margin-top="0"
     fit-margin-left="0"
     fit-margin-right="0"
     fit-margin-bottom="0"
     inkscape:zoom="0.446875"
     inkscape:cx="562.79723"
     inkscape:cy="342.37765"
     inkscape:window-x="-8"
     inkscape:window-y="-8"
     inkscape:window-maximized="1"
     inkscape:current-layer="svg2" />
  <title
     id="title4">champagne glass black</title>
  <metadata
     id="metadata3852">image/svg+xmlchampagne glasschampagnestemwareflute glasscheerscelebrationhappy timesparty2010-12-25Srinivasbala from netalloy.com<rdf:RDF>
  <cc:Work
     rdf:about="">
    <dc:format>image/svg+xml</dc:format>
    <dc:type
       rdf:resource="http://purl.org/dc/dcmitype/StillImage" />
  </cc:Work>
</rdf:RDF>
</metadata>
  <rect
     style="fill:#bb0000;fill-opacity:1;stroke:#ffffff;stroke-width:1.10000002;stroke-miterlimit:4;stroke-opacity:1;stroke-dasharray:none"
     id="rect2985"
     width="958.90002"
     height="958.90002"
     x="0.55000001"
     y="0.55000001" />
  <g
     id="g7"
     transform="matrix(1.547845,0,0,1.5476701,89.338245,185.97703)"
     style="fill:#666666;fill-opacity:1;stroke:#000000;stroke-width:2.5843842;stroke-miterlimit:4;stroke-opacity:1;stroke-dasharray:none">
    <title
       id="title9"
       style="fill:url(#linearGradient3801);fill-opacity:1">Layer 1</title>
    <path
       stroke-miterlimit="4"
       id="path3019"
       d="M 303.30099,66.911102 224.741,44.7117 C 202.19501,117.154 173.74,171.57899 200.595,254.97301 197.674,320.569 176.614,385.46399 162.701,385.66699 144.23801,385.936 122.493,380.712 123.418,389.414 l -0.436,6.677 c 8.98499,7.14701 22.695,13.871 49.65901,23.28299 31.10099,6.331 41.72799,5.452 55.401,5.646 l 2.54799,-7.366 c 3.38099,-9.772 -8.18801,-11.298 -32.87999,-23.182 C 181.825,386.827 200.949,311.34601 227.884,258.26099 286.83301,203.769 289.14401,121.532 303.30099,66.911102 l 0,0 z"
       inkscape:connector-curvature="0"
       style="fill:#666666;fill-opacity:1;stroke:#000000;stroke-width:2.5843842;stroke-miterlimit:4;stroke-opacity:1;stroke-dasharray:none" />
    <path
       stroke-miterlimit="4"
       d="M 397.996,25.278601 310.93701,47.3415 c 18.36698,81.42251 21.19498,148.9285 92.65399,213.6105 33.29901,64.10199 48.93201,137.51599 35.78699,145.363 -17.44299,10.41199 -41.034,17.39701 -35.36499,25.17899 l 3.258,6.60202 c 12.48999,1.866 29.25201,0.73099 60.11902,-5.134 33.11398,-11.07602 42.75598,-17.75901 55.88897,-25.095 l -1.62298,-8.42002 c -2.15399,-11.16998 -14.017,-6.25998 -44.08002,-4 -19.34,1.45401 -42.63898,-80.97998 -46.177,-146.37298 26.19,-84.345 -16.845,-163.967311 -33.40299,-223.795308 l 0,-9.9e-5 z"
       id="path3794"
       inkscape:connector-curvature="0"
       style="fill:#666666;fill-opacity:1;stroke:#000000;stroke-width:2.5843842;stroke-miterlimit:4;stroke-opacity:1;stroke-dasharray:none" />
  </g>
  <text
     xml:space="preserve"
     style="font-size:150.67648315px;font-style:normal;font-variant:normal;font-weight:normal;font-stretch:normal;line-height:125%;letter-spacing:0px;word-spacing:0px;fill:#ffffff;fill-opacity:1;stroke:#000000;stroke-width:4;stroke-miterlimit:4;stroke-opacity:1;stroke-dasharray:none;font-family:Arial;-inkscape-font-specification:Arial"
     x="23.632023"
     y="138.88078"
     id="text3755"
     sodipodi:linespacing="125%"
     transform="scale(1.0000721,0.99992791)"><tspan
       sodipodi:role="line"
       id="tspan3757"
       x="23.632023"
       y="138.88078"
       style="stroke:#000000;stroke-width:4;stroke-opacity:1">CHAMPIONS</tspan></text>
  <g
     transform="translate(-145.4725,100.24527)"
     id="g3160"
     style="fill:#666666;fill-opacity:1">
    <path
       sodipodi:type="inkscape:offset"
       inkscape:radius="0.84956253"
       inkscape:original="M 1309.5938 869.71875 C 1305.4972 869.73815 1302.66 870.39395 1300.9062 871.15625 C 1299.1526 871.91855 1298.6173 872.94294 1298.6875 872.71875 C 1298.2256 874.1939 1298.0189 875.86504 1298.125 876.8125 C 1298.1832 877.33135 1298.2976 877.65129 1298.4375 878.21875 C 1298.5774 878.78621 1298.7282 879.58951 1298.7188 880.5625 C 1298.7036 882.11715 1298.6239 890.62747 1298.5312 892.5625 C 1298.4177 894.93676 1297.5952 895.87729 1297.6562 897.375 C 1297.6811 897.98136 1297.9208 898.62759 1298.3125 899.8125 C 1298.7042 900.99741 1299.1393 902.61734 1299.125 904.8125 C 1299.7525 937.61196 1293.305 959.79465 1286.8438 979.875 C 1280.3823 999.95535 1273.9597 1017.818 1274.2188 1042.6562 A 2.1808974 2.1808974 0 0 1 1274.2188 1042.6875 L 1273.75 1126.6875 C 1273.7414 1131.1308 1275.3872 1134.0342 1278.0938 1136.3438 C 1280.8001 1138.6531 1284.6618 1140.2455 1288.8438 1141.2188 C 1297.2073 1143.1649 1306.4033 1142.7188 1309.5312 1142.7188 L 1309.8125 1142.7188 C 1312.9411 1142.7188 1322.1365 1143.1649 1330.5 1141.2188 C 1334.6817 1140.2455 1338.5436 1138.6531 1341.25 1136.3438 C 1343.9564 1134.0342 1345.6023 1131.1308 1345.5938 1126.6875 L 1345.125 1042.6875 A 2.1808974 2.1808974 0 0 1 1345.125 1042.6562 C 1345.3841 1017.818 1338.9614 999.95534 1332.5 979.875 C 1326.0386 959.79466 1319.5912 937.58071 1320.2188 904.78125 C 1320.2044 902.5861 1320.6396 900.9974 1321.0312 899.8125 C 1321.4231 898.6276 1321.6628 897.98136 1321.6875 897.375 C 1321.7486 895.87763 1320.9255 894.93755 1320.8125 892.5625 C 1320.7212 890.65475 1320.6087 882.14845 1320.5938 880.5625 C 1320.5842 879.58953 1320.7351 878.78621 1320.875 878.21875 C 1321.0149 877.65129 1321.1293 877.33138 1321.1875 876.8125 C 1321.2971 875.83295 1321.1111 874.17069 1320.6562 872.71875 C 1320.725 872.93803 1320.1569 871.92146 1318.4062 871.15625 C 1316.6558 870.39104 1313.8415 869.71875 1309.75 869.71875 L 1309.5938 869.71875 z "
       style="fill:#666666;fill-opacity:1;stroke:#000000;stroke-width:1.18925631;stroke-miterlimit:4;stroke-opacity:1;stroke-dasharray:none;marker:none;visibility:visible;display:inline;overflow:visible;enable-background:accumulate"
       id="path4171"
       d="m 1309.5938,868.875 c -4.1855,0.0198 -7.1337,0.67518 -9.0313,1.5 -0.9754,0.42402 -1.6291,0.93478 -2.0313,1.3125 -0.1713,0.16092 -0.2688,0.29096 -0.3437,0.375 0.029,-0.0206 0.081,-0.0604 0.1563,-0.0937 0.037,-0.0167 0.1567,-0.0314 0.1562,-0.0312 -5e-4,1.1e-4 0.2504,-0.0312 0.25,-0.0312 -4e-4,-3e-5 0.344,0.0939 0.3438,0.0937 -3e-4,-1.6e-4 0.2814,0.2503 0.2812,0.25 -2e-4,-3e-4 0.1251,0.25044 0.125,0.25 -10e-5,-4.4e-4 0.026,0.11176 0.031,0.15625 0.038,0.35589 -0.026,0.29707 -0.031,0.3125 l -0.8125,-0.25 -0.8125,-0.25 c -0.495,1.58078 -0.7257,3.25897 -0.5938,4.4375 0.068,0.60296 0.2119,0.99624 0.3438,1.53125 0.1293,0.5243 0.2585,1.24429 0.25,2.125 -0.015,1.55593 -0.099,10.12939 -0.1875,11.96875 -0.052,1.09471 -0.2587,1.81943 -0.4687,2.53125 -0.2101,0.71182 -0.4434,1.43254 -0.4063,2.34375 0.033,0.80496 0.2993,1.51326 0.6875,2.6875 0.3781,1.14383 0.7948,2.63857 0.7812,4.71875 a 0.84964748,0.84964748 0 0 0 0,0.0312 c 0.6253,32.68086 -5.7942,54.71769 -12.25,74.78125 -6.4562,20.06393 -12.9169,38.0424 -12.6562,63.0312 a 0.84964748,0.84964748 0 0 0 0,0.031 0.84964748,0.84964748 0 0 0 0,0.1563 l -0.4688,83.8437 c -0.01,4.6538 1.7804,7.8851 4.625,10.3125 2.8632,2.4432 6.8563,4.0377 11.125,5.0312 8.5254,1.9838 17.8279,1.5313 20.875,1.5313 l 0.2813,0 c 3.0478,0 12.3497,0.4525 20.875,-1.5313 4.2685,-0.9934 8.2617,-2.588 11.125,-5.0312 2.8445,-2.4274 4.6339,-5.6587 4.625,-10.3125 l -0.4687,-83.9375 a 0.84964748,0.84964748 0 0 0 0,-0.062 0.84964748,0.84964748 0 0 0 0,-0.031 c 0.2606,-24.9888 -6.2002,-42.96728 -12.6563,-63.0312 -6.4559,-20.0633 -12.8753,-42.13165 -12.25,-74.8125 a 0.84964748,0.84964748 0 0 0 0,-0.0312 c -0.014,-2.08018 0.4018,-3.53936 0.7813,-4.6875 0.3883,-1.17428 0.6547,-1.88233 0.6874,-2.6875 0.037,-0.9112 -0.1961,-1.63206 -0.4062,-2.34375 -0.2101,-0.71169 -0.4167,-1.43622 -0.4688,-2.53125 -0.087,-1.82059 -0.2039,-10.39443 -0.2187,-11.96875 -0.01,-0.88053 0.1207,-1.60061 0.25,-2.125 0.1319,-0.535 0.2761,-0.92826 0.3437,-1.53125 0.1333,-1.19066 -0.072,-2.87208 -0.5624,-4.4375 l -0.8126,0.25 -0.8124,0.25 c -0,-0.0106 -0.023,-0.0183 -0.031,-0.0625 -0,-0.0221 0,-0.048 0,-0.0937 -0,-0.0457 2e-4,-0.21985 0,-0.21875 -10e-5,5.5e-4 0.063,-0.18791 0.062,-0.1875 -2e-4,4.1e-4 0.1878,-0.25028 0.1875,-0.25 -3e-4,2.8e-4 0.2816,-0.18764 0.2813,-0.1875 -4e-4,1.4e-4 0.3129,-0.0625 0.3124,-0.0625 -4e-4,0 0.2193,0.0314 0.2188,0.0312 -5e-4,-1.3e-4 0.091,0.0167 0.125,0.0312 0.067,0.0291 0.097,0.0437 0.125,0.0625 -0.076,-0.082 -0.1715,-0.18609 -0.3438,-0.34375 -0.4071,-0.37265 -1.0602,-0.88811 -2.0312,-1.3125 -1.8893,-0.82593 -4.8154,-1.5 -9,-1.5 l -0.1562,0 z"
       transform="matrix(2.5225849,0,0,2.5225849,-2980.9013,-2040.2518)"
       clip-path="url(#clipPath4229)" />
    <path
       inkscape:connector-curvature="0"
       sodipodi:nodetypes="ccccc"
       id="path3946"
       d="m 370.48842,377.22868 c -56.78436,36.83147 -97.90777,87.3246 -122.08789,152.59809 l 33.09574,29.48531 c 34.0832,-65.33051 50.75876,-83.94228 105.15744,-127.53937 l -16.16529,-54.54403 z"
       style="fill:#666666;fill-opacity:1;fill-rule:nonzero;stroke:#000000;stroke-width:3;stroke-miterlimit:4;stroke-opacity:1;stroke-dasharray:none;marker:none;visibility:visible;display:inline;overflow:visible;enable-background:accumulate" />
    <path
       inkscape:connector-curvature="0"
       style="fill:#666666;fill-opacity:1;fill-rule:nonzero;stroke:#000000;stroke-width:3;stroke-miterlimit:4;stroke-opacity:1;stroke-dasharray:none;marker:none;visibility:visible;display:inline;overflow:visible;enable-background:accumulate"
       d="m 275.09097,377.13587 c 56.78436,36.83147 98.0934,87.41741 122.27352,152.6909 l -33.09574,29.48531 c -34.0832,-65.33051 -51.0049,-83.93016 -105.40358,-127.52726 l 16.2258,-54.64895 0,0 z"
       id="path3952"
       sodipodi:nodetypes="ccccc" />
    <path
       transform="matrix(0.9675107,0.3251385,-0.3278081,0.9596314,-1560.7829,-1100.3104)"
       d="m 2246.8293,849.80845 c -3.479,3.22648 -4.3313,1.9553 -8.7955,3.56292 -6.0072,2.1633 -5.7583,3.65825 -12.1354,3.97495 -4.739,0.23536 -4.5748,-1.28623 -9.0279,-2.92427 -5.9924,-2.20421 -6.7626,-0.89901 -11.8513,-4.75548 -3.7816,-2.86589 -2.6777,-3.92593 -5.0361,-8.04316 -3.1736,-5.54034 -4.6026,-5.03561 -6.0219,-11.26078 -1.0547,-4.62615 0.4723,-4.72863 1.3122,-9.39857 1.1302,-6.28408 -0.289,-6.81599 2.6253,-12.49702 2.1657,-4.22179 3.4013,-3.31876 7.0464,-6.35628 4.9051,-4.08744 4.1599,-5.4071 10.0441,-7.88578 4.3727,-1.84201 4.7388,-0.356 9.4836,-0.33982 6.3849,0.0218 6.6623,-1.46816 12.763,0.41531 4.5338,1.39968 3.859,2.77334 7.4834,5.83565 4.8771,4.12079 6.0473,3.15775 9.5101,8.52207 2.5733,3.98644 1.1734,4.605 1.9814,9.28056 1.0873,6.29164 2.6028,6.3061 1.8073,12.64126 -0.5911,4.70789 -2.0611,4.28192 -4.4475,8.38298 -3.2113,5.51857 -2.0597,6.50377 -6.7412,10.84546 z"
       inkscape:randomized="0"
       inkscape:rounded="0.5"
       inkscape:flatsided="false"
       sodipodi:arg2="1.1721249"
       sodipodi:arg1="0.87605805"
       sodipodi:r2="30.976797"
       sodipodi:r1="32.522659"
       sodipodi:cy="824.82385"
       sodipodi:cx="2226.0088"
       sodipodi:sides="9"
       id="path4532"
       style="fill:#666666;fill-opacity:1;fill-rule:nonzero;stroke:#000000;stroke-width:2.94878697;stroke-miterlimit:4;stroke-dasharray:none;marker:none;visibility:visible;display:inline;overflow:visible;enable-background:accumulate"
       sodipodi:type="star" />
  </g>
  <text
     xml:space="preserve"
     style="font-size:592.40942383px;font-style:normal;font-variant:normal;font-weight:normal;font-stretch:normal;line-height:125%;letter-spacing:0px;word-spacing:0px;fill:#ffffff;fill-opacity:1;stroke:#000000;stroke-width:3.99999976;stroke-miterlimit:4;stroke-opacity:1;stroke-dasharray:none;font-family:Arial;-inkscape-font-specification:Arial"
     x="-18.426952"
     y="508.27805"
     id="text3759"
     sodipodi:linespacing="125%"
     transform="scale(0.99961514,1.000385)"><tspan
       sodipodi:role="line"
       id="tspan3761"
       x="-18.426952"
       y="508.27805"
       style="stroke-width:3.99999976">pop</tspan></text>
  <text
     xml:space="preserve"
     style="font-size:327.70275879px;font-style:normal;font-variant:normal;font-weight:normal;font-stretch:normal;line-height:125%;letter-spacing:0px;word-spacing:0px;fill:#ffffff;fill-opacity:1;stroke:#000000;stroke-width:3.99999928;stroke-miterlimit:4;stroke-opacity:1;stroke-dasharray:none;font-family:Arial;-inkscape-font-specification:Arial"
     x="-6.9750061"
     y="934.71277"
     id="text3759-1"
     sodipodi:linespacing="125%"
     transform="scale(1.0013964,0.99860554)"><tspan
       sodipodi:role="line"
       id="tspan3761-7"
       x="-6.9750061"
       y="934.71277"
       style="stroke:#000000;stroke-width:3.99999928;stroke-opacity:1">bottles</tspan></text>
</svg>
