<?xml version="1.0" encoding="UTF-8" standalone="no"?>
<!-- Created with Inkscape (http://www.inkscape.org/) -->

<svg
   xmlns:dc="http://purl.org/dc/elements/1.1/"
   xmlns:cc="http://creativecommons.org/ns#"
   xmlns:rdf="http://www.w3.org/1999/02/22-rdf-syntax-ns#"
   xmlns:svg="http://www.w3.org/2000/svg"
   xmlns="http://www.w3.org/2000/svg"
   xmlns:sodipodi="http://sodipodi.sourceforge.net/DTD/sodipodi-0.dtd"
   xmlns:inkscape="http://www.inkscape.org/namespaces/inkscape"
   width="960"
   height="960"
   id="svg2"
   version="1.1"
   inkscape:version="0.48.4 r9939"
   sodipodi:docname="championshouseparty.svg">
  <defs
     id="defs4" />
  <sodipodi:namedview
     id="base"
     pagecolor="#ffffff"
     bordercolor="#666666"
     borderopacity="1.0"
     inkscape:pageopacity="0.0"
     inkscape:pageshadow="2"
     inkscape:zoom="0.35"
     inkscape:cx="-399.2857"
     inkscape:cy="520.00001"
     inkscape:document-units="px"
     inkscape:current-layer="layer14"
     showgrid="false"
     fit-margin-top="0"
     fit-margin-left="0"
     fit-margin-right="0"
     fit-margin-bottom="0"
     inkscape:window-width="1600"
     inkscape:window-height="847"
     inkscape:window-x="-8"
     inkscape:window-y="-8"
     inkscape:window-maximized="1" />
  <metadata
     id="metadata7">
    <rdf:RDF>
      <cc:Work
         rdf:about="">
        <dc:format>image/svg+xml</dc:format>
        <dc:type
           rdf:resource="http://purl.org/dc/dcmitype/StillImage" />
        <dc:title />
      </cc:Work>
    </rdf:RDF>
  </metadata>
  <g
     inkscape:label="Layer 1"
     inkscape:groupmode="layer"
     id="layer1"
     transform="translate(1.2218952e-5,-92.36217)">
    <rect
       style="fill:#bb0000;fill-opacity:1;stroke:#ffffff;stroke-width:1.10000002;stroke-miterlimit:4;stroke-opacity:1;stroke-dasharray:none"
       id="rect2985"
       width="958.90002"
       height="958.90002"
       x="0.54997557"
       y="92.91217" />
    <g
       style="font-size:1032.00134277px;font-style:normal;font-variant:normal;font-weight:normal;font-stretch:normal;line-height:125%;letter-spacing:0px;word-spacing:0px;fill:#666666;fill-opacity:1;stroke:#000000;stroke-width:4;stroke-miterlimit:4;stroke-opacity:1;font-family:FontAwesome;-inkscape-font-specification:FontAwesome"
       id="text3788">
      <path
         d="m 811.72231,721.36735 c 0.0952,-1.1515 -0.0968,-2.30331 -0.5759,-3.45544 L 480,444.93209 148.8536,717.91191 c -0.19213,1.15213 -0.3841,2.30394 -0.57591,3.45544 l 0,276.43526 c 0.27582,10.35439 3.89923,19.01699 10.87025,25.98779 6.9707,6.9709 15.63329,10.5943 25.98779,10.8702 l 221.1482,0 0,-221.14816 147.43214,0 0,221.14816 221.14821,0 c 10.35354,-0.2759 19.01613,-3.8993 25.98779,-10.8702 6.97006,-6.9709 10.59347,-15.6335 10.87024,-25.98779 z m 128.42722,-39.73757 c 3.14253,-3.95903 4.4863,-8.42231 4.03133,-13.38985 -0.45686,-4.96681 -2.56851,-9.14213 -6.33496,-12.52595 l -126.12359,-104.81504 0,-234.96997 c -0.1208,-5.30241 -1.89652,-9.6697 -5.32716,-13.10188 -3.43225,-3.43072 -7.79953,-5.20643 -13.10185,-5.32713 l -110.57411,0 c -5.30381,0.12072 -9.67111,1.89644 -13.10188,5.32714 -3.43212,3.43217 -5.20783,7.79946 -5.32713,13.10187 l 0,112.30183 L 523.76892,310.74581 C 511.05048,300.66816 496.46086,295.62898 480,295.62825 c -16.46181,7.5e-4 -31.05143,5.03993 -43.76891,15.11756 L 22.154107,655.71398 c -3.767427,3.3838 -5.879088,7.55912 -6.33499,12.52595 -0.455932,4.96756 0.887854,9.43084 4.031363,13.38985 l 35.706221,42.61711 c 3.167403,3.55172 7.198747,5.66338 12.094042,6.33497 5.183079,0.38422 9.790329,-0.95956 13.821763,-4.03135 L 480,394.2523 878.5275,726.55051 c 3.45454,2.78383 7.48588,4.12761 12.09404,4.03135 0.57501,3e-4 1.15092,3e-4 1.72772,0 4.89432,-0.67159 8.92566,-2.78325 12.09405,-6.33497 l 35.70622,-42.61711 z"
         style=""
         id="path3458" />
    </g>
  </g>
  <g
     inkscape:groupmode="layer"
     id="layer13"
     inkscape:label="Text"
     style="display:none">
    <text
       xml:space="preserve"
       style="font-size:150.67648315px;font-style:normal;font-variant:normal;font-weight:normal;font-stretch:normal;line-height:125%;letter-spacing:0px;word-spacing:0px;fill:#ffffff;fill-opacity:1;stroke:#000000;stroke-width:4;stroke-miterlimit:4;stroke-opacity:1;stroke-dasharray:none;font-family:Arial;-inkscape-font-specification:Arial"
       x="8.770298"
       y="231.24963"
       id="text3755"
       sodipodi:linespacing="125%"
       transform="matrix(1.0000721,0,0,0.99992791,1.2218952e-5,-92.36217)"><tspan
         sodipodi:role="line"
         id="tspan3757"
         x="8.770298"
         y="231.24963"
         style="stroke:#000000;stroke-width:4;stroke-opacity:1">CHAMPIONS'</tspan></text>
    <text
       transform="translate(1.2218952e-5,-92.36217)"
       xml:space="preserve"
       style="font-size:328.59741211px;font-style:normal;font-variant:normal;font-weight:normal;font-stretch:normal;line-height:125%;letter-spacing:0px;word-spacing:0px;fill:#ffffff;fill-opacity:1;stroke:#000000;stroke-width:4;stroke-miterlimit:4;stroke-opacity:1;stroke-dasharray:none;font-family:Arial;-inkscape-font-specification:Arial"
       x="-1.5043207"
       y="603.94214"
       id="text3759"
       sodipodi:linespacing="125%"><tspan
         sodipodi:role="line"
         id="tspan3761"
         x="-1.5043207"
         y="603.94214">House</tspan></text>
    <text
       xml:space="preserve"
       style="font-size:405.40216064px;font-style:normal;font-variant:normal;font-weight:normal;font-stretch:normal;line-height:125%;letter-spacing:0px;word-spacing:0px;fill:#ffffff;fill-opacity:1;stroke:#000000;stroke-width:3.99999976;stroke-miterlimit:4;stroke-opacity:1;stroke-dasharray:none;font-family:Arial;-inkscape-font-specification:Arial"
       x="-7.0051513"
       y="941.99854"
       id="text3759-1"
       sodipodi:linespacing="125%"
       transform="matrix(0.99927462,0,0,1.0007259,1.2218952e-5,-92.36217)"><tspan
         sodipodi:role="line"
         id="tspan3761-7"
         x="-7.0051513"
         y="941.99854"
         style="stroke:#000000;stroke-width:3.99999976;stroke-opacity:1">Party</tspan></text>
  </g>
  <g
     inkscape:groupmode="layer"
     id="layer14"
     inkscape:label="PathsFromText">
    <g
       transform="scale(1.0000721,0.99992791)"
       style="font-size:150.67648315px;font-style:normal;font-variant:normal;font-weight:normal;font-stretch:normal;line-height:125%;letter-spacing:0px;word-spacing:0px;fill:#ffffff;fill-opacity:1;stroke:#000000;stroke-width:4;stroke-miterlimit:4;stroke-opacity:1;display:inline;font-family:Arial;-inkscape-font-specification:Arial"
       id="text3755-8">
      <path
         d="m 97.351602,101.06453 14.273068,3.60506 c -2.99205,11.72257 -8.3751,20.66162 -16.149167,26.81717 -7.774239,6.15557 -17.277345,9.23335 -28.509344,9.23335 -11.624502,0 -21.078559,-2.36658 -28.362199,-7.09975 -7.2837,-4.73315 -12.826157,-11.58765 -16.627386,-20.56351 -3.801255,-8.97581 -5.701876,-18.613798 -5.701868,-28.913993 -8e-6,-11.232002 2.145855,-21.029397 6.437593,-29.392214 4.291711,-8.362649 10.398223,-14.714402 18.319553,-19.055278 7.921266,-4.34067 16.639599,-6.511057 26.155025,-6.511166 10.790564,1.09e-4 19.864497,2.746813 27.221825,8.24012 7.357158,5.493509 12.482708,13.218614 15.376658,23.175338 l -14.052353,3.310762 c -2.501549,-7.84765 -6.131122,-13.561776 -10.88873,-17.142393 -4.75776,-3.580432 -10.741651,-5.370695 -17.95169,-5.370792 -8.289219,9.7e-5 -15.217289,1.986553 -20.784232,5.959372 -5.567018,3.973003 -9.478619,9.307004 -11.734814,16.00202 -2.256247,6.695166 -3.384357,13.598712 -3.384335,20.710659 -2.2e-5,9.172084 1.336543,17.179215 4.009701,24.021425 2.673106,6.84226 6.829948,11.95555 12.470539,15.33986 5.640514,3.38435 11.747026,5.07652 18.319553,5.07651 7.994814,1e-5 14.763477,-2.30526 20.306011,-6.91582 5.542378,-4.61052 9.294572,-11.45276 11.256592,-20.52673 z"
         style="stroke:#000000"
         id="path4943" />
      <path
         d="m 129.7235,138.8808 0,-107.857289 14.27306,0 0,44.290646 56.06225,0 0,-44.290646 14.27307,0 0,107.857289 -14.27307,0 0,-50.8386 -56.06225,0 0,50.8386 z"
         style="stroke:#000000"
         id="path4945" />
      <path
         d="m 226.32419,138.8808 41.42132,-107.857289 15.37665,0 44.1435,107.857289 -16.25952,0 -12.5809,-32.66619 -45.09994,0 -11.84517,32.66619 z m 31.12117,-44.290648 36.56553,0 -11.25659,-29.870435 c -3.43344,-9.073859 -5.98395,-16.529198 -7.65154,-22.366041 -1.3734,6.915905 -3.31081,13.782665 -5.81223,20.600301 z"
         style="stroke:#000000"
         id="path4947" />
      <path
         d="m 338.37511,138.8808 0,-107.857289 21.48317,0 25.52966,76.368259 c 2.35426,7.11203 4.07095,12.43377 5.15008,15.96523 1.22614,-3.92385 3.13902,-9.68702 5.73865,-17.28954 l 25.82395,-75.043949 19.20242,0 0,107.857289 -13.75805,0 0,-90.273461 -31.34189,90.273461 -12.87519,0 -31.19474,-91.818484 0,91.818484 z"
         style="stroke:#000000"
         id="path4949" />
      <path
         d="m 464.47838,138.8808 0,-107.857289 40.6856,0 c 7.16099,1.08e-4 12.62988,0.343446 16.40667,1.030015 5.29714,0.882976 9.73601,2.56288 13.31662,5.039716 3.58044,2.477041 6.46203,5.947207 8.64477,10.410509 2.18255,4.463486 3.27388,9.368314 3.27397,14.714501 -9e-5,9.172106 -2.91846,16.933997 -8.75512,23.285696 -5.83684,6.351807 -16.38222,9.527683 -31.63618,9.527639 l -27.66326,0 0,43.849213 z m 14.27307,-56.577255 27.88398,0 c 9.22102,5.6e-5 15.76897,-1.716634 19.64386,-5.150075 3.87474,-3.433319 5.81214,-8.264575 5.81222,-14.493783 -8e-5,-4.512366 -1.14045,-8.374919 -3.42112,-11.587669 -2.28082,-3.212575 -5.28503,-5.333913 -9.01263,-6.364022 -2.40343,-0.637533 -6.8423,-0.956347 -13.31662,-0.956442 l -27.58969,0 z"
         style="stroke:#000000"
         id="path4951" />
      <path
         d="m 567.55343,138.8808 0,-107.857289 14.27307,0 0,107.857289 z"
         style="stroke:#000000"
         id="path4953" />
      <path
         d="m 602.57395,86.350032 c -10e-6,-17.902571 4.80672,-31.918119 14.42021,-42.046684 9.61344,-10.128377 22.02266,-15.192612 37.22768,-15.192722 9.95675,1.1e-4 18.93258,2.378952 26.92754,7.136533 7.99478,4.757786 14.08903,11.391567 18.28276,19.901361 4.19353,8.509961 6.29034,18.160211 6.29045,28.95078 -1.1e-4,10.937821 -2.20728,20.72295 -6.62152,29.35543 -4.41445,8.63252 -10.66811,15.1682 -18.76099,19.60707 -8.09305,4.43887 -16.82365,6.65831 -26.19181,6.65831 -10.15305,0 -19.22699,-2.45242 -27.22183,-7.35725 -7.9949,-4.90482 -14.05236,-11.59991 -18.1724,-20.08529 -4.12007,-8.48533 -6.1801,-17.461166 -6.18009,-26.927538 z m 14.7145,0.220718 c -3e-5,12.997848 3.49467,23.23668 10.48408,30.71652 6.98935,7.47988 15.75673,11.21982 26.30217,11.21981 10.74151,1e-5 19.58247,-3.77671 26.52288,-11.33017 6.94025,-7.55341 10.41042,-18.270464 10.41051,-32.151183 -9e-5,-8.779589 -1.4838,-16.443384 -4.45113,-22.991407 -2.96752,-6.547869 -7.30829,-11.624366 -13.02234,-15.229507 -5.7142,-3.604957 -12.12726,-5.407482 -19.2392,-5.407579 -10.10401,9.7e-5 -18.79782,3.470263 -26.08146,10.410509 -7.2837,6.940419 -10.92554,18.528077 -10.92551,34.763007 z"
         style="stroke:#000000"
         id="path4955" />
      <path
         d="m 723.89502,138.8808 0,-107.857289 14.64093,0 56.65082,84.681949 0,-84.681949 13.68449,0 0,107.857289 -14.64093,0 -56.65082,-84.755523 0,84.755523 z"
         style="stroke:#000000"
         id="path4957" />
      <path
         d="m 828.07365,104.22815 13.46377,-1.17716 c 0.6376,5.39535 2.12131,9.82196 4.45113,13.27984 2.32977,3.45792 5.94708,6.25368 10.85195,8.38726 4.90479,2.13362 10.42272,3.20042 16.55381,3.20041 5.44431,1e-5 10.25104,-0.80929 14.42021,-2.4279 4.16904,-1.61858 7.27134,-3.83801 9.30692,-6.65831 2.03543,-2.82025 3.05318,-5.89803 3.05326,-9.23335 -8e-5,-3.3843 -0.98104,-6.33946 -2.9429,-8.86548 -1.96201,-2.525952 -5.19919,-4.647291 -9.71157,-6.364025 -2.89392,-1.128066 -9.29472,-2.881542 -19.20242,-5.260434 -9.9078,-2.378792 -16.84814,-4.622751 -20.82102,-6.731884 -5.1501,-2.697599 -8.98813,-6.045145 -11.5141,-10.042646 -2.526,-3.997369 -3.78899,-8.473025 -3.78898,-13.426982 -10e-6,-5.44428 1.54501,-10.533039 4.63507,-15.266294 3.09002,-4.733064 7.60246,-8.325851 13.53734,-10.778371 5.93481,-2.452309 12.5318,-3.678516 19.791,-3.678625 7.99482,1.09e-4 15.04551,1.287627 21.15209,3.862556 6.10645,2.575141 10.80282,6.364121 14.08914,11.366951 3.28615,5.00302 5.05189,10.668097 5.29722,16.995248 l -13.68449,1.030015 c -0.7358,-6.817635 -3.225,-11.967705 -7.46761,-15.450225 -4.24274,-3.482336 -10.50866,-5.223551 -18.79777,-5.223648 -8.63255,9.7e-5 -14.92299,1.581905 -18.87135,4.745427 -3.94841,3.163706 -5.92261,6.977211 -5.92258,11.440524 -3e-5,3.874895 1.39785,7.063034 4.19363,9.564425 2.74667,2.501534 9.91999,5.064307 21.51996,7.688326 11.59986,2.624147 19.55795,4.917155 23.87427,6.879029 6.27811,2.893906 10.91317,6.560265 13.90521,10.999089 2.99185,4.438916 4.48783,9.552204 4.48792,15.339864 -9e-5,5.73868 -1.64321,11.14626 -4.92936,16.22274 -3.28632,5.07651 -8.00722,9.0249 -14.16271,11.84517 -6.15563,2.82028 -13.0837,4.23042 -20.78423,4.23042 -9.76066,0 -17.93946,-1.4224 -24.53643,-4.2672 -6.59702,-2.8448 -11.77161,-7.12427 -15.5238,-12.83841 -3.7522,-5.71411 -5.7264,-12.17622 -5.92258,-19.38635 z"
         style="stroke:#000000"
         id="path4959" />
      <path
         d="m 931.95806,69.207639 -3.38434,-20.158865 0,-18.025263 15.08236,0 0,18.025263 -3.53148,20.158865 z"
         style="stroke:#000000"
         id="path4961" />
    </g>
    <g
       style="font-size:328.59741211px;font-style:normal;font-variant:normal;font-weight:normal;font-stretch:normal;line-height:125%;letter-spacing:0px;word-spacing:0px;fill:#ffffff;fill-opacity:1;stroke:#000000;stroke-width:4;stroke-miterlimit:4;stroke-opacity:1;display:inline;font-family:Arial;-inkscape-font-specification:Arial"
       id="text3759-4">
      <path
         d="m 24.809156,511.57996 0,-235.21671 31.126903,0 0,96.58967 122.261341,0 0,-96.58967 31.1269,0 0,235.21671 -31.1269,0 0,-110.86954 -122.261341,0 0,110.86954 z"
         style=""
         id="path4964" />
      <path
         d="m 246.86912,426.38209 c -1e-5,-31.55465 8.77113,-54.92654 26.31346,-70.11575 14.6542,-12.62174 32.51739,-18.93269 53.58962,-18.93286 23.42529,1.7e-4 42.57206,7.67492 57.44037,23.02428 14.86801,15.34966 22.30209,36.55551 22.30226,63.61761 -1.7e-4,21.92796 -3.28935,39.17609 -9.86754,51.74447 -6.57852,12.56844 -16.15191,22.32902 -28.72019,29.28175 -12.56854,6.95274 -26.28683,10.42911 -41.1549,10.42912 -23.85333,-10e-6 -43.13381,-7.64802 -57.84149,-22.94406 -14.70774,-15.296 -22.0616,-37.33084 -22.06159,-66.10456 z m 29.68287,0 c -4e-5,21.82099 4.75991,38.15992 14.27987,49.01685 9.51985,10.85701 21.49995,16.28549 35.94034,16.28547 14.33325,2e-5 26.25987,-5.45521 35.7799,-16.36569 9.51977,-10.91042 14.27972,-27.5435 14.27986,-49.89932 -1.4e-4,-21.07205 -4.78683,-37.03661 -14.36009,-47.89371 -9.57351,-10.85683 -21.47339,-16.28532 -35.69967,-16.28547 -14.44039,1.5e-4 -26.42049,5.40189 -35.94034,16.20525 -9.51996,10.80361 -14.27991,27.11581 -14.27987,48.93662 z"
         style=""
         id="path4966" />
      <path
         d="m 552.2016,511.57996 0,-25.02988 c -13.26382,19.25376 -31.28745,28.88062 -54.07096,28.88063 -10.05481,-10e-6 -19.44101,-1.92538 -28.15862,-5.77613 -8.71771,-3.85074 -15.18911,-8.69092 -19.4142,-14.52054 -4.22516,-5.82959 -7.19344,-12.96951 -8.90486,-21.4198 -1.17664,-5.66912 -1.76495,-14.6542 -1.76493,-26.95526 l 0,-105.57475 28.88063,0 0,94.50384 c -5e-5,15.08217 0.58826,25.24387 1.76493,30.48511 1.81836,7.59458 5.6691,13.55789 11.55225,17.88995 5.88303,4.33212 13.15666,6.49816 21.82092,6.49814 8.6641,2e-5 16.79346,-2.2195 24.38809,-6.65859 7.59442,-4.43902 12.96942,-10.48256 16.12502,-18.13062 3.15535,-7.64796 4.73309,-18.7456 4.73322,-33.29295 l 0,-91.29488 28.88063,0 0,170.39573 z"
         style=""
         id="path4968" />
      <path
         d="m 611.88821,460.71795 28.55974,-4.49254 c 1.60444,11.44533 6.07024,20.21648 13.3974,26.31347 7.32707,6.09704 17.56899,9.14555 30.72579,9.14553 13.2636,2e-5 23.1044,-2.70085 29.52242,-8.10262 6.4178,-5.40172 9.62676,-11.7394 9.62688,-19.01308 -1.2e-4,-6.52483 -2.8347,-11.65916 -8.50374,-15.40301 -3.95783,-2.5671 -13.79863,-5.82954 -29.52243,-9.78732 -21.17919,-5.34819 -35.86016,-9.97444 -44.04296,-13.87875 -8.18288,-3.90415 -14.38686,-9.30589 -18.61196,-16.20525 -4.22515,-6.89915 -6.33771,-14.52042 -6.3377,-22.86383 -10e-6,-7.5944 1.73817,-14.62736 5.21456,-21.09891 3.47635,-6.47124 8.20956,-11.84624 14.19965,-16.12501 4.4925,-3.31576 10.61626,-6.1236 18.37129,-8.42352 7.75492,-2.29958 16.07146,-3.44946 24.94965,-3.44963 13.37058,1.7e-4 25.11001,1.92554 35.21833,5.77612 10.1081,3.85092 17.56892,9.06547 22.38249,15.64368 4.8133,6.57851 8.12922,15.3764 9.94777,26.39369 l -28.23884,3.85075 c -1.2837,-8.77103 -5.00074,-15.6168 -11.15113,-20.53734 -6.1506,-4.92026 -14.84153,-7.38046 -26.07279,-7.38061 -13.26377,1.5e-4 -22.73019,2.19294 -28.39929,6.57837 -5.66921,4.38572 -8.50379,9.52005 -8.50374,15.403 -5e-5,3.74391 1.17657,7.11332 3.52985,10.10823 2.35319,3.1021 6.04349,5.66927 11.07091,7.7015 2.888,1.06976 11.39174,3.52996 25.51123,7.3806 20.43027,5.45533 34.68338,9.92113 42.75938,13.39741 8.07574,3.47646 14.41343,8.53056 19.01308,15.16233 4.59936,6.63192 6.89911,14.86824 6.89926,24.70898 -1.5e-4,9.62692 -2.80799,18.69222 -8.42352,27.19593 -5.61581,8.50376 -13.71843,15.08212 -24.30786,19.7351 -10.58968,4.65299 -22.56978,6.97948 -35.94034,6.97949 -22.14188,-10e-6 -39.01564,-4.59951 -50.62133,-13.79853 -11.60576,-9.19899 -19.0131,-22.83706 -22.22205,-40.91423 z"
         style=""
         id="path4970" />
      <path
         d="m 904.38484,456.70676 29.84332,3.6903 c -4.70664,17.43538 -13.4243,30.96647 -26.15302,40.59333 -12.729,9.62688 -28.98771,14.44031 -48.77618,14.44032 -24.92298,-10e-6 -44.6848,-7.67476 -59.28552,-23.02428 -14.60078,-15.34949 -21.90116,-36.87624 -21.90114,-64.58031 -2e-5,-28.66659 7.38058,-50.91535 22.14181,-66.74635 14.76117,-15.83069 33.90794,-23.74612 57.44037,-23.74629 22.7835,1.7e-4 41.39544,7.75515 55.83589,23.26495 14.44015,15.5101 21.6603,37.331 21.66047,65.46277 -1.7e-4,1.71152 -0.0536,4.27869 -0.16044,7.7015 l -127.07478,0 c 1.06961,18.71899 6.36438,33.05232 15.88434,43.00005 9.51985,9.9478 21.39298,14.92168 35.61945,14.92166 10.58946,2e-5 19.62802,-2.78108 27.1157,-8.34329 7.48745,-5.56217 13.42402,-14.44028 17.80973,-26.63436 z m -94.82474,-46.69036 95.14563,0 c -1.28372,-14.33323 -4.92054,-25.08324 -10.91046,-32.25004 -9.19913,-11.12425 -21.12575,-16.68644 -35.77989,-16.68659 -13.26378,1.5e-4 -24.4149,4.43921 -33.4534,13.31718 -9.03862,8.87825 -14.03924,20.75139 -15.00188,35.61945 z"
         style=""
         id="path4972" />
    </g>
    <g
       transform="scale(0.99927462,1.0007259)"
       style="font-size:405.40216064px;font-style:normal;font-variant:normal;font-weight:normal;font-stretch:normal;line-height:125%;letter-spacing:0px;word-spacing:0px;fill:#ffffff;fill-opacity:1;stroke:#000000;stroke-width:3.99999976;stroke-miterlimit:4;stroke-opacity:1;display:inline;font-family:Arial;-inkscape-font-specification:Arial"
       id="text3759-1-7">
      <path
         d="m 24.271005,849.70337 0,-290.1951 109.466505,0 c 19.267,2.9e-4 33.98129,0.92406 44.14291,2.7713 14.25222,2.37569 26.19521,6.89555 35.829,13.5596 9.63335,6.66459 17.38639,16.00123 23.25915,28.00996 5.87228,12.00922 8.80854,25.20589 8.80879,39.59005 -2.5e-4,24.67799 -7.85227,45.56172 -23.55608,62.65127 -15.70427,17.08983 -44.07711,25.63467 -85.11862,25.63456 l -74.429302,0 0,117.97836 z m 38.402353,-152.22376 75.023152,0 c 24.8096,1.5e-4 42.42716,-4.61868 52.85273,-13.85652 10.42517,-9.2375 15.63785,-22.23623 15.63807,-38.9962 -2.2e-4,-12.14074 -3.06844,-22.53312 -9.20469,-31.17717 -6.13666,-8.64359 -14.21962,-14.35115 -24.24891,-17.1227 -6.46655,-1.71532 -18.40954,-2.5731 -35.829,-2.57335 l -74.231352,0 z"
         style="stroke:#000000"
         id="path4975" />
      <path
         d="m 427.69365,823.77188 c -13.19684,11.2172 -25.89863,19.1352 -38.10543,23.75404 -12.20705,4.61883 -25.30474,6.92825 -39.29313,6.92826 -23.09426,-10e-6 -40.84378,-5.64159 -53.24862,-16.92475 -12.40491,-11.28314 -18.60734,-25.70051 -18.60733,-43.25214 -1e-5,-10.29335 2.3424,-19.69597 7.02724,-28.20791 4.68479,-8.51177 10.82125,-15.34105 18.40937,-20.48785 7.58805,-5.1466 16.13289,-9.03962 25.63456,-11.67907 6.99417,-1.84742 17.55151,-3.62897 31.67205,-5.34466 28.76864,-3.43101 49.9493,-7.52198 63.54203,-12.27292 0.13181,-4.88263 0.19779,-7.98385 0.19795,-9.30366 -1.6e-4,-14.51619 -3.36531,-24.74361 -10.09546,-30.68229 -9.10585,-8.0498 -22.63244,-12.07478 -40.57981,-12.07497 -16.75988,1.9e-4 -29.13176,2.93645 -37.11567,8.80879 -7.98406,5.8727 -13.88957,16.26507 -17.71655,31.17717 l -34.83925,-4.75081 c 3.16718,-14.91209 8.37987,-26.95405 15.63807,-36.12592 7.25813,-9.1715 17.74949,-16.23172 31.4741,-21.18068 13.72447,-4.94855 29.62646,-7.42292 47.70601,-7.42314 17.94736,2.2e-4 32.52968,2.11168 43.74701,6.33441 11.21701,4.22314 19.46493,9.5348 24.74379,15.935 5.27848,6.40058 8.97355,14.48354 11.08521,24.24891 1.18751,6.07063 1.78136,17.02387 1.78155,32.85974 l 0,47.50807 c -1.9e-4,33.12373 0.75862,54.07345 2.27643,62.84921 1.51742,8.77581 4.51966,17.18869 9.00674,25.23866 l -37.21465,0 c -3.69524,-7.39014 -6.07064,-16.03396 -7.12621,-25.93149 z m -2.96926,-79.57601 c -12.9329,5.27878 -32.332,9.76565 -58.19738,13.46062 -14.6484,2.11156 -25.00779,4.48696 -31.07819,7.12621 -6.07054,2.63942 -10.75536,6.49945 -14.05447,11.58009 -3.29922,5.08079 -4.94881,10.72237 -4.94876,16.92475 -5e-5,9.50166 3.59604,17.41966 10.78829,23.75403 7.19213,6.33444 17.71647,9.50164 31.57307,9.50162 13.72445,2e-5 25.93137,-3.00222 36.6208,-9.00674 10.68918,-6.00445 18.5412,-14.21938 23.55609,-24.64481 3.82688,-8.04991 5.74039,-19.92692 5.74055,-35.63105 z"
         style="stroke:#000000"
         id="path4977" />
      <path
         d="m 515.78154,849.70337 0,-210.22319 32.06794,0 0,31.86999 c 8.18188,-14.91206 15.73698,-24.74358 22.66531,-29.49459 6.92817,-4.75059 14.54925,-7.12599 22.86326,-7.12621 12.00886,2.2e-4 24.21578,3.82725 36.6208,11.48112 l -12.27292,33.05769 c -8.70993,-5.14653 -17.41974,-7.71988 -26.12944,-7.72006 -7.78614,1.8e-4 -14.78037,2.34259 -20.98273,7.02724 -6.20251,4.68499 -10.6234,11.18435 -13.26266,19.4981 -3.95907,12.66896 -5.93857,26.52546 -5.93851,41.56956 l 0,110.06035 z"
         style="stroke:#000000"
         id="path4979" />
      <path
         d="m 729.36985,817.83338 5.1467,31.47409 c -10.02958,2.11147 -19.00331,3.1672 -26.92123,3.1672 -12.93283,0 -22.9623,-2.04548 -30.08845,-6.13646 -7.12625,-4.09096 -12.14099,-9.4686 -15.04422,-16.13294 -2.9033,-6.6643 -4.35494,-20.68577 -4.3549,-42.06444 l 0,-120.94761 -26.12944,0 0,-27.71304 26.12944,0 0,-52.06092 35.4331,-21.37863 0,73.43955 35.829,0 0,27.71304 -35.829,0 0,122.92712 c -7e-5,10.16149 0.62677,16.69385 1.88052,19.59707 1.25362,2.90331 3.2991,5.21273 6.13646,6.92826 2.83721,1.7156 6.89519,2.57339 12.17394,2.57336 3.95892,3e-5 9.1716,-0.46186 15.63808,-1.38565 z"
         style="stroke:#000000"
         id="path4981" />
      <path
         d="m 762.42758,930.66503 -3.95901,-33.4536 c 7.78602,2.11142 14.5823,3.16716 20.38888,3.16721 7.91796,-5e-5 14.25236,-1.31972 19.00323,-3.95901 4.75074,-2.63938 8.64376,-6.33445 11.67906,-11.08521 2.24336,-3.56314 5.87245,-12.40491 10.88727,-26.52534 0.65975,-1.97951 1.71548,-4.88278 3.1672,-8.70981 l -79.77396,-210.61909 38.40235,0 43.74701,121.73942 c 5.67448,15.44019 10.7552,31.6721 15.24218,48.69576 4.09086,-16.36383 8.97363,-32.3318 14.64832,-47.90396 l 44.93471,-122.53122 35.63105,0 -79.97191,213.78629 c -8.57796,23.09418 -15.24228,38.99617 -19.99298,47.70602 -6.3345,11.74499 -13.59267,20.35581 -21.77453,25.83251 -8.18201,5.47654 -17.94755,8.21485 -29.29664,8.21494 -6.86232,-9e-5 -14.51639,-1.45172 -22.96223,-4.35491 z"
         style="stroke:#000000"
         id="path4983" />
    </g>
  </g>
</svg>
