<?xml version="1.0" encoding="UTF-8" standalone="no"?>
<svg
   xmlns:dc="http://purl.org/dc/elements/1.1/"
   xmlns:cc="http://creativecommons.org/ns#"
   xmlns:rdf="http://www.w3.org/1999/02/22-rdf-syntax-ns#"
   xmlns:svg="http://www.w3.org/2000/svg"
   xmlns="http://www.w3.org/2000/svg"
   xmlns:xlink="http://www.w3.org/1999/xlink"
   xmlns:sodipodi="http://sodipodi.sourceforge.net/DTD/sodipodi-0.dtd"
   xmlns:inkscape="http://www.inkscape.org/namespaces/inkscape"
   width="960"
   height="960"
   id="svg2"
   version="1.1"
   inkscape:version="0.48.4 r9939"
   sodipodi:docname="champagne.svg">
  <defs
     id="defs17">
    <linearGradient
       inkscape:collect="always"
       id="linearGradient3795">
      <stop
         style="stop-color:#666666;stop-opacity:1;"
         offset="0"
         id="stop3797" />
      <stop
         style="stop-color:#666666;stop-opacity:0;"
         offset="1"
         id="stop3799" />
    </linearGradient>
    <linearGradient
       inkscape:collect="always"
       xlink:href="#linearGradient3795"
       id="linearGradient3801"
       x1="122.982"
       y1="232.0994"
       x2="523.27899"
       y2="232.0994"
       gradientUnits="userSpaceOnUse" />
    <clipPath
       clipPathUnits="userSpaceOnUse"
       id="clipPath4229">
      <path
         inkscape:connector-curvature="0"
         style="fill:url(#linearGradient4233);fill-opacity:1;fill-rule:nonzero;stroke:none;stroke-width:1;marker:none;visibility:visible;display:inline;overflow:visible;enable-background:accumulate"
         d="m 1311.3886,869.85417 c -8.6558,0.041 -12.4628,2.81551 -13,4.53125 -0.5404,1.72632 -0.7822,3.59469 -0.625,5 0.1575,1.40531 0.5775,1.92229 0.5625,3.46875 -0.015,1.54646 -0.1085,10.2873 -0.1875,11.9375 -0.079,1.65021 -0.962,2.86791 -0.875,5 0.087,2.13209 1.4938,3.48705 1.4687,7.34375 1.2435,64.99295 -25.4323,87.42308 -24.9062,137.87508 l -0.4688,84 c -0.039,20.1032 32.1865,18.2187 37.9688,18.2187 l 0.2812,0 c 5.7836,0 38.0078,1.8845 37.9688,-18.2187 l -0.4688,-84 c 0.5262,-50.452 -26.1496,-72.88213 -24.9062,-137.87508 -0.025,-3.8567 1.3819,-5.21166 1.4688,-7.34375 0.087,-2.13209 -0.7965,-3.34979 -0.875,-5 -0.079,-1.6502 -0.2042,-10.39104 -0.2188,-11.9375 -0.015,-1.54646 0.405,-2.06344 0.5625,-3.46875 0.1572,-1.4053 -0.053,-3.27369 -0.5937,-5 -0.5372,-1.71574 -4.3441,-4.53125 -13,-4.53125 l -0.1563,0 0,0 z"
         id="path4231"
         sodipodi:nodetypes="csssssccczzcccssssssc"
         transform="translate(-1.79485,-2.324217)" />
    </clipPath>
  </defs>
  <sodipodi:namedview
     pagecolor="#ffffff"
     bordercolor="#666666"
     borderopacity="1"
     objecttolerance="10"
     gridtolerance="10"
     guidetolerance="10"
     inkscape:pageopacity="0"
     inkscape:pageshadow="2"
     inkscape:window-width="1600"
     inkscape:window-height="847"
     id="namedview15"
     showgrid="false"
     fit-margin-top="0"
     fit-margin-left="0"
     fit-margin-right="0"
     fit-margin-bottom="0"
     inkscape:zoom="0.446875"
     inkscape:cx="305.45457"
     inkscape:cy="342.37765"
     inkscape:window-x="-8"
     inkscape:window-y="-8"
     inkscape:window-maximized="1"
     inkscape:current-layer="layer12" />
  <title
     id="title4">champagne glass black</title>
  <metadata
     id="metadata3852">image/svg+xmlchampagne glasschampagnestemwareflute glasscheerscelebrationhappy timesparty2010-12-25Srinivasbala from netalloy.com<rdf:RDF>
  <cc:Work
     rdf:about="">
    <dc:format>image/svg+xml</dc:format>
    <dc:type
       rdf:resource="http://purl.org/dc/dcmitype/StillImage" />
  </cc:Work>
</rdf:RDF>
</metadata>
  <rect
     style="fill:#bb0000;fill-opacity:1;stroke:#ffffff;stroke-width:1.10000002;stroke-miterlimit:4;stroke-opacity:1;stroke-dasharray:none"
     id="rect2985"
     width="958.90002"
     height="958.90002"
     x="0.55000001"
     y="0.55000001" />
  <g
     id="g7"
     transform="matrix(1.547845,0,0,1.5476701,89.338245,185.97703)"
     style="fill:#666666;fill-opacity:1;stroke:#000000;stroke-width:2.5843842;stroke-miterlimit:4;stroke-opacity:1;stroke-dasharray:none">
    <title
       id="title9"
       style="fill:url(#linearGradient3801);fill-opacity:1">Layer 1</title>
    <path
       stroke-miterlimit="4"
       id="path3019"
       d="M 303.30099,66.911102 224.741,44.7117 C 202.19501,117.154 173.74,171.57899 200.595,254.97301 197.674,320.569 176.614,385.46399 162.701,385.66699 144.23801,385.936 122.493,380.712 123.418,389.414 l -0.436,6.677 c 8.98499,7.14701 22.695,13.871 49.65901,23.28299 31.10099,6.331 41.72799,5.452 55.401,5.646 l 2.54799,-7.366 c 3.38099,-9.772 -8.18801,-11.298 -32.87999,-23.182 C 181.825,386.827 200.949,311.34601 227.884,258.26099 286.83301,203.769 289.14401,121.532 303.30099,66.911102 l 0,0 z"
       inkscape:connector-curvature="0"
       style="fill:#666666;fill-opacity:1;stroke:#000000;stroke-width:2.5843842;stroke-miterlimit:4;stroke-opacity:1;stroke-dasharray:none" />
    <path
       stroke-miterlimit="4"
       d="M 397.996,25.278601 310.93701,47.3415 c 18.36698,81.42251 21.19498,148.9285 92.65399,213.6105 33.29901,64.10199 48.93201,137.51599 35.78699,145.363 -17.44299,10.41199 -41.034,17.39701 -35.36499,25.17899 l 3.258,6.60202 c 12.48999,1.866 29.25201,0.73099 60.11902,-5.134 33.11398,-11.07602 42.75598,-17.75901 55.88897,-25.095 l -1.62298,-8.42002 c -2.15399,-11.16998 -14.017,-6.25998 -44.08002,-4 -19.34,1.45401 -42.63898,-80.97998 -46.177,-146.37298 26.19,-84.345 -16.845,-163.967311 -33.40299,-223.795308 l 0,-9.9e-5 z"
       id="path3794"
       inkscape:connector-curvature="0"
       style="fill:#666666;fill-opacity:1;stroke:#000000;stroke-width:2.5843842;stroke-miterlimit:4;stroke-opacity:1;stroke-dasharray:none" />
  </g>
  <g
     transform="translate(-145.4725,100.24527)"
     id="g3160"
     style="fill:#666666;fill-opacity:1">
    <path
       sodipodi:type="inkscape:offset"
       inkscape:radius="0.84956253"
       inkscape:original="M 1309.5938 869.71875 C 1305.4972 869.73815 1302.66 870.39395 1300.9062 871.15625 C 1299.1526 871.91855 1298.6173 872.94294 1298.6875 872.71875 C 1298.2256 874.1939 1298.0189 875.86504 1298.125 876.8125 C 1298.1832 877.33135 1298.2976 877.65129 1298.4375 878.21875 C 1298.5774 878.78621 1298.7282 879.58951 1298.7188 880.5625 C 1298.7036 882.11715 1298.6239 890.62747 1298.5312 892.5625 C 1298.4177 894.93676 1297.5952 895.87729 1297.6562 897.375 C 1297.6811 897.98136 1297.9208 898.62759 1298.3125 899.8125 C 1298.7042 900.99741 1299.1393 902.61734 1299.125 904.8125 C 1299.7525 937.61196 1293.305 959.79465 1286.8438 979.875 C 1280.3823 999.95535 1273.9597 1017.818 1274.2188 1042.6562 A 2.1808974 2.1808974 0 0 1 1274.2188 1042.6875 L 1273.75 1126.6875 C 1273.7414 1131.1308 1275.3872 1134.0342 1278.0938 1136.3438 C 1280.8001 1138.6531 1284.6618 1140.2455 1288.8438 1141.2188 C 1297.2073 1143.1649 1306.4033 1142.7188 1309.5312 1142.7188 L 1309.8125 1142.7188 C 1312.9411 1142.7188 1322.1365 1143.1649 1330.5 1141.2188 C 1334.6817 1140.2455 1338.5436 1138.6531 1341.25 1136.3438 C 1343.9564 1134.0342 1345.6023 1131.1308 1345.5938 1126.6875 L 1345.125 1042.6875 A 2.1808974 2.1808974 0 0 1 1345.125 1042.6562 C 1345.3841 1017.818 1338.9614 999.95534 1332.5 979.875 C 1326.0386 959.79466 1319.5912 937.58071 1320.2188 904.78125 C 1320.2044 902.5861 1320.6396 900.9974 1321.0312 899.8125 C 1321.4231 898.6276 1321.6628 897.98136 1321.6875 897.375 C 1321.7486 895.87763 1320.9255 894.93755 1320.8125 892.5625 C 1320.7212 890.65475 1320.6087 882.14845 1320.5938 880.5625 C 1320.5842 879.58953 1320.7351 878.78621 1320.875 878.21875 C 1321.0149 877.65129 1321.1293 877.33138 1321.1875 876.8125 C 1321.2971 875.83295 1321.1111 874.17069 1320.6562 872.71875 C 1320.725 872.93803 1320.1569 871.92146 1318.4062 871.15625 C 1316.6558 870.39104 1313.8415 869.71875 1309.75 869.71875 L 1309.5938 869.71875 z "
       style="fill:#666666;fill-opacity:1;stroke:#000000;stroke-width:1.18925631;stroke-miterlimit:4;stroke-opacity:1;stroke-dasharray:none;marker:none;visibility:visible;display:inline;overflow:visible;enable-background:accumulate"
       id="path4171"
       d="m 1309.5938,868.875 c -4.1855,0.0198 -7.1337,0.67518 -9.0313,1.5 -0.9754,0.42402 -1.6291,0.93478 -2.0313,1.3125 -0.1713,0.16092 -0.2688,0.29096 -0.3437,0.375 0.029,-0.0206 0.081,-0.0604 0.1563,-0.0937 0.037,-0.0167 0.1567,-0.0314 0.1562,-0.0312 -5e-4,1.1e-4 0.2504,-0.0312 0.25,-0.0312 -4e-4,-3e-5 0.344,0.0939 0.3438,0.0937 -3e-4,-1.6e-4 0.2814,0.2503 0.2812,0.25 -2e-4,-3e-4 0.1251,0.25044 0.125,0.25 -10e-5,-4.4e-4 0.026,0.11176 0.031,0.15625 0.038,0.35589 -0.026,0.29707 -0.031,0.3125 l -0.8125,-0.25 -0.8125,-0.25 c -0.495,1.58078 -0.7257,3.25897 -0.5938,4.4375 0.068,0.60296 0.2119,0.99624 0.3438,1.53125 0.1293,0.5243 0.2585,1.24429 0.25,2.125 -0.015,1.55593 -0.099,10.12939 -0.1875,11.96875 -0.052,1.09471 -0.2587,1.81943 -0.4687,2.53125 -0.2101,0.71182 -0.4434,1.43254 -0.4063,2.34375 0.033,0.80496 0.2993,1.51326 0.6875,2.6875 0.3781,1.14383 0.7948,2.63857 0.7812,4.71875 a 0.84964748,0.84964748 0 0 0 0,0.0312 c 0.6253,32.68086 -5.7942,54.71769 -12.25,74.78125 -6.4562,20.06393 -12.9169,38.0424 -12.6562,63.0312 a 0.84964748,0.84964748 0 0 0 0,0.031 0.84964748,0.84964748 0 0 0 0,0.1563 l -0.4688,83.8437 c -0.01,4.6538 1.7804,7.8851 4.625,10.3125 2.8632,2.4432 6.8563,4.0377 11.125,5.0312 8.5254,1.9838 17.8279,1.5313 20.875,1.5313 l 0.2813,0 c 3.0478,0 12.3497,0.4525 20.875,-1.5313 4.2685,-0.9934 8.2617,-2.588 11.125,-5.0312 2.8445,-2.4274 4.6339,-5.6587 4.625,-10.3125 l -0.4687,-83.9375 a 0.84964748,0.84964748 0 0 0 0,-0.062 0.84964748,0.84964748 0 0 0 0,-0.031 c 0.2606,-24.9888 -6.2002,-42.96728 -12.6563,-63.0312 -6.4559,-20.0633 -12.8753,-42.13165 -12.25,-74.8125 a 0.84964748,0.84964748 0 0 0 0,-0.0312 c -0.014,-2.08018 0.4018,-3.53936 0.7813,-4.6875 0.3883,-1.17428 0.6547,-1.88233 0.6874,-2.6875 0.037,-0.9112 -0.1961,-1.63206 -0.4062,-2.34375 -0.2101,-0.71169 -0.4167,-1.43622 -0.4688,-2.53125 -0.087,-1.82059 -0.2039,-10.39443 -0.2187,-11.96875 -0.01,-0.88053 0.1207,-1.60061 0.25,-2.125 0.1319,-0.535 0.2761,-0.92826 0.3437,-1.53125 0.1333,-1.19066 -0.072,-2.87208 -0.5624,-4.4375 l -0.8126,0.25 -0.8124,0.25 c -0,-0.0106 -0.023,-0.0183 -0.031,-0.0625 -0,-0.0221 0,-0.048 0,-0.0937 -0,-0.0457 2e-4,-0.21985 0,-0.21875 -10e-5,5.5e-4 0.063,-0.18791 0.062,-0.1875 -2e-4,4.1e-4 0.1878,-0.25028 0.1875,-0.25 -3e-4,2.8e-4 0.2816,-0.18764 0.2813,-0.1875 -4e-4,1.4e-4 0.3129,-0.0625 0.3124,-0.0625 -4e-4,0 0.2193,0.0314 0.2188,0.0312 -5e-4,-1.3e-4 0.091,0.0167 0.125,0.0312 0.067,0.0291 0.097,0.0437 0.125,0.0625 -0.076,-0.082 -0.1715,-0.18609 -0.3438,-0.34375 -0.4071,-0.37265 -1.0602,-0.88811 -2.0312,-1.3125 -1.8893,-0.82593 -4.8154,-1.5 -9,-1.5 l -0.1562,0 z"
       transform="matrix(2.5225849,0,0,2.5225849,-2980.9013,-2040.2518)"
       clip-path="url(#clipPath4229)" />
    <path
       inkscape:connector-curvature="0"
       sodipodi:nodetypes="ccccc"
       id="path3946"
       d="m 370.48842,377.22868 c -56.78436,36.83147 -97.90777,87.3246 -122.08789,152.59809 l 33.09574,29.48531 c 34.0832,-65.33051 50.75876,-83.94228 105.15744,-127.53937 l -16.16529,-54.54403 z"
       style="fill:#666666;fill-opacity:1;fill-rule:nonzero;stroke:#000000;stroke-width:3;stroke-miterlimit:4;stroke-opacity:1;stroke-dasharray:none;marker:none;visibility:visible;display:inline;overflow:visible;enable-background:accumulate" />
    <path
       inkscape:connector-curvature="0"
       style="fill:#666666;fill-opacity:1;fill-rule:nonzero;stroke:#000000;stroke-width:3;stroke-miterlimit:4;stroke-opacity:1;stroke-dasharray:none;marker:none;visibility:visible;display:inline;overflow:visible;enable-background:accumulate"
       d="m 275.09097,377.13587 c 56.78436,36.83147 98.0934,87.41741 122.27352,152.6909 l -33.09574,29.48531 c -34.0832,-65.33051 -51.0049,-83.93016 -105.40358,-127.52726 l 16.2258,-54.64895 0,0 z"
       id="path3952"
       sodipodi:nodetypes="ccccc" />
    <path
       transform="matrix(0.9675107,0.3251385,-0.3278081,0.9596314,-1560.7829,-1100.3104)"
       d="m 2246.8293,849.80845 c -3.479,3.22648 -4.3313,1.9553 -8.7955,3.56292 -6.0072,2.1633 -5.7583,3.65825 -12.1354,3.97495 -4.739,0.23536 -4.5748,-1.28623 -9.0279,-2.92427 -5.9924,-2.20421 -6.7626,-0.89901 -11.8513,-4.75548 -3.7816,-2.86589 -2.6777,-3.92593 -5.0361,-8.04316 -3.1736,-5.54034 -4.6026,-5.03561 -6.0219,-11.26078 -1.0547,-4.62615 0.4723,-4.72863 1.3122,-9.39857 1.1302,-6.28408 -0.289,-6.81599 2.6253,-12.49702 2.1657,-4.22179 3.4013,-3.31876 7.0464,-6.35628 4.9051,-4.08744 4.1599,-5.4071 10.0441,-7.88578 4.3727,-1.84201 4.7388,-0.356 9.4836,-0.33982 6.3849,0.0218 6.6623,-1.46816 12.763,0.41531 4.5338,1.39968 3.859,2.77334 7.4834,5.83565 4.8771,4.12079 6.0473,3.15775 9.5101,8.52207 2.5733,3.98644 1.1734,4.605 1.9814,9.28056 1.0873,6.29164 2.6028,6.3061 1.8073,12.64126 -0.5911,4.70789 -2.0611,4.28192 -4.4475,8.38298 -3.2113,5.51857 -2.0597,6.50377 -6.7412,10.84546 z"
       inkscape:randomized="0"
       inkscape:rounded="0.5"
       inkscape:flatsided="false"
       sodipodi:arg2="1.1721249"
       sodipodi:arg1="0.87605805"
       sodipodi:r2="30.976797"
       sodipodi:r1="32.522659"
       sodipodi:cy="824.82385"
       sodipodi:cx="2226.0088"
       sodipodi:sides="9"
       id="path4532"
       style="fill:#666666;fill-opacity:1;fill-rule:nonzero;stroke:#000000;stroke-width:2.94878697;stroke-miterlimit:4;stroke-dasharray:none;marker:none;visibility:visible;display:inline;overflow:visible;enable-background:accumulate"
       sodipodi:type="star" />
  </g>
  <g
     inkscape:groupmode="layer"
     id="layer10"
     inkscape:label="Obj" />
  <g
     inkscape:groupmode="layer"
     id="layer11"
     inkscape:label="Text"
     style="display:none" />
  <g
     inkscape:groupmode="layer"
     id="layer12"
     inkscape:label="PathsFromText">
    <g
       transform="scale(1.0000721,0.99992791)"
       style="font-size:150.67648315px;font-style:normal;font-variant:normal;font-weight:normal;font-stretch:normal;line-height:125%;letter-spacing:0px;word-spacing:0px;fill:#ffffff;fill-opacity:1;stroke:#000000;stroke-width:4;stroke-miterlimit:4;stroke-opacity:1;font-family:Arial;-inkscape-font-specification:Arial"
       id="text3755-1">
      <path
         d="m 112.21331,101.06452 14.27307,3.60505 c -2.99205,11.72257 -8.3751,20.66162 -16.14916,26.81718 -7.77424,6.15556 -17.277349,9.23334 -28.509348,9.23335 -11.624502,-1e-5 -21.078559,-2.36659 -28.3622,-7.09975 -7.2837,-4.73316 -12.826156,-11.58765 -16.627385,-20.56351 -3.801255,-8.97582 -5.701876,-18.613803 -5.701869,-28.913998 -7e-6,-11.232003 2.145855,-21.029398 6.437594,-29.392214 4.291711,-8.362649 10.398222,-14.714402 18.319553,-19.055278 7.921266,-4.34067 16.639598,-6.511057 26.155024,-6.511167 10.790564,1.1e-4 19.864501,2.746814 27.221821,8.24012 7.35716,5.49351 12.48271,13.218615 15.37666,23.175338 l -14.05235,3.310763 C 108.09317,56.062753 104.4636,50.348628 99.705989,46.768011 94.94823,43.187578 88.964339,41.397316 81.754299,41.397219 c -8.289218,9.7e-5 -15.217289,1.986553 -20.784232,5.959372 -5.567017,3.973003 -9.478618,9.307004 -11.734814,16.002019 -2.256246,6.695167 -3.384357,13.598713 -3.384335,20.710659 -2.2e-5,9.172085 1.336544,17.179221 4.009702,24.021421 2.673105,6.84227 6.829947,11.95555 12.470539,15.33987 5.640514,3.38434 11.747025,5.07651 18.319553,5.0765 7.994813,1e-5 14.763476,-2.30526 20.306008,-6.91581 5.54238,-4.61053 9.29457,-11.45276 11.25659,-20.52673 z"
         style="stroke:#000000"
         id="path4796" />
      <path
         d="m 144.58521,138.88078 0,-107.857284 14.27307,0 0,44.290646 56.06224,0 0,-44.290646 14.27307,0 0,107.857284 -14.27307,0 0,-50.838595 -56.06224,0 0,50.838595 z"
         style="stroke:#000000"
         id="path4798" />
      <path
         d="m 241.1859,138.88078 41.42132,-107.857284 15.37665,0 44.1435,107.857284 -16.25952,0 -12.5809,-32.66619 -45.09994,0 -11.84517,32.66619 z m 31.12117,-44.290643 36.56553,0 -11.25659,-29.870435 c -3.43343,-9.073859 -5.98395,-16.529198 -7.65154,-22.366041 -1.3734,6.915905 -3.31081,13.782665 -5.81223,20.6003 z"
         style="stroke:#000000"
         id="path4800" />
      <path
         d="m 353.23683,138.88078 0,-107.857284 21.48317,0 25.52966,76.368254 c 2.35425,7.11204 4.07094,12.43377 5.15007,15.96524 1.22614,-3.92385 3.13903,-9.68703 5.73866,-17.28954 l 25.82394,-75.043954 19.20243,0 0,107.857284 -13.75806,0 0,-90.273456 -31.34189,90.273456 -12.87519,0 -31.19474,-91.818479 0,91.818479 z"
         style="stroke:#000000"
         id="path4802" />
      <path
         d="m 479.3401,138.88078 0,-107.857284 40.68559,0 c 7.161,1.08e-4 12.62988,0.343446 16.40667,1.030015 5.29714,0.882976 9.73601,2.56288 13.31662,5.039716 3.58044,2.47704 6.46203,5.947207 8.64477,10.410509 2.18256,4.463486 3.27388,9.368314 3.27398,14.7145 -10e-5,9.172106 -2.91847,16.933998 -8.75513,23.285697 -5.83683,6.351807 -16.38221,9.527683 -31.63618,9.527639 l -27.66326,0 0,43.849208 z m 14.27306,-56.577251 27.88398,0 c 9.22102,5.7e-5 15.76897,-1.716633 19.64386,-5.150075 3.87474,-3.433318 5.81215,-8.264574 5.81223,-14.493783 -8e-5,-4.512366 -1.14046,-8.374918 -3.42113,-11.587669 -2.28082,-3.212574 -5.28502,-5.333913 -9.01263,-6.364021 -2.40343,-0.637533 -6.8423,-0.956347 -13.31662,-0.956442 l -27.58969,0 z"
         style="stroke:#000000"
         id="path4804" />
      <path
         d="m 582.41514,138.88078 0,-107.857284 14.27307,0 0,107.857284 z"
         style="stroke:#000000"
         id="path4806" />
      <path
         d="m 617.43566,86.350017 c -10e-6,-17.902572 4.80672,-31.918119 14.42021,-42.046685 9.61344,-10.128376 22.02266,-15.192611 37.22769,-15.192721 9.95674,1.1e-4 18.93257,2.378951 26.92753,7.136532 7.99479,4.757787 14.08903,11.391567 18.28277,19.901362 4.19352,8.50996 6.29034,18.16021 6.29045,28.950779 -1.1e-4,10.937822 -2.20729,20.722956 -6.62153,29.355426 -4.41445,8.63253 -10.6681,15.16821 -18.76099,19.60707 -8.09305,4.43888 -16.82364,6.65831 -26.19181,6.65832 -10.15305,-1e-5 -19.22698,-2.45242 -27.22182,-7.35725 -7.99491,-4.90483 -14.05237,-11.59992 -18.17241,-20.0853 -4.12007,-8.48533 -6.1801,-17.461161 -6.18009,-26.927533 z m 14.7145,0.220717 c -2e-5,12.997848 3.49467,23.236676 10.48408,30.716516 6.98935,7.47989 15.75673,11.21982 26.30217,11.21981 10.74152,1e-5 19.58247,-3.77671 26.52289,-11.33016 6.94024,-7.55342 10.41041,-18.270469 10.41051,-32.151188 -10e-5,-8.779589 -1.48381,-16.443384 -4.45114,-22.991407 -2.96751,-6.547869 -7.30829,-11.624367 -13.02233,-15.229508 -5.71421,-3.604956 -12.12727,-5.407481 -19.23921,-5.407578 -10.10401,9.7e-5 -18.79782,3.470263 -26.08145,10.410509 -7.28371,6.940419 -10.92554,18.528076 -10.92552,34.763006 z"
         style="stroke:#000000"
         id="path4808" />
      <path
         d="m 738.75673,138.88078 0,-107.857284 14.64093,0 56.65083,84.681954 0,-84.681954 13.68448,0 0,107.857284 -14.64093,0 -56.65082,-84.755519 0,84.755519 z"
         style="stroke:#000000"
         id="path4810" />
      <path
         d="m 842.93536,104.22813 13.46377,-1.17716 c 0.63761,5.39535 2.12132,9.82196 4.45114,13.27984 2.32976,3.45793 5.94708,6.25368 10.85194,8.38727 4.90479,2.13361 10.42272,3.20041 16.55381,3.2004 5.44431,1e-5 10.25104,-0.80929 14.42021,-2.42789 4.16904,-1.61858 7.27134,-3.83802 9.30692,-6.65831 2.03543,-2.82026 3.05318,-5.89804 3.05326,-9.23335 -8e-5,-3.3843 -0.98104,-6.33946 -2.9429,-8.86549 -1.962,-2.525948 -5.19919,-4.647286 -9.71157,-6.36402 -2.89391,-1.128066 -9.29471,-2.881543 -19.20242,-5.260434 -9.9078,-2.378792 -16.84813,-4.622751 -20.82102,-6.731884 -5.15009,-2.697599 -8.98812,-6.045145 -11.5141,-10.042647 -2.526,-3.997368 -3.78899,-8.473024 -3.78898,-13.426981 -10e-6,-5.44428 1.54501,-10.533039 4.63507,-15.266294 3.09003,-4.733064 7.60247,-8.325851 13.53734,-10.778372 5.93481,-2.452308 12.53181,-3.678515 19.791,-3.678625 7.99482,1.1e-4 15.04551,1.287627 21.1521,3.862557 6.10644,2.57514 10.80281,6.36412 14.08913,11.366951 3.28615,5.00302 5.05189,10.668097 5.29722,16.995248 l -13.68449,1.030015 c -0.7358,-6.817635 -3.225,-11.967705 -7.4676,-15.450225 -4.24275,-3.482337 -10.50867,-5.223551 -18.79778,-5.223648 -8.63255,9.7e-5 -14.92299,1.581904 -18.87134,4.745426 -3.94842,3.163707 -5.92262,6.977211 -5.92259,11.440524 -3e-5,3.874896 1.39785,7.063034 4.19363,9.564426 2.74668,2.501534 9.91999,5.064306 21.51996,7.688326 11.59987,2.624147 19.55795,4.917154 23.87427,6.879029 6.27811,2.893906 10.91317,6.560265 13.90521,10.999089 2.99185,4.438915 4.48783,9.552199 4.48792,15.339869 -9e-5,5.73868 -1.64321,11.14625 -4.92936,16.22273 -3.28632,5.07652 -8.00722,9.0249 -14.1627,11.84518 -6.15564,2.82028 -13.08371,4.23041 -20.78424,4.23042 -9.76066,-1e-5 -17.93946,-1.42241 -24.53642,-4.26721 -6.59703,-2.8448 -11.77162,-7.12426 -15.5238,-12.8384 -3.75221,-5.71411 -5.7264,-12.17622 -5.92259,-19.38636 z"
         style="stroke:#000000"
         id="path4812" />
    </g>
    <g
       transform="scale(0.99961514,1.000385)"
       style="font-size:592.40942383px;font-style:normal;font-variant:normal;font-weight:normal;font-stretch:normal;line-height:125%;letter-spacing:0px;word-spacing:0px;fill:#ffffff;fill-opacity:1;stroke:#000000;stroke-width:3.99999976;stroke-miterlimit:4;stroke-opacity:1;font-family:Arial;-inkscape-font-specification:Arial"
       id="text3759-3">
      <path
         d="m 20.623474,626.00785 0,-424.92649 47.439035,0 0,39.91822 c 11.184716,-15.61989 23.815829,-27.33501 37.893381,-35.14539 14.07729,-7.80977 31.14376,-11.71481 51.19944,-11.71513 26.22626,3.2e-4 49.36723,6.74977 69.42298,20.24837 20.05526,13.4992 35.19332,32.54229 45.4142,57.12933 10.22031,24.58752 15.3306,51.53711 15.33091,80.84884 -3.1e-4,31.43331 -5.64092,59.73279 -16.92185,84.89852 -11.28151,25.16588 -27.67303,44.45002 -49.17461,57.85249 -21.50206,13.40249 -44.11272,20.10373 -67.83204,20.10373 -17.3559,0 -32.92784,-3.66399 -46.71588,-10.99197 C 92.890755,496.9004 81.561322,487.64401 72.690708,476.45918 l 0,149.54867 z M 67.773247,356.41528 c -8.6e-5,39.53264 8.002833,68.74812 24.00878,87.64651 16.005723,18.89852 35.386293,28.34775 58.141743,28.34772 23.1408,3e-5 42.95526,-9.78667 59.44343,-29.36014 16.48771,-19.57334 24.73168,-49.89765 24.73194,-90.97303 -2.6e-4,-39.14665 -8.05139,-68.45854 -24.15342,-87.93577 -16.10248,-19.47674 -35.33841,-29.21523 -57.70785,-29.21551 -22.17693,2.8e-4 -41.79855,10.3655 -58.864899,31.09571 -17.066578,20.7307 -25.59981,50.86217 -25.599724,90.39451 z"
         style=""
         id="path4815" />
      <path
         d="m 331.00205,354.6797 c -2e-5,-56.88806 15.81297,-99.02391 47.43903,-126.40767 26.41921,-22.75501 58.62373,-34.13265 96.61365,-34.13297 42.23211,3.2e-4 76.75072,13.83669 103.55594,41.50916 26.80469,27.67302 40.20717,65.90383 40.20748,114.69255 -3.1e-4,39.53265 -5.93018,70.62832 -17.78964,93.28713 -11.86004,22.65893 -29.11934,40.25571 -51.77797,52.79039 -22.65911,12.5347 -47.39102,18.80205 -74.19581,18.80205 -43.0038,0 -77.76347,-13.78816 -104.2791,-41.36452 -26.51576,-27.57629 -39.7736,-67.30162 -39.77358,-119.17612 z m 53.51354,0 c -7e-5,39.33981 8.58137,68.79633 25.74436,88.36967 17.16279,19.57347 38.76102,29.36017 64.79478,29.36014 25.84059,3e-5 47.3424,-9.83488 64.50552,-29.50477 17.16266,-19.66976 25.7441,-49.6566 25.74435,-89.96061 -2.5e-4,-37.9896 -8.6299,-66.77119 -25.88898,-86.34483 -17.25954,-19.57316 -38.71315,-29.35987 -64.36089,-29.36014 -26.03376,2.7e-4 -47.63199,9.73877 -64.79478,29.21551 -17.16299,19.47722 -25.74443,48.88554 -25.74436,88.22503 z"
         style=""
         id="path4817" />
      <path
         d="m 680.14178,626.00785 0,-424.92649 47.43904,0 0,39.91822 c 11.18472,-15.61989 23.81583,-27.33501 37.89338,-35.14539 14.0773,-7.80977 31.14376,-11.71481 51.19944,-11.71513 26.22626,3.2e-4 49.36723,6.74977 69.42298,20.24837 20.05527,13.4992 35.19332,32.54229 45.4142,57.12933 10.22031,24.58752 15.3306,51.53711 15.33091,80.84884 -3.1e-4,31.43331 -5.64092,59.73279 -16.92185,84.89852 -11.28151,25.16588 -27.67303,44.45002 -49.17461,57.85249 -21.50206,13.40249 -44.11272,20.10373 -67.83204,20.10373 -17.3559,0 -32.92784,-3.66399 -46.71588,-10.99197 -13.78828,-7.32797 -25.11772,-16.58436 -33.98833,-27.76919 l 0,149.54867 z m 47.14978,-269.59257 c -9e-5,39.53264 8.00283,68.74812 24.00878,87.64651 16.00573,18.89852 35.38629,28.34775 58.14174,28.34772 23.1408,3e-5 42.95526,-9.78667 59.44343,-29.36014 16.48771,-19.57334 24.73168,-49.89765 24.73194,-90.97303 -2.6e-4,-39.14665 -8.05139,-68.45854 -24.15342,-87.93577 -16.10248,-19.47674 -35.33841,-29.21523 -57.70785,-29.21551 -22.17693,2.8e-4 -41.79855,10.3655 -58.8649,31.09571 -17.06658,20.7307 -25.59981,50.86217 -25.59972,90.39451 z"
         style=""
         id="path4819" />
    </g>
    <g
       transform="scale(1.0013964,0.99860554)"
       style="font-size:327.70275879px;font-style:normal;font-variant:normal;font-weight:normal;font-stretch:normal;line-height:125%;letter-spacing:0px;word-spacing:0px;fill:#ffffff;fill-opacity:1;stroke:#000000;stroke-width:3.99999928;stroke-miterlimit:4;stroke-opacity:1;font-family:Arial;-inkscape-font-specification:Arial"
       id="text3759-1-4">
      <path
         d="m 41.188338,934.71277 -26.721855,0 0,-234.57629 28.802,0 0,83.68581 c 12.160782,-15.25423 27.681844,-22.88142 46.563234,-22.88159 10.453953,1.7e-4 20.347963,2.10698 29.682063,6.32044 9.33384,4.21379 17.01437,10.13419 23.0416,17.76123 6.02693,7.62734 10.74725,16.82797 14.16098,27.60192 3.41341,10.77419 5.12019,22.29498 5.12036,34.5624 -1.7e-4,29.12208 -7.20066,51.63029 -21.6015,67.52469 -14.40114,15.89444 -31.68232,23.84165 -51.843603,23.84166 -20.054802,-10e-6 -35.789212,-8.37392 -47.203279,-25.12175 z m -0.320022,-86.24599 c -4.8e-5,20.37481 2.773475,35.09582 8.320578,44.16307 9.067231,14.82772 21.334738,22.24156 36.802556,22.24154 12.587435,2e-5 23.46818,-5.46702 32.64227,-16.40114 9.17383,-10.93404 13.76081,-27.22849 13.76095,-48.88339 -1.4e-4,-22.1881 -4.40044,-38.56256 -13.20091,-49.12341 -8.80073,-10.56059 -19.441461,-15.84096 -31.922221,-15.84111 -12.587623,1.5e-4 -23.468368,5.4672 -32.642267,16.40114 -9.174023,10.93422 -13.761004,26.74864 -13.760956,47.4433 z"
         style="stroke:#000000"
         id="path4822" />
      <path
         d="m 186.31842,849.74687 c -1e-5,-31.46874 8.74726,-54.777 26.24183,-69.92486 14.61429,-12.58737 32.42884,-18.88114 53.44371,-18.88131 23.36151,1.7e-4 42.45615,7.65403 57.28398,22.96159 14.82753,15.30787 22.24137,36.45598 22.24154,63.44441 -1.7e-4,21.86825 -3.28039,39.06943 -9.84068,51.60358 -6.56061,12.53423 -16.10793,22.26823 -28.64199,29.20203 -12.53433,6.93382 -26.21526,10.40072 -41.04285,10.40073 -23.78839,-10e-6 -43.01637,-7.6272 -57.68401,-22.88159 -14.6677,-15.25436 -22.00154,-37.2292 -22.00153,-65.92458 z m 29.60206,0 c -4e-5,21.76157 4.74695,38.05602 14.24099,48.88339 9.49393,10.82745 21.44141,16.24115 35.84249,16.24113 14.29422,2e-5 26.18837,-5.44035 35.68248,-16.32113 9.49385,-10.88071 14.24084,-27.46851 14.24098,-49.76346 -1.4e-4,-21.01468 -4.7738,-36.93577 -14.32099,-47.76332 -9.54745,-10.82727 -21.41493,-16.24097 -35.60247,-16.24112 -14.40108,1.5e-4 -26.34856,5.38718 -35.84249,16.16112 -9.49404,10.7742 -14.24103,27.04198 -14.24099,48.80339 z"
         style="stroke:#000000"
         id="path4824" />
      <path
         d="m 442.33621,908.95098 4.16029,25.44177 c -8.10731,1.70678 -15.36114,2.56017 -21.76151,2.56017 -10.45412,0 -18.56134,-1.65344 -24.32169,-4.96034 -5.76044,-3.30689 -9.81405,-7.65385 -12.16085,-13.04091 -2.34685,-5.38702 -3.52027,-16.72112 -3.52024,-34.00236 l 0,-97.76679 -21.12147,0 0,-22.40155 21.12147,0 0,-42.08293 28.64199,-17.2812 0,59.36413 28.96201,0 0,22.40155 -28.96201,0 0,99.3669 c -6e-5,8.21395 0.50664,13.49431 1.5201,15.8411 1.01335,2.34686 2.6668,4.21366 4.96035,5.60039 2.29343,1.38679 5.57365,2.08017 9.84068,2.08015 3.20015,2e-5 7.41377,-0.37334 12.64088,-1.12008 z"
         style="stroke:#000000"
         id="path4826" />
      <path
         d="m 533.22253,908.95098 4.16029,25.44177 c -8.10731,1.70678 -15.36114,2.56017 -21.76151,2.56017 -10.45412,0 -18.56134,-1.65344 -24.32169,-4.96034 -5.76044,-3.30689 -9.81405,-7.65385 -12.16085,-13.04091 -2.34685,-5.38702 -3.52027,-16.72112 -3.52024,-34.00236 l 0,-97.76679 -21.12147,0 0,-22.40155 21.12147,0 0,-42.08293 28.64199,-17.2812 0,59.36413 28.96201,0 0,22.40155 -28.96201,0 0,99.3669 c -6e-5,8.21395 0.50665,13.49431 1.52011,15.8411 1.01334,2.34686 2.66679,4.21366 4.96034,5.60039 2.29343,1.38679 5.57365,2.08017 9.84068,2.08015 3.20015,2e-5 7.41377,-0.37334 12.64088,-1.12008 z"
         style="stroke:#000000"
         id="path4828" />
      <path
         d="m 560.58441,934.71277 0,-234.57629 28.802,0 0,234.57629 z"
         style="stroke:#000000"
         id="path4830" />
      <path
         d="m 750.51762,879.98897 29.76207,3.68025 c -4.69382,17.38791 -13.38775,30.88217 -26.08181,40.48282 -12.69435,9.60066 -28.90879,14.40099 -48.64338,14.401 -24.85513,-10e-6 -44.56314,-7.65387 -59.12411,-22.9616 -14.56103,-15.30769 -21.84153,-36.77583 -21.84151,-64.40447 -2e-5,-28.58854 7.36049,-50.77673 22.08153,-66.56463 14.72097,-15.78759 33.81561,-23.68147 57.28398,-23.68164 22.72146,1.7e-4 41.28273,7.73404 55.68387,23.20161 14.40083,15.46788 21.60133,37.22937 21.6015,65.28454 -1.7e-4,1.70686 -0.0535,4.26704 -0.16002,7.68053 l -126.7288,0 c 1.0667,18.66802 6.34706,32.96233 15.8411,42.88298 9.49393,9.92071 21.33474,14.88105 35.52247,14.88103 10.56063,2e-5 19.57458,-2.7735 27.04188,-8.32058 7.46706,-5.54702 13.38746,-14.40095 17.76123,-26.56184 z m -94.56657,-46.56324 94.88659,0 c -1.28022,-14.29421 -4.90714,-25.01494 -10.88075,-32.16223 -9.17409,-11.09396 -21.06824,-16.64101 -35.68248,-16.64116 -13.22766,1.5e-4 -24.34842,4.42712 -33.36232,13.28093 -9.01401,8.85407 -14.00101,20.69488 -14.96104,35.52246 z"
         style="stroke:#000000"
         id="path4832" />
      <path
         d="m 805.0814,883.98925 28.48198,-4.48032 c 1.60007,11.41417 6.05371,20.16144 13.36093,26.24183 7.30711,6.08044 17.52114,9.12065 30.64213,9.12063 13.22749,2e-5 23.04149,-2.6935 29.44204,-8.08056 6.40033,-5.38701 9.60055,-11.70744 9.60067,-18.96132 -1.2e-4,-6.50706 -2.82698,-11.62741 -8.48059,-15.36106 -3.94705,-2.56012 -13.76106,-5.81367 -29.44205,-9.76068 -21.12153,-5.33363 -35.76253,-9.94728 -43.92305,-13.84096 -8.1606,-3.89352 -14.34769,-9.28055 -18.56129,-16.16113 -4.21364,-6.88036 -6.32045,-14.48088 -6.32044,-22.80158 -10e-6,-7.57373 1.73344,-14.58754 5.20037,-21.04146 3.46688,-6.45363 8.1872,-11.814 14.16098,-16.08112 4.48027,-3.30673 10.58736,-6.10692 18.32127,-8.40058 7.73381,-2.29332 16.02771,-3.44007 24.88173,-3.44024 13.33417,1.7e-4 25.04164,1.92031 35.12244,5.7604 10.08058,3.84043 17.52109,9.04079 22.32155,15.60108 4.80019,6.56061 8.10709,15.33454 9.92069,26.32183 l -28.16196,3.84027 c -1.2802,-8.74714 -4.98712,-15.57428 -11.12077,-20.48142 -6.13386,-4.90686 -14.80112,-7.36037 -26.00181,-7.36052 -13.22765,1.5e-4 -22.66829,2.18697 -28.32196,6.56046 -5.65377,4.37378 -8.48063,9.49413 -8.48059,15.36107 -4e-5,3.73371 1.17337,7.09394 3.52024,10.0807 2.34678,3.09366 6.02704,5.65384 11.04077,7.68053 2.88014,1.06685 11.36072,3.52035 25.44177,7.36051 20.37464,5.44048 34.58895,9.89412 42.64296,13.36093 8.05376,3.46699 14.37419,8.50734 18.96132,15.12105 4.58683,6.61386 6.88032,14.82776 6.88047,24.64171 -1.5e-4,9.60071 -2.80034,18.64133 -8.40058,27.12188 -5.60053,8.48061 -13.68108,15.04106 -24.24168,19.68137 -10.56085,4.64032 -22.50833,6.96048 -35.84249,6.96049 -22.0816,-10e-6 -38.90942,-4.58699 -50.48351,-13.76096 -11.57416,-9.17395 -18.96133,-22.77488 -22.16154,-40.80283 z"
         style="stroke:#000000"
         id="path4834" />
    </g>
  </g>
  <text
     xml:space="preserve"
     style="font-size:150.67648315000000000px;font-style:normal;font-variant:normal;font-weight:normal;font-stretch:normal;line-height:125%;letter-spacing:0px;word-spacing:0px;fill:#ffffff;fill-opacity:1;stroke:#000000;stroke-width:4;stroke-miterlimit:4;stroke-opacity:1;stroke-dasharray:none;font-family:Arial;-inkscape-font-specification:Arial"
     x="23.632023"
     y="138.88078"
     id="text3755"
     sodipodi:linespacing="125%"
     transform="scale(1.0000721,0.99992791)"><tspan
       sodipodi:role="line"
       id="tspan3757"
       x="23.632023"
       y="138.88078"
       style="stroke:#000000;stroke-width:4;stroke-opacity:1">CHAMPIONS</tspan></text>
  <text
     xml:space="preserve"
     style="font-size:592.40942383000004000px;font-style:normal;font-variant:normal;font-weight:normal;font-stretch:normal;line-height:125%;letter-spacing:0px;word-spacing:0px;fill:#ffffff;fill-opacity:1;stroke:#000000;stroke-width:3.99999976000000010;stroke-miterlimit:4;stroke-opacity:1;stroke-dasharray:none;font-family:Arial;-inkscape-font-specification:Arial"
     x="-18.426952"
     y="508.27805"
     id="text3759"
     sodipodi:linespacing="125%"
     transform="scale(0.99961514,1.000385)"><tspan
       sodipodi:role="line"
       id="tspan3761"
       x="-18.426952"
       y="508.27805"
       style="stroke-width:3.99999976">pop</tspan></text>
  <text
     xml:space="preserve"
     style="font-size:327.70275879000002000px;font-style:normal;font-variant:normal;font-weight:normal;font-stretch:normal;line-height:125%;letter-spacing:0px;word-spacing:0px;fill:#ffffff;fill-opacity:1;stroke:#000000;stroke-width:3.99999927999999990;stroke-miterlimit:4;stroke-opacity:1;stroke-dasharray:none;font-family:Arial;-inkscape-font-specification:Arial"
     x="-6.9750061"
     y="934.71277"
     id="text3759-1"
     sodipodi:linespacing="125%"
     transform="scale(1.0013964,0.99860554)"><tspan
       sodipodi:role="line"
       id="tspan3761-7"
       x="-6.9750061"
       y="934.71277"
       style="stroke:#000000;stroke-width:3.99999928;stroke-opacity:1">bottles</tspan></text>
</svg>
