<?xml version="1.0" encoding="UTF-8" standalone="no"?>
<!-- Created with Inkscape (http://www.inkscape.org/) -->

<svg
   xmlns:dc="http://purl.org/dc/elements/1.1/"
   xmlns:cc="http://creativecommons.org/ns#"
   xmlns:rdf="http://www.w3.org/1999/02/22-rdf-syntax-ns#"
   xmlns:svg="http://www.w3.org/2000/svg"
   xmlns="http://www.w3.org/2000/svg"
   xmlns:sodipodi="http://sodipodi.sourceforge.net/DTD/sodipodi-0.dtd"
   xmlns:inkscape="http://www.inkscape.org/namespaces/inkscape"
   width="960"
   height="960"
   id="svg2"
   version="1.1"
   inkscape:version="0.48.4 r9939"
   sodipodi:docname="driven.svg">
  <defs
     id="defs4" />
  <sodipodi:namedview
     id="base"
     pagecolor="#ffffff"
     bordercolor="#666666"
     borderopacity="1.0"
     inkscape:pageopacity="0.0"
     inkscape:pageshadow="2"
     inkscape:zoom="0.35"
     inkscape:cx="-311.42857"
     inkscape:cy="520.00001"
     inkscape:document-units="px"
     inkscape:current-layer="layer16"
     showgrid="false"
     fit-margin-top="0"
     fit-margin-left="0"
     fit-margin-right="0"
     fit-margin-bottom="0"
     inkscape:window-width="1600"
     inkscape:window-height="847"
     inkscape:window-x="-8"
     inkscape:window-y="-8"
     inkscape:window-maximized="1" />
  <metadata
     id="metadata7">
    <rdf:RDF>
      <cc:Work
         rdf:about="">
        <dc:format>image/svg+xml</dc:format>
        <dc:type
           rdf:resource="http://purl.org/dc/dcmitype/StillImage" />
        <dc:title />
      </cc:Work>
    </rdf:RDF>
  </metadata>
  <g
     inkscape:label="Layer 1"
     inkscape:groupmode="layer"
     id="layer1"
     transform="translate(1.2218952e-5,-92.36217)">
    <rect
       style="fill:#bb0000;fill-opacity:1;stroke:#ffffff;stroke-width:1.10000002;stroke-miterlimit:4;stroke-opacity:1;stroke-dasharray:none"
       id="rect2985"
       width="958.90002"
       height="958.90002"
       x="0.54997557"
       y="92.91217" />
    <text
       xml:space="preserve"
       style="font-size:1032.00134277px;font-style:normal;font-variant:normal;font-weight:normal;font-stretch:normal;line-height:125%;letter-spacing:0px;word-spacing:0px;fill:#666666;fill-opacity:1;stroke:#000000;stroke-width:4;stroke-miterlimit:4;stroke-opacity:1;stroke-dasharray:none;font-family:FontAwesome;-inkscape-font-specification:FontAwesome"
       x="-1644.8688"
       y="791.80353"
       id="text3788"
       sodipodi:linespacing="125%"><tspan
         sodipodi:role="line"
         id="tspan3790"
         x="-1644.8688"
         y="791.80353" /></text>
    <g
       style="font-size:455.16647339px;font-style:normal;font-variant:normal;font-weight:normal;font-stretch:normal;line-height:125%;letter-spacing:0px;word-spacing:0px;fill:#666666;fill-opacity:1;stroke:#000000;stroke-width:4;stroke-miterlimit:4;stroke-opacity:1;font-family:FontAwesome;-inkscape-font-specification:FontAwesome"
       id="text3828">
      <path
         d="m 611.82025,727.80081 c -0.22764,9.24479 -3.39212,16.91785 -9.49343,23.01919 -6.10149,6.10146 -13.77455,9.26594 -23.0192,9.49344 -9.24479,-0.22749 -16.91785,-3.39197 -23.01921,-9.49343 -6.10145,-6.10135 -9.26592,-13.77441 -9.49343,-23.0192 0.22752,-9.24464 3.39199,-16.9177 9.49343,-23.01921 6.10136,-6.1013 13.77442,-9.26577 23.01921,-9.49343 9.24465,0.22767 16.9177,3.39214 23.01919,9.49343 6.10131,6.10151 9.26579,13.77457 9.49344,23.01921 z m 260.10108,0 c -0.2279,9.24479 -3.39238,16.91785 -9.49343,23.01919 -6.10175,6.10146 -13.77481,9.26594 -23.0192,9.49344 -9.24505,-0.22749 -16.91811,-3.39197 -23.01921,-9.49343 -6.10171,-6.10135 -9.26618,-13.77441 -9.49343,-23.0192 0.22726,-9.24464 3.39173,-16.9177 9.49343,-23.01921 6.1011,-6.1013 13.77416,-9.26577 23.01921,-9.49343 9.24439,0.22767 16.91744,3.39214 23.01919,9.49343 6.10105,6.10151 9.26553,13.77457 9.49344,23.01921 z M 860.23711,627.21484 c 0.74579,5.24962 -0.42899,9.73703 -3.52433,13.46226 -3.09603,3.72557 -7.25536,5.67294 -12.47799,5.84212 l -269.75327,0 c -5.22303,-0.16917 -9.38237,-2.11654 -12.478,-5.84212 -3.09573,-3.72524 -4.2705,-8.21265 -3.52431,-13.46226 l 18.28836,-97.5379 c 0.84133,-3.88388 2.71461,-7.03777 5.61985,-9.46169 2.9051,-2.42334 6.36592,-3.67219 10.38246,-3.74657 l 233.17656,0 c 4.01613,0.0744 7.47694,1.32324 10.38244,3.74658 2.90485,2.42391 4.77814,5.5778 5.61987,9.46168 l 18.28836,97.5379 z M 802.83199,471.76381 c -0.0797,3.50877 -1.25444,6.39807 -3.52433,8.66791 -2.27045,2.27049 -5.15975,3.44527 -8.66791,3.52433 l -162.56318,0 c -3.39743,-0.079 -6.25499,-1.25382 -8.57268,-3.52432 -2.31789,-2.26985 -3.52441,-5.15915 -3.61956,-8.66792 0.0952,-3.50811 1.30168,-6.39742 3.61958,-8.66793 2.3177,-2.26983 5.17525,-3.4446 8.57266,-3.52431 l 162.56318,0 c 3.50816,0.0797 6.39746,1.25451 8.66791,3.52433 2.26988,2.27051 3.44465,5.15981 3.52433,8.66791 z m 101.60198,184.1536 c 0.0419,-10.20237 -0.36022,-19.70638 -1.20653,-28.51206 -0.84708,-8.80532 -2.39227,-18.18233 -4.63558,-28.13105 L 871.92133,483.95605 c -3.47176,-20.48939 -20.3419,-36.40702 -50.61049,-47.75294 -30.26921,-11.34517 -67.58673,-17.10261 -111.95268,-17.27233 -44.36635,0.16972 -81.68388,5.92716 -111.95269,17.27233 -30.26898,11.34592 -47.13913,27.26355 -50.61049,47.75294 L 520.63247,599.2743 c -2.26489,9.94873 -3.89476,19.32574 -4.8896,28.13105 -0.99485,8.80568 -1.48169,18.30969 -1.46052,28.51206 l 0,153.16499 32.51263,0 0,32.51263 c 0.22752,9.24468 3.39199,16.91774 9.49343,23.01919 6.10136,6.10135 13.77442,9.26583 23.01921,9.49345 9.24465,-0.22762 16.9177,-3.39209 23.01919,-9.49344 6.10131,-6.10146 9.26579,-13.77452 9.49344,-23.0192 l 0,-32.51263 195.07581,0 0,32.51263 c 0.22726,9.24468 3.39173,16.91774 9.49343,23.01919 6.1011,6.10135 13.77416,9.26583 23.01921,9.49345 9.24439,-0.22762 16.91744,-3.39209 23.01919,-9.49344 6.10105,-6.10146 9.26553,-13.77452 9.49344,-23.0192 l 0,-32.51263 32.51264,0 z"
         style=""
         id="path3487" />
    </g>
    <g
       transform="scale(1.0001111,0.99988892)"
       style="font-size:378.06738281px;font-style:normal;font-variant:normal;font-weight:normal;font-stretch:normal;line-height:125%;letter-spacing:0px;word-spacing:0px;fill:#666666;fill-opacity:1;stroke:#000000;stroke-width:4;stroke-miterlimit:4;stroke-opacity:1;font-family:FontAwesome;-inkscape-font-specification:FontAwesome"
       id="text3808">
      <path
         d="m 440.32369,671.19458 -5.90743,0 -22.1529,-88.40059 c -3.63537,-13.57281 -10.97571,-24.66682 -22.02104,-33.28209 -11.046,-8.61475 -23.60808,-13.0629 -37.68628,-13.34447 l -27.00543,0 0,-47.25951 c -0.0442,-1.94245 -0.69475,-3.54238 -1.95157,-4.79979 -1.25736,-1.25677 -2.85729,-1.90729 -4.79979,-1.95156 l -94.51901,0 c -1.94294,0.0443 -3.54287,0.6948 -4.79979,1.95156 -1.25726,1.25741 -1.90778,2.85734 -1.95156,4.79979 l 0,47.25951 -27.00543,0 c -14.07864,0.28158 -26.64073,4.72973 -37.6863,13.34448 -11.04576,8.61526 -18.3861,19.70927 -22.02102,33.28208 l -22.1529,88.40059 -5.90744,0 c -13.414845,0.33419 -24.561611,4.94058 -33.440326,13.8192 -8.878743,8.87885 -13.48513,20.02561 -13.819174,33.44031 l 0,81.01629 c 0.04396,1.94278 0.694479,3.54271 1.951567,4.79979 1.257084,1.25709 2.857013,1.90761 4.799791,1.95157 l 20.254073,0 0,13.50272 c 0.290075,11.472 4.245948,21.01883 11.867629,28.64051 7.6216,7.6216 17.16843,11.57748 28.64052,11.86763 11.47195,-0.29015 21.01878,-4.24602 28.64051,-11.86762 7.62155,-7.62169 11.57742,-17.16852 11.86763,-28.64052 l 0,-13.50272 216.04345,0 0,13.50272 c 0.28978,11.472 4.24565,21.01883 11.86763,28.64051 7.62131,7.6216 17.16814,11.57748 28.64052,11.86763 11.47165,-0.29015 21.01848,-4.24602 28.64052,-11.86762 7.62125,-7.62169 11.57712,-17.16852 11.86763,-28.64052 l 0,-13.50272 20.25407,0 c 1.94235,-0.044 3.54227,-0.69448 4.79979,-1.95157 1.25666,-1.25709 1.90718,-2.85702 1.95157,-4.79979 l 0,-81.01629 c -0.33449,-13.41472 -4.94088,-24.56148 -13.81919,-33.44033 -8.87914,-8.87861 -20.02591,-13.485 -33.44032,-13.81918 z M 123.00988,772.46495 c -9.52932,-0.24611 -17.47623,-3.55146 -23.84074,-9.91606 -6.364601,-6.36451 -9.669948,-14.31141 -9.916051,-23.84073 0.246111,-9.52918 3.551458,-17.47609 9.916051,-23.84073 6.36451,-6.36447 14.31141,-9.66982 23.84074,-9.91606 9.52918,0.24625 17.47608,3.5516 23.84072,9.91606 6.36446,6.36464 9.66981,14.31154 9.91607,23.84073 -0.24625,9.52932 -3.5516,17.47622 -9.91607,23.84073 -6.36464,6.36459 -14.31154,9.66994 -23.84072,9.91606 z m 41.35206,-101.27037 18.77722,-75.31983 c 0.42622,-1.25249 1.41959,-2.49199 2.98009,-3.71853 1.56024,-1.22611 3.02831,-1.88542 4.40421,-1.97793 l 162.03258,0 c 1.37547,0.0925 2.84354,0.75183 4.4042,1.97793 1.56007,1.22654 2.55343,2.46604 2.9801,3.71853 l 18.77721,75.31983 z m 255.70768,101.27037 c -9.52962,-0.24611 -17.47652,-3.55146 -23.84074,-9.91606 -6.3649,-6.36451 -9.67024,-14.31141 -9.91605,-23.84073 0.24582,-9.52918 3.55116,-17.47609 9.91605,-23.84073 6.36421,-6.36447 14.31112,-9.66982 23.84074,-9.91606 9.52889,0.24625 17.47579,3.5516 23.84073,9.91606 6.36416,6.36464 9.66951,14.31154 9.91606,23.84073 -0.24654,9.52932 -3.55189,17.47622 -9.91606,23.84073 -6.36495,6.36459 -14.31185,9.66994 -23.84073,9.91606 z"
         style=""
         id="path3484" />
    </g>
  </g>
  <g
     inkscape:groupmode="layer"
     id="layer15"
     inkscape:label="Text"
     style="display:none">
    <text
       xml:space="preserve"
       style="font-size:150.67648315px;font-style:normal;font-variant:normal;font-weight:normal;font-stretch:normal;line-height:125%;letter-spacing:0px;word-spacing:0px;fill:#ffffff;fill-opacity:1;stroke:#000000;stroke-width:4;stroke-miterlimit:4;stroke-opacity:1;stroke-dasharray:none;font-family:Arial;-inkscape-font-specification:Arial"
       x="23.631962"
       y="231.24963"
       id="text3755"
       sodipodi:linespacing="125%"
       transform="matrix(1.0000721,0,0,0.99992791,1.2218952e-5,-92.36217)"><tspan
         sodipodi:role="line"
         id="tspan3757"
         x="23.631962"
         y="231.24963"
         style="stroke:#000000;stroke-width:4;stroke-opacity:1">CHAMPIONS</tspan></text>
    <text
       xml:space="preserve"
       style="font-size:674.2076416px;font-style:normal;font-variant:normal;font-weight:normal;font-stretch:normal;line-height:125%;letter-spacing:0px;word-spacing:0px;fill:#ffffff;fill-opacity:1;stroke:#000000;stroke-width:4;stroke-miterlimit:4;stroke-opacity:1;stroke-dasharray:none;font-family:Arial;-inkscape-font-specification:Arial"
       x="-4.2571721"
       y="621.73242"
       id="text3759"
       sodipodi:linespacing="125%"
       transform="matrix(0.99658173,0,0,1.00343,1.2218952e-5,-92.36217)"><tspan
         sodipodi:role="line"
         id="tspan3761"
         x="-4.2571721"
         y="621.73242"
         style="stroke-width:4">are</tspan></text>
    <text
       xml:space="preserve"
       style="font-size:359.55090332px;font-style:normal;font-variant:normal;font-weight:normal;font-stretch:normal;line-height:125%;letter-spacing:0px;word-spacing:0px;fill:#ffffff;fill-opacity:1;stroke:#000000;stroke-width:3.99999976;stroke-miterlimit:4;stroke-opacity:1;stroke-dasharray:none;font-family:Arial;-inkscape-font-specification:Arial"
       x="-3.8214335"
       y="1025.1644"
       id="text3759-1"
       sodipodi:linespacing="125%"
       transform="matrix(0.999943,0,0,1.000057,1.2218952e-5,-92.36217)"><tspan
         sodipodi:role="line"
         id="tspan3761-7"
         x="-3.8214335"
         y="1025.1644"
         style="stroke:#000000;stroke-width:3.99999976;stroke-opacity:1">driven</tspan></text>
  </g>
  <g
     inkscape:groupmode="layer"
     id="layer16"
     inkscape:label="PathsFromText"
     style="display:inline">
    <g
       transform="scale(1.0000721,0.99992791)"
       style="font-size:150.67648315px;font-style:normal;font-variant:normal;font-weight:normal;font-stretch:normal;line-height:125%;letter-spacing:0px;word-spacing:0px;fill:#ffffff;fill-opacity:1;stroke:#000000;stroke-width:4;stroke-miterlimit:4;stroke-opacity:1;font-family:Arial;-inkscape-font-specification:Arial"
       id="text3755-9">
      <path
         d="m 112.21327,101.06453 14.27306,3.60506 c -2.99205,11.72257 -8.3751,20.66162 -16.14916,26.81717 -7.77424,6.15557 -17.277349,9.23335 -28.509348,9.23335 -11.624502,0 -21.078559,-2.36658 -28.362199,-7.09975 -7.283701,-4.73315 -12.826157,-11.58765 -16.627386,-20.56351 -3.801255,-8.97581 -5.701876,-18.613798 -5.701869,-28.913993 -7e-6,-11.232002 2.145855,-21.029397 6.437594,-29.392214 4.291711,-8.362649 10.398223,-14.714402 18.319553,-19.055278 7.921266,-4.34067 16.639599,-6.511057 26.155024,-6.511166 10.790565,1.09e-4 19.864501,2.746813 27.221831,8.24012 7.35715,5.493509 12.4827,13.218614 15.37665,23.175338 l -14.05235,3.310762 c -2.50155,-7.84765 -6.13112,-13.561776 -10.88873,-17.142393 -4.75776,-3.580432 -10.741651,-5.370695 -17.951691,-5.370792 -8.289218,9.7e-5 -15.217288,1.986553 -20.784231,5.959372 -5.567018,3.973003 -9.478619,9.307004 -11.734814,16.00202 -2.256247,6.695166 -3.384357,13.598712 -3.384335,20.710659 -2.2e-5,9.172084 1.336543,17.179215 4.009701,24.021425 2.673105,6.84226 6.829948,11.95555 12.470539,15.33986 5.640514,3.38435 11.747026,5.07652 18.319553,5.07651 7.994813,1e-5 14.763477,-2.30526 20.306008,-6.91582 5.54238,-4.61052 9.29458,-11.45276 11.2566,-20.52673 z"
         style="stroke:#000000"
         id="path5063"
         inkscape:connector-curvature="0" />
      <path
         d="m 144.58516,138.8808 0,-107.857289 14.27307,0 0,44.290646 56.06224,0 0,-44.290646 14.27307,0 0,107.857289 -14.27307,0 0,-50.8386 -56.06224,0 0,50.8386 z"
         style="stroke:#000000"
         id="path5065"
         inkscape:connector-curvature="0" />
      <path
         d="m 241.18585,138.8808 41.42132,-107.857289 15.37665,0 44.14351,107.857289 -16.25953,0 -12.5809,-32.66619 -45.09994,0 -11.84517,32.66619 z m 31.12117,-44.290648 36.56553,0 -11.25659,-29.870435 c -3.43343,-9.073859 -5.98395,-16.529198 -7.65154,-22.366041 -1.3734,6.915905 -3.31081,13.782665 -5.81223,20.600301 z"
         style="stroke:#000000"
         id="path5067"
         inkscape:connector-curvature="0" />
      <path
         d="m 353.23678,138.8808 0,-107.857289 21.48317,0 25.52966,76.368259 c 2.35425,7.11203 4.07094,12.43377 5.15007,15.96523 1.22614,-3.92385 3.13903,-9.68702 5.73866,-17.28954 l 25.82394,-75.043949 19.20243,0 0,107.857289 -13.75806,0 0,-90.273461 -31.34189,90.273461 -12.87518,0 -31.19475,-91.818484 0,91.818484 z"
         style="stroke:#000000"
         id="path5069"
         inkscape:connector-curvature="0" />
      <path
         d="m 479.34005,138.8808 0,-107.857289 40.68559,0 c 7.161,1.08e-4 12.62988,0.343446 16.40667,1.030015 5.29714,0.882976 9.73601,2.56288 13.31662,5.039716 3.58044,2.477041 6.46203,5.947207 8.64477,10.410509 2.18256,4.463486 3.27388,9.368314 3.27398,14.714501 -10e-5,9.172106 -2.91847,16.933997 -8.75513,23.285696 -5.83683,6.351807 -16.38221,9.527683 -31.63618,9.527639 l -27.66326,0 0,43.849213 z m 14.27306,-56.577255 27.88398,0 c 9.22102,5.6e-5 15.76897,-1.716634 19.64386,-5.150075 3.87474,-3.433319 5.81215,-8.264575 5.81223,-14.493783 -8e-5,-4.512366 -1.14046,-8.374919 -3.42113,-11.587669 -2.28082,-3.212575 -5.28502,-5.333913 -9.01263,-6.364022 -2.40343,-0.637533 -6.8423,-0.956347 -13.31662,-0.956442 l -27.58969,0 z"
         style="stroke:#000000"
         id="path5071"
         inkscape:connector-curvature="0" />
      <path
         d="m 582.41509,138.8808 0,-107.857289 14.27307,0 0,107.857289 z"
         style="stroke:#000000"
         id="path5073"
         inkscape:connector-curvature="0" />
      <path
         d="m 617.43561,86.350032 c -10e-6,-17.902571 4.80672,-31.918119 14.42021,-42.046684 9.61344,-10.128377 22.02266,-15.192612 37.22769,-15.192722 9.95674,1.1e-4 18.93257,2.378952 26.92753,7.136533 7.99479,4.757786 14.08904,11.391567 18.28277,19.901361 4.19352,8.509961 6.29034,18.160211 6.29045,28.95078 -1.1e-4,10.937821 -2.20729,20.72295 -6.62153,29.35543 -4.41445,8.63252 -10.6681,15.1682 -18.76099,19.60707 -8.09305,4.43887 -16.82364,6.65831 -26.19181,6.65831 -10.15305,0 -19.22698,-2.45242 -27.22182,-7.35725 -7.9949,-4.90482 -14.05237,-11.59991 -18.17241,-20.08529 -4.12007,-8.48533 -6.1801,-17.461166 -6.18009,-26.927538 z m 14.7145,0.220718 c -2e-5,12.997848 3.49467,23.23668 10.48408,30.71652 6.98935,7.47988 15.75673,11.21982 26.30217,11.21981 10.74152,1e-5 19.58247,-3.77671 26.52289,-11.33017 6.94024,-7.55341 10.41041,-18.270464 10.41051,-32.151183 -1e-4,-8.779589 -1.48381,-16.443384 -4.45114,-22.991407 -2.96751,-6.547869 -7.30829,-11.624366 -13.02233,-15.229507 -5.71421,-3.604957 -12.12727,-5.407482 -19.23921,-5.407579 -10.10401,9.7e-5 -18.79782,3.470263 -26.08145,10.410509 -7.28371,6.940419 -10.92554,18.528077 -10.92552,34.763007 z"
         style="stroke:#000000"
         id="path5075"
         inkscape:connector-curvature="0" />
      <path
         d="m 738.75668,138.8808 0,-107.857289 14.64093,0 56.65083,84.681949 0,-84.681949 13.68448,0 0,107.857289 -14.64093,0 -56.65082,-84.755523 0,84.755523 z"
         style="stroke:#000000"
         id="path5077"
         inkscape:connector-curvature="0" />
      <path
         d="m 842.93531,104.22815 13.46377,-1.17716 c 0.63761,5.39535 2.12132,9.82196 4.45114,13.27984 2.32976,3.45792 5.94708,6.25368 10.85194,8.38726 4.90479,2.13362 10.42272,3.20042 16.55381,3.20041 5.44431,1e-5 10.25104,-0.80929 14.42021,-2.4279 4.16904,-1.61858 7.27134,-3.83801 9.30692,-6.65831 2.03543,-2.82025 3.05318,-5.89803 3.05326,-9.23335 -8e-5,-3.3843 -0.98104,-6.33946 -2.9429,-8.86548 -1.962,-2.525952 -5.19919,-4.647291 -9.71157,-6.364025 -2.89391,-1.128066 -9.29471,-2.881542 -19.20242,-5.260434 -9.9078,-2.378792 -16.84813,-4.622751 -20.82102,-6.731884 -5.15009,-2.697599 -8.98812,-6.045145 -11.51409,-10.042646 -2.52601,-3.997369 -3.789,-8.473025 -3.78899,-13.426982 -1e-5,-5.44428 1.54501,-10.533039 4.63507,-15.266294 3.09003,-4.733064 7.60247,-8.325851 13.53734,-10.778371 5.93481,-2.452309 12.53181,-3.678516 19.791,-3.678625 7.99482,1.09e-4 15.04551,1.287627 21.1521,3.862556 6.10644,2.575141 10.80281,6.364121 14.08913,11.366951 3.28615,5.00302 5.05189,10.668097 5.29722,16.995248 l -13.68448,1.030015 c -0.7358,-6.817635 -3.22501,-11.967705 -7.46761,-15.450225 -4.24275,-3.482336 -10.50867,-5.223551 -18.79778,-5.223648 -8.63255,9.7e-5 -14.92299,1.581905 -18.87134,4.745427 -3.94842,3.163706 -5.92262,6.977211 -5.92259,11.440524 -3e-5,3.874895 1.39785,7.063034 4.19363,9.564425 2.74668,2.501534 9.91999,5.064307 21.51996,7.688326 11.59987,2.624147 19.55795,4.917155 23.87428,6.879029 6.2781,2.893906 10.91316,6.560265 13.9052,10.999089 2.99186,4.438916 4.48783,9.552204 4.48792,15.339864 -9e-5,5.73868 -1.64321,11.14626 -4.92936,16.22274 -3.28632,5.07651 -8.00722,9.0249 -14.1627,11.84517 -6.15564,2.82028 -13.08371,4.23042 -20.78424,4.23042 -9.76066,0 -17.93946,-1.4224 -24.53642,-4.2672 -6.59703,-2.8448 -11.77162,-7.12427 -15.5238,-12.83841 -3.75221,-5.71411 -5.7264,-12.17622 -5.92259,-19.38635 z"
         style="stroke:#000000"
         id="path5079"
         inkscape:connector-curvature="0" />
    </g>
    <g
       transform="scale(0.99658173,1.00343)"
       style="font-size:674.2076416px;font-style:normal;font-variant:normal;font-weight:normal;font-stretch:normal;line-height:125%;letter-spacing:0px;word-spacing:0px;fill:#ffffff;fill-opacity:1;stroke:#000000;stroke-width:4;stroke-miterlimit:4;stroke-opacity:1;font-family:Arial;-inkscape-font-specification:Arial"
       id="text3759-19">
      <path
         d="m 268.32288,486.56039 c -21.94711,18.65486 -43.07095,31.82296 -63.37156,39.50435 -20.30104,7.6814 -42.08328,11.5221 -65.34679,11.5221 -38.40712,0 -67.925619,-9.38228 -88.555594,-28.14685 -20.630086,-18.76453 -30.945102,-42.74145 -30.945077,-71.93084 -2.5e-5,-17.11845 3.89554,-32.75557 11.686704,-46.91142 7.791093,-14.15558 17.996374,-25.51307 30.615875,-34.07251 12.619367,-8.55909 26.829947,-15.03341 42.631782,-19.42297 11.63172,-3.07237 29.18919,-6.03519 52.67247,-8.88848 47.84395,-5.70598 83.06863,-12.5095 105.67415,-20.41058 0.2192,-8.12011 0.32893,-13.27762 0.3292,-15.47254 -2.7e-4,-24.14129 -5.59671,-41.15009 -16.78935,-51.02646 -15.14357,-13.38728 -37.63908,-20.08107 -67.4866,-20.08138 -27.87268,3.1e-4 -48.44784,4.88348 -61.72556,14.64953 -13.27796,9.76664 -23.099169,27.04978 -29.463661,51.84947 L 30.30915,279.82094 c 5.267207,-24.79969 13.93621,-44.82618 26.007033,-60.07954 12.070702,-15.25275 29.518441,-26.99431 52.343267,-35.22472 22.8246,-8.22972 49.27055,-12.34475 79.33791,-12.34511 29.84752,3.6e-4 54.09877,3.51185 72.75386,10.53449 18.65455,7.02334 32.37132,15.85694 41.15036,26.50084 8.77843,10.64454 14.92355,24.08698 18.43537,40.32736 1.97489,10.09583 2.9625,28.31171 2.96283,54.64769 l 0,79.00871 c -3.3e-4,55.08672 1.26161,89.92733 3.78583,104.52194 2.52355,14.59469 7.51646,28.5858 14.97873,41.97337 l -61.89015,0 c -6.1454,-12.29023 -10.09583,-26.66541 -11.85131,-43.12558 z M 263.38484,354.2208 c -21.50817,8.77891 -53.77003,16.24084 -96.78567,22.3858 -24.36116,3.51165 -41.58943,7.46208 -51.68486,11.85131 -10.09567,4.38951 -17.886797,10.80896 -23.373411,19.25837 -5.486806,8.44966 -8.230162,17.83193 -8.230074,28.14685 -8.8e-5,15.80182 5.980427,28.96993 17.941565,39.50436 11.96092,10.53454 29.46352,15.80178 52.50787,15.80174 22.82455,4e-5 43.12538,-4.99287 60.90254,-14.97874 17.77672,-9.98575 30.8351,-23.64766 39.17515,-40.98576 6.36433,-13.38748 9.54662,-33.13964 9.54689,-59.25653 z"
         id="path5082"
         inkscape:connector-curvature="0" />
      <path
         d="m 414.81818,529.68597 0,-349.61353 53.33088,0 0,53.00168 c 13.60695,-24.79964 26.17151,-41.15003 37.69374,-49.05124 11.52196,-7.90052 24.19626,-11.85095 38.02294,-11.85131 19.97145,3.6e-4 40.27228,6.36494 60.90255,19.09377 l -20.41059,54.97689 c -14.48513,-8.55898 -28.97004,-12.83861 -43.45479,-12.83891 -12.9488,3e-4 -24.58063,3.89586 -34.89551,11.6867 -10.31515,7.79142 -17.66734,18.60024 -22.0566,32.42649 -6.58416,21.06922 -9.87619,44.11341 -9.87609,69.13262 l 0,183.03684 z"
         id="path5084"
         inkscape:connector-curvature="0" />
      <path
         d="m 879.98197,417.09857 61.23175,7.57166 c -9.65696,35.77346 -27.54363,63.53621 -53.66008,83.28835 -26.11704,19.75218 -59.47623,29.62826 -100.0777,29.62826 -51.13633,0 -91.68312,-15.74686 -121.64049,-47.24062 -29.95751,-31.49368 -44.93623,-75.66169 -44.9362,-132.50419 -3e-5,-58.81736 15.14329,-104.46679 45.43001,-136.94842 30.28657,-32.48102 69.57141,-48.72168 117.85465,-48.72204 46.74659,3.6e-4 84.93409,15.91182 114.56263,47.73443 29.62793,31.82323 44.44205,76.59478 44.4424,134.3148 -3.5e-4,3.51167 -0.11009,8.77891 -0.32921,15.80174 l -260.72873,0 c 2.19459,38.40714 13.05828,67.8159 32.59109,88.22639 19.53257,20.41064 43.89356,30.61592 73.08305,30.61588 21.72719,4e-5 40.27227,-5.70614 55.6353,-17.11856 15.36254,-11.41229 27.54304,-29.62817 36.54153,-54.64768 z m -194.55894,-95.79806 195.21735,0 c -2.63391,-29.40856 -10.09584,-51.46514 -22.3858,-66.1698 -18.87455,-22.82444 -43.34528,-34.23679 -73.41226,-34.2371 -27.21427,3.1e-4 -50.09386,9.10824 -68.63882,27.32384 -18.5452,18.21616 -28.80535,42.57716 -30.78047,73.08306 z"
         id="path5086"
         inkscape:connector-curvature="0" />
    </g>
    <g
       transform="scale(0.999943,1.000057)"
       style="font-size:359.55090332px;font-style:normal;font-variant:normal;font-weight:normal;font-stretch:normal;line-height:125%;letter-spacing:0px;word-spacing:0px;fill:#ffffff;fill-opacity:1;stroke:#000000;stroke-width:3.99999976;stroke-miterlimit:4;stroke-opacity:1;font-family:Arial;-inkscape-font-specification:Arial"
       id="text3759-1-6">
      <path
         d="m 140.84164,932.80756 0,-23.52531 c -11.82131,18.49253 -29.20192,27.73879 -52.141906,27.73879 -14.864324,0 -28.528883,-4.09644 -40.993719,-12.28933 C 35.241077,916.53883 25.585178,905.09805 18.738291,890.40934 11.891359,875.72071 8.4679038,858.83752 8.4679161,839.75971 8.4679038,821.15026 11.569495,804.26707 17.7727,789.11009 c 6.203162,-15.15669 15.507937,-26.77303 27.914353,-34.84905 12.406317,-8.07567 26.275698,-12.11359 41.608185,-12.11378 11.235864,1.9e-4 21.242882,2.37028 30.021092,7.11026 8.77797,4.74035 15.91749,10.91428 21.41856,18.52179 l 0,-92.34559 31.4256,0 0,257.37384 z M 40.94688,839.75971 c -4.5e-5,23.8765 5.032726,41.72528 15.098329,53.5464 10.065482,11.8212 21.945163,17.73178 35.639078,17.73176 13.810763,2e-5 25.544143,-5.64721 35.200173,-16.94173 9.65577,-11.29443 14.48372,-28.52875 14.48386,-51.703 -1.4e-4,-25.51489 -4.91587,-44.24148 -14.7472,-56.17982 -9.83159,-11.93806 -21.94536,-17.90716 -36.341328,-17.90732 -14.045038,1.6e-4 -25.778417,5.73518 -35.200174,17.20507 -9.421875,11.47018 -14.132783,29.55305 -14.132738,54.24864 z"
         style="stroke:#000000"
         id="path5089"
         inkscape:connector-curvature="0" />
      <path
         d="m 219.66896,932.80756 0,-186.44681 28.44104,0 0,28.26548 c 7.2565,-13.2255 13.95711,-21.94507 20.10184,-26.15874 6.14459,-4.2133 12.90372,-6.32004 20.27741,-6.32023 10.65066,1.9e-4 21.47697,3.39439 32.47896,10.1826 l -10.88484,29.31884 c -7.72483,-4.56445 -15.44955,-6.84675 -23.17418,-6.84691 -6.90552,1.6e-4 -13.1087,2.07764 -18.60957,6.23245 -5.501,4.15511 -9.42188,9.91939 -11.76265,17.29285 -3.51129,11.23609 -5.26691,23.52542 -5.26686,36.86801 l 0,97.61246 z"
         style="stroke:#000000"
         id="path5091"
         inkscape:connector-curvature="0" />
      <path
         d="m 340.28004,711.77504 0,-36.34132 31.60116,0 0,36.34132 z m 0,221.03252 0,-186.44681 31.60116,0 0,186.44681 z"
         style="stroke:#000000"
         id="path5093"
         inkscape:connector-curvature="0" />
      <path
         d="m 471.9515,932.80756 -70.92703,-186.44681 33.35677,0 40.02813,111.65741 c 4.33045,12.05532 8.30985,24.57872 11.93821,37.57026 2.8089,-9.83142 6.72978,-21.65258 11.76266,-35.46352 l 41.43262,-113.76415 32.47896,0 -70.57591,186.44681 z"
         style="stroke:#000000"
         id="path5095"
         inkscape:connector-curvature="0" />
      <path
         d="m 727.56975,872.76536 32.65453,4.03793 c -5.15,19.07777 -14.68885,33.88348 -28.6166,44.41718 -13.92806,10.53372 -31.71832,15.80057 -53.37084,15.80057 -27.2707,0 -48.89406,-8.39771 -64.87014,-25.19314 -15.97616,-16.79539 -23.96422,-40.34993 -23.96421,-70.66369 -10e-6,-31.36695 8.07583,-55.71152 24.22755,-73.03378 16.15165,-17.32193 37.10202,-25.98298 62.85118,-25.98317 24.92968,1.9e-4 45.29484,8.48568 61.09557,25.45649 15.8004,16.97114 23.70068,40.84754 23.70086,71.62928 -1.8e-4,1.87275 -0.0587,4.68174 -0.17556,8.42697 l -139.04508,0 c 1.17037,20.4823 6.96391,36.16582 17.38064,47.05061 10.4166,10.88487 23.40817,16.32728 38.97475,16.32726 11.58698,2e-5 21.47696,-3.04305 29.66998,-9.12922 8.19275,-6.08611 14.68853,-15.80053 19.48737,-29.14329 z m -103.75712,-51.08853 104.10825,0 c -1.40465,-15.68341 -5.38405,-27.44605 -11.93821,-35.28795 -10.06569,-12.17214 -23.11578,-18.25828 -39.15032,-18.25845 -14.51321,1.7e-4 -26.71476,4.85738 -36.60467,14.57165 -9.89005,9.71457 -15.36172,22.70614 -16.41505,38.97475 z"
         style="stroke:#000000"
         id="path5097"
         inkscape:connector-curvature="0" />
      <path
         d="m 800.07683,932.80756 0,-186.44681 28.44104,0 0,26.50986 c 13.69377,-20.48205 33.47373,-30.72316 59.33994,-30.72335 11.23585,1.9e-4 21.56473,2.01915 30.98669,6.05689 9.42167,4.03811 16.47341,9.33422 21.15522,15.88836 4.68148,6.55447 7.95863,14.33771 9.83147,23.34974 1.17024,5.8522 1.75544,16.09331 1.75562,30.72334 l 0,114.64197 -31.60116,0 0,-113.41303 c -1.4e-4,-12.87442 -1.22907,-22.50106 -3.6868,-28.87995 -2.458,-6.3786 -6.81779,-11.46989 -13.07936,-15.27389 -6.26183,-3.80368 -13.60617,-5.7056 -22.03303,-5.70576 -13.45984,1.6e-4 -25.07618,4.27217 -34.84905,12.81602 -9.77301,8.54416 -14.65948,24.75437 -14.65942,48.63067 l 0,101.82594 z"
         style="stroke:#000000"
         id="path5099"
         inkscape:connector-curvature="0" />
    </g>
  </g>
</svg>
