<?xml version="1.0" encoding="UTF-8" standalone="no"?>
<!-- Created with Inkscape (http://www.inkscape.org/) -->

<svg
   xmlns:dc="http://purl.org/dc/elements/1.1/"
   xmlns:cc="http://creativecommons.org/ns#"
   xmlns:rdf="http://www.w3.org/1999/02/22-rdf-syntax-ns#"
   xmlns:svg="http://www.w3.org/2000/svg"
   xmlns="http://www.w3.org/2000/svg"
   xmlns:sodipodi="http://sodipodi.sourceforge.net/DTD/sodipodi-0.dtd"
   xmlns:inkscape="http://www.inkscape.org/namespaces/inkscape"
   width="960"
   height="960"
   id="svg2"
   version="1.1"
   inkscape:version="0.48.4 r9939"
   sodipodi:docname="driven.svg">
  <defs
     id="defs4" />
  <sodipodi:namedview
     id="base"
     pagecolor="#ffffff"
     bordercolor="#666666"
     borderopacity="1.0"
     inkscape:pageopacity="0.0"
     inkscape:pageshadow="2"
     inkscape:zoom="0.35"
     inkscape:cx="-516.42856"
     inkscape:cy="520.00001"
     inkscape:document-units="px"
     inkscape:current-layer="layer1"
     showgrid="false"
     fit-margin-top="0"
     fit-margin-left="0"
     fit-margin-right="0"
     fit-margin-bottom="0"
     inkscape:window-width="1600"
     inkscape:window-height="847"
     inkscape:window-x="-8"
     inkscape:window-y="-8"
     inkscape:window-maximized="1" />
  <metadata
     id="metadata7">
    <rdf:RDF>
      <cc:Work
         rdf:about="">
        <dc:format>image/svg+xml</dc:format>
        <dc:type
           rdf:resource="http://purl.org/dc/dcmitype/StillImage" />
        <dc:title />
      </cc:Work>
    </rdf:RDF>
  </metadata>
  <g
     inkscape:label="Layer 1"
     inkscape:groupmode="layer"
     id="layer1"
     transform="translate(1.2218952e-5,-92.36217)">
    <rect
       style="fill:#bb0000;fill-opacity:1;stroke:#ffffff;stroke-width:1.10000002;stroke-miterlimit:4;stroke-opacity:1;stroke-dasharray:none"
       id="rect2985"
       width="958.90002"
       height="958.90002"
       x="0.54997557"
       y="92.91217" />
    <text
       xml:space="preserve"
       style="font-size:1032.00134277px;font-style:normal;font-variant:normal;font-weight:normal;font-stretch:normal;line-height:125%;letter-spacing:0px;word-spacing:0px;fill:#666666;fill-opacity:1;stroke:#000000;stroke-width:4;stroke-miterlimit:4;stroke-opacity:1;stroke-dasharray:none;font-family:FontAwesome;-inkscape-font-specification:FontAwesome"
       x="-1644.8688"
       y="791.80353"
       id="text3788"
       sodipodi:linespacing="125%"><tspan
         sodipodi:role="line"
         id="tspan3790"
         x="-1644.8688"
         y="791.80353" /></text>
    <text
       xml:space="preserve"
       style="font-size:150.67648315px;font-style:normal;font-variant:normal;font-weight:normal;font-stretch:normal;line-height:125%;letter-spacing:0px;word-spacing:0px;fill:#ffffff;fill-opacity:1;stroke:#000000;stroke-width:4;stroke-miterlimit:4;stroke-opacity:1;stroke-dasharray:none;font-family:Arial;-inkscape-font-specification:Arial"
       x="23.631962"
       y="231.24963"
       id="text3755"
       sodipodi:linespacing="125%"
       transform="scale(1.0000721,0.99992791)"><tspan
         sodipodi:role="line"
         id="tspan3757"
         x="23.631962"
         y="231.24963"
         style="stroke:#000000;stroke-width:4;stroke-opacity:1">CHAMPIONS</tspan></text>
    <g
       style="font-size:455.16647339px;font-style:normal;font-variant:normal;font-weight:normal;font-stretch:normal;line-height:125%;letter-spacing:0px;word-spacing:0px;fill:#666666;fill-opacity:1;stroke:#000000;stroke-width:4;stroke-miterlimit:4;stroke-opacity:1;font-family:FontAwesome;-inkscape-font-specification:FontAwesome"
       id="text3828">
      <path
         d="m 611.82025,727.80081 c -0.22764,9.24479 -3.39212,16.91785 -9.49343,23.01919 -6.10149,6.10146 -13.77455,9.26594 -23.0192,9.49344 -9.24479,-0.22749 -16.91785,-3.39197 -23.01921,-9.49343 -6.10145,-6.10135 -9.26592,-13.77441 -9.49343,-23.0192 0.22752,-9.24464 3.39199,-16.9177 9.49343,-23.01921 6.10136,-6.1013 13.77442,-9.26577 23.01921,-9.49343 9.24465,0.22767 16.9177,3.39214 23.01919,9.49343 6.10131,6.10151 9.26579,13.77457 9.49344,23.01921 z m 260.10108,0 c -0.2279,9.24479 -3.39238,16.91785 -9.49343,23.01919 -6.10175,6.10146 -13.77481,9.26594 -23.0192,9.49344 -9.24505,-0.22749 -16.91811,-3.39197 -23.01921,-9.49343 -6.10171,-6.10135 -9.26618,-13.77441 -9.49343,-23.0192 0.22726,-9.24464 3.39173,-16.9177 9.49343,-23.01921 6.1011,-6.1013 13.77416,-9.26577 23.01921,-9.49343 9.24439,0.22767 16.91744,3.39214 23.01919,9.49343 6.10105,6.10151 9.26553,13.77457 9.49344,23.01921 z M 860.23711,627.21484 c 0.74579,5.24962 -0.42899,9.73703 -3.52433,13.46226 -3.09603,3.72557 -7.25536,5.67294 -12.47799,5.84212 l -269.75327,0 c -5.22303,-0.16917 -9.38237,-2.11654 -12.478,-5.84212 -3.09573,-3.72524 -4.2705,-8.21265 -3.52431,-13.46226 l 18.28836,-97.5379 c 0.84133,-3.88388 2.71461,-7.03777 5.61985,-9.46169 2.9051,-2.42334 6.36592,-3.67219 10.38246,-3.74657 l 233.17656,0 c 4.01613,0.0744 7.47694,1.32324 10.38244,3.74658 2.90485,2.42391 4.77814,5.5778 5.61987,9.46168 l 18.28836,97.5379 z M 802.83199,471.76381 c -0.0797,3.50877 -1.25444,6.39807 -3.52433,8.66791 -2.27045,2.27049 -5.15975,3.44527 -8.66791,3.52433 l -162.56318,0 c -3.39743,-0.079 -6.25499,-1.25382 -8.57268,-3.52432 -2.31789,-2.26985 -3.52441,-5.15915 -3.61956,-8.66792 0.0952,-3.50811 1.30168,-6.39742 3.61958,-8.66793 2.3177,-2.26983 5.17525,-3.4446 8.57266,-3.52431 l 162.56318,0 c 3.50816,0.0797 6.39746,1.25451 8.66791,3.52433 2.26988,2.27051 3.44465,5.15981 3.52433,8.66791 z m 101.60198,184.1536 c 0.0419,-10.20237 -0.36022,-19.70638 -1.20653,-28.51206 -0.84708,-8.80532 -2.39227,-18.18233 -4.63558,-28.13105 L 871.92133,483.95605 c -3.47176,-20.48939 -20.3419,-36.40702 -50.61049,-47.75294 -30.26921,-11.34517 -67.58673,-17.10261 -111.95268,-17.27233 -44.36635,0.16972 -81.68388,5.92716 -111.95269,17.27233 -30.26898,11.34592 -47.13913,27.26355 -50.61049,47.75294 L 520.63247,599.2743 c -2.26489,9.94873 -3.89476,19.32574 -4.8896,28.13105 -0.99485,8.80568 -1.48169,18.30969 -1.46052,28.51206 l 0,153.16499 32.51263,0 0,32.51263 c 0.22752,9.24468 3.39199,16.91774 9.49343,23.01919 6.10136,6.10135 13.77442,9.26583 23.01921,9.49345 9.24465,-0.22762 16.9177,-3.39209 23.01919,-9.49344 6.10131,-6.10146 9.26579,-13.77452 9.49344,-23.0192 l 0,-32.51263 195.07581,0 0,32.51263 c 0.22726,9.24468 3.39173,16.91774 9.49343,23.01919 6.1011,6.10135 13.77416,9.26583 23.01921,9.49345 9.24439,-0.22762 16.91744,-3.39209 23.01919,-9.49344 6.10105,-6.10146 9.26553,-13.77452 9.49344,-23.0192 l 0,-32.51263 32.51264,0 z"
         style=""
         id="path3487" />
    </g>
    <g
       transform="scale(1.0001111,0.99988892)"
       style="font-size:378.06738281px;font-style:normal;font-variant:normal;font-weight:normal;font-stretch:normal;line-height:125%;letter-spacing:0px;word-spacing:0px;fill:#666666;fill-opacity:1;stroke:#000000;stroke-width:4;stroke-miterlimit:4;stroke-opacity:1;font-family:FontAwesome;-inkscape-font-specification:FontAwesome"
       id="text3808">
      <path
         d="m 440.32369,671.19458 -5.90743,0 -22.1529,-88.40059 c -3.63537,-13.57281 -10.97571,-24.66682 -22.02104,-33.28209 -11.046,-8.61475 -23.60808,-13.0629 -37.68628,-13.34447 l -27.00543,0 0,-47.25951 c -0.0442,-1.94245 -0.69475,-3.54238 -1.95157,-4.79979 -1.25736,-1.25677 -2.85729,-1.90729 -4.79979,-1.95156 l -94.51901,0 c -1.94294,0.0443 -3.54287,0.6948 -4.79979,1.95156 -1.25726,1.25741 -1.90778,2.85734 -1.95156,4.79979 l 0,47.25951 -27.00543,0 c -14.07864,0.28158 -26.64073,4.72973 -37.6863,13.34448 -11.04576,8.61526 -18.3861,19.70927 -22.02102,33.28208 l -22.1529,88.40059 -5.90744,0 c -13.414845,0.33419 -24.561611,4.94058 -33.440326,13.8192 -8.878743,8.87885 -13.48513,20.02561 -13.819174,33.44031 l 0,81.01629 c 0.04396,1.94278 0.694479,3.54271 1.951567,4.79979 1.257084,1.25709 2.857013,1.90761 4.799791,1.95157 l 20.254073,0 0,13.50272 c 0.290075,11.472 4.245948,21.01883 11.867629,28.64051 7.6216,7.6216 17.16843,11.57748 28.64052,11.86763 11.47195,-0.29015 21.01878,-4.24602 28.64051,-11.86762 7.62155,-7.62169 11.57742,-17.16852 11.86763,-28.64052 l 0,-13.50272 216.04345,0 0,13.50272 c 0.28978,11.472 4.24565,21.01883 11.86763,28.64051 7.62131,7.6216 17.16814,11.57748 28.64052,11.86763 11.47165,-0.29015 21.01848,-4.24602 28.64052,-11.86762 7.62125,-7.62169 11.57712,-17.16852 11.86763,-28.64052 l 0,-13.50272 20.25407,0 c 1.94235,-0.044 3.54227,-0.69448 4.79979,-1.95157 1.25666,-1.25709 1.90718,-2.85702 1.95157,-4.79979 l 0,-81.01629 c -0.33449,-13.41472 -4.94088,-24.56148 -13.81919,-33.44033 -8.87914,-8.87861 -20.02591,-13.485 -33.44032,-13.81918 z M 123.00988,772.46495 c -9.52932,-0.24611 -17.47623,-3.55146 -23.84074,-9.91606 -6.364601,-6.36451 -9.669948,-14.31141 -9.916051,-23.84073 0.246111,-9.52918 3.551458,-17.47609 9.916051,-23.84073 6.36451,-6.36447 14.31141,-9.66982 23.84074,-9.91606 9.52918,0.24625 17.47608,3.5516 23.84072,9.91606 6.36446,6.36464 9.66981,14.31154 9.91607,23.84073 -0.24625,9.52932 -3.5516,17.47622 -9.91607,23.84073 -6.36464,6.36459 -14.31154,9.66994 -23.84072,9.91606 z m 41.35206,-101.27037 18.77722,-75.31983 c 0.42622,-1.25249 1.41959,-2.49199 2.98009,-3.71853 1.56024,-1.22611 3.02831,-1.88542 4.40421,-1.97793 l 162.03258,0 c 1.37547,0.0925 2.84354,0.75183 4.4042,1.97793 1.56007,1.22654 2.55343,2.46604 2.9801,3.71853 l 18.77721,75.31983 z m 255.70768,101.27037 c -9.52962,-0.24611 -17.47652,-3.55146 -23.84074,-9.91606 -6.3649,-6.36451 -9.67024,-14.31141 -9.91605,-23.84073 0.24582,-9.52918 3.55116,-17.47609 9.91605,-23.84073 6.36421,-6.36447 14.31112,-9.66982 23.84074,-9.91606 9.52889,0.24625 17.47579,3.5516 23.84073,9.91606 6.36416,6.36464 9.66951,14.31154 9.91606,23.84073 -0.24654,9.52932 -3.55189,17.47622 -9.91606,23.84073 -6.36495,6.36459 -14.31185,9.66994 -23.84073,9.91606 z"
         style=""
         id="path3484" />
    </g>
    <text
       xml:space="preserve"
       style="font-size:674.2076416px;font-style:normal;font-variant:normal;font-weight:normal;font-stretch:normal;line-height:125%;letter-spacing:0px;word-spacing:0px;fill:#ffffff;fill-opacity:1;stroke:#000000;stroke-width:4;stroke-miterlimit:4;stroke-opacity:1;stroke-dasharray:none;font-family:Arial;-inkscape-font-specification:Arial"
       x="-4.2571721"
       y="621.73242"
       id="text3759"
       sodipodi:linespacing="125%"
       transform="scale(0.99658173,1.00343)"><tspan
         sodipodi:role="line"
         id="tspan3761"
         x="-4.2571721"
         y="621.73242"
         style="stroke-width:4">are</tspan></text>
    <text
       xml:space="preserve"
       style="font-size:359.55090332px;font-style:normal;font-variant:normal;font-weight:normal;font-stretch:normal;line-height:125%;letter-spacing:0px;word-spacing:0px;fill:#ffffff;fill-opacity:1;stroke:#000000;stroke-width:3.99999976;stroke-miterlimit:4;stroke-opacity:1;stroke-dasharray:none;font-family:Arial;-inkscape-font-specification:Arial"
       x="-3.8214335"
       y="1025.1644"
       id="text3759-1"
       sodipodi:linespacing="125%"
       transform="scale(0.999943,1.000057)"><tspan
         sodipodi:role="line"
         id="tspan3761-7"
         x="-3.8214335"
         y="1025.1644"
         style="stroke:#000000;stroke-width:3.99999976;stroke-opacity:1">driven</tspan></text>
  </g>
</svg>
