<?xml version="1.0" encoding="UTF-8" standalone="no"?>
<!-- Created with Inkscape (http://www.inkscape.org/) -->

<svg
   xmlns:dc="http://purl.org/dc/elements/1.1/"
   xmlns:cc="http://creativecommons.org/ns#"
   xmlns:rdf="http://www.w3.org/1999/02/22-rdf-syntax-ns#"
   xmlns:svg="http://www.w3.org/2000/svg"
   xmlns="http://www.w3.org/2000/svg"
   xmlns:sodipodi="http://sodipodi.sourceforge.net/DTD/sodipodi-0.dtd"
   xmlns:inkscape="http://www.inkscape.org/namespaces/inkscape"
   id="svg3902"
   version="1.1"
   inkscape:version="0.48.4 r9939"
   width="960.00006"
   height="960.00006"
   sodipodi:docname="american-football-icon.svg">
  <metadata
     id="metadata3908">
    <rdf:RDF>
      <cc:Work
         rdf:about="">
        <dc:format>image/svg+xml</dc:format>
        <dc:type
           rdf:resource="http://purl.org/dc/dcmitype/StillImage" />
        <dc:title />
      </cc:Work>
    </rdf:RDF>
  </metadata>
  <defs
     id="defs3906" />
  <sodipodi:namedview
     pagecolor="#ffffff"
     bordercolor="#666666"
     borderopacity="1"
     objecttolerance="10"
     gridtolerance="10"
     guidetolerance="10"
     inkscape:pageopacity="0"
     inkscape:pageshadow="2"
     inkscape:window-width="1600"
     inkscape:window-height="847"
     id="namedview3904"
     showgrid="false"
     fit-margin-top="0"
     fit-margin-left="0"
     fit-margin-right="0"
     fit-margin-bottom="0"
     inkscape:zoom="0.39333334"
     inkscape:cx="275.15011"
     inkscape:cy="240.59724"
     inkscape:window-x="-8"
     inkscape:window-y="-8"
     inkscape:window-maximized="1"
     inkscape:current-layer="svg3902" />
  <rect
     style="fill:#bb0000;fill-opacity:1;stroke:#ffffff;stroke-width:1.10000002;stroke-miterlimit:4;stroke-opacity:1;stroke-dasharray:none"
     id="rect2985"
     width="958.90009"
     height="958.90009"
     x="0.55000001"
     y="0.55000001" />
  <path
     style="fill:#666666;fill-opacity:1;stroke:#000000;stroke-width:4;stroke-miterlimit:4;stroke-opacity:1;stroke-dasharray:none"
     d="M 185.8404,934.44746 C 162.7689,930.85667 128.29438,920.52907 112.09863,912.35652 65.666493,888.92635 40.206193,850.43487 24.098033,779.31501 c -4.57565,-20.2021 -6.08182,-134.44747 -1.82864,-138.70466 1.33742,-1.33867 68.37161,63.50668 148.964897,144.10082 80.59329,80.59413 145.6103,147.4577 144.48231,148.58573 -3.33161,3.33162 -109.80232,4.27486 -129.8762,1.15056 z M 307.57184,736.59279 149.58038,578.57733 l 14.432,-25.66536 c 7.93757,-14.11597 17.04445,-29.11038 20.23748,-33.3209 l 5.80548,-7.65554 25.95255,25.33191 c 25.29985,24.69481 33.91205,29.19058 41.4596,21.64294 7.9768,-7.97688 3.26503,-16.60317 -24.05204,-44.03457 l -27.74095,-27.85708 17.47609,-23.69277 c 9.61186,-13.03104 18.32352,-23.69279 19.35926,-23.69279 1.03574,0 12.88507,11.06696 26.3319,24.59324 13.4468,13.52629 26.82364,24.59325 29.72626,24.59325 6.84881,0 14.90621,-11.5647 12.56148,-18.02931 -1.00281,-2.76477 -12.6644,-15.89295 -25.91468,-29.17374 l -24.09141,-24.14688 11.97075,-14.28007 c 23.71949,-28.29524 20.22964,-28.37778 49.62727,1.17365 25.61705,25.7511 34.34101,30.35788 42.3404,22.3584 8.00368,-8.00375 3.39151,-16.72467 -22.43049,-42.41281 l -26.11945,-25.98403 17.56939,-17.75482 c 9.66313,-9.76514 19.02849,-17.7548 20.81184,-17.7548 1.78337,0 14.24441,11.06695 27.69122,24.59323 25.45519,25.60564 35.29589,30.03881 41.39252,18.64704 1.75025,-3.27041 3.18228,-7.3548 3.18228,-9.07639 0,-1.72158 -11.06685,-14.49854 -24.59299,-28.39327 -13.52616,-13.89471 -24.51442,-26.06495 -24.41838,-27.04497 0.18782,-1.91818 34.80052,-30.82229 42.06633,-35.12858 3.1938,-1.89291 11.79142,4.63206 31.44522,23.86454 20.66589,20.22287 28.40303,25.99617 32.78448,24.46323 6.26534,-2.19205 13.42019,-9.87304 13.42019,-14.40712 0,-1.57421 -11.30491,-14.44432 -25.12202,-28.60026 -13.81711,-14.15591 -24.53812,-26.24903 -23.82446,-26.87357 6.34299,-5.55106 46.43586,-32.7135 48.28643,-32.7135 1.31551,0 13.14387,10.37527 26.28526,23.05616 13.14139,12.68089 25.79479,23.05618 28.11871,23.05618 5.84391,0 13.88864,-8.59187 13.87797,-14.82184 -0.006,-2.83811 -8.99667,-14.59326 -19.9818,-26.1226 -10.98514,-11.52932 -19.97298,-21.93238 -19.97298,-23.11794 0,-2.21015 61.59554,-37.38477 65.46584,-37.38477 4.16491,0 303.42902,301.49483 303.42902,305.69078 0,14.75598 -48.04979,109.46786 -79.6086,156.91813 -67.63707,101.69583 -144.19838,172.50131 -249.16449,230.43265 -28.89781,15.94885 -91.8109,44.75584 -97.74457,44.75584 -1.28974,0 -73.44115,-71.10695 -160.33645,-158.01543 z M 92.499783,521.51964 57.771183,486.69188 72.209953,451.63446 C 146.54766,271.14163 268.80018,149.69012 454.51182,71.837487 c 17.58012,-7.36983 34.20202,-13.39966 36.93753,-13.39966 5.33358,0 77.18446,70.302693 77.02264,75.363003 -0.0532,1.66539 -14.70766,11.10215 -32.56533,20.97059 l -32.46848,17.94263 -8.16684,-7.12169 c -4.49172,-3.9169 -12.31687,-11.52036 -17.38917,-16.89657 -5.07231,-5.37622 -12.75021,-11.95284 -17.062,-14.61475 -7.07098,-4.36531 -8.50269,-4.37542 -14.60209,-0.10326 -10.41827,7.29731 -8.24194,13.60154 11.59658,33.59249 10.06735,10.14473 18.31135,19.82831 18.31999,21.5191 0.009,1.69078 -9.03153,9.29933 -20.08927,16.90786 -11.05775,7.60853 -22.00569,15.16263 -24.32874,16.78685 -3.13176,2.1897 -9.36394,-1.98279 -24.10636,-16.13931 -10.93543,-10.50086 -20.78498,-19.09248 -21.88786,-19.09248 -6.99513,0 -13.89752,7.3635 -13.89752,14.82595 0,6.08553 4.31578,12.71228 15.37061,23.601 8.45384,8.32682 15.37063,15.93295 15.37063,16.90251 0,2.48472 -42.46024,36.89523 -45.52621,36.89523 -1.38729,0 -9.34918,-6.91049 -17.69315,-15.35661 -17.1925,-17.40304 -23.0333,-20.22586 -31.96237,-15.44712 -10.5895,5.66739 -7.41864,15.62526 10.85614,34.09295 l 17.12053,17.30123 -17.88905,17.3102 c -9.83899,9.52065 -19.32441,17.33811 -21.07872,17.3722 -1.75435,0.0341 -10.00246,-6.8549 -18.32919,-15.30883 -15.94028,-16.18379 -22.58374,-18.47794 -30.52165,-10.53995 -7.78602,7.78606 -5.80865,13.04533 11.87531,31.58531 l 16.70611,17.51479 -17.47465,19.30459 -17.4746,19.3046 -17.74851,-17.0656 c -9.76167,-9.38604 -20.38388,-17.06556 -23.60488,-17.06556 -6.25929,0 -15.5179,7.62643 -15.5179,12.78228 0,1.71636 8.43567,11.90562 18.74592,22.64282 12.58859,13.10983 17.94233,20.84797 16.29933,23.55861 -5.68448,9.37845 -32.70963,42.46344 -34.6858,42.46344 -1.18443,0 -8.26293,-6.22517 -15.73008,-13.8337 -14.68635,-14.96444 -25.37301,-17.71609 -30.63308,-7.88749 -5.13302,9.59128 -4.03823,12.05776 13.52509,30.47128 l 16.70737,17.51614 -18.00243,30.27792 c -9.90136,16.65279 -19.19471,31.47013 -20.65191,32.92731 -1.48314,1.48319 -17.93682,-12.6816 -37.377977,-32.17823 z M 786.95362,167.69237 C 706.72258,87.447197 642.17112,20.699577 643.50591,19.364347 c 1.33474,-1.3352 31.01655,-2.42763 65.9595,-2.42763 56.75454,0 66.32038,0.75674 89.66269,7.09318 52.57182,14.27101 81.44876,32.49706 102.27765,64.55384 16.69273,25.691033 19.05773,31.272993 28.74553,67.846103 6.0624,22.88676 8.2213,40.07571 9.5346,75.91655 1.6471,44.94875 -0.48,81.24639 -4.7611,81.24639 -1.1531,0 -67.74012,-65.65518 -147.97116,-145.90041 z"
     id="path3912"
     inkscape:connector-curvature="0" />
  <text
     xml:space="preserve"
     style="font-size:150.67648315px;font-style:normal;font-variant:normal;font-weight:normal;font-stretch:normal;line-height:125%;letter-spacing:0px;word-spacing:0px;fill:#ffffff;fill-opacity:1;stroke:#000000;stroke-width:3.99999976;stroke-miterlimit:4;stroke-opacity:1;stroke-dasharray:none;font-family:Arial;-inkscape-font-specification:Arial"
     x="23.632023"
     y="138.88077"
     id="text3755"
     sodipodi:linespacing="125%"
     transform="scale(1.0000721,0.99992791)"><tspan
       sodipodi:role="line"
       id="tspan3757"
       x="23.632023"
       y="138.88077"
       style="stroke:#000000;stroke-width:3.99999976;stroke-opacity:1">CHAMPIONS</tspan></text>
  <text
     xml:space="preserve"
     style="font-size:79.73387146px;font-style:normal;font-variant:normal;font-weight:normal;font-stretch:normal;line-height:125%;letter-spacing:0px;word-spacing:0px;fill:#ffffff;fill-opacity:1;stroke:#000000;stroke-width:4;stroke-miterlimit:4;stroke-opacity:1;stroke-dasharray:none;font-family:Arial;-inkscape-font-specification:Arial"
     x="468.31628"
     y="401.52478"
     id="text3759"
     sodipodi:linespacing="125%"
     transform="scale(1.023672,0.97687541)"><tspan
       sodipodi:role="line"
       x="468.31628"
       y="401.52478"
       style="text-align:center;text-anchor:middle;stroke-width:4"
       id="tspan3822">The Ohio State University</tspan><tspan
       sodipodi:role="line"
       x="468.31628"
       y="501.19211"
       style="text-align:center;text-anchor:middle;stroke-width:4"
       id="tspan3790" /><tspan
       sodipodi:role="line"
       x="468.31628"
       y="600.85944"
       style="text-align:center;text-anchor:middle;stroke-width:4"
       id="tspan3792" /></text>
  <text
     xml:space="preserve"
     style="font-size:187.50398254px;font-style:normal;font-variant:normal;font-weight:normal;font-stretch:normal;line-height:125%;letter-spacing:0px;word-spacing:0px;fill:#ffffff;fill-opacity:1;stroke:#000000;stroke-width:4.00000048;stroke-miterlimit:4;stroke-opacity:1;stroke-dasharray:none;font-family:Arial;-inkscape-font-specification:Arial"
     x="-4.4714894"
     y="616.01349"
     id="text3759-1"
     sodipodi:linespacing="125%"
     transform="scale(1.0097094,0.99038397)"><tspan
       sodipodi:role="line"
       x="-4.4714894"
       y="616.01349"
       style="font-size:219.4851532px;stroke-width:4.00000048"
       id="tspan3794">Buckeyes</tspan></text>
  <text
     xml:space="preserve"
     style="font-size:121.11334229px;font-style:normal;font-variant:normal;font-weight:normal;font-stretch:normal;line-height:125%;letter-spacing:0px;word-spacing:0px;fill:#ffffff;fill-opacity:1;stroke:#000000;stroke-width:4.00000048;stroke-miterlimit:4;stroke-opacity:1;stroke-dasharray:none;font-family:Arial;-inkscape-font-specification:Arial"
     x="14.745054"
     y="782.79736"
     id="text3759-1-1"
     sodipodi:linespacing="125%"
     transform="scale(1.0124856,0.98766837)"><tspan
       sodipodi:role="line"
       x="14.745054"
       y="782.79736"
       style="font-size:141.77073669px;stroke-width:4.00000048"
       id="tspan3794-4">Men's Football</tspan></text>
</svg>
