<?xml version="1.0" encoding="UTF-8" standalone="no"?>
<!-- Created with Inkscape (http://www.inkscape.org/) -->

<svg
   xmlns:dc="http://purl.org/dc/elements/1.1/"
   xmlns:cc="http://creativecommons.org/ns#"
   xmlns:rdf="http://www.w3.org/1999/02/22-rdf-syntax-ns#"
   xmlns:svg="http://www.w3.org/2000/svg"
   xmlns="http://www.w3.org/2000/svg"
   xmlns:sodipodi="http://sodipodi.sourceforge.net/DTD/sodipodi-0.dtd"
   xmlns:inkscape="http://www.inkscape.org/namespaces/inkscape"
   id="svg3902"
   version="1.1"
   inkscape:version="0.48.4 r9939"
   width="960.00006"
   height="960.00006"
   sodipodi:docname="football.svg">
  <metadata
     id="metadata3908">
    <rdf:RDF>
      <cc:Work
         rdf:about="">
        <dc:format>image/svg+xml</dc:format>
        <dc:type
           rdf:resource="http://purl.org/dc/dcmitype/StillImage" />
        <dc:title />
      </cc:Work>
    </rdf:RDF>
  </metadata>
  <defs
     id="defs3906" />
  <sodipodi:namedview
     pagecolor="#ffffff"
     bordercolor="#666666"
     borderopacity="1"
     objecttolerance="10"
     gridtolerance="10"
     guidetolerance="10"
     inkscape:pageopacity="0"
     inkscape:pageshadow="2"
     inkscape:window-width="1600"
     inkscape:window-height="847"
     id="namedview3904"
     showgrid="false"
     fit-margin-top="0"
     fit-margin-left="0"
     fit-margin-right="0"
     fit-margin-bottom="0"
     inkscape:zoom="0.39333334"
     inkscape:cx="-17.222766"
     inkscape:cy="240.59724"
     inkscape:window-x="-8"
     inkscape:window-y="-8"
     inkscape:window-maximized="1"
     inkscape:current-layer="layer19" />
  <g
     inkscape:groupmode="layer"
     id="layer19"
     inkscape:label="objs"
     style="display:inline">
    <rect
       style="fill:#bb0000;fill-opacity:1;stroke:#ffffff;stroke-width:1.10000002;stroke-miterlimit:4;stroke-opacity:1;stroke-dasharray:none"
       id="rect2985"
       width="958.90009"
       height="958.90009"
       x="0.55000001"
       y="0.55000103" />
    <path
       style="fill:#666666;fill-opacity:1;stroke:#000000;stroke-width:4;stroke-miterlimit:4;stroke-opacity:1;stroke-dasharray:none"
       d="m 185.84041,934.44746 c -23.0715,-3.59079 -57.54602,-13.91839 -73.74178,-22.09094 -46.432137,-23.43017 -71.892437,-61.92165 -88.000597,-133.04151 -4.57565,-20.2021 -6.08182,-134.44747 -1.82864,-138.70466 1.33742,-1.33867 68.37161,63.50668 148.964907,144.10082 80.59329,80.59413 145.6103,147.4577 144.48231,148.58573 -3.33161,3.33162 -109.80232,4.27486 -129.8762,1.15056 z M 307.57185,736.59279 149.58039,578.57733 l 14.432,-25.66536 c 7.93757,-14.11597 17.04445,-29.11038 20.23748,-33.3209 l 5.80548,-7.65554 25.95255,25.33191 c 25.29985,24.69481 33.91205,29.19058 41.4596,21.64294 7.9768,-7.97688 3.26503,-16.60317 -24.05204,-44.03457 l -27.74095,-27.85708 17.47609,-23.69277 c 9.61186,-13.03104 18.32352,-23.69279 19.35926,-23.69279 1.03574,0 12.88507,11.06696 26.3319,24.59324 13.4468,13.52629 26.82364,24.59325 29.72626,24.59325 6.84881,0 14.90621,-11.5647 12.56148,-18.02931 -1.00281,-2.76477 -12.6644,-15.89295 -25.91468,-29.17374 l -24.09141,-24.14688 11.97075,-14.28007 c 23.71949,-28.29524 20.22964,-28.37778 49.62727,1.17365 25.61705,25.7511 34.34101,30.35788 42.3404,22.3584 8.00368,-8.00375 3.39151,-16.72467 -22.43049,-42.41281 l -26.11945,-25.98403 17.56939,-17.75482 c 9.66313,-9.76514 19.02849,-17.7548 20.81184,-17.7548 1.78337,0 14.24441,11.06695 27.69122,24.59323 25.45519,25.60564 35.29589,30.03881 41.39252,18.64704 1.75025,-3.27041 3.18228,-7.3548 3.18228,-9.07639 0,-1.72158 -11.06685,-14.49854 -24.59299,-28.39327 -13.52616,-13.89471 -24.51442,-26.06495 -24.41838,-27.04497 0.18782,-1.91818 34.80052,-30.82229 42.06633,-35.12858 3.1938,-1.89291 11.79142,4.63206 31.44522,23.86454 20.66589,20.22287 28.40303,25.99617 32.78448,24.46323 6.26534,-2.19205 13.42019,-9.87304 13.42019,-14.40712 0,-1.57421 -11.30491,-14.44432 -25.12202,-28.60026 -13.81711,-14.15591 -24.53812,-26.24903 -23.82446,-26.87357 6.34299,-5.55106 46.43586,-32.7135 48.28643,-32.7135 1.31551,0 13.14387,10.37527 26.28526,23.05616 13.14139,12.68089 25.79479,23.05618 28.11871,23.05618 5.84391,0 13.88864,-8.59187 13.87797,-14.82184 -0.006,-2.83811 -8.99667,-14.59326 -19.9818,-26.1226 -10.98514,-11.52932 -19.97298,-21.93238 -19.97298,-23.11794 0,-2.21015 61.59554,-37.38477 65.46584,-37.38477 4.16491,0 303.42902,301.49483 303.42902,305.69078 0,14.75598 -48.04979,109.46786 -79.6086,156.91813 -67.63707,101.69583 -144.19838,172.50131 -249.16449,230.43265 -28.89781,15.94885 -91.8109,44.75584 -97.74457,44.75584 -1.28974,0 -73.44115,-71.10695 -160.33645,-158.01543 z M 92.499783,521.51964 57.771183,486.69188 72.209953,451.63446 C 146.54767,271.14163 268.80019,149.69012 454.51183,71.837491 c 17.58012,-7.36983 34.20202,-13.39966 36.93753,-13.39966 5.33358,0 77.18446,70.302689 77.02264,75.362999 -0.0532,1.66539 -14.70766,11.10215 -32.56533,20.97059 l -32.46848,17.94263 -8.16684,-7.12169 c -4.49172,-3.9169 -12.31687,-11.52036 -17.38917,-16.89657 -5.07231,-5.37622 -12.75021,-11.95284 -17.062,-14.61475 -7.07098,-4.36531 -8.50269,-4.37542 -14.60209,-0.10326 -10.41827,7.29731 -8.24194,13.60154 11.59658,33.59249 10.06735,10.14473 18.31135,19.82831 18.31999,21.5191 0.009,1.69078 -9.03153,9.29933 -20.08927,16.90786 -11.05775,7.60853 -22.00569,15.16263 -24.32874,16.78685 -3.13176,2.1897 -9.36394,-1.98279 -24.10636,-16.13931 -10.93543,-10.50086 -20.78498,-19.09248 -21.88786,-19.09248 -6.99513,0 -13.89752,7.3635 -13.89752,14.82595 0,6.08553 4.31578,12.71228 15.37061,23.601 8.45384,8.32682 15.37063,15.93295 15.37063,16.90251 0,2.48472 -42.46024,36.89523 -45.52621,36.89523 -1.38729,0 -9.34918,-6.91049 -17.69315,-15.35661 -17.1925,-17.40304 -23.0333,-20.22586 -31.96237,-15.44712 -10.5895,5.66739 -7.41864,15.62526 10.85614,34.09295 l 17.12053,17.30123 -17.88905,17.3102 c -9.83899,9.52065 -19.32441,17.33811 -21.07872,17.3722 -1.75435,0.0341 -10.00246,-6.8549 -18.32919,-15.30883 -15.94028,-16.18379 -22.58374,-18.47794 -30.52165,-10.53995 -7.78602,7.78606 -5.80865,13.04533 11.87531,31.58531 l 16.70611,17.51479 -17.47465,19.30459 -17.4746,19.3046 -17.74851,-17.0656 c -9.76167,-9.38604 -20.38388,-17.06556 -23.60488,-17.06556 -6.25929,0 -15.5179,7.62643 -15.5179,12.78228 0,1.71636 8.43567,11.90562 18.74592,22.64282 12.58859,13.10983 17.94233,20.84797 16.29933,23.55861 -5.68448,9.37845 -32.70963,42.46344 -34.6858,42.46344 -1.18443,0 -8.26293,-6.22517 -15.73008,-13.8337 -14.68635,-14.96444 -25.37301,-17.71609 -30.63308,-7.88749 -5.13302,9.59128 -4.03823,12.05776 13.52509,30.47128 l 16.70737,17.51614 -18.00243,30.27792 c -9.90136,16.65279 -19.19471,31.47013 -20.65191,32.92731 -1.48314,1.48319 -17.93683,-12.6816 -37.377987,-32.17823 z M 786.95363,167.69237 C 706.72259,87.447201 642.17113,20.699581 643.50592,19.364351 c 1.33474,-1.3352 31.01655,-2.42763 65.9595,-2.42763 56.75454,0 66.32038,0.75674 89.66269,7.09318 52.57182,14.27101 81.44876,32.49706 102.27765,64.55384 16.69273,25.691029 19.05773,31.272989 28.74553,67.846099 6.0624,22.88676 8.2213,40.07571 9.5346,75.91655 1.6471,44.94875 -0.48,81.24639 -4.7611,81.24639 -1.1531,0 -67.74012,-65.65518 -147.97116,-145.90041 z"
       id="path3912"
       inkscape:connector-curvature="0" />
  </g>
  <g
     inkscape:groupmode="layer"
     id="layer17"
     inkscape:label="Text"
     style="display:none">
    <text
       xml:space="preserve"
       style="font-size:150.67648315px;font-style:normal;font-variant:normal;font-weight:normal;font-stretch:normal;line-height:125%;letter-spacing:0px;word-spacing:0px;fill:#ffffff;fill-opacity:1;stroke:#000000;stroke-width:3.99999976;stroke-miterlimit:4;stroke-opacity:1;stroke-dasharray:none;font-family:Arial;-inkscape-font-specification:Arial"
       x="23.632023"
       y="138.88077"
       id="text3755-0"
       sodipodi:linespacing="125%"
       transform="scale(1.0000721,0.99992791)"><tspan
         sodipodi:role="line"
         id="tspan3757-2"
         x="23.632023"
         y="138.88077"
         style="stroke:#000000;stroke-width:3.99999976;stroke-opacity:1">CHAMPIONS</tspan></text>
    <text
       xml:space="preserve"
       style="font-size:79.73387146px;font-style:normal;font-variant:normal;font-weight:normal;font-stretch:normal;line-height:125%;letter-spacing:0px;word-spacing:0px;fill:#ffffff;fill-opacity:1;stroke:#000000;stroke-width:4;stroke-miterlimit:4;stroke-opacity:1;stroke-dasharray:none;font-family:Arial;-inkscape-font-specification:Arial"
       x="468.31628"
       y="401.52478"
       id="text3759-8"
       sodipodi:linespacing="125%"
       transform="scale(1.023672,0.97687541)"><tspan
         sodipodi:role="line"
         x="468.31628"
         y="401.52478"
         style="text-align:center;text-anchor:middle;stroke-width:4"
         id="tspan3822-6">The Ohio State University</tspan><tspan
         sodipodi:role="line"
         x="468.31628"
         y="501.19211"
         style="text-align:center;text-anchor:middle;stroke-width:4"
         id="tspan3790-0" /><tspan
         sodipodi:role="line"
         x="468.31628"
         y="600.85944"
         style="text-align:center;text-anchor:middle;stroke-width:4"
         id="tspan3792-2" /></text>
    <text
       xml:space="preserve"
       style="font-size:187.50398254px;font-style:normal;font-variant:normal;font-weight:normal;font-stretch:normal;line-height:125%;letter-spacing:0px;word-spacing:0px;fill:#ffffff;fill-opacity:1;stroke:#000000;stroke-width:4.00000048;stroke-miterlimit:4;stroke-opacity:1;stroke-dasharray:none;font-family:Arial;-inkscape-font-specification:Arial"
       x="-4.4714894"
       y="616.01349"
       id="text3759-1-4"
       sodipodi:linespacing="125%"
       transform="scale(1.0097094,0.99038397)"><tspan
         sodipodi:role="line"
         x="-4.4714894"
         y="616.01349"
         style="font-size:219.4851532px;stroke-width:4.00000048"
         id="tspan3794-8">Buckeyes</tspan></text>
    <text
       xml:space="preserve"
       style="font-size:121.11334229px;font-style:normal;font-variant:normal;font-weight:normal;font-stretch:normal;line-height:125%;letter-spacing:0px;word-spacing:0px;fill:#ffffff;fill-opacity:1;stroke:#000000;stroke-width:4.00000048;stroke-miterlimit:4;stroke-opacity:1;stroke-dasharray:none;font-family:Arial;-inkscape-font-specification:Arial"
       x="14.745055"
       y="782.79736"
       id="text3759-1-1-6"
       sodipodi:linespacing="125%"
       transform="scale(1.0124856,0.98766837)"><tspan
         sodipodi:role="line"
         x="14.745055"
         y="782.79736"
         style="font-size:141.77073669px;stroke-width:4.00000048"
         id="tspan3794-4-5">Men's Football</tspan></text>
  </g>
  <g
     inkscape:groupmode="layer"
     id="layer18"
     inkscape:label="PathsFromText"
     style="display:inline">
    <g
       transform="scale(1.0000721,0.99992791)"
       style="font-size:150.67648315px;font-style:normal;font-variant:normal;font-weight:normal;font-stretch:normal;line-height:125%;letter-spacing:0px;word-spacing:0px;fill:#ffffff;fill-opacity:1;stroke:#000000;stroke-width:3.99999976;stroke-miterlimit:4;stroke-opacity:1;font-family:Arial;-inkscape-font-specification:Arial"
       id="text3755-09">
      <path
         d="m 112.21331,101.0645 14.27307,3.60505 c -2.99205,11.72258 -8.3751,20.66163 -16.14916,26.81718 -7.77424,6.15557 -17.277349,9.23335 -28.509348,9.23335 -11.624502,0 -21.078559,-2.36658 -28.3622,-7.09975 -7.2837,-4.73315 -12.826156,-11.58765 -16.627385,-20.56351 -3.801255,-8.97581 -5.701876,-18.613799 -5.701869,-28.913993 -7e-6,-11.232003 2.145855,-21.029398 6.437594,-29.392215 4.291711,-8.362648 10.398222,-14.714401 18.319553,-19.055278 7.921266,-4.34067 16.639598,-6.511056 26.155024,-6.511166 10.790564,1.1e-4 19.864501,2.746814 27.221821,8.24012 7.35716,5.49351 12.48271,13.218615 15.37666,23.175338 l -14.05235,3.310763 C 108.09317,56.062738 104.4636,50.348613 99.705989,46.767996 94.94823,43.187563 88.964339,41.397301 81.754299,41.397203 c -8.289218,9.8e-5 -15.217289,1.986553 -20.784232,5.959373 -5.567017,3.973003 -9.478618,9.307004 -11.734814,16.002019 -2.256246,6.695166 -3.384357,13.598713 -3.384335,20.710659 -2.2e-5,9.172084 1.336544,17.179216 4.009702,24.021426 2.673105,6.84226 6.829947,11.95555 12.470539,15.33986 5.640514,3.38435 11.747025,5.07652 18.319553,5.07651 7.994813,1e-5 14.763476,-2.30526 20.306008,-6.91582 5.54238,-4.61052 9.29457,-11.45276 11.25659,-20.52673 z"
         style="stroke:#000000"
         id="path5219"
         inkscape:connector-curvature="0" />
      <path
         d="m 144.58521,138.88077 0,-107.857289 14.27307,0 0,44.290645 56.06224,0 0,-44.290645 14.27307,0 0,107.857289 -14.27307,0 0,-50.838601 -56.06224,0 0,50.838601 z"
         style="stroke:#000000"
         id="path5221"
         inkscape:connector-curvature="0" />
      <path
         d="m 241.1859,138.88077 41.42132,-107.857289 15.37665,0 44.1435,107.857289 -16.25952,0 -12.5809,-32.66619 -45.09994,0 -11.84517,32.66619 z m 31.12117,-44.290648 36.56553,0 -11.25659,-29.870436 c -3.43343,-9.073858 -5.98395,-16.529198 -7.65154,-22.36604 -1.3734,6.915905 -3.31081,13.782665 -5.81223,20.6003 z"
         style="stroke:#000000"
         id="path5223"
         inkscape:connector-curvature="0" />
      <path
         d="m 353.23683,138.88077 0,-107.857289 21.48317,0 25.52966,76.368259 c 2.35425,7.11203 4.07094,12.43377 5.15007,15.96523 1.22614,-3.92385 3.13903,-9.68702 5.73866,-17.28954 l 25.82394,-75.043949 19.20243,0 0,107.857289 -13.75806,0 0,-90.273462 -31.34189,90.273462 -12.87519,0 -31.19474,-91.818484 0,91.818484 z"
         style="stroke:#000000"
         id="path5225"
         inkscape:connector-curvature="0" />
      <path
         d="m 479.3401,138.88077 0,-107.857289 40.68559,0 c 7.161,1.07e-4 12.62988,0.343445 16.40667,1.030015 5.29714,0.882976 9.73601,2.562879 13.31662,5.039716 3.58044,2.47704 6.46203,5.947206 8.64477,10.410509 2.18256,4.463485 3.27388,9.368314 3.27398,14.7145 -10e-5,9.172106 -2.91847,16.933997 -8.75513,23.285697 -5.83683,6.351806 -16.38221,9.527683 -31.63618,9.527639 l -27.66326,0 0,43.849213 z m 14.27306,-56.577256 27.88398,0 c 9.22102,5.7e-5 15.76897,-1.716633 19.64386,-5.150075 3.87474,-3.433318 5.81215,-8.264574 5.81223,-14.493783 -8e-5,-4.512366 -1.14046,-8.374918 -3.42113,-11.587669 -2.28082,-3.212575 -5.28502,-5.333913 -9.01263,-6.364021 -2.40343,-0.637534 -6.8423,-0.956348 -13.31662,-0.956443 l -27.58969,0 z"
         style="stroke:#000000"
         id="path5227"
         inkscape:connector-curvature="0" />
      <path
         d="m 582.41514,138.88077 0,-107.857289 14.27307,0 0,107.857289 z"
         style="stroke:#000000"
         id="path5229"
         inkscape:connector-curvature="0" />
      <path
         d="m 617.43566,86.350002 c -10e-6,-17.902572 4.80672,-31.918119 14.42021,-42.046685 9.61344,-10.128376 22.02266,-15.192612 37.22769,-15.192721 9.95674,1.09e-4 18.93257,2.378951 26.92753,7.136532 7.99479,4.757786 14.08903,11.391567 18.28277,19.901362 4.19352,8.50996 6.29034,18.16021 6.29045,28.950779 -1.1e-4,10.937822 -2.20729,20.722951 -6.62153,29.355431 -4.41445,8.63252 -10.6681,15.1682 -18.76099,19.60707 -8.09305,4.43887 -16.82364,6.65831 -26.19181,6.65831 -10.15305,0 -19.22698,-2.45242 -27.22182,-7.35725 -7.99491,-4.90482 -14.05237,-11.59991 -18.17241,-20.08529 -4.12007,-8.48533 -6.1801,-17.461167 -6.18009,-26.927538 z m 14.7145,0.220717 c -2e-5,12.997848 3.49467,23.236681 10.48408,30.716521 6.98935,7.47988 15.75673,11.21982 26.30217,11.21981 10.74152,1e-5 19.58247,-3.77671 26.52289,-11.33017 6.94024,-7.55341 10.41041,-18.270465 10.41051,-32.151183 -10e-5,-8.77959 -1.48381,-16.443384 -4.45114,-22.991407 -2.96751,-6.547869 -7.30829,-11.624367 -13.02233,-15.229508 -5.71421,-3.604957 -12.12727,-5.407481 -19.23921,-5.407579 -10.10401,9.8e-5 -18.79782,3.470264 -26.08145,10.410509 -7.28371,6.94042 -10.92554,18.528077 -10.92552,34.763007 z"
         style="stroke:#000000"
         id="path5231"
         inkscape:connector-curvature="0" />
      <path
         d="m 738.75673,138.88077 0,-107.857289 14.64093,0 56.65083,84.681949 0,-84.681949 13.68448,0 0,107.857289 -14.64093,0 -56.65082,-84.755524 0,84.755524 z"
         style="stroke:#000000"
         id="path5233"
         inkscape:connector-curvature="0" />
      <path
         d="m 842.93536,104.22812 13.46377,-1.17716 c 0.63761,5.39535 2.12132,9.82195 4.45114,13.27984 2.32976,3.45792 5.94708,6.25368 10.85194,8.38726 4.90479,2.13362 10.42272,3.20042 16.55381,3.20041 5.44431,1e-5 10.25104,-0.80929 14.42021,-2.4279 4.16904,-1.61858 7.27134,-3.83801 9.30692,-6.65831 2.03543,-2.82026 3.05318,-5.89804 3.05326,-9.23335 -8e-5,-3.3843 -0.98104,-6.33946 -2.9429,-8.86548 -1.962,-2.525953 -5.19919,-4.647291 -9.71157,-6.364026 -2.89391,-1.128066 -9.29471,-2.881542 -19.20242,-5.260433 -9.9078,-2.378793 -16.84813,-4.622752 -20.82102,-6.731884 -5.15009,-2.6976 -8.98812,-6.045145 -11.5141,-10.042647 -2.526,-3.997369 -3.78899,-8.473025 -3.78898,-13.426981 -10e-6,-5.44428 1.54501,-10.53304 4.63507,-15.266294 3.09003,-4.733065 7.60247,-8.325852 13.53734,-10.778372 5.93481,-2.452308 12.53181,-3.678515 19.791,-3.678625 7.99482,1.1e-4 15.04551,1.287627 21.1521,3.862556 6.10644,2.575141 10.80281,6.364121 14.08913,11.366952 3.28615,5.003019 5.05189,10.668096 5.29722,16.995248 l -13.68449,1.030015 c -0.7358,-6.817635 -3.225,-11.967705 -7.4676,-15.450226 -4.24275,-3.482336 -10.50867,-5.22355 -18.79778,-5.223647 -8.63255,9.7e-5 -14.92299,1.581904 -18.87134,4.745426 -3.94842,3.163707 -5.92262,6.977211 -5.92259,11.440524 -3e-5,3.874896 1.39785,7.063034 4.19363,9.564425 2.74668,2.501534 9.91999,5.064307 21.51996,7.688327 11.59987,2.624147 19.55795,4.917154 23.87427,6.879029 6.27811,2.893905 10.91317,6.560265 13.90521,10.999089 2.99185,4.438915 4.48783,9.552194 4.48792,15.339864 -9e-5,5.73868 -1.64321,11.14626 -4.92936,16.22274 -3.28632,5.07651 -8.00722,9.0249 -14.1627,11.84517 -6.15564,2.82028 -13.08371,4.23042 -20.78424,4.23042 -9.76066,0 -17.93946,-1.4224 -24.53642,-4.2672 -6.59703,-2.8448 -11.77162,-7.12427 -15.5238,-12.83841 -3.75221,-5.71411 -5.7264,-12.17622 -5.92259,-19.38635 z"
         style="stroke:#000000"
         id="path5235"
         inkscape:connector-curvature="0" />
    </g>
    <g
       transform="scale(1.023672,0.97687541)"
       style="font-size:79.73387146px;font-style:normal;font-variant:normal;font-weight:normal;font-stretch:normal;line-height:125%;letter-spacing:0px;word-spacing:0px;fill:#ffffff;fill-opacity:1;stroke:#000000;stroke-width:4;stroke-miterlimit:4;stroke-opacity:1;font-family:Arial;-inkscape-font-specification:Arial"
       id="text3759-0">
      <path
         d="m 34.568695,401.52478 0,-50.33979 -18.804423,0 0,-6.73533 45.239628,0 0,6.73533 -18.882289,0 0,50.33979 z"
         style="text-align:center;text-anchor:middle"
         id="path5238"
         inkscape:connector-curvature="0" />
      <path
         d="m 67.894961,401.52478 0,-57.07512 7.00786,0 0,20.47852 c 3.270319,-3.7894 7.397165,-5.68411 12.380552,-5.68415 3.062666,4e-5 5.723055,0.60349 7.981174,1.81036 2.258053,1.20695 3.873752,2.87456 4.847103,5.00283 0.97327,2.12835 1.45993,5.217 1.45997,9.26595 l 0,26.20161 -7.007859,0 0,-26.20161 c -3.2e-5,-3.5039 -0.759216,-6.05398 -2.277555,-7.65025 -1.518398,-1.5962 -3.666175,-2.39431 -6.443338,-2.39435 -2.076424,4e-5 -4.029538,0.5386 -5.859349,1.6157 -1.829846,1.07717 -3.134085,2.53714 -3.912722,4.37992 -0.778664,1.84283 -1.167989,4.38642 -1.167976,7.63078 l 0,22.61981 z"
         style="text-align:center;text-anchor:middle"
         id="path5240"
         inkscape:connector-curvature="0" />
      <path
         d="m 140.58204,388.20985 7.24146,0.89545 c -1.14206,4.23067 -3.2574,7.51398 -6.34601,9.84993 -3.08868,2.33596 -7.03384,3.50393 -11.8355,3.50393 -6.04754,0 -10.84272,-1.86227 -14.38557,-5.58682 -3.54287,-3.72454 -5.3143,-8.94799 -5.3143,-15.67035 0,-6.95593 1.79089,-12.35457 5.37269,-16.19595 3.58179,-3.8413 8.22773,-5.76197 13.93786,-5.76201 5.52839,4e-5 10.04457,1.88178 13.54853,5.64522 3.50389,3.76351 5.25585,9.05833 5.25589,15.88448 -4e-5,0.4153 -0.013,1.03822 -0.0389,1.86876 l -30.83458,0 c 0.25954,4.54215 1.54431,8.02012 3.85432,10.43393 2.30998,2.41382 5.19099,3.62073 8.64303,3.62072 2.56952,1e-5 4.76272,-0.67482 6.5796,-2.02449 1.81682,-1.34965 3.25732,-3.50392 4.32151,-6.4628 z m -23.00914,-11.32938 23.08701,0 c -0.3115,-3.47794 -1.19397,-6.08642 -2.64742,-7.82544 -2.23216,-2.69929 -5.12614,-4.04895 -8.68196,-4.04899 -3.21844,4e-5 -5.92425,1.07717 -8.11743,3.23141 -2.19322,2.1543 -3.40661,5.0353 -3.6402,8.64302 z"
         style="text-align:center;text-anchor:middle"
         id="path5242"
         inkscape:connector-curvature="0" />
      <path
         d="m 177.37331,373.72694 c -1e-5,-9.47355 2.54358,-16.8902 7.63078,-22.24996 5.08717,-5.35966 11.65378,-8.03951 19.69987,-8.03957 5.26884,6e-5 10.0186,1.25888 14.24931,3.77646 4.23063,2.51769 7.45554,6.0281 9.67474,10.53125 2.2191,4.50324 3.32868,9.60989 3.32874,15.31996 -6e-5,5.788 -1.16804,10.96602 -3.50393,15.53409 -2.33601,4.5681 -5.64527,8.0266 -9.9278,10.37553 -4.28263,2.34893 -8.90262,3.52339 -13.85999,3.52339 -5.37272,0 -10.1744,-1.29775 -14.40505,-3.89325 -4.23068,-2.5955 -7.43613,-6.13836 -9.61634,-10.62859 -2.18023,-4.4902 -3.27034,-9.23997 -3.27033,-14.24931 z m 7.78651,0.11679 c -1e-5,6.87811 1.84928,12.29622 5.54789,16.25435 3.69857,3.95815 8.33803,5.93722 13.91838,5.93721 5.68412,1e-5 10.36251,-1.99853 14.03519,-5.99561 3.67259,-3.99706 5.50891,-9.66823 5.50896,-17.01353 -5e-5,-4.64592 -0.78519,-8.70139 -2.35542,-12.16642 -1.57033,-3.46496 -3.86735,-6.1513 -6.89107,-8.05904 -3.0238,-1.90765 -6.41741,-2.86149 -10.18086,-2.86154 -5.34676,5e-5 -9.94729,1.83636 -13.80159,5.50895 -3.85434,3.67268 -5.78149,9.80455 -5.78148,18.39563 z"
         style="text-align:center;text-anchor:middle"
         id="path5244"
         inkscape:connector-curvature="0" />
      <path
         d="m 240.7555,401.52478 0,-57.07512 7.00786,0 0,20.47852 c 3.27032,-3.7894 7.39716,-5.68411 12.38055,-5.68415 3.06267,4e-5 5.72306,0.60349 7.98118,1.81036 2.25805,1.20695 3.87375,2.87456 4.8471,5.00283 0.97327,2.12835 1.45993,5.217 1.45997,9.26595 l 0,26.20161 -7.00786,0 0,-26.20161 c -3e-5,-3.5039 -0.75922,-6.05398 -2.27756,-7.65025 -1.51839,-1.5962 -3.66617,-2.39431 -6.44333,-2.39435 -2.07643,4e-5 -4.02954,0.5386 -5.85935,1.6157 -1.82985,1.07717 -3.13409,2.53714 -3.91272,4.37992 -0.77867,1.84283 -1.16799,4.38642 -1.16798,7.63078 l 0,22.61981 z"
         style="text-align:center;text-anchor:middle"
         id="path5246"
         inkscape:connector-curvature="0" />
      <path
         d="m 285.17755,352.50869 0,-8.05903 7.00786,0 0,8.05903 z m 0,49.01609 0,-41.34637 7.00786,0 0,41.34637 z"
         style="text-align:center;text-anchor:middle"
         id="path5248"
         inkscape:connector-curvature="0" />
      <path
         d="m 300.28337,380.85159 c 0,-7.6567 2.12831,-13.32787 6.38494,-17.01352 3.55583,-3.06266 7.89031,-4.594 13.00347,-4.59404 5.68413,4e-5 10.33007,1.86231 13.93786,5.58682 3.60771,3.72458 5.41158,8.87016 5.41162,15.43676 -4e-5,5.32079 -0.79816,9.50604 -2.39435,12.55574 -1.59627,3.04973 -3.91925,5.41812 -6.96893,7.1052 -3.04974,1.68707 -6.37847,2.53061 -9.9862,2.53061 -5.78799,0 -10.46638,-1.85578 -14.03518,-5.56735 -3.56883,-3.71157 -5.35323,-9.0583 -5.35323,-16.04022 z m 7.20252,0 c -10e-6,5.29485 1.15499,9.25947 3.465,11.8939 2.30998,2.63444 5.21694,3.95166 8.72089,3.95165 3.47795,1e-5 6.37194,-1.3237 8.68196,-3.97112 2.30997,-2.6474 3.46497,-6.6834 3.465,-12.10802 -3e-5,-5.11312 -1.16152,-8.9869 -3.48446,-11.62137 -2.32301,-2.6344 -5.2105,-3.95162 -8.6625,-3.95165 -3.50395,3e-5 -6.41091,1.31076 -8.72089,3.93218 -2.31001,2.62149 -3.46501,6.57963 -3.465,11.87443 z"
         style="text-align:center;text-anchor:middle"
         id="path5250"
         inkscape:connector-curvature="0" />
      <path
         d="m 367.71458,383.18755 7.12466,-0.62292 c 0.3374,2.85507 1.12254,5.19751 2.35542,7.02732 1.23285,1.82984 3.14703,3.30928 5.74255,4.43831 2.59548,1.12905 5.51542,1.69358 8.75982,1.69357 2.88098,10e-6 5.42457,-0.42825 7.63078,-1.28477 2.20614,-0.85651 3.8478,-2.03098 4.92497,-3.5234 1.07709,-1.4924 1.61566,-3.12108 1.6157,-4.88604 -4e-5,-1.79088 -0.51914,-3.35467 -1.5573,-4.69137 -1.03824,-1.33666 -2.75127,-2.45922 -5.1391,-3.36767 -1.53138,-0.59694 -4.91851,-1.52483 -10.16139,-2.78367 -5.24294,-1.25879 -8.91558,-2.44624 -11.01792,-3.56233 -2.72529,-1.4275 -4.75627,-3.19893 -6.09294,-5.3143 -1.33669,-2.11529 -2.00503,-4.48369 -2.00503,-7.10519 0,-2.88096 0.81758,-5.57379 2.45275,-8.0785 1.63516,-2.50461 4.02302,-4.40581 7.16359,-5.70362 3.14054,-1.2977 6.63149,-1.94657 10.47286,-1.94663 4.23064,6e-5 7.96167,0.68138 11.19311,2.04396 3.23136,1.36269 5.71655,3.36772 7.45558,6.01508 1.73894,2.64746 2.67332,5.64527 2.80315,8.99342 l -7.24146,0.54506 c -0.38936,-3.60771 -1.70658,-6.33299 -3.95165,-8.17584 -2.24515,-1.84276 -5.5609,-2.76416 -9.94727,-2.76421 -4.56811,5e-5 -7.89684,0.8371 -9.9862,2.51115 -2.0894,1.67415 -3.13408,3.69215 -3.13407,6.05401 -10e-6,2.05049 0.7397,3.73756 2.21915,5.06123 1.45347,1.32375 5.24939,2.6799 11.38778,4.06845 6.13833,1.38863 10.34953,2.60203 12.63361,3.6402 3.3222,1.53137 5.77495,3.47151 7.35825,5.82042 1.58321,2.34895 2.37484,5.05476 2.37489,8.11743 -5e-5,3.03676 -0.86954,5.89829 -2.60848,8.58463 -1.73903,2.68635 -4.2372,4.77573 -7.49452,6.26814 -3.25739,1.49242 -6.92354,2.23862 -10.99845,2.23862 -5.16507,0 -9.49307,-0.75269 -12.984,-2.25808 -3.49097,-1.50539 -6.22922,-3.76997 -8.21477,-6.79373 -1.98557,-3.02376 -3.03026,-6.44333 -3.13407,-10.25873 z"
         style="text-align:center;text-anchor:middle"
         id="path5252"
         inkscape:connector-curvature="0" />
      <path
         d="m 437.94891,395.25664 1.01224,6.19028 c -1.9726,0.41528 -3.73754,0.62292 -5.29482,0.62292 -2.54361,0 -4.51619,-0.40231 -5.91775,-1.20691 -1.40158,-0.80461 -2.38787,-1.86227 -2.95888,-3.17301 -0.57101,-1.31072 -0.85652,-4.06844 -0.85651,-8.27316 l 0,-23.78779 -5.1391,0 0,-5.45056 5.1391,0 0,-10.23926 6.96892,-4.20472 0,14.44398 7.0468,0 0,5.45056 -7.0468,0 0,24.17711 c -10e-6,1.99855 0.12328,3.28332 0.36986,3.85432 0.24656,0.57102 0.64887,1.02524 1.20691,1.36264 0.55802,0.33743 1.35614,0.50613 2.39436,0.50613 0.77863,0 1.80385,-0.0908 3.07567,-0.27253 z"
         style="text-align:center;text-anchor:middle"
         id="path5254"
         inkscape:connector-curvature="0" />
      <path
         d="m 471.74235,396.42462 c -2.59553,2.20618 -5.0937,3.76348 -7.49452,4.6719 -2.40086,0.90843 -4.97689,1.36264 -7.72811,1.36264 -4.54214,0 -8.03309,-1.10958 -10.47285,-3.32873 -2.43978,-2.21915 -3.65967,-5.05474 -3.65966,-8.50676 -10e-6,-2.02448 0.46069,-3.87378 1.3821,-5.54789 0.9214,-1.67409 2.12831,-3.01726 3.62073,-4.02952 1.4924,-1.01223 3.17299,-1.7779 5.04176,-2.29702 1.37561,-0.36335 3.45201,-0.71374 6.22921,-1.05118 5.65818,-0.67481 9.82396,-1.47941 12.49735,-2.41382 0.0259,-0.96031 0.0389,-1.57025 0.0389,-1.82983 -4e-5,-2.85502 -0.66189,-4.86654 -1.98556,-6.03455 -1.79093,-1.58322 -4.45132,-2.37485 -7.98118,-2.37488 -3.29631,3e-5 -5.72959,0.57753 -7.29985,1.7325 -1.57029,1.15503 -2.73178,3.19899 -3.48447,6.13187 l -6.85213,-0.93438 c 0.62292,-2.93289 1.64814,-5.30128 3.07568,-7.10519 1.42751,-1.80384 3.49094,-3.19243 6.19027,-4.16578 2.69931,-0.97328 5.82689,-1.45993 9.38275,-1.45997 3.52986,4e-5 6.39789,0.41532 8.60409,1.24584 2.20615,0.8306 3.82834,1.87529 4.86657,3.13407 1.03817,1.25885 1.76491,2.8486 2.18022,4.76924 0.23356,1.19396 0.35036,3.34823 0.3504,6.4628 l 0,9.34381 c -4e-5,6.51473 0.1492,10.63509 0.44772,12.36109 0.29845,1.72601 0.88892,3.38064 1.77143,4.9639 l -7.31932,0 c -0.72677,-1.45348 -1.19396,-3.15353 -1.40157,-5.10016 z m -0.58399,-15.65089 c -2.54362,1.03822 -6.35901,1.92069 -11.44617,2.64741 -2.88102,0.4153 -4.91849,0.88249 -6.11241,1.40157 -1.19394,0.51912 -2.11535,1.27831 -2.76421,2.27756 -0.64889,0.99928 -0.97332,2.10886 -0.97331,3.32873 -10e-6,1.86877 0.70726,3.42607 2.12182,4.67191 1.41454,1.24585 3.48445,1.86877 6.20974,1.86876 2.6993,10e-6 5.10014,-0.59047 7.20252,-1.77143 2.10233,-1.18095 3.64666,-2.79665 4.63298,-4.8471 0.75266,-1.58325 1.12901,-3.9192 1.12904,-7.00786 z"
         style="text-align:center;text-anchor:middle"
         id="path5256"
         inkscape:connector-curvature="0" />
      <path
         d="m 504.4457,395.25664 1.01225,6.19028 c -1.9726,0.41528 -3.73754,0.62292 -5.29483,0.62292 -2.54361,0 -4.51619,-0.40231 -5.91775,-1.20691 -1.40158,-0.80461 -2.38787,-1.86227 -2.95887,-3.17301 -0.57102,-1.31072 -0.85652,-4.06844 -0.85652,-8.27316 l 0,-23.78779 -5.13909,0 0,-5.45056 5.13909,0 0,-10.23926 6.96893,-4.20472 0,14.44398 7.04679,0 0,5.45056 -7.04679,0 0,24.17711 c -10e-6,1.99855 0.12327,3.28332 0.36986,3.85432 0.24656,0.57102 0.64886,1.02524 1.20691,1.36264 0.55802,0.33743 1.35613,0.50613 2.39435,0.50613 0.77863,0 1.80386,-0.0908 3.07567,-0.27253 z"
         style="text-align:center;text-anchor:middle"
         id="path5258"
         inkscape:connector-curvature="0" />
      <path
         d="m 539.56285,388.20985 7.24146,0.89545 c -1.14206,4.23067 -3.2574,7.51398 -6.34601,9.84993 -3.08868,2.33596 -7.03384,3.50393 -11.83549,3.50393 -6.04754,0 -10.84273,-1.86227 -14.38558,-5.58682 -3.54287,-3.72454 -5.3143,-8.94799 -5.3143,-15.67035 0,-6.95593 1.7909,-12.35457 5.3727,-16.19595 3.58178,-3.8413 8.22773,-5.76197 13.93785,-5.76201 5.5284,4e-5 10.04457,1.88178 13.54853,5.64522 3.50389,3.76351 5.25585,9.05833 5.25589,15.88448 -4e-5,0.4153 -0.013,1.03822 -0.0389,1.86876 l -30.83458,0 c 0.25954,4.54215 1.54431,8.02012 3.85432,10.43393 2.30998,2.41382 5.19099,3.62073 8.64303,3.62072 2.56952,1e-5 4.76272,-0.67482 6.5796,-2.02449 1.81682,-1.34965 3.25732,-3.50392 4.32151,-6.4628 z m -23.00914,-11.32938 23.08701,0 c -0.31149,-3.47794 -1.19397,-6.08642 -2.64741,-7.82544 -2.23217,-2.69929 -5.12615,-4.04895 -8.68196,-4.04899 -3.21845,4e-5 -5.92426,1.07717 -8.11744,3.23141 -2.19321,2.1543 -3.40661,5.0353 -3.6402,8.64302 z"
         style="text-align:center;text-anchor:middle"
         id="path5260"
         inkscape:connector-curvature="0" />
      <path
         d="m 616.10428,344.44966 7.55291,0 0,32.97587 c -5e-5,5.73608 -0.64892,10.29118 -1.94662,13.66533 -1.2978,3.37416 -3.64024,6.1189 -7.02733,8.23423 -3.38717,2.11534 -7.83197,3.173 -13.3344,3.173 -5.34676,0 -9.72018,-0.9214 -13.12027,-2.76421 -3.40012,-1.8428 -5.82692,-4.50968 -7.28039,-8.00064 -1.45349,-3.49094 -2.18023,-8.26017 -2.18022,-14.30771 l 0,-32.97587 7.55291,0 0,32.93694 c -10e-6,4.95743 0.46069,8.6106 1.38211,10.95951 0.92139,2.34894 2.50464,4.1593 4.74977,5.43109 2.24509,1.27181 4.98983,1.9077 8.23424,1.9077 5.55434,0 9.51248,-1.25882 11.87443,-3.77646 2.36186,-2.51763 3.54282,-7.35824 3.54286,-14.52184 z"
         style="text-align:center;text-anchor:middle"
         id="path5262"
         inkscape:connector-curvature="0" />
      <path
         d="m 635.37589,401.52478 0,-41.34637 6.30707,0 0,5.87881 c 3.03673,-4.54209 7.42313,-6.81315 13.15921,-6.81319 2.49165,4e-5 4.78218,0.44776 6.87159,1.34317 2.08935,0.89549 3.65314,2.06995 4.69138,3.5234 1.03816,1.45351 1.7649,3.17952 2.18022,5.17803 0.25951,1.29778 0.38929,3.56884 0.38933,6.81319 l 0,25.42296 -7.00786,0 0,-25.15043 c -4e-5,-2.85503 -0.27256,-4.98983 -0.81759,-6.40441 -0.54508,-1.41451 -1.51191,-2.54355 -2.90047,-3.38713 -1.38862,-0.8435 -3.0173,-1.26527 -4.88604,-1.26531 -2.98485,4e-5 -5.56088,0.9474 -7.72811,2.84208 -2.16726,1.89475 -3.25088,5.48952 -3.25087,10.78432 l 0,22.58088 z"
         style="text-align:center;text-anchor:middle"
         id="path5264"
         inkscape:connector-curvature="0" />
      <path
         d="m 679.79794,352.50869 0,-8.05903 7.00786,0 0,8.05903 z m 0,49.01609 0,-41.34637 7.00786,0 0,41.34637 z"
         style="text-align:center;text-anchor:middle"
         id="path5266"
         inkscape:connector-curvature="0" />
      <path
         d="m 708.99735,401.52478 -15.72875,-41.34637 7.39718,0 8.87662,24.7611 c 0.96032,2.67338 1.84279,5.45057 2.64742,8.33157 0.6229,-2.18021 1.49239,-4.80167 2.60848,-7.86438 l 9.18808,-25.22829 7.20252,0 -15.65088,41.34637 z"
         style="text-align:center;text-anchor:middle"
         id="path5268"
         inkscape:connector-curvature="0" />
      <path
         d="m 765.68315,388.20985 7.24146,0.89545 c -1.14206,4.23067 -3.2574,7.51398 -6.34601,9.84993 -3.08868,2.33596 -7.03384,3.50393 -11.83549,3.50393 -6.04754,0 -10.84273,-1.86227 -14.38558,-5.58682 -3.54287,-3.72454 -5.3143,-8.94799 -5.3143,-15.67035 0,-6.95593 1.7909,-12.35457 5.3727,-16.19595 3.58178,-3.8413 8.22773,-5.76197 13.93785,-5.76201 5.5284,4e-5 10.04457,1.88178 13.54853,5.64522 3.50389,3.76351 5.25585,9.05833 5.25589,15.88448 -4e-5,0.4153 -0.013,1.03822 -0.0389,1.86876 l -30.83458,0 c 0.25954,4.54215 1.54431,8.02012 3.85432,10.43393 2.30998,2.41382 5.19099,3.62073 8.64303,3.62072 2.56952,1e-5 4.76272,-0.67482 6.5796,-2.02449 1.81682,-1.34965 3.25733,-3.50392 4.32151,-6.4628 z m -23.00914,-11.32938 23.08701,0 c -0.31149,-3.47794 -1.19396,-6.08642 -2.64741,-7.82544 -2.23217,-2.69929 -5.12615,-4.04895 -8.68196,-4.04899 -3.21845,4e-5 -5.92426,1.07717 -8.11744,3.23141 -2.19321,2.1543 -3.40661,5.0353 -3.6402,8.64302 z"
         style="text-align:center;text-anchor:middle"
         id="path5270"
         inkscape:connector-curvature="0" />
      <path
         d="m 781.68444,401.52478 0,-41.34637 6.30707,0 0,6.26814 c 1.6092,-2.93288 3.09513,-4.86653 4.45778,-5.80095 1.36262,-0.93434 2.86152,-1.40153 4.49671,-1.40157 2.36189,4e-5 4.76272,0.75273 7.20252,2.25808 l -2.41381,6.50174 c -1.71306,-1.01221 -3.42609,-1.51833 -5.1391,-1.51837 -1.53137,4e-5 -2.90698,0.46074 -4.12685,1.38211 -1.2199,0.92143 -2.0894,2.19972 -2.60848,3.83485 -0.77867,2.49171 -1.16799,5.21699 -1.16798,8.17584 l 0,21.6465 z"
         style="text-align:center;text-anchor:middle"
         id="path5272"
         inkscape:connector-curvature="0" />
      <path
         d="m 805.58904,389.18316 6.93,-1.09011 c 0.38931,2.7772 1.47294,4.90551 3.25087,6.38494 1.7779,1.47944 4.26309,2.21916 7.45558,2.21915 3.2184,1e-5 5.60626,-0.65536 7.16359,-1.96609 1.55727,-1.31072 2.33592,-2.84856 2.33595,-4.61351 -3e-5,-1.58324 -0.68783,-2.82908 -2.06342,-3.73752 -0.96036,-0.62291 -3.34823,-1.41454 -7.16359,-2.37489 -5.13911,-1.29773 -8.70144,-2.42029 -10.68699,-3.36767 -1.98557,-0.94733 -3.49096,-2.25806 -4.51617,-3.93218 -1.02523,-1.67408 -1.53784,-3.52337 -1.53784,-5.54789 0,-1.84278 0.42177,-3.54932 1.26531,-5.11963 0.84353,-1.57025 1.99204,-2.87448 3.44553,-3.91272 1.0901,-0.80457 2.57603,-1.48589 4.45778,-2.04396 1.88172,-0.558 3.89972,-0.83701 6.05401,-0.83705 3.24436,4e-5 6.09292,0.46723 8.54569,1.40157 2.45273,0.93442 4.26309,2.19973 5.4311,3.79592 1.16794,1.59627 1.97254,3.73107 2.41381,6.40441 l -6.85213,0.93438 c -0.31148,-2.12828 -1.21342,-3.7894 -2.70581,-4.98337 -1.49244,-1.19389 -3.60128,-1.79086 -6.32654,-1.7909 -3.21844,4e-5 -5.51546,0.53212 -6.89106,1.59624 -1.37563,1.06419 -2.06344,2.31003 -2.06343,3.73752 -1e-5,0.90846 0.2855,1.72604 0.85652,2.45276 0.571,0.75272 1.46645,1.37564 2.68635,1.86876 0.70077,0.25957 2.76419,0.85654 6.19027,1.7909 4.95739,1.32373 8.4159,2.40735 10.37553,3.25086 1.95957,0.84356 3.49741,2.06994 4.61351,3.67913 1.11603,1.60923 1.67406,3.60776 1.6741,5.99561 -4e-5,2.33597 -0.68136,4.53565 -2.04396,6.59907 -1.36268,2.06343 -3.32877,3.65966 -5.89828,4.78871 -2.56958,1.12904 -5.47654,1.69356 -8.7209,1.69356 -5.3727,0 -9.46711,-1.11606 -12.28322,-3.3482 -2.81612,-2.23213 -4.61351,-5.54139 -5.39216,-9.9278 z"
         style="text-align:center;text-anchor:middle"
         id="path5274"
         inkscape:connector-curvature="0" />
      <path
         d="m 848.298,352.50869 0,-8.05903 7.00786,0 0,8.05903 z m 0,49.01609 0,-41.34637 7.00786,0 0,41.34637 z"
         style="text-align:center;text-anchor:middle"
         id="path5276"
         inkscape:connector-curvature="0" />
      <path
         d="m 881.31286,395.25664 1.01225,6.19028 c -1.97261,0.41528 -3.73755,0.62292 -5.29483,0.62292 -2.54361,0 -4.51619,-0.40231 -5.91775,-1.20691 -1.40158,-0.80461 -2.38787,-1.86227 -2.95887,-3.17301 -0.57102,-1.31072 -0.85653,-4.06844 -0.85652,-8.27316 l 0,-23.78779 -5.1391,0 0,-5.45056 5.1391,0 0,-10.23926 6.96893,-4.20472 0,14.44398 7.04679,0 0,5.45056 -7.04679,0 0,24.17711 c -2e-5,1.99855 0.12327,3.28332 0.36986,3.85432 0.24656,0.57102 0.64886,1.02524 1.20691,1.36264 0.55801,0.33743 1.35613,0.50613 2.39435,0.50613 0.77863,0 1.80385,-0.0908 3.07567,-0.27253 z"
         style="text-align:center;text-anchor:middle"
         id="path5278"
         inkscape:connector-curvature="0" />
      <path
         d="m 887.81455,417.4482 -0.77865,-6.57961 c 1.53134,0.41527 2.86803,0.62291 4.01005,0.62292 1.5573,-1e-5 2.80314,-0.25956 3.73753,-0.77865 0.93437,-0.51911 1.70004,-1.24585 2.29702,-2.18022 0.44122,-0.70079 1.15498,-2.43978 2.14129,-5.21696 0.12976,-0.38933 0.3374,-0.96034 0.62292,-1.71303 l -15.68982,-41.42424 7.55292,0 8.60409,23.94352 c 1.11605,3.03675 2.11532,6.22922 2.99781,9.57741 0.80458,-3.21842 1.76492,-6.35897 2.88101,-9.42168 l 8.83769,-24.09925 7.00786,0 -15.72875,42.04716 c -1.6871,4.54212 -2.99783,7.6697 -3.93219,9.38274 -1.24586,2.30999 -2.67339,4.00355 -4.28258,5.0807 -1.60923,1.07712 -3.5299,1.61568 -5.76202,1.6157 -1.34967,-2e-5 -2.85506,-0.28552 -4.51618,-0.85651 z"
         style="text-align:center;text-anchor:middle"
         id="path5280"
         inkscape:connector-curvature="0" />
    </g>
    <g
       transform="scale(1.0097094,0.99038397)"
       style="font-size:187.50398254px;font-style:normal;font-variant:normal;font-weight:normal;font-stretch:normal;line-height:125%;letter-spacing:0px;word-spacing:0px;fill:#ffffff;fill-opacity:1;stroke:#000000;stroke-width:4.00000048;stroke-miterlimit:4;stroke-opacity:1;font-family:Arial;-inkscape-font-specification:Arial"
       id="text3759-1-9">
      <path
         d="m 11.604083,616.01349 0,-157.11193 58.943767,0 c 12.003007,1.5e-4 21.63048,1.58985 28.882446,4.76908 7.251754,3.17954 12.931784,8.07366 17.040104,14.68236 4.10808,6.60898 6.16218,13.52147 6.16231,20.73749 -1.3e-4,6.71613 -1.82203,13.03918 -5.4657,18.96918 -3.64391,5.93019 -9.14533,10.71713 -16.50425,14.36084 9.50233,2.78651 16.80778,7.53773 21.91636,14.25368 5.10833,6.71607 7.66256,14.64668 7.66269,23.79184 -1.3e-4,7.35908 -1.55411,14.20012 -4.66192,20.52315 -3.10807,6.32308 -6.94834,11.19933 -11.52082,14.62877 -4.57272,3.42946 -10.30634,6.01942 -17.200866,7.76986 -6.894729,1.75045 -15.343327,2.62568 -25.34582,2.62568 z m 20.791074,-91.09491 33.973044,0 c 9.216582,9e-5 15.825422,-0.60721 19.82654,-1.8219 5.286981,-1.57174 9.270147,-4.17955 11.949509,-7.82345 2.67916,-3.64369 4.01879,-8.21629 4.01889,-13.71782 -1e-4,-5.21551 -1.25042,-9.80597 -3.750964,-13.77141 -2.500745,-3.96517 -6.073091,-6.68016 -10.717048,-8.14495 -4.644142,-1.46453 -12.610474,-2.19686 -23.899019,-2.197 l -31.400952,0 z m 0,72.55441 39.117227,0 c 6.715935,2e-5 11.431431,-0.25004 14.146504,-0.75019 4.786854,-0.85734 8.787881,-2.28628 12.003095,-4.28682 3.215007,-2.00049 5.858547,-4.91195 7.930617,-8.73439 2.07185,-3.82238 3.10783,-8.23423 3.10794,-13.23556 -1.1e-4,-5.8586 -1.5005,-10.94919 -4.50116,-15.27179 -3.00088,-4.32248 -7.16266,-7.35897 -12.485359,-9.10949 -5.322892,-1.75038 -12.985574,-2.62561 -22.988069,-2.62568 l -36.330795,0 z"
         style="font-size:219.4851532px"
         id="path5283"
         inkscape:connector-curvature="0" />
      <path
         d="m 231.19641,616.01349 0,-16.7186 c -8.85951,12.86047 -20.89832,19.29069 -36.11646,19.29069 -6.71606,0 -12.98553,-1.28605 -18.80842,-3.85814 -5.82296,-2.57208 -10.14549,-5.80506 -12.96763,-9.69893 -2.82217,-3.89384 -4.80482,-8.66292 -5.94796,-14.30726 -0.78593,-3.78666 -1.17889,-9.7882 -1.17887,-18.00464 l 0,-70.51818 19.29068,0 0,63.12342 c -3e-5,10.07407 0.39293,16.86152 1.17888,20.36239 1.21456,5.07276 3.78665,9.05593 7.71627,11.94951 3.92954,2.89362 8.78793,4.34042 14.57519,4.34041 5.78714,10e-6 11.21711,-1.48251 16.28991,-4.44758 5.07266,-2.96503 8.66287,-7.00178 10.77064,-12.11026 2.1076,-5.10843 3.16144,-12.52105 3.16153,-22.23788 l 0,-60.98001 19.29068,0 0,113.81506 z"
         style="font-size:219.4851532px"
         id="path5285"
         inkscape:connector-curvature="0" />
      <path
         d="m 353.04924,574.32417 18.96918,2.46492 c -2.07207,13.07483 -7.377,23.3096 -15.91482,30.70435 -8.538,7.39476 -19.02283,11.09214 -31.45454,11.09214 -15.57549,0 -28.09656,-5.0906 -37.56325,-15.27179 -9.46674,-10.18118 -14.2001,-24.77421 -14.20009,-43.77915 -10e-6,-12.28881 2.03623,-23.04157 6.10872,-32.25831 4.07246,-9.21657 10.27048,-16.12906 18.59408,-20.73749 8.32353,-4.60822 17.37943,-6.91238 27.16771,-6.9125 12.36026,1.2e-4 22.47,3.12592 30.32925,9.37742 7.85907,6.25171 12.89608,15.12899 15.11104,26.63187 l -18.75484,2.8936 c -1.78626,-7.64474 -4.94778,-13.39622 -9.48458,-17.25445 -4.53696,-3.85804 -10.02051,-5.78711 -16.45067,-5.78721 -9.71685,10e-5 -17.61173,3.48314 -23.68468,10.44913 -6.07303,6.96616 -9.10952,17.98685 -9.10949,33.06209 -3e-5,15.2897 2.92929,26.39969 8.78798,33.33002 5.85861,6.93038 13.50343,10.39555 22.93448,10.39554 7.57332,1e-5 13.89637,-2.32201 18.96918,-6.96608 5.07265,-4.64403 8.28776,-11.78872 9.64534,-21.4341 z"
         style="font-size:219.4851532px"
         id="path5287"
         inkscape:connector-curvature="0" />
      <path
         d="m 388.62985,616.01349 0,-157.11193 19.29069,0 0,89.59452 45.65462,-46.29765 24.97073,0 -43.51122,42.22517 47.90521,71.58989 -23.79185,0 -37.61684,-58.19357 -13.61065,13.07479 0,45.11878 z"
         style="font-size:219.4851532px"
         id="path5289"
         inkscape:connector-curvature="0" />
      <path
         d="m 576.17821,579.36118 19.93371,2.46492 c -3.14378,11.64589 -8.9667,20.68392 -17.46879,27.11414 -8.50228,6.43023 -19.36221,9.64534 -32.57983,9.64534 -16.64719,0 -29.84701,-5.12632 -39.59949,-15.37896 -9.75253,-10.25262 -14.62878,-24.63132 -14.62878,-43.13612 0,-19.14772 4.92983,-34.00868 14.78953,-44.58293 9.85965,-10.57404 22.64865,-15.86111 38.36704,-15.86123 15.21813,1.2e-4 27.64989,5.18002 37.29532,15.53972 9.64524,10.35991 14.46791,24.93508 14.46802,43.72556 -1.1e-4,1.14321 -0.0358,2.85793 -0.10717,5.14418 l -84.87903,0 c 0.71445,12.50327 4.25107,22.07715 10.60988,28.72169 6.35874,6.64459 14.28935,9.96687 23.79185,9.96686 7.07318,1e-5 13.11045,-1.85761 18.11181,-5.57287 5.00121,-3.71522 8.96651,-9.64531 11.89593,-17.7903 z m -63.33776,-31.18661 63.5521,0 c -0.85746,-9.57382 -3.28665,-16.75423 -7.2876,-21.54127 -6.14452,-7.43039 -14.11085,-11.14563 -23.89901,-11.14573 -8.85948,10e-5 -16.30782,2.96515 -22.34505,8.89515 -6.0373,5.93019 -9.37745,13.8608 -10.02044,23.79185 z"
         style="font-size:219.4851532px"
         id="path5291"
         inkscape:connector-curvature="0" />
      <path
         d="m 619.58228,659.84622 -2.14341,-18.11181 c 4.21535,1.14312 7.89487,1.7147 11.03856,1.71472 4.28679,-2e-5 7.71624,-0.71449 10.28836,-2.14341 2.57206,-1.42896 4.67974,-3.42947 6.32306,-6.00154 1.21456,-1.92909 3.17935,-6.71603 5.89438,-14.36085 0.35719,-1.07171 0.92876,-2.64354 1.71473,-4.7155 l -43.18971,-114.0294 20.79108,0 23.68467,65.90985 c 3.07217,8.35934 5.82288,17.14731 8.25213,26.36394 2.2148,-8.8594 4.85833,-17.50447 7.93062,-25.93526 l 24.3277,-66.33853 19.29068,0 -43.29687,115.74413 c -4.64412,12.50321 -8.25219,21.11256 -10.82422,25.82808 -3.42951,6.35875 -7.35909,11.02066 -11.78875,13.98575 -4.42976,2.96501 -9.71683,4.44753 -15.86124,4.44758 -3.71526,-5e-5 -7.85918,-0.78596 -12.43177,-2.35775 z"
         style="font-size:219.4851532px"
         id="path5293"
         inkscape:connector-curvature="0" />
      <path
         d="m 808.09514,579.36118 19.93371,2.46492 c -3.14378,11.64589 -8.9667,20.68392 -17.46879,27.11414 -8.50228,6.43023 -19.36221,9.64534 -32.57983,9.64534 -16.64719,0 -29.84701,-5.12632 -39.59949,-15.37896 -9.75253,-10.25262 -14.62878,-24.63132 -14.62877,-43.13612 -10e-6,-19.14772 4.92983,-34.00868 14.78952,-44.58293 9.85965,-10.57404 22.64865,-15.86111 38.36704,-15.86123 15.21813,1.2e-4 27.64989,5.18002 37.29533,15.53972 9.64523,10.35991 14.4679,24.93508 14.46801,43.72556 -1.1e-4,1.14321 -0.0358,2.85793 -0.10717,5.14418 l -84.87902,0 c 0.71444,12.50327 4.25106,22.07715 10.60987,28.72169 6.35874,6.64459 14.28935,9.96687 23.79185,9.96686 7.07318,1e-5 13.11045,-1.85761 18.11181,-5.57287 5.00121,-3.71522 8.96651,-9.64531 11.89593,-17.7903 z m -63.33776,-31.18661 63.5521,0 c -0.85746,-9.57382 -3.28665,-16.75423 -7.28759,-21.54127 -6.14452,-7.43039 -14.11086,-11.14563 -23.89902,-11.14573 -8.85948,10e-5 -16.30782,2.96515 -22.34505,8.89515 -6.0373,5.93019 -9.37745,13.8608 -10.02044,23.79185 z"
         style="font-size:219.4851532px"
         id="path5295"
         inkscape:connector-curvature="0" />
      <path
         d="m 844.64024,582.04045 19.07634,-3.00078 c 1.07168,7.64486 4.05459,13.50351 8.94874,17.57596 4.89408,4.07249 11.73512,6.10873 20.52315,6.10872 8.85936,1e-5 15.43248,-1.80402 19.71937,-5.41211 4.28674,-3.60805 6.43014,-7.84128 6.43022,-12.6997 -8e-5,-4.35823 -1.89342,-7.78769 -5.68003,-10.28837 -2.64361,-1.71468 -9.21673,-3.89382 -19.71937,-6.5374 -14.14655,-3.5723 -23.95264,-6.66238 -29.4183,-9.27025 -5.46571,-2.60775 -9.60964,-6.21582 -12.43177,-10.82422 -2.82217,-4.60825 -4.23325,-9.69885 -4.23324,-15.27179 -1e-5,-5.07265 1.161,-9.77028 3.48304,-14.09292 2.32201,-4.32244 5.48354,-7.91265 9.48459,-10.77063 3.00075,-2.21475 7.09108,-4.09023 12.27102,-5.62645 5.17987,-1.536 10.73486,-2.30405 16.66501,-2.30417 8.93081,1.2e-4 16.77211,1.28616 23.52392,3.85814 6.75166,2.5722 11.73508,6.05524 14.95028,10.44912 3.21503,4.39409 5.42988,10.2706 6.64457,17.62955 l -18.862,2.57209 c -0.85744,-5.85857 -3.34022,-10.43117 -7.44835,-13.71782 -4.10827,-3.28647 -9.91333,-4.92975 -17.4152,-4.92985 -8.85947,10e-5 -15.18253,1.46477 -18.96918,4.39399 -3.78672,2.92942 -5.68006,6.35888 -5.68003,10.28837 -3e-5,2.50073 0.78588,4.75131 2.35775,6.75174 1.5718,2.07204 4.03672,3.78677 7.39476,5.14418 1.92903,0.71455 7.60906,2.35783 17.04011,4.92985 13.6463,3.64386 23.1666,6.62677 28.56093,8.94873 5.39416,2.32209 9.62739,5.69795 12.6997,10.12761 3.07212,4.42976 4.60823,9.93117 4.60833,16.50426 -10e-5,6.43025 -1.87558,12.48538 -5.62645,18.16539 -3.75106,5.68005 -9.16316,10.07404 -16.23632,13.18197 -7.07333,3.10795 -15.07538,4.66192 -24.00619,4.66192 -14.78957,0 -26.06032,-3.07222 -33.81229,-9.21666 -7.75201,-6.14443 -12.69971,-15.25391 -14.84311,-27.32847 z"
         style="font-size:219.4851532px"
         id="path5297"
         inkscape:connector-curvature="0" />
    </g>
    <g
       transform="scale(1.0124856,0.98766837)"
       style="font-size:121.11334229px;font-style:normal;font-variant:normal;font-weight:normal;font-stretch:normal;line-height:125%;letter-spacing:0px;word-spacing:0px;fill:#ffffff;fill-opacity:1;stroke:#000000;stroke-width:4.00000048;stroke-miterlimit:4;stroke-opacity:1;font-family:Arial;-inkscape-font-specification:Arial"
       id="text3759-1-1-4">
      <path
         d="m 25.267102,782.79736 0,-101.48237 20.213406,0 24.020725,71.8545 c 2.215111,6.69168 3.830336,11.69888 4.84568,15.02161 1.153672,-3.69193 2.953494,-9.11447 5.399471,-16.26764 l 24.297626,-70.60847 18.06746,0 0,101.48237 -12.94489,0 0,-84.93784 -29.48942,84.93784 -12.114199,0 -29.350972,-86.39154 0,86.39154 z"
         style="font-size:141.77073669px"
         id="path5300"
         inkscape:connector-curvature="0" />
      <path
         d="m 192.65072,759.12276 12.87566,1.59215 c -2.03064,7.52235 -5.79181,13.36024 -11.28351,17.51367 -5.49183,4.15344 -12.50652,6.23016 -21.04409,6.23016 -10.75283,0 -19.27891,-3.31121 -25.57827,-9.93364 -6.29939,-6.62242 -9.44908,-15.90996 -9.44907,-27.86266 -1e-5,-12.36797 3.18429,-21.96702 9.55291,-28.79718 6.36858,-6.83003 14.6293,-10.24508 24.78219,-10.24515 9.82975,7e-5 17.85973,3.3459 24.08995,10.03748 6.23008,6.69171 9.34516,16.10616 9.34523,28.24339 -7e-5,0.73842 -0.0231,1.846 -0.0692,3.32275 l -54.8254,0 c 0.46147,8.07615 2.74586,14.26016 6.85317,18.55203 4.10726,4.2919 9.22984,6.43784 15.36773,6.43783 4.56874,1e-5 8.46835,-1.19987 11.69885,-3.59965 3.2304,-2.39975 5.79169,-6.23014 7.68387,-11.49118 z m -40.91138,-20.14418 41.04983,0 c -0.55386,-6.18396 -2.12293,-10.82197 -4.70724,-13.91403 -3.96889,-4.79946 -9.11453,-7.19923 -15.43695,-7.19929 -5.72255,6e-5 -10.53361,1.91526 -14.4332,5.74559 -3.89964,3.83045 -6.05712,8.95302 -6.47244,15.36773 z"
         style="font-size:141.77073669px"
         id="path5302"
         inkscape:connector-curvature="0" />
      <path
         d="m 221.24023,782.79736 0,-73.51588 11.21428,0 0,10.45283 c 5.39945,-8.07607 13.19868,-12.11413 23.39771,-12.1142 4.43029,7e-5 8.50296,0.79615 12.21804,2.38823 3.71496,1.59222 6.49545,3.68047 8.34149,6.26477 1.84591,2.58442 3.13809,5.65335 3.87654,9.20679 0.46143,2.30752 0.69217,6.34558 0.69224,12.1142 l 0,45.20326 -12.46032,0 0,-44.7187 c -5e-5,-5.07637 -0.48462,-8.87215 -1.4537,-11.38734 -0.96919,-2.51508 -2.68825,-4.52258 -5.15719,-6.02249 -2.46903,-1.49979 -5.3649,-2.24972 -8.68761,-2.24978 -5.30721,6e-5 -9.88752,1.68451 -13.74096,5.05335 -3.85349,3.36896 -5.78023,9.76063 -5.7802,19.17505 l 0,40.14991 z"
         style="font-size:141.77073669px"
         id="path5304"
         inkscape:connector-curvature="0" />
      <path
         d="m 300.2248,717.24224 -3.18431,-18.96737 0,-16.95988 14.19092,0 0,16.95988 -3.32275,18.96737 z"
         style="font-size:141.77073669px"
         id="path5306"
         inkscape:connector-curvature="0" />
      <path
         d="m 322.30725,760.85336 12.32187,-1.93827 c 0.69222,4.93799 2.61895,8.72223 5.7802,11.35273 3.1612,2.63052 7.58,3.94578 13.2564,3.94577 5.72247,1e-5 9.9682,-1.16526 12.73721,-3.49581 2.76891,-2.33053 4.15339,-5.06488 4.15344,-8.20305 -5e-5,-2.81508 -1.22301,-5.03025 -3.66887,-6.6455 -1.70757,-1.10756 -5.95331,-2.51511 -12.73722,-4.22266 -9.13759,-2.30744 -15.47158,-4.30339 -19.00198,-5.98788 -3.53044,-1.68441 -6.2071,-4.01495 -8.02999,-6.99162 -1.8229,-2.97659 -2.73435,-6.26472 -2.73434,-9.86442 -10e-6,-3.27655 0.74992,-6.31086 2.24978,-9.10296 1.49984,-2.79196 3.54195,-5.11097 6.12632,-6.95701 1.93825,-1.43055 4.5803,-2.64197 7.92615,-3.63426 3.3458,-0.99213 6.9339,-1.48824 10.76433,-1.48831 5.76862,7e-5 10.83351,0.83076 15.19466,2.49206 4.36106,1.66145 7.57998,3.91123 9.65675,6.74934 2.07666,2.83825 3.50729,6.63403 4.29189,11.38735 l -12.18342,1.66137 c -0.55385,-3.78419 -2.15753,-6.73774 -4.81107,-8.86067 -2.65363,-2.1228 -6.40326,-3.18424 -11.2489,-3.1843 -5.72255,6e-5 -9.80676,0.94612 -12.25265,2.83818 -2.44593,1.89218 -3.66889,4.10735 -3.66887,6.64551 -2e-5,1.61528 0.50763,3.06898 1.52293,4.36111 1.01526,1.33838 2.60741,2.44596 4.77645,3.32275 1.24601,0.46154 4.91488,1.52297 11.00662,3.1843 8.81448,2.35366 14.96387,4.28039 18.44819,5.78021 3.48422,1.49989 6.21857,3.68044 8.20305,6.54166 1.98435,2.86129 2.97656,6.41479 2.97663,10.6605 -7e-5,4.15345 -1.21149,8.06461 -3.63426,11.73346 -2.4229,3.66888 -5.91871,6.50706 -10.48744,8.51456 -4.56883,2.00749 -9.73755,3.01124 -15.50617,3.01124 -9.55294,0 -16.83299,-1.98442 -21.84017,-5.95326 -5.00721,-3.96884 -8.20305,-9.85287 -9.58752,-17.65212 z"
         style="font-size:141.77073669px"
         id="path5308"
         inkscape:connector-curvature="0" />
      <path
         d="m 439.78039,782.79736 0,-101.48237 68.46253,0 0,11.97575 -55.03308,0 0,31.42769 47.62611,0 0,11.97575 -47.62611,0 0,46.10318 z"
         style="font-size:141.77073669px"
         id="path5310"
         inkscape:connector-curvature="0" />
      <path
         d="m 519.52641,746.03942 c 0,-13.614 3.78424,-23.69762 11.35274,-30.25088 6.32243,-5.44555 14.02936,-8.16836 23.12081,-8.16843 10.10666,7e-5 18.36738,3.31128 24.78219,9.93364 6.41469,6.62249 9.62206,15.77158 9.62214,27.44731 -8e-5,9.46064 -1.41917,16.90222 -4.25728,22.32474 -2.83825,5.42256 -6.96861,9.63368 -12.39109,12.63338 -5.4226,2.99971 -11.34125,4.49956 -17.75596,4.49956 -10.29133,0 -18.60974,-3.29968 -24.95525,-9.89903 -6.34554,-6.59934 -9.5183,-16.10609 -9.5183,-28.52029 z m 12.80644,0 c -2e-5,9.41449 2.05363,16.4638 6.16094,21.14793 4.10726,4.68417 9.27598,7.02625 15.50617,7.02624 6.18397,1e-5 11.32961,-2.35361 15.43695,-7.06085 4.10723,-4.70721 6.16088,-11.88342 6.16094,-21.52866 -6e-5,-9.09137 -2.06524,-15.97915 -6.19555,-20.66336 -4.13041,-4.6841 -9.26452,-7.02617 -15.40234,-7.02624 -6.23019,7e-5 -11.39891,2.33061 -15.50617,6.99163 -4.10731,4.66113 -6.16096,11.6989 -6.16094,21.11331 z"
         style="font-size:141.77073669px"
         id="path5312"
         inkscape:connector-curvature="0" />
      <path
         d="m 598.44179,746.03942 c -10e-6,-13.614 3.78424,-23.69762 11.35273,-30.25088 6.32244,-5.44555 14.02937,-8.16836 23.12082,-8.16843 10.10665,7e-5 18.36737,3.31128 24.78219,9.93364 6.41468,6.62249 9.62206,15.77158 9.62213,27.44731 -7e-5,9.46064 -1.41916,16.90222 -4.25727,22.32474 -2.83825,5.42256 -6.96862,9.63368 -12.3911,12.63338 -5.4226,2.99971 -11.34124,4.49956 -17.75595,4.49956 -10.29133,0 -18.60974,-3.29968 -24.95525,-9.89903 -6.34554,-6.59934 -9.51831,-16.10609 -9.5183,-28.52029 z m 12.80644,0 c -2e-5,9.41449 2.05362,16.4638 6.16093,21.14793 4.10727,4.68417 9.27598,7.02625 15.50618,7.02624 6.18396,1e-5 11.32961,-2.35361 15.43695,-7.06085 4.10723,-4.70721 6.16087,-11.88342 6.16093,-21.52866 -6e-5,-9.09137 -2.06524,-15.97915 -6.19554,-20.66336 -4.13042,-4.6841 -9.26453,-7.02617 -15.40234,-7.02624 -6.2302,7e-5 -11.39891,2.33061 -15.50618,6.99163 -4.10731,4.66113 -6.16095,11.6989 -6.16093,21.11331 z"
         style="font-size:141.77073669px"
         id="path5314"
         inkscape:connector-curvature="0" />
      <path
         d="m 709.20017,771.6523 1.79982,11.00662 c -3.50738,0.73838 -6.64553,1.10758 -9.41446,1.10758 -4.52266,0 -8.03,-0.71532 -10.52205,-2.14594 -2.49208,-1.43063 -4.24575,-3.31121 -5.26102,-5.64176 -1.0153,-2.33053 -1.52294,-7.23389 -1.52293,-14.7101 l 0,-42.29586 -9.13756,0 0,-9.69136 9.13756,0 0,-18.20591 12.3911,-7.47619 0,25.6821 12.52954,0 0,9.69136 -12.52954,0 0,42.9881 c -3e-5,3.55352 0.21918,5.83791 0.65762,6.85318 0.4384,1.01529 1.15371,1.82291 2.14595,2.42284 0.99218,0.59995 2.41127,0.89992 4.25727,0.89991 1.38445,10e-6 3.20735,-0.16151 5.4687,-0.48457 z"
         style="font-size:141.77073669px"
         id="path5316"
         inkscape:connector-curvature="0" />
      <path
         d="m 732.80554,782.79736 -11.56041,0 0,-101.48237 12.46032,0 0,36.20415 c 5.261,-6.59928 11.97572,-9.89896 20.14418,-9.89903 4.52259,7e-5 8.80293,0.91152 12.84105,2.73435 4.03801,1.82296 7.36076,4.38425 9.96826,7.68386 2.60737,3.29974 4.64947,7.28011 6.12632,11.94114 1.47671,4.66113 2.21509,9.64525 2.21517,14.95238 -8e-5,12.59879 -3.11515,22.33629 -9.34524,29.21252 -6.23022,6.87626 -13.7064,10.31438 -22.42858,10.31438 -8.6761,0 -15.48312,-3.62272 -20.42107,-10.86817 z m -0.13845,-37.31173 c -2e-5,8.81455 1.19986,15.18315 3.59965,19.10582 3.92266,6.41477 9.22983,9.62215 15.92151,9.62214 5.44558,1e-5 10.15281,-2.36514 14.1217,-7.09546 3.96878,-4.73029 5.9532,-11.77959 5.95326,-21.14793 -6e-5,-9.59901 -1.90372,-16.68293 -5.71098,-21.25177 -3.80737,-4.56872 -8.41076,-6.85311 -13.81018,-6.85317 -5.44566,6e-5 -10.15289,2.36521 -14.1217,7.09546 -3.96886,4.73036 -5.95328,11.57199 -5.95326,20.52491 z"
         style="font-size:141.77073669px"
         id="path5318"
         inkscape:connector-curvature="0" />
      <path
         d="m 848.20193,773.72902 c -4.61499,3.9227 -9.05686,6.69166 -13.32562,8.30688 -4.26886,1.61523 -8.84917,2.42284 -13.74097,2.42284 -8.07615,0 -14.28323,-1.97288 -18.62125,-5.91865 -4.33804,-3.94576 -6.50706,-8.98757 -6.50706,-15.12544 0,-3.59963 0.81915,-6.88777 2.45746,-9.86442 1.63829,-2.9766 3.78423,-5.36483 6.43783,-7.16469 2.65357,-1.79978 5.64173,-3.16119 8.96451,-4.08421 2.44588,-0.64605 6.13783,-1.26907 11.07583,-1.86905 10.06051,-1.19984 17.46747,-2.63047 22.22091,-4.29189 0.0461,-1.70747 0.0692,-2.79198 0.0692,-3.25353 -6e-5,-5.07637 -1.17686,-8.65294 -3.53042,-10.72971 -3.18436,-2.81505 -7.91466,-4.2226 -14.19092,-4.22267 -5.861,7e-5 -10.1875,1.02689 -12.9795,3.08047 -2.79206,2.0537 -4.85724,5.68796 -6.19555,10.90278 l -12.18342,-1.66138 c 1.10757,-5.21481 2.93047,-9.42594 5.46869,-12.63338 2.5382,-3.20731 6.20707,-5.67629 11.00662,-7.40696 4.7995,-1.73053 10.36049,-2.59583 16.68298,-2.5959 6.27626,7e-5 11.37576,0.73846 15.2985,2.21517 3.92264,1.47685 6.80697,3.33435 8.653,5.57253 1.84591,2.2383 3.13809,5.06495 3.87655,8.47994 0.41527,2.12292 0.62294,5.95331 0.62301,11.49118 l 0,16.61376 c -7e-5,11.5835 0.26529,18.9097 0.79608,21.97861 0.53065,3.06894 1.58054,6.01096 3.14969,8.82606 l -13.01411,0 c -1.29224,-2.58436 -2.12293,-5.60713 -2.49206,-9.06834 z m -1.03836,-27.82804 c -4.52269,1.846 -11.30663,3.41508 -20.35186,4.70723 -5.1226,0.73842 -8.74532,1.5691 -10.86817,2.49206 -2.12289,0.92302 -3.76119,2.27288 -4.9149,4.0496 -1.15375,1.77678 -1.73062,3.74966 -1.7306,5.91866 -2e-5,3.32276 1.25755,6.09172 3.77271,8.30687 2.51511,2.21518 6.19552,3.32276 11.04123,3.32276 4.79949,0 9.0683,-1.04989 12.80643,-3.1497 3.73805,-2.09978 6.48393,-4.97257 8.23766,-8.61838 1.33827,-2.81509 2.00744,-6.96852 2.0075,-12.46032 z"
         style="font-size:141.77073669px"
         id="path5320"
         inkscape:connector-curvature="0" />
      <path
         d="m 878.86815,782.79736 0,-101.48237 12.46032,0 0,101.48237 z"
         style="font-size:141.77073669px"
         id="path5322"
         inkscape:connector-curvature="0" />
      <path
         d="m 910.43431,782.79736 0,-101.48237 12.46032,0 0,101.48237 z"
         style="font-size:141.77073669px"
         id="path5324"
         inkscape:connector-curvature="0" />
    </g>
  </g>
</svg>
