<?xml version="1.0" encoding="UTF-8" standalone="no"?>
<!-- Created with Inkscape (http://www.inkscape.org/) -->

<svg
   xmlns:dc="http://purl.org/dc/elements/1.1/"
   xmlns:cc="http://creativecommons.org/ns#"
   xmlns:rdf="http://www.w3.org/1999/02/22-rdf-syntax-ns#"
   xmlns:svg="http://www.w3.org/2000/svg"
   xmlns="http://www.w3.org/2000/svg"
   xmlns:sodipodi="http://sodipodi.sourceforge.net/DTD/sodipodi-0.dtd"
   xmlns:inkscape="http://www.inkscape.org/namespaces/inkscape"
   width="960"
   height="960"
   id="svg2"
   version="1.1"
   inkscape:version="0.48.4 r9939"
   sodipodi:docname="noauto.svg">
  <defs
     id="defs4" />
  <sodipodi:namedview
     id="base"
     pagecolor="#ffffff"
     bordercolor="#666666"
     borderopacity="1.0"
     inkscape:pageopacity="0.0"
     inkscape:pageshadow="2"
     inkscape:zoom="0.35"
     inkscape:cx="316.38235"
     inkscape:cy="520.00001"
     inkscape:document-units="px"
     inkscape:current-layer="layer21"
     showgrid="false"
     fit-margin-top="0"
     fit-margin-left="0"
     fit-margin-right="0"
     fit-margin-bottom="0"
     inkscape:window-width="1600"
     inkscape:window-height="847"
     inkscape:window-x="-8"
     inkscape:window-y="-8"
     inkscape:window-maximized="1" />
  <metadata
     id="metadata7">
    <rdf:RDF>
      <cc:Work
         rdf:about="">
        <dc:format>image/svg+xml</dc:format>
        <dc:type
           rdf:resource="http://purl.org/dc/dcmitype/StillImage" />
        <dc:title />
      </cc:Work>
    </rdf:RDF>
  </metadata>
  <g
     inkscape:label="Layer 1"
     inkscape:groupmode="layer"
     id="layer1"
     transform="translate(1.2218952e-5,-92.36217)"
     style="display:inline">
    <rect
       style="fill:#bb0000;fill-opacity:1;stroke:#ffffff;stroke-width:1.10000002;stroke-miterlimit:4;stroke-opacity:1;stroke-dasharray:none"
       id="rect2985"
       width="958.90002"
       height="958.90002"
       x="0.54997557"
       y="92.91217" />
    <g
       id="g3763"
       transform="matrix(3.034271,0,0,3.034271,2919.5498,-935.66864)">
      <g
         transform="translate(-1.2218952e-5,92.36217)"
         style="font-size:144px;font-style:normal;font-variant:normal;font-weight:normal;font-stretch:normal;line-height:125%;letter-spacing:0px;word-spacing:0px;fill:#666666;fill-opacity:1;stroke:#000000;stroke-width:1.31827378;stroke-miterlimit:4;stroke-opacity:1;font-family:FontAwesome;-inkscape-font-specification:FontAwesome"
         id="text3792">
        <path
           d="m -847.14198,415.42773 c -0.0938,3.62958 -1.35275,6.65644 -3.77688,9.08057 -2.42419,2.42418 -5.45104,3.68314 -9.08056,3.77687 -3.62957,-0.0937 -6.65642,-1.35268 -9.08057,-3.77687 -2.42417,-2.42414 -3.68313,-5.45099 -3.77687,-9.08057 0.0937,-3.6295 1.3527,-6.65636 3.77687,-9.08056 2.42414,-2.42412 5.451,-3.68307 9.08057,-3.77687 3.62952,0.0938 6.65637,1.35275 9.08056,3.77687 2.42413,2.4242 3.68308,5.45105 3.77688,9.08056 z m 2.89292,-25.71487 7.15195,-28.68816 c 0.16234,-0.47704 0.5407,-0.94915 1.13507,-1.41633 0.59427,-0.46699 1.15344,-0.71811 1.67749,-0.75336 l 61.7157,0 c 0.5239,0.0353 1.08306,0.28637 1.67749,0.75336 0.59421,0.46718 0.97257,0.93929 1.13508,1.41633 l 7.15195,28.68816 z m 110.25252,25.71487 c -0.0939,3.62958 -1.35286,6.65644 -3.77687,9.08057 -2.42431,2.42418 -5.45116,3.68314 -9.08056,3.77687 -3.62969,-0.0937 -6.65654,-1.35268 -9.08057,-3.77687 -2.42429,-2.42414 -3.68325,-5.45099 -3.77687,-9.08057 0.0936,-3.6295 1.35258,-6.65636 3.77687,-9.08056 2.42403,-2.42412 5.45088,-3.68307 9.08057,-3.77687 3.6294,0.0938 6.65625,1.35275 9.08056,3.77687 2.42401,2.4242 3.68297,5.45105 3.77687,9.08056 z m 12.85744,-7.71446 c -0.1274,-5.10944 -1.8819,-9.35507 -5.26351,-12.7369 -3.38193,-3.38171 -7.62756,-5.13622 -12.7369,-5.26351 l -2.25005,0 -8.4377,-33.67041 c -1.38465,-5.16967 -4.18048,-9.39521 -8.38747,-12.67664 -4.20725,-3.28121 -8.99195,-4.97544 -14.35412,-5.0827 l -61.7157,0 c -5.36233,0.10726 -10.14703,1.80149 -14.35412,5.08271 -4.20716,3.28143 -7.00298,7.50696 -8.38747,12.67663 l -8.43769,33.67041 -2.25005,0 c -5.10951,0.1273 -9.35514,1.8818 -12.73691,5.26352 -3.38177,3.38182 -5.13627,7.62745 -5.2635,12.73689 l 0,30.85785 c 0.0167,0.73999 0.26451,1.34937 0.74332,1.82817 0.4788,0.47881 1.08819,0.72659 1.82816,0.74332 l 7.71447,0 0,10.28595 c 0.11048,4.36951 1.61721,8.00575 4.52019,10.90873 2.90295,2.90295 6.53919,4.40968 10.90873,4.52019 4.36949,-0.11051 8.00573,-1.61723 10.90873,-4.52019 2.90293,-2.90298 4.40966,-6.53922 4.52019,-10.90873 l 0,-10.28595 82.2876,0 0,10.28595 c 0.11037,4.36951 1.6171,8.00575 4.5202,10.90873 2.90284,2.90295 6.53907,4.40968 10.90873,4.52019 4.36937,-0.11051 8.00561,-1.61723 10.90873,-4.52019 2.90281,-2.90298 4.40954,-6.53922 4.52019,-10.90873 l 0,-10.28595 7.71446,0 c 0.73981,-0.0167 1.3492,-0.26451 1.82817,-0.74333 0.47864,-0.47879 0.72641,-1.08818 0.74332,-1.82816 z"
           id="path3560"
           inkscape:connector-curvature="0" />
      </g>
      <g
         style="font-size:349.99139404px;font-style:normal;font-variant:normal;font-weight:normal;font-stretch:normal;line-height:125%;letter-spacing:0px;word-spacing:0px;fill:#666666;fill-opacity:1;stroke:#000000;stroke-width:1.31827378;stroke-miterlimit:4;stroke-opacity:1;font-family:FontAwesome;-inkscape-font-specification:FontAwesome"
         id="text3796">
        <path
           d="m -697.74885,497.77676 c -0.76522,30.2572 -11.14931,55.43617 -31.15229,75.53698 -20.00343,20.10091 -45.03591,30.53382 -75.09753,31.29878 -10.68128,-0.0407 -20.91074,-1.57061 -30.68843,-4.58984 -9.77792,-3.01918 -18.88434,-7.28349 -27.31928,-12.79294 l 147.26537,-147.07007 c 5.40747,8.3335 9.58226,17.3504 12.52439,27.05073 2.94164,9.70065 4.43089,19.88943 4.46777,30.56636 z M -892.8657,556.1751 c -5.50949,-8.42684 -9.77381,-17.54954 -12.79296,-27.36812 -3.01925,-9.8184 -4.54919,-20.1618 -4.58983,-31.03022 0.76493,-30.16337 11.14902,-55.28537 31.1523,-75.36609 20.00312,-20.08031 45.03561,-30.50508 75.09752,-31.27435 10.87628,0.0328 21.25223,1.579 31.12787,4.63867 9.87529,3.06012 19.03054,7.43836 27.46578,13.13474 z m 238.86678,-58.39834 c -1.07452,-42.58196 -15.72292,-78.02294 -43.94525,-106.32307 -28.22284,-28.29966 -63.5743,-42.98874 -106.0545,-44.0673 -42.4805,1.07856 -77.83197,15.76765 -106.05451,44.0673 -28.22263,28.30012 -42.87103,63.74111 -43.94523,106.32307 1.07421,42.67578 15.72261,78.17373 43.94523,106.49395 28.22253,28.32026 63.574,43.01749 106.05451,44.09174 42.4802,-1.07424 77.83167,-15.77147 106.0545,-44.09173 28.22233,-28.32023 42.87073,-63.81818 43.94525,-106.49396 z"
           id="path3563"
           inkscape:connector-curvature="0" />
      </g>
    </g>
  </g>
  <g
     inkscape:groupmode="layer"
     id="layer20"
     inkscape:label="Text"
     style="display:none">
    <text
       xml:space="preserve"
       style="font-size:150.67648315px;font-style:normal;font-variant:normal;font-weight:normal;font-stretch:normal;line-height:125%;letter-spacing:0px;word-spacing:0px;fill:#ffffff;fill-opacity:1;stroke:#000000;stroke-width:4;stroke-miterlimit:4;stroke-opacity:1;stroke-dasharray:none;display:inline;font-family:Arial;-inkscape-font-specification:Arial"
       x="23.631962"
       y="231.24963"
       id="text3755"
       sodipodi:linespacing="125%"
       transform="matrix(1.0000721,0,0,0.99992791,1.2218952e-5,-92.36217)"><tspan
         sodipodi:role="line"
         id="tspan3757"
         x="23.631962"
         y="231.24963"
         style="stroke:#000000;stroke-width:4;stroke-opacity:1">CHAMPIONS</tspan></text>
    <text
       xml:space="preserve"
       style="font-size:204.86422729px;font-style:normal;font-variant:normal;font-weight:normal;font-stretch:normal;line-height:125%;letter-spacing:0px;word-spacing:0px;fill:#ffffff;fill-opacity:1;stroke:#000000;stroke-width:3.99999976;stroke-miterlimit:4;stroke-opacity:1;stroke-dasharray:none;display:inline;font-family:Arial;-inkscape-font-specification:Arial"
       x="9.0152178"
       y="516.94342"
       id="text3759"
       sodipodi:linespacing="125%"
       transform="matrix(1.0042634,0,0,0.9957547,1.2218952e-5,-92.36217)"><tspan
         sodipodi:role="line"
         id="tspan3761"
         x="9.0152178"
         y="516.94342"
         style="stroke-width:3.99999976">don't drive</tspan></text>
    <text
       xml:space="preserve"
       style="font-size:187.72212219px;font-style:normal;font-variant:normal;font-weight:normal;font-stretch:normal;line-height:125%;letter-spacing:0px;word-spacing:0px;fill:#ffffff;fill-opacity:1;stroke:#000000;stroke-width:3.99999952;stroke-miterlimit:4;stroke-opacity:1;stroke-dasharray:none;display:inline;font-family:Arial;-inkscape-font-specification:Arial"
       x="4.1051621"
       y="761.12317"
       id="text3759-1"
       sodipodi:linespacing="125%"
       transform="matrix(1.0060304,0,0,0.99400574,1.2218952e-5,-92.36217)"><tspan
         sodipodi:role="line"
         id="tspan3761-7"
         x="4.1051621"
         y="761.12317"
         style="stroke:#000000;stroke-width:3.99999952;stroke-opacity:1">themselves</tspan></text>
    <text
       xml:space="preserve"
       style="font-size:184.84294128px;font-style:normal;font-variant:normal;font-weight:normal;font-stretch:normal;line-height:125%;letter-spacing:0px;word-spacing:0px;fill:#ffffff;fill-opacity:1;stroke:#000000;stroke-width:4;stroke-miterlimit:4;stroke-opacity:1;stroke-dasharray:none;display:inline;font-family:Arial;-inkscape-font-specification:Arial"
       x="13.685581"
       y="991.48444"
       id="text3759-1-1"
       sodipodi:linespacing="125%"
       transform="matrix(1.0063605,0,0,0.99367971,1.2218952e-5,-92.36217)"><tspan
         sodipodi:role="line"
         id="tspan3761-7-7"
         x="13.685581"
         y="991.48444"
         style="stroke:#000000;stroke-width:4;stroke-opacity:1">to the party</tspan></text>
  </g>
  <g
     inkscape:groupmode="layer"
     id="layer21"
     inkscape:label="PathsFromText"
     style="display:inline">
    <g
       transform="scale(1.0000721,0.99992791)"
       style="font-size:150.67648315px;font-style:normal;font-variant:normal;font-weight:normal;font-stretch:normal;line-height:125%;letter-spacing:0px;word-spacing:0px;fill:#ffffff;fill-opacity:1;stroke:#000000;stroke-width:4;stroke-miterlimit:4;stroke-opacity:1;display:inline;font-family:Arial;-inkscape-font-specification:Arial"
       id="text3755-6">
      <path
         d="m 112.21327,101.06453 14.27306,3.60506 c -2.99205,11.72257 -8.3751,20.66162 -16.14916,26.81717 -7.77424,6.15557 -17.277347,9.23335 -28.509346,9.23335 -11.624502,0 -21.078559,-2.36658 -28.362199,-7.09975 -7.283701,-4.73315 -12.826157,-11.58765 -16.627386,-20.56351 -3.801255,-8.97581 -5.701876,-18.613798 -5.701869,-28.913993 -7e-6,-11.232002 2.145855,-21.029397 6.437594,-29.392214 4.291711,-8.362649 10.398223,-14.714402 18.319553,-19.055278 7.921266,-4.34067 16.639599,-6.511057 26.155024,-6.511166 10.790565,1.09e-4 19.864499,2.746813 27.221829,8.24012 7.35715,5.493509 12.4827,13.218614 15.37665,23.175338 l -14.05235,3.310762 c -2.50155,-7.84765 -6.13112,-13.561776 -10.888728,-17.142393 -4.75776,-3.580432 -10.741651,-5.370695 -17.951691,-5.370792 -8.289218,9.7e-5 -15.217288,1.986553 -20.784231,5.959372 -5.567018,3.973003 -9.478619,9.307004 -11.734814,16.00202 -2.256247,6.695166 -3.384358,13.598712 -3.384335,20.710659 -2.3e-5,9.172084 1.336543,17.179215 4.009701,24.021425 2.673105,6.84226 6.829947,11.95555 12.470539,15.33986 5.640514,3.38435 11.747026,5.07652 18.319553,5.07651 7.994813,1e-5 14.763477,-2.30526 20.306006,-6.91582 5.54238,-4.61052 9.29458,-11.45276 11.2566,-20.52673 z"
         style="stroke:#000000"
         id="path5450"
         inkscape:connector-curvature="0" />
      <path
         d="m 144.58516,138.8808 0,-107.857289 14.27307,0 0,44.290646 56.06225,0 0,-44.290646 14.27306,0 0,107.857289 -14.27306,0 0,-50.8386 -56.06225,0 0,50.8386 z"
         style="stroke:#000000"
         id="path5452"
         inkscape:connector-curvature="0" />
      <path
         d="m 241.18585,138.8808 41.42132,-107.857289 15.37666,0 44.1435,107.857289 -16.25953,0 -12.58089,-32.66619 -45.09995,0 -11.84517,32.66619 z m 31.12117,-44.290648 36.56554,0 -11.2566,-29.870435 c -3.43343,-9.073859 -5.98394,-16.529198 -7.65154,-22.366041 -1.3734,6.915905 -3.3108,13.782665 -5.81222,20.600301 z"
         style="stroke:#000000"
         id="path5454"
         inkscape:connector-curvature="0" />
      <path
         d="m 353.23678,138.8808 0,-107.857289 21.48317,0 25.52966,76.368259 c 2.35426,7.11203 4.07095,12.43377 5.15007,15.96523 1.22615,-3.92385 3.13903,-9.68702 5.73866,-17.28954 l 25.82395,-75.043949 19.20242,0 0,107.857289 -13.75806,0 0,-90.273461 -31.34188,90.273461 -12.87519,0 -31.19474,-91.818484 0,91.818484 z"
         style="stroke:#000000"
         id="path5456"
         inkscape:connector-curvature="0" />
      <path
         d="m 479.34005,138.8808 0,-107.857289 40.68559,0 c 7.161,1.08e-4 12.62988,0.343446 16.40667,1.030015 5.29715,0.882976 9.73602,2.56288 13.31662,5.039716 3.58045,2.477041 6.46203,5.947207 8.64477,10.410509 2.18256,4.463486 3.27388,9.368314 3.27398,14.714501 -10e-5,9.172106 -2.91847,16.933997 -8.75513,23.285696 -5.83683,6.351807 -16.38221,9.527683 -31.63618,9.527639 l -27.66326,0 0,43.849213 z m 14.27306,-56.577255 27.88398,0 c 9.22103,5.6e-5 15.76897,-1.716634 19.64386,-5.150075 3.87474,-3.433319 5.81215,-8.264575 5.81223,-14.493783 -8e-5,-4.512366 -1.14045,-8.374919 -3.42112,-11.587669 -2.28082,-3.212575 -5.28503,-5.333913 -9.01264,-6.364022 -2.40343,-0.637533 -6.8423,-0.956347 -13.31662,-0.956442 l -27.58969,0 z"
         style="stroke:#000000"
         id="path5458"
         inkscape:connector-curvature="0" />
      <path
         d="m 582.4151,138.8808 0,-107.857289 14.27306,0 0,107.857289 z"
         style="stroke:#000000"
         id="path5460"
         inkscape:connector-curvature="0" />
      <path
         d="m 617.43561,86.350032 c -10e-6,-17.902571 4.80673,-31.918119 14.42021,-42.046684 9.61344,-10.128377 22.02266,-15.192612 37.22769,-15.192722 9.95674,1.1e-4 18.93258,2.378952 26.92753,7.136533 7.99479,4.757786 14.08904,11.391567 18.28277,19.901361 4.19352,8.509961 6.29034,18.160211 6.29045,28.95078 -1.1e-4,10.937821 -2.20728,20.72295 -6.62153,29.35543 -4.41445,8.63252 -10.6681,15.1682 -18.76098,19.60707 -8.09306,4.43887 -16.82365,6.65831 -26.19182,6.65831 -10.15305,0 -19.22698,-2.45242 -27.22182,-7.35725 -7.9949,-4.90482 -14.05237,-11.59991 -18.17241,-20.08529 -4.12007,-8.48533 -6.1801,-17.461166 -6.18009,-26.927538 z m 14.7145,0.220718 c -2e-5,12.997848 3.49467,23.23668 10.48408,30.71652 6.98935,7.47988 15.75673,11.21982 26.30217,11.21981 10.74152,1e-5 19.58247,-3.77671 26.52289,-11.33017 6.94025,-7.55341 10.41041,-18.270464 10.41051,-32.151183 -1e-4,-8.779589 -1.48381,-16.443384 -4.45114,-22.991407 -2.96751,-6.547869 -7.30828,-11.624366 -13.02233,-15.229507 -5.7142,-3.604957 -12.12727,-5.407482 -19.23921,-5.407579 -10.10401,9.7e-5 -18.79781,3.470263 -26.08145,10.410509 -7.28371,6.940419 -10.92554,18.528077 -10.92552,34.763007 z"
         style="stroke:#000000"
         id="path5462"
         inkscape:connector-curvature="0" />
      <path
         d="m 738.75669,138.8808 0,-107.857289 14.64092,0 56.65083,84.681949 0,-84.681949 13.68448,0 0,107.857289 -14.64092,0 -56.65083,-84.755523 0,84.755523 z"
         style="stroke:#000000"
         id="path5464"
         inkscape:connector-curvature="0" />
      <path
         d="m 842.93531,104.22815 13.46377,-1.17716 c 0.63761,5.39535 2.12132,9.82196 4.45114,13.27984 2.32977,3.45792 5.94708,6.25368 10.85194,8.38726 4.90479,2.13362 10.42273,3.20042 16.55381,3.20041 5.44431,1e-5 10.25104,-0.80929 14.42021,-2.4279 4.16904,-1.61858 7.27135,-3.83801 9.30693,-6.65831 2.03542,-2.82025 3.05318,-5.89803 3.05325,-9.23335 -7e-5,-3.3843 -0.98104,-6.33946 -2.9429,-8.86548 -1.962,-2.525952 -5.19919,-4.647291 -9.71157,-6.364025 -2.89391,-1.128066 -9.29471,-2.881542 -19.20242,-5.260434 -9.9078,-2.378792 -16.84813,-4.622751 -20.82102,-6.731884 -5.15009,-2.697599 -8.98812,-6.045145 -11.51409,-10.042646 -2.526,-3.997369 -3.789,-8.473025 -3.78899,-13.426982 -1e-5,-5.44428 1.54501,-10.533039 4.63507,-15.266294 3.09003,-4.733064 7.60247,-8.325851 13.53734,-10.778371 5.93481,-2.452309 12.53181,-3.678516 19.791,-3.678625 7.99483,1.09e-4 15.04552,1.287627 21.1521,3.862556 6.10644,2.575141 10.80281,6.364121 14.08913,11.366951 3.28615,5.00302 5.05189,10.668097 5.29722,16.995248 l -13.68448,1.030015 c -0.7358,-6.817635 -3.225,-11.967705 -7.46761,-15.450225 -4.24275,-3.482336 -10.50867,-5.223551 -18.79778,-5.223648 -8.63254,9.7e-5 -14.92299,1.581905 -18.87134,4.745427 -3.94842,3.163706 -5.92261,6.977211 -5.92259,11.440524 -2e-5,3.874895 1.39785,7.063034 4.19363,9.564425 2.74668,2.501534 9.91999,5.064307 21.51996,7.688326 11.59987,2.624147 19.55795,4.917155 23.87428,6.879029 6.2781,2.893906 10.91317,6.560265 13.9052,10.999089 2.99186,4.438916 4.48783,9.552204 4.48792,15.339864 -9e-5,5.73868 -1.64321,11.14626 -4.92936,16.22274 -3.28632,5.07651 -8.00722,9.0249 -14.1627,11.84517 -6.15563,2.82028 -13.08371,4.23042 -20.78423,4.23042 -9.76066,0 -17.93947,-1.4224 -24.53643,-4.2672 -6.59703,-2.8448 -11.77162,-7.12427 -15.5238,-12.83841 -3.75221,-5.71411 -5.7264,-12.17622 -5.92259,-19.38635 z"
         style="stroke:#000000"
         id="path5466"
         inkscape:connector-curvature="0" />
    </g>
    <g
       transform="scale(1.0042634,0.9957547)"
       style="font-size:204.86422729px;font-style:normal;font-variant:normal;font-weight:normal;font-stretch:normal;line-height:125%;letter-spacing:0px;word-spacing:0px;fill:#ffffff;fill-opacity:1;stroke:#000000;stroke-width:3.99999976;stroke-miterlimit:4;stroke-opacity:1;display:inline;font-family:Arial;-inkscape-font-specification:Arial"
       id="text3759-6">
      <path
         d="m 91.441072,424.18747 0,-13.4042 c -6.735521,10.53664 -16.638616,15.80495 -29.709315,15.80495 -8.469366,0 -16.255132,-2.33406 -23.357322,-7.00219 -7.102249,-4.66812 -12.603969,-11.18683 -16.505175,-19.55613 -3.901232,-8.36926 -5.851842,-17.98894 -5.851835,-28.85905 -7e-6,-10.60326 1.767212,-20.22294 5.301663,-28.85905 3.534425,-8.63595 8.836082,-15.25468 15.904986,-19.85622 7.068848,-4.60134 14.971317,-6.90206 23.707433,-6.90217 6.401948,1.1e-4 12.10373,1.35053 17.105362,4.05127 5.001494,2.70095 9.069432,6.21872 12.203826,10.55331 l 0,-52.6165 17.905615,0 0,146.64598 z M 34.523227,371.17085 c -2.5e-5,13.6043 2.867538,23.77415 8.602697,30.50956 5.735092,6.73546 12.503874,10.10318 20.306367,10.10317 7.869071,1e-5 14.554494,-3.21766 20.056287,-9.65303 5.501645,-6.43532 8.252505,-16.25505 8.252588,-29.45923 -8.3e-5,-14.53783 -2.800958,-25.20783 -8.402635,-32.01004 -5.601825,-6.80204 -12.503982,-10.2031 -20.706491,-10.2032 -8.002555,1e-4 -14.687977,3.26779 -20.056288,9.80308 -5.368378,6.53546 -8.05255,16.83868 -8.052525,30.90969 z"
         id="path5469"
         inkscape:connector-curvature="0" />
      <path
         d="m 129.85311,371.07082 c 0,-19.67276 5.46837,-34.24399 16.40515,-43.71371 9.13616,-7.86903 20.27298,-11.80359 33.41047,-11.8037 14.60451,1.1e-4 26.54157,4.78494 35.81123,14.3545 9.26947,9.56975 13.90425,22.79055 13.90436,39.66244 -1.1e-4,13.67099 -2.05075,24.42435 -6.15193,32.26011 -4.10138,7.8358 -10.06991,13.92104 -17.90561,18.25572 -7.83587,4.3347 -16.38854,6.50204 -25.65805,6.50204 -14.87137,0 -26.89179,-4.76816 -36.0613,-14.30448 -9.16956,-9.5363 -13.75432,-23.27393 -13.75432,-41.21292 z m 18.50581,0 c -3e-5,13.6043 2.96756,23.79082 8.90279,30.55958 5.93515,6.7688 13.40415,10.15319 22.40702,10.15318 8.93607,1e-5 16.37173,-3.40105 22.307,-10.2032 5.9351,-6.8021 8.9027,-17.17201 8.90279,-31.10975 -9e-5,-13.13739 -2.98436,-23.0905 -8.95281,-29.85936 -5.96861,-6.7687 -13.3876,-10.15309 -22.25698,-10.15319 -9.00287,1e-4 -16.47187,3.36782 -22.40702,10.10317 -5.93523,6.73552 -8.90282,16.90537 -8.90279,30.50957 z"
         id="path5471"
         inkscape:connector-curvature="0" />
      <path
         d="m 250.59097,424.18747 0,-106.23331 16.20508,0 0,15.10474 c 7.80241,-11.67022 19.07259,-17.50538 33.8106,-17.50549 6.40193,1.1e-4 12.28711,1.15047 17.65553,3.45108 5.36827,2.30083 9.38619,5.31844 12.05378,9.05284 2.66741,3.7346 4.53466,8.16932 5.60176,13.30417 0.66677,3.33446 1.00021,9.16962 1.00031,17.50549 l 0,65.32048 -18.00564,0 0,-64.62026 c -9e-5,-7.33556 -0.7003,-12.82061 -2.10066,-16.45516 -1.40052,-3.63439 -3.88463,-6.53529 -7.45234,-8.70273 -3.56785,-2.16725 -7.75249,-3.25092 -12.55393,-3.25102 -7.66913,10e-5 -14.28786,2.43419 -19.85623,7.30229 -5.56845,4.86828 -8.35265,14.1045 -8.35262,27.70869 l 0,58.01819 z"
         id="path5473"
         inkscape:connector-curvature="0" />
      <path
         d="m 364.72673,329.45777 -4.60144,-27.40859 0,-24.50769 20.50643,0 0,24.50769 -4.8015,27.40859 z"
         id="path5475"
         inkscape:connector-curvature="0" />
      <path
         d="m 443.15134,408.08242 2.60081,15.90499 c -5.0683,1.067 -9.60305,1.6005 -13.60426,1.6005 -6.53542,0 -11.60367,-1.03366 -15.20477,-3.10097 -3.60115,-2.06731 -6.13528,-4.78483 -7.60238,-8.15256 -1.46715,-3.36771 -2.20071,-10.45326 -2.20069,-21.25666 l 0,-61.11917 -13.20414,0 0,-14.00439 13.20414,0 0,-26.30824 17.90561,-10.80339 0,37.11163 18.10568,0 0,14.00439 -18.10568,0 0,62.11948 c -3e-5,5.13497 0.31673,8.436 0.9503,9.9031 0.6335,1.46715 1.66715,2.63418 3.10097,3.5011 1.43374,0.86696 3.48439,1.30043 6.15193,1.30041 2.00058,2e-5 4.63474,-0.23339 7.90248,-0.70022 z"
         id="path5477"
         inkscape:connector-curvature="0" />
      <path
         d="m 586.39624,424.18747 0,-13.4042 c -6.73552,10.53664 -16.63861,15.80495 -29.70931,15.80495 -8.46937,0 -16.25514,-2.33406 -23.35733,-7.00219 -7.10224,-4.66812 -12.60396,-11.18683 -16.50517,-19.55613 -3.90123,-8.36926 -5.85184,-17.98894 -5.85183,-28.85905 -10e-6,-10.60326 1.76721,-20.22294 5.30166,-28.85905 3.53442,-8.63595 8.83608,-15.25468 15.90498,-19.85622 7.06885,-4.60134 14.97132,-6.90206 23.70744,-6.90217 6.40194,1.1e-4 12.10373,1.35053 17.10536,4.05127 5.00149,2.70095 9.06943,6.21872 12.20382,10.55331 l 0,-52.6165 17.90562,0 0,146.64598 z M 529.4784,371.17085 c -3e-5,13.6043 2.86753,23.77415 8.60269,30.50956 5.7351,6.73546 12.50388,10.10318 20.30637,10.10317 7.86907,1e-5 14.55449,-3.21766 20.05629,-9.65303 5.50164,-6.43532 8.2525,-16.25505 8.25259,-29.45923 -9e-5,-14.53783 -2.80096,-25.20783 -8.40264,-32.01004 -5.60182,-6.80204 -12.50398,-10.2031 -20.70649,-10.2032 -8.00256,1e-4 -14.68798,3.26779 -20.05629,9.80308 -5.36838,6.53546 -8.05255,16.83868 -8.05252,30.90969 z"
         id="path5479"
         inkscape:connector-curvature="0" />
      <path
         d="m 631.31031,424.18747 0,-106.23331 16.20508,0 0,16.10505 c 4.13459,-7.53559 7.95245,-12.50381 11.45359,-14.90467 3.50105,-2.40064 7.35225,-3.60102 11.55362,-3.60113 6.06851,1.1e-4 12.23711,1.93405 18.5058,5.80182 l -6.20194,16.70524 c -4.40144,-2.60073 -8.80282,-3.90114 -13.20414,-3.90123 -3.93462,9e-5 -7.46905,1.1838 -10.60333,3.55112 -3.13435,2.36749 -5.36838,5.65185 -6.7021,9.85309 -2.00066,6.40207 -3.00097,13.40426 -3.00094,21.00658 l 0,55.61744 z"
         id="path5481"
         inkscape:connector-curvature="0" />
      <path
         d="m 700.03185,298.24799 0,-20.7065 18.00564,0 0,20.7065 z m 0,125.93948 0,-106.23331 18.00564,0 0,106.23331 z"
         id="path5483"
         inkscape:connector-curvature="0" />
      <path
         d="m 775.05539,424.18747 -40.41267,-106.23331 19.00596,0 22.80715,63.61995 c 2.46739,6.86886 4.73477,14.00442 6.80213,21.40671 1.60045,-5.60173 3.83448,-12.33717 6.7021,-20.20633 l 23.6074,-64.82033 18.5058,0 -40.2126,106.23331 z"
         id="path5485"
         inkscape:connector-curvature="0" />
      <path
         d="m 920.70106,389.97674 18.60584,2.30073 c -2.93436,10.87009 -8.36939,19.30606 -16.30511,25.30793 -7.93591,6.00188 -18.07241,9.00282 -30.40954,9.00282 -15.53825,0 -27.85876,-4.78483 -36.96159,-14.3545 -9.10286,-9.56964 -13.65428,-22.9905 -13.65428,-40.26262 0,-17.8722 4.60143,-31.7432 13.80433,-41.61305 9.20286,-9.86965 21.13992,-14.80453 35.81123,-14.80464 14.20438,1.1e-4 25.80801,4.83495 34.81091,14.50455 9.00272,9.66978 13.50413,23.27403 13.50424,40.81279 -1.1e-4,1.06706 -0.0335,2.66756 -0.10004,4.80151 l -79.22483,0 c 0.66685,11.67036 3.96788,20.60649 9.9031,26.8084 5.93515,6.20196 13.33747,9.30293 22.20696,9.30292 6.60201,1e-5 12.2371,-1.73386 16.9053,-5.20163 4.66805,-3.46773 8.36921,-9.0028 11.10348,-16.60521 z m -59.11853,-29.10912 59.3186,0 c -0.80034,-8.93606 -3.06771,-15.63816 -6.80214,-20.10631 -5.7352,-6.93541 -13.17086,-10.40316 -22.30699,-10.40326 -8.26931,1e-4 -15.22148,2.76763 -20.85654,8.30261 -5.63513,5.53514 -8.75277,12.93746 -9.35293,22.20696 z"
         id="path5487"
         inkscape:connector-curvature="0" />
    </g>
    <g
       transform="scale(1.0060304,0.99400574)"
       style="font-size:187.72212219px;font-style:normal;font-variant:normal;font-weight:normal;font-stretch:normal;line-height:125%;letter-spacing:0px;word-spacing:0px;fill:#ffffff;fill-opacity:1;stroke:#000000;stroke-width:3.99999952;stroke-miterlimit:4;stroke-opacity:1;display:inline;font-family:Arial;-inkscape-font-specification:Arial"
       id="text3759-1-18">
      <path
         d="m 52.502284,653.44653 2.383191,14.57413 c -4.644214,0.97772 -8.799517,1.46657 -12.465922,1.46658 -5.988564,-1e-5 -10.632726,-0.94717 -13.932502,-2.8415 -3.299824,-1.89433 -5.621905,-4.38446 -6.96625,-7.47039 -1.344381,-3.08591 -2.016562,-9.57857 -2.016547,-19.478 l 0,-56.00499 -12.099277,0 0,-12.83257 12.099277,0 0,-24.10689 16.407354,-9.89941 0,34.0063 16.590676,0 0,12.83257 -16.590676,0 0,56.9216 c -3.2e-5,4.7053 0.290228,7.73011 0.870781,9.07446 0.580488,1.34438 1.527653,2.41376 2.841497,3.20814 1.313774,0.79441 3.192826,1.19161 5.637163,1.1916 1.833181,10e-6 4.246924,-0.21387 7.241235,-0.64163 z"
         style="stroke:#000000"
         id="path5490"
         inkscape:connector-curvature="0" />
      <path
         d="m 68.542992,668.20398 0,-134.37531 16.499014,0 0,48.21379 c 7.699504,-8.9216 17.415584,-13.38244 29.148264,-13.38254 7.21061,10e-5 13.47412,1.42085 18.79054,4.26225 5.31627,2.84159 9.1202,6.76774 11.41182,11.77846 2.29144,5.01089 3.4372,12.28267 3.43729,21.81537 l 0,61.68798 -16.49901,0 0,-61.68798 c -8e-5,-8.24944 -1.78747,-14.25324 -5.36218,-18.01143 -3.57485,-3.75802 -8.63149,-5.63708 -15.16993,-5.63716 -4.88865,8e-5 -9.48698,1.26806 -13.795008,3.80394 -4.308113,2.53604 -7.378759,5.97333 -9.21195,10.31188 -1.833253,4.3387 -2.749865,10.32722 -2.749836,17.9656 l 0,53.25515 z"
         style="stroke:#000000"
         id="path5492"
         inkscape:connector-curvature="0" />
      <path
         d="m 239.67443,636.85585 17.04899,2.10821 c -2.68883,9.96053 -7.66908,17.69062 -14.94078,23.19028 -7.27186,5.49967 -16.56019,8.24951 -27.865,8.24951 -14.23808,0 -25.52767,-4.38446 -33.86881,-13.15338 -8.34118,-8.7689 -12.51176,-21.06677 -12.51175,-36.89363 -1e-5,-16.37674 4.2164,-29.08708 12.64924,-38.13106 8.4328,-9.04381 19.37103,-13.56576 32.81471,-13.56586 13.01582,10e-5 23.64851,4.43039 31.89809,13.29088 8.24942,8.86066 12.37417,21.32657 12.37426,37.39776 -9e-5,0.97777 -0.0306,2.44435 -0.0917,4.39974 l -72.59566,0 c 0.61105,10.69384 3.63586,18.88223 9.07446,24.5652 5.43852,5.68301 12.22144,8.5245 20.34878,8.52449 6.04958,10e-6 11.21315,-1.58878 15.49074,-4.76638 4.27745,-3.17757 7.66891,-8.24948 10.17439,-15.21576 z m -54.17176,-26.67341 54.35509,0 c -0.73337,-8.18833 -2.81102,-14.32962 -6.23296,-18.4239 -5.25531,-6.35509 -12.06879,-9.53267 -20.44045,-9.53276 -7.57737,9e-5 -13.94782,2.53604 -19.11136,7.60788 -5.16361,5.07199 -8.02038,11.85491 -8.57032,20.34878 z"
         style="stroke:#000000"
         id="path5494"
         inkscape:connector-curvature="0" />
      <path
         d="m 277.53052,668.20398 0,-97.34419 14.75745,0 0,13.65752 c 3.05535,-4.76629 7.11899,-8.60078 12.19094,-11.50348 5.07188,-2.90251 10.84653,-4.35381 17.32397,-4.35391 7.21061,10e-5 13.12276,1.49724 17.73644,4.4914 4.61353,2.99436 7.8675,7.18022 9.76192,12.55759 7.69944,-11.3659 17.72106,-17.04889 30.06487,-17.04899 9.65485,10e-5 17.0794,2.67355 22.27367,8.02036 5.19399,5.34699 7.79105,13.58121 7.7912,24.70269 l 0,66.82101 -16.40736,0 0,-61.32134 c -1.2e-4,-6.59954 -0.53481,-11.35064 -1.60407,-14.25331 -1.0695,-2.90253 -3.00966,-5.23989 -5.82048,-7.01208 -2.81106,-1.77204 -6.11086,-2.65809 -9.89941,-2.65818 -6.84414,9e-5 -12.52713,2.27634 -17.04898,6.82876 -4.52204,4.55258 -6.78302,11.83964 -6.78293,21.86119 l 0,56.55496 -16.49902,0 0,-63.24622 c -7e-5,-7.33283 -1.34443,-12.83249 -4.03309,-16.49902 -2.68879,-3.66636 -7.08852,-5.49958 -13.19921,-5.49967 -4.64422,9e-5 -8.93701,1.22223 -12.8784,3.66645 -3.94147,2.44438 -6.79824,6.01916 -8.57032,10.72436 -1.77215,4.70534 -2.6582,11.48826 -2.65817,20.34878 l 0,50.50532 z"
         style="stroke:#000000"
         id="path5496"
         inkscape:connector-curvature="0" />
      <path
         d="m 427.48823,639.14738 16.31569,-2.56651 c 0.91659,6.53852 3.46782,11.54933 7.65371,15.03243 4.18583,3.48314 10.03686,5.2247 17.55312,5.22469 7.57727,10e-6 13.19915,-1.54295 16.86566,-4.62889 3.66638,-3.08591 5.4996,-6.70652 5.49967,-10.86185 -7e-5,-3.72752 -1.61942,-6.66068 -4.85804,-8.79947 -2.26104,-1.46655 -7.88292,-3.33032 -16.86566,-5.59134 -12.09932,-3.05533 -20.48631,-5.69822 -25.161,-7.92869 -4.67474,-2.23037 -8.21897,-5.31629 -10.6327,-9.25778 -2.41375,-3.94137 -3.62063,-8.29527 -3.62062,-13.06172 -1e-5,-4.33855 0.99299,-8.35637 2.97899,-12.05345 1.98598,-3.69691 4.68998,-6.76756 8.11202,-9.21195 2.56649,-1.89423 6.06489,-3.4983 10.4952,-4.81221 4.43026,-1.31371 9.18136,-1.97062 14.25332,-1.97072 7.63838,10e-5 14.34492,1.10004 20.11963,3.29981 5.77459,2.19996 10.03683,5.17895 12.78674,8.93696 2.74975,3.7582 4.64408,8.78428 5.68299,15.07827 l -16.13237,2.19987 c -0.73335,-5.01074 -2.85684,-8.92161 -6.37045,-11.73263 -3.51374,-2.81086 -8.47871,-4.21633 -14.89494,-4.21642 -7.57737,9e-5 -12.98537,1.25279 -16.22404,3.75811 -3.23872,2.50549 -4.85806,5.43864 -4.85804,8.79947 -2e-5,2.13884 0.67216,4.06372 2.01655,5.77466 1.34433,1.77218 3.45254,3.23876 6.32462,4.39974 1.64987,0.61113 6.5079,2.0166 14.57413,4.21641 11.67147,3.11654 19.81403,5.66777 24.42771,7.65371 4.61353,1.98604 8.23415,4.87337 10.86185,8.66198 2.62753,3.78871 3.94134,8.49398 3.94143,14.11583 -9e-5,5.49969 -1.60416,10.67854 -4.81221,15.53657 -3.20822,4.85805 -7.83711,8.61616 -13.88667,11.27433 -6.0497,2.65817 -12.89373,3.98726 -20.53211,3.98726 -12.64928,0 -22.28897,-2.62762 -28.91911,-7.88286 -6.63017,-5.25524 -10.86186,-13.04643 -12.69507,-23.37361 z"
         style="stroke:#000000"
         id="path5498"
         inkscape:connector-curvature="0" />
      <path
         d="m 594.58657,636.85585 17.04899,2.10821 c -2.68883,9.96053 -7.66908,17.69062 -14.94078,23.19028 -7.27186,5.49967 -16.56019,8.24951 -27.865,8.24951 -14.23808,0 -25.52767,-4.38446 -33.86881,-13.15338 -8.34118,-8.7689 -12.51176,-21.06677 -12.51175,-36.89363 -10e-6,-16.37674 4.2164,-29.08708 12.64924,-38.13106 8.4328,-9.04381 19.37103,-13.56576 32.81471,-13.56586 13.01582,10e-5 23.64851,4.43039 31.89809,13.29088 8.24942,8.86066 12.37417,21.32657 12.37426,37.39776 -9e-5,0.97777 -0.0307,2.44435 -0.0917,4.39974 l -72.59566,0 c 0.61105,10.69384 3.63586,18.88223 9.07446,24.5652 5.43852,5.68301 12.22144,8.5245 20.34878,8.52449 6.04958,10e-6 11.21315,-1.58878 15.49074,-4.76638 4.27745,-3.17757 7.66891,-8.24948 10.17439,-15.21576 z m -54.17176,-26.67341 54.35509,0 c -0.73337,-8.18833 -2.81102,-14.32962 -6.23296,-18.4239 -5.25531,-6.35509 -12.06879,-9.53267 -20.44045,-9.53276 -7.57737,9e-5 -13.94782,2.53604 -19.11136,7.60788 -5.16361,5.07199 -8.02038,11.85491 -8.57032,20.34878 z"
         style="stroke:#000000"
         id="path5500"
         inkscape:connector-curvature="0" />
      <path
         d="m 632.07599,668.20398 0,-134.37531 16.49901,0 0,134.37531 z"
         style="stroke:#000000"
         id="path5502"
         inkscape:connector-curvature="0" />
      <path
         d="m 701.28023,668.20398 -37.03112,-97.34419 17.41562,0 20.89876,58.29652 c 2.26093,6.2941 4.33858,12.83259 6.23296,19.6155 1.46653,-5.13301 3.51363,-11.30485 6.1413,-18.51556 l 21.63204,-59.39646 16.95732,0 -36.8478,97.34419 z"
         style="stroke:#000000"
         id="path5504"
         inkscape:connector-curvature="0" />
      <path
         d="m 834.73889,636.85585 17.04898,2.10821 c -2.68882,9.96053 -7.66908,17.69062 -14.94078,23.19028 -7.27186,5.49967 -16.56018,8.24951 -27.865,8.24951 -14.23808,0 -25.52767,-4.38446 -33.86881,-13.15338 -8.34118,-8.7689 -12.51176,-21.06677 -12.51175,-36.89363 -10e-6,-16.37674 4.2164,-29.08708 12.64924,-38.13106 8.4328,-9.04381 19.37103,-13.56576 32.81471,-13.56586 13.01582,10e-5 23.64851,4.43039 31.8981,13.29088 8.24941,8.86066 12.37416,21.32657 12.37426,37.39776 -10e-5,0.97777 -0.0307,2.44435 -0.0917,4.39974 l -72.59566,0 c 0.61105,10.69384 3.63587,18.88223 9.07446,24.5652 5.43852,5.68301 12.22145,8.5245 20.34878,8.52449 6.04958,10e-6 11.21316,-1.58878 15.49074,-4.76638 4.27745,-3.17757 7.66891,-8.24948 10.1744,-15.21576 z m -54.17177,-26.67341 54.35509,0 c -0.73337,-8.18833 -2.81102,-14.32962 -6.23296,-18.4239 -5.25531,-6.35509 -12.06879,-9.53267 -20.44045,-9.53276 -7.57737,9e-5 -13.94781,2.53604 -19.11136,7.60788 -5.1636,5.07199 -8.02038,11.85491 -8.57032,20.34878 z"
         style="stroke:#000000"
         id="path5506"
         inkscape:connector-curvature="0" />
      <path
         d="m 865.99537,639.14738 16.31569,-2.56651 c 0.91659,6.53852 3.46782,11.54933 7.65371,15.03243 4.18583,3.48314 10.03686,5.2247 17.55312,5.22469 7.57727,10e-6 13.19915,-1.54295 16.86566,-4.62889 3.66638,-3.08591 5.4996,-6.70652 5.49967,-10.86185 -7e-5,-3.72752 -1.61942,-6.66068 -4.85804,-8.79947 -2.26104,-1.46655 -7.88292,-3.33032 -16.86566,-5.59134 -12.09932,-3.05533 -20.48631,-5.69822 -25.161,-7.92869 -4.67474,-2.23037 -8.21897,-5.31629 -10.6327,-9.25778 -2.41375,-3.94137 -3.62062,-8.29527 -3.62062,-13.06172 0,-4.33855 0.99299,-8.35637 2.97899,-12.05345 1.98598,-3.69691 4.68998,-6.76756 8.11202,-9.21195 2.56649,-1.89423 6.06489,-3.4983 10.49521,-4.81221 4.43025,-1.31371 9.18135,-1.97062 14.25331,-1.97072 7.63838,10e-5 14.34492,1.10004 20.11963,3.29981 5.77459,2.19996 10.03683,5.17895 12.78674,8.93696 2.74975,3.7582 4.64408,8.78428 5.68299,15.07827 l -16.13237,2.19987 c -0.73335,-5.01074 -2.85683,-8.92161 -6.37045,-11.73263 -3.51374,-2.81086 -8.47871,-4.21633 -14.89494,-4.21642 -7.57737,9e-5 -12.98537,1.25279 -16.22403,3.75811 -3.23873,2.50549 -4.85807,5.43864 -4.85805,8.79947 -2e-5,2.13884 0.67216,4.06372 2.01655,5.77466 1.34433,1.77218 3.45254,3.23876 6.32462,4.39974 1.64987,0.61113 6.50791,2.0166 14.57413,4.21641 11.67147,3.11654 19.81403,5.66777 24.42771,7.65371 4.61353,1.98604 8.23415,4.87337 10.86185,8.66198 2.62753,3.78871 3.94134,8.49398 3.94143,14.11583 -9e-5,5.49969 -1.60416,10.67854 -4.81221,15.53657 -3.20822,4.85805 -7.83711,8.61616 -13.88667,11.27433 -6.0497,2.65817 -12.89373,3.98726 -20.53211,3.98726 -12.64928,0 -22.28897,-2.62762 -28.91911,-7.88286 -6.63017,-5.25524 -10.86186,-13.04643 -12.69507,-23.37361 z"
         style="stroke:#000000"
         id="path5508"
         inkscape:connector-curvature="0" />
    </g>
    <g
       transform="scale(1.0063605,0.99367971)"
       style="font-size:184.84294128px;font-style:normal;font-variant:normal;font-weight:normal;font-stretch:normal;line-height:125%;letter-spacing:0px;word-spacing:0px;fill:#ffffff;fill-opacity:1;stroke:#000000;stroke-width:4;stroke-miterlimit:4;stroke-opacity:1;display:inline;font-family:Arial;-inkscape-font-specification:Arial"
       id="text3759-1-1-9">
      <path
         d="m 61.340413,884.00368 2.346639,14.3506 c -4.572982,0.96272 -8.664554,1.44408 -12.274726,1.44408 -5.896714,0 -10.469647,-0.93263 -13.718812,-2.79791 -3.249213,-1.86527 -5.53568,-4.31721 -6.859406,-7.35581 -1.323761,-3.03859 -1.985633,-9.43167 -1.985618,-19.17926 l 0,-55.14602 -11.913705,0 0,-12.63574 11.913705,0 0,-23.73716 16.155706,-9.74758 0,33.48474 16.336217,0 0,12.63574 -16.336217,0 0,56.04857 c -3.1e-5,4.63313 0.285777,7.61156 0.857426,8.93528 0.571585,1.32376 1.504222,2.37674 2.797916,3.15894 1.293623,0.78223 3.143856,1.17333 5.550703,1.17332 1.805065,10e-6 4.181787,-0.21058 7.130172,-0.63179 z"
         style="stroke:#000000"
         id="path5511"
         inkscape:connector-curvature="0" />
      <path
         d="m 71.08799,850.6092 c -6e-6,-17.75015 4.933947,-30.89733 14.801876,-39.44158 8.243292,-7.09999 18.291714,-10.65003 30.145284,-10.65013 13.17722,1e-4 23.94768,4.31731 32.31141,12.95164 8.36357,8.6345 12.5454,20.56324 12.5455,35.78624 -10e-5,12.33494 -1.85033,22.03738 -5.55071,29.10735 -3.70055,7.07002 -9.08578,12.56054 -16.1557,16.4716 -7.07007,3.91107 -14.7869,5.8666 -23.1505,5.8666 -13.418,0 -24.263671,-4.30217 -32.537051,-12.90652 -8.273416,-8.60432 -12.410115,-20.99937 -12.410109,-37.1852 z m 16.697238,0 c -2.3e-5,12.27477 2.67755,21.46576 8.032725,27.57301 5.355117,6.10729 12.094177,9.16093 20.217197,9.16092 8.06275,10e-6 14.77173,-3.06867 20.12694,-9.20605 5.35508,-6.13733 8.03265,-15.4938 8.03273,-28.06941 -8e-5,-11.85347 -2.6927,-20.83387 -8.07786,-26.94122 -5.3853,-6.1072 -12.07923,-9.16083 -20.08181,-9.16092 -8.12302,9e-5 -14.86208,3.03868 -20.217197,9.11579 -5.355175,6.07727 -8.032748,15.25322 -8.032725,27.52788 z"
         style="stroke:#000000"
         id="path5513"
         inkscape:connector-curvature="0" />
      <path
         d="m 266.76157,884.00368 2.34664,14.3506 c -4.57298,0.96272 -8.66455,1.44408 -12.27473,1.44408 -5.89671,0 -10.46964,-0.93263 -13.71881,-2.79791 -3.24921,-1.86527 -5.53568,-4.31721 -6.8594,-7.35581 -1.32377,-3.03859 -1.98564,-9.43167 -1.98562,-19.17926 l 0,-55.14602 -11.91371,0 0,-12.63574 11.91371,0 0,-23.73716 16.1557,-9.74758 0,33.48474 16.33622,0 0,12.63574 -16.33622,0 0,56.04857 c -3e-5,4.63313 0.28578,7.61156 0.85743,8.93528 0.57158,1.32376 1.50422,2.37674 2.79792,3.15894 1.29362,0.78223 3.14385,1.17333 5.5507,1.17332 1.80506,10e-6 4.18179,-0.21058 7.13017,-0.63179 z"
         style="stroke:#000000"
         id="path5515"
         inkscape:connector-curvature="0" />
      <path
         d="m 282.55625,898.53479 0,-132.31433 16.24596,0 0,47.47431 c 7.58142,-8.78476 17.14847,-13.17718 28.7012,-13.17728 7.10002,1e-4 13.26747,1.39905 18.50235,4.19687 5.23473,2.79801 8.98032,6.66394 11.23679,11.59781 2.25629,4.93404 3.38448,12.09429 3.38457,21.48077 l 0,60.74185 -16.24596,0 0,-60.74185 c -7e-5,-8.12291 -1.76005,-14.03463 -5.27994,-17.73517 -3.52002,-3.70039 -8.4991,-5.55062 -14.93726,-5.5507 -4.81366,8e-5 -9.34147,1.24861 -13.58342,3.74559 -4.24204,2.49715 -7.26559,5.88172 -9.07067,10.15373 -1.80513,4.27215 -2.70769,10.16883 -2.70766,17.69005 l 0,52.43835 z"
         style="stroke:#000000"
         id="path5517"
         inkscape:connector-curvature="0" />
      <path
         d="m 451.06297,867.66746 16.78749,2.07588 c -2.64758,9.80776 -7.55145,17.41929 -14.71162,22.8346 -7.16033,5.41532 -16.30619,8.12298 -27.43762,8.12298 -14.0197,0 -25.13614,-4.31721 -33.34935,-12.95164 -8.21325,-8.63441 -12.31986,-20.74366 -12.31986,-36.32778 0,-16.12556 4.15174,-28.64095 12.45524,-37.54622 8.30347,-8.9051 19.07393,-13.35769 32.31141,-13.35779 12.8162,1e-4 23.28581,4.36243 31.40886,13.08702 8.12289,8.72476 12.18438,20.99948 12.18447,36.82418 -9e-5,0.96277 -0.0302,2.40686 -0.0903,4.33226 l -71.48223,0 c 0.60168,10.52982 3.5801,18.59262 8.93528,24.18843 5.35511,5.59585 12.034,8.39376 20.03668,8.39375 5.9568,10e-6 11.04118,-1.56442 15.25316,-4.69328 4.21184,-3.12883 7.55128,-8.12296 10.01834,-14.98239 z m -53.34091,-26.2643 53.52142,0 c -0.72212,-8.06275 -2.76791,-14.10985 -6.13736,-18.14133 -5.17471,-6.25762 -11.88368,-9.38647 -20.12695,-9.38655 -7.46115,8e-5 -13.73389,2.49715 -18.81823,7.49119 -5.08442,4.9942 -7.89737,11.67309 -8.43888,20.03669 z"
         style="stroke:#000000"
         id="path5519"
         inkscape:connector-curvature="0" />
      <path
         d="m 539.60346,935.26871 0,-132.58509 14.80188,0 0,12.45523 c 3.48984,-4.8737 7.43099,-8.52903 11.82345,-10.96602 4.39238,-2.4368 9.71744,-3.65524 15.97519,-3.65534 8.18309,1e-4 15.40351,2.10605 21.66129,6.31787 6.25762,4.21201 10.98098,10.15381 14.17008,17.82543 3.18893,7.67177 4.78344,16.08055 4.78354,25.22637 -10e-5,9.80779 -1.76007,18.63776 -5.27994,26.48994 -3.52004,7.85223 -8.63451,13.86925 -15.34341,18.05107 -6.70905,4.18183 -13.764,6.27275 -21.16488,6.27275 -5.41536,0 -10.27411,-1.14324 -14.57623,-3.4297 -4.30221,-2.28647 -7.83721,-5.17464 -10.60501,-8.66452 l 0,46.66201 z m 14.71162,-84.11797 c -2e-5,12.33493 2.49704,21.45071 7.4912,27.34736 4.99409,5.8967 11.04119,8.84504 18.14132,8.84503 7.22037,10e-6 13.40285,-3.05363 18.54747,-9.16092 5.14448,-6.10725 7.71676,-15.56901 7.71684,-28.3853 -8e-5,-12.2145 -2.51219,-21.36037 -7.53633,-27.43763 -5.02428,-6.07711 -11.02625,-9.1157 -18.00594,-9.11579 -6.91962,9e-5 -13.04193,3.23423 -18.36696,9.70245 -5.32509,6.46837 -7.98762,15.86996 -7.9876,28.2048 z"
         style="stroke:#000000"
         id="path5521"
         inkscape:connector-curvature="0" />
      <path
         d="m 705.04153,886.71134 c -6.01709,5.11448 -11.80847,8.72469 -17.37416,10.83064 -5.56579,2.10596 -11.53768,3.15894 -17.91568,3.15894 -10.52982,0 -18.62271,-2.57228 -24.27869,-7.71683 -5.65601,-5.14455 -8.48401,-11.71814 -8.484,-19.7208 -1e-5,-4.69324 1.06801,-8.98037 3.20406,-12.86138 2.13604,-3.88094 4.93395,-6.99475 8.39375,-9.34143 3.45977,-2.34659 7.35579,-4.12161 11.68807,-5.32507 3.18899,-0.84232 8.0026,-1.65462 14.44085,-2.43689 13.11706,-1.56437 22.77437,-3.42964 28.97197,-5.59583 0.0601,-2.22624 0.0902,-3.64024 0.0903,-4.242 -7e-5,-6.61866 -1.53441,-11.28184 -4.60302,-13.98958 -4.15181,-3.6703 -10.31925,-5.50549 -18.50234,-5.50558 -7.64167,9e-5 -13.28262,1.33887 -16.92288,4.01637 -3.64033,2.67765 -6.33294,7.41605 -8.07785,14.21521 l -15.88494,-2.16612 c 1.44407,-6.79917 3.82079,-12.28969 7.13017,-16.4716 3.30934,-4.18175 8.09287,-7.40085 14.3506,-9.65733 6.25766,-2.25628 13.50817,-3.38447 21.75153,-3.38457 8.18309,1e-4 14.8319,0.96282 19.94644,2.88817 5.11439,1.92554 8.87502,4.34739 11.28191,7.26555 2.40673,2.91835 4.09149,6.60377 5.0543,11.05628 0.54144,2.76791 0.81221,7.76203 0.8123,14.98239 l 0,21.66128 c -9e-5,15.10276 0.34589,24.65477 1.03794,28.65607 0.69186,4.00133 2.06073,7.83718 4.10661,11.50756 l -16.968,0 c -1.68484,-3.36953 -2.76791,-7.31068 -3.24919,-11.82345 z m -1.35383,-36.28265 c -5.89675,2.40686 -14.74177,4.45264 -26.53507,6.13737 -6.67894,0.96276 -11.4023,2.04582 -14.17009,3.24919 -2.76786,1.20344 -4.9039,2.96342 -6.40813,5.27994 -1.50428,2.31658 -2.25641,4.88886 -2.25638,7.71683 -3e-5,4.33228 1.63961,7.94249 4.91891,10.83064 3.27925,2.88818 8.07782,4.33227 14.39573,4.33225 6.25765,2e-5 11.82339,-1.36886 16.69724,-4.10661 4.87372,-2.73773 8.45385,-6.48332 10.74038,-11.23679 1.74487,-3.67036 2.61733,-9.08567 2.61741,-16.24596 z"
         style="stroke:#000000"
         id="path5523"
         inkscape:connector-curvature="0" />
      <path
         d="m 745.20512,898.53479 0,-95.85117 14.62136,0 0,14.53111 c 3.73053,-6.79915 7.17527,-11.28183 10.33424,-13.44805 3.1589,-2.16603 6.63372,-3.24909 10.42449,-3.24919 5.47544,1e-4 11.04118,1.74503 16.69724,5.23481 l -5.59583,15.07264 c -3.97129,-2.34656 -7.94252,-3.51988 -11.91371,-3.51996 -3.55008,8e-5 -6.7391,1.0681 -9.56706,3.20407 -2.82804,2.13612 -4.84374,5.0995 -6.04711,8.89015 -1.80514,5.7764 -2.70769,12.09427 -2.70766,18.95362 l 0,50.18197 z"
         style="stroke:#000000"
         id="path5525"
         inkscape:connector-curvature="0" />
      <path
         d="m 842.59066,884.00368 2.34664,14.3506 c -4.57299,0.96272 -8.66456,1.44408 -12.27473,1.44408 -5.89671,0 -10.46965,-0.93263 -13.71881,-2.79791 -3.24922,-1.86527 -5.53568,-4.31721 -6.85941,-7.35581 -1.32376,-3.03859 -1.98563,-9.43167 -1.98562,-19.17926 l 0,-55.14602 -11.9137,0 0,-12.63574 11.9137,0 0,-23.73716 16.15571,-9.74758 0,33.48474 16.33622,0 0,12.63574 -16.33622,0 0,56.04857 c -3e-5,4.63313 0.28578,7.61156 0.85743,8.93528 0.57158,1.32376 1.50422,2.37674 2.79791,3.15894 1.29363,0.78223 3.14386,1.17333 5.55071,1.17332 1.80506,10e-6 4.18178,-0.21058 7.13017,-0.63179 z"
         style="stroke:#000000"
         id="path5527"
         inkscape:connector-curvature="0" />
      <path
         d="m 857.66328,935.44923 -1.80511,-15.25316 c 3.55003,0.9627 6.6488,1.44406 9.2963,1.44409 3.61019,-3e-5 6.49836,-0.60173 8.66452,-1.80511 2.16609,-1.20342 3.94111,-2.88819 5.32506,-5.0543 1.02286,-1.62461 2.67754,-5.65601 4.96405,-12.09421 0.30081,-0.90256 0.78217,-2.2263 1.44408,-3.97124 l -36.3729,-96.03168 17.50953,0 19.94643,55.50703 c 2.58728,7.03995 4.90383,14.44088 6.94967,22.20282 1.86522,-7.46109 4.09152,-14.74168 6.67889,-21.8418 l 20.48796,-55.86805 16.24597,0 -36.46316,97.47577 c -3.91112,10.52977 -6.94971,17.78028 -9.11579,21.75153 -2.88822,5.35513 -6.19757,9.28123 -9.92809,11.77833 -3.73059,2.49702 -8.18318,3.74555 -13.35779,3.74559 -3.12887,-4e-5 -6.61874,-0.66191 -10.46962,-1.98561 z"
         style="stroke:#000000"
         id="path5529"
         inkscape:connector-curvature="0" />
    </g>
  </g>
</svg>
