<?xml version="1.0" encoding="UTF-8" standalone="no"?>
<!-- Created with Inkscape (http://www.inkscape.org/) -->

<svg
   xmlns:dc="http://purl.org/dc/elements/1.1/"
   xmlns:cc="http://creativecommons.org/ns#"
   xmlns:rdf="http://www.w3.org/1999/02/22-rdf-syntax-ns#"
   xmlns:svg="http://www.w3.org/2000/svg"
   xmlns="http://www.w3.org/2000/svg"
   xmlns:sodipodi="http://sodipodi.sourceforge.net/DTD/sodipodi-0.dtd"
   xmlns:inkscape="http://www.inkscape.org/namespaces/inkscape"
   width="960"
   height="960"
   id="svg2"
   version="1.1"
   inkscape:version="0.48.4 r9939"
   sodipodi:docname="noauto.svg">
  <defs
     id="defs4" />
  <sodipodi:namedview
     id="base"
     pagecolor="#ffffff"
     bordercolor="#666666"
     borderopacity="1.0"
     inkscape:pageopacity="0.0"
     inkscape:pageshadow="2"
     inkscape:zoom="0.35"
     inkscape:cx="644.95378"
     inkscape:cy="520.00001"
     inkscape:document-units="px"
     inkscape:current-layer="layer1"
     showgrid="false"
     fit-margin-top="0"
     fit-margin-left="0"
     fit-margin-right="0"
     fit-margin-bottom="0"
     inkscape:window-width="1600"
     inkscape:window-height="847"
     inkscape:window-x="-8"
     inkscape:window-y="-8"
     inkscape:window-maximized="1" />
  <metadata
     id="metadata7">
    <rdf:RDF>
      <cc:Work
         rdf:about="">
        <dc:format>image/svg+xml</dc:format>
        <dc:type
           rdf:resource="http://purl.org/dc/dcmitype/StillImage" />
        <dc:title />
      </cc:Work>
    </rdf:RDF>
  </metadata>
  <g
     inkscape:label="Layer 1"
     inkscape:groupmode="layer"
     id="layer1"
     transform="translate(1.2218952e-5,-92.36217)">
    <rect
       style="fill:#bb0000;fill-opacity:1;stroke:#ffffff;stroke-width:1.10000002;stroke-miterlimit:4;stroke-opacity:1;stroke-dasharray:none"
       id="rect2985"
       width="958.90002"
       height="958.90002"
       x="0.54997557"
       y="92.91217" />
    <g
       id="g3763"
       transform="matrix(3.034271,0,0,3.034271,2919.5498,-935.66864)">
      <g
         transform="translate(-1.2218952e-5,92.36217)"
         style="font-size:144px;font-style:normal;font-variant:normal;font-weight:normal;font-stretch:normal;line-height:125%;letter-spacing:0px;word-spacing:0px;fill:#666666;fill-opacity:1;stroke:#000000;stroke-width:1.31827378;stroke-miterlimit:4;stroke-opacity:1;font-family:FontAwesome;-inkscape-font-specification:FontAwesome"
         id="text3792">
        <path
           d="m -847.14198,415.42773 c -0.0938,3.62958 -1.35275,6.65644 -3.77688,9.08057 -2.42419,2.42418 -5.45104,3.68314 -9.08056,3.77687 -3.62957,-0.0937 -6.65642,-1.35268 -9.08057,-3.77687 -2.42417,-2.42414 -3.68313,-5.45099 -3.77687,-9.08057 0.0937,-3.6295 1.3527,-6.65636 3.77687,-9.08056 2.42414,-2.42412 5.451,-3.68307 9.08057,-3.77687 3.62952,0.0938 6.65637,1.35275 9.08056,3.77687 2.42413,2.4242 3.68308,5.45105 3.77688,9.08056 z m 2.89292,-25.71487 7.15195,-28.68816 c 0.16234,-0.47704 0.5407,-0.94915 1.13507,-1.41633 0.59427,-0.46699 1.15344,-0.71811 1.67749,-0.75336 l 61.7157,0 c 0.5239,0.0353 1.08306,0.28637 1.67749,0.75336 0.59421,0.46718 0.97257,0.93929 1.13508,1.41633 l 7.15195,28.68816 z m 110.25252,25.71487 c -0.0939,3.62958 -1.35286,6.65644 -3.77687,9.08057 -2.42431,2.42418 -5.45116,3.68314 -9.08056,3.77687 -3.62969,-0.0937 -6.65654,-1.35268 -9.08057,-3.77687 -2.42429,-2.42414 -3.68325,-5.45099 -3.77687,-9.08057 0.0936,-3.6295 1.35258,-6.65636 3.77687,-9.08056 2.42403,-2.42412 5.45088,-3.68307 9.08057,-3.77687 3.6294,0.0938 6.65625,1.35275 9.08056,3.77687 2.42401,2.4242 3.68297,5.45105 3.77687,9.08056 z m 12.85744,-7.71446 c -0.1274,-5.10944 -1.8819,-9.35507 -5.26351,-12.7369 -3.38193,-3.38171 -7.62756,-5.13622 -12.7369,-5.26351 l -2.25005,0 -8.4377,-33.67041 c -1.38465,-5.16967 -4.18048,-9.39521 -8.38747,-12.67664 -4.20725,-3.28121 -8.99195,-4.97544 -14.35412,-5.0827 l -61.7157,0 c -5.36233,0.10726 -10.14703,1.80149 -14.35412,5.08271 -4.20716,3.28143 -7.00298,7.50696 -8.38747,12.67663 l -8.43769,33.67041 -2.25005,0 c -5.10951,0.1273 -9.35514,1.8818 -12.73691,5.26352 -3.38177,3.38182 -5.13627,7.62745 -5.2635,12.73689 l 0,30.85785 c 0.0167,0.73999 0.26451,1.34937 0.74332,1.82817 0.4788,0.47881 1.08819,0.72659 1.82816,0.74332 l 7.71447,0 0,10.28595 c 0.11048,4.36951 1.61721,8.00575 4.52019,10.90873 2.90295,2.90295 6.53919,4.40968 10.90873,4.52019 4.36949,-0.11051 8.00573,-1.61723 10.90873,-4.52019 2.90293,-2.90298 4.40966,-6.53922 4.52019,-10.90873 l 0,-10.28595 82.2876,0 0,10.28595 c 0.11037,4.36951 1.6171,8.00575 4.5202,10.90873 2.90284,2.90295 6.53907,4.40968 10.90873,4.52019 4.36937,-0.11051 8.00561,-1.61723 10.90873,-4.52019 2.90281,-2.90298 4.40954,-6.53922 4.52019,-10.90873 l 0,-10.28595 7.71446,0 c 0.73981,-0.0167 1.3492,-0.26451 1.82817,-0.74333 0.47864,-0.47879 0.72641,-1.08818 0.74332,-1.82816 z"
           style=""
           id="path3560" />
      </g>
      <g
         style="font-size:349.99139404px;font-style:normal;font-variant:normal;font-weight:normal;font-stretch:normal;line-height:125%;letter-spacing:0px;word-spacing:0px;fill:#666666;fill-opacity:1;stroke:#000000;stroke-width:1.31827378;stroke-miterlimit:4;stroke-opacity:1;font-family:FontAwesome;-inkscape-font-specification:FontAwesome"
         id="text3796">
        <path
           d="m -697.74885,497.77676 c -0.76522,30.2572 -11.14931,55.43617 -31.15229,75.53698 -20.00343,20.10091 -45.03591,30.53382 -75.09753,31.29878 -10.68128,-0.0407 -20.91074,-1.57061 -30.68843,-4.58984 -9.77792,-3.01918 -18.88434,-7.28349 -27.31928,-12.79294 l 147.26537,-147.07007 c 5.40747,8.3335 9.58226,17.3504 12.52439,27.05073 2.94164,9.70065 4.43089,19.88943 4.46777,30.56636 z M -892.8657,556.1751 c -5.50949,-8.42684 -9.77381,-17.54954 -12.79296,-27.36812 -3.01925,-9.8184 -4.54919,-20.1618 -4.58983,-31.03022 0.76493,-30.16337 11.14902,-55.28537 31.1523,-75.36609 20.00312,-20.08031 45.03561,-30.50508 75.09752,-31.27435 10.87628,0.0328 21.25223,1.579 31.12787,4.63867 9.87529,3.06012 19.03054,7.43836 27.46578,13.13474 z m 238.86678,-58.39834 c -1.07452,-42.58196 -15.72292,-78.02294 -43.94525,-106.32307 -28.22284,-28.29966 -63.5743,-42.98874 -106.0545,-44.0673 -42.4805,1.07856 -77.83197,15.76765 -106.05451,44.0673 -28.22263,28.30012 -42.87103,63.74111 -43.94523,106.32307 1.07421,42.67578 15.72261,78.17373 43.94523,106.49395 28.22253,28.32026 63.574,43.01749 106.05451,44.09174 42.4802,-1.07424 77.83167,-15.77147 106.0545,-44.09173 28.22233,-28.32023 42.87073,-63.81818 43.94525,-106.49396 z"
           style=""
           id="path3563" />
      </g>
    </g>
    <text
       xml:space="preserve"
       style="font-size:150.67648315px;font-style:normal;font-variant:normal;font-weight:normal;font-stretch:normal;line-height:125%;letter-spacing:0px;word-spacing:0px;fill:#ffffff;fill-opacity:1;stroke:#000000;stroke-width:4;stroke-miterlimit:4;stroke-opacity:1;stroke-dasharray:none;font-family:Arial;-inkscape-font-specification:Arial"
       x="23.631962"
       y="231.24963"
       id="text3755"
       sodipodi:linespacing="125%"
       transform="scale(1.0000721,0.99992791)"><tspan
         sodipodi:role="line"
         id="tspan3757"
         x="23.631962"
         y="231.24963"
         style="stroke:#000000;stroke-width:4;stroke-opacity:1">CHAMPIONS</tspan></text>
    <text
       xml:space="preserve"
       style="font-size:204.86422729px;font-style:normal;font-variant:normal;font-weight:normal;font-stretch:normal;line-height:125%;letter-spacing:0px;word-spacing:0px;fill:#ffffff;fill-opacity:1;stroke:#000000;stroke-width:3.99999976;stroke-miterlimit:4;stroke-opacity:1;stroke-dasharray:none;font-family:Arial;-inkscape-font-specification:Arial"
       x="9.0152178"
       y="516.94342"
       id="text3759"
       sodipodi:linespacing="125%"
       transform="scale(1.0042634,0.9957547)"><tspan
         sodipodi:role="line"
         id="tspan3761"
         x="9.0152178"
         y="516.94342"
         style="stroke-width:3.99999976">don't drive</tspan></text>
    <text
       xml:space="preserve"
       style="font-size:187.72212219px;font-style:normal;font-variant:normal;font-weight:normal;font-stretch:normal;line-height:125%;letter-spacing:0px;word-spacing:0px;fill:#ffffff;fill-opacity:1;stroke:#000000;stroke-width:3.99999952;stroke-miterlimit:4;stroke-opacity:1;stroke-dasharray:none;font-family:Arial;-inkscape-font-specification:Arial"
       x="4.1051621"
       y="761.12317"
       id="text3759-1"
       sodipodi:linespacing="125%"
       transform="scale(1.0060304,0.99400574)"><tspan
         sodipodi:role="line"
         id="tspan3761-7"
         x="4.1051621"
         y="761.12317"
         style="stroke:#000000;stroke-width:3.99999952;stroke-opacity:1">themselves</tspan></text>
    <text
       xml:space="preserve"
       style="font-size:184.84294128px;font-style:normal;font-variant:normal;font-weight:normal;font-stretch:normal;line-height:125%;letter-spacing:0px;word-spacing:0px;fill:#ffffff;fill-opacity:1;stroke:#000000;stroke-width:4;stroke-miterlimit:4;stroke-opacity:1;stroke-dasharray:none;font-family:Arial;-inkscape-font-specification:Arial"
       x="13.685581"
       y="991.48444"
       id="text3759-1-1"
       sodipodi:linespacing="125%"
       transform="scale(1.0063605,0.99367971)"><tspan
         sodipodi:role="line"
         id="tspan3761-7-7"
         x="13.685581"
         y="991.48444"
         style="stroke:#000000;stroke-width:4;stroke-opacity:1">to the party</tspan></text>
  </g>
</svg>
