<?xml version="1.0" encoding="UTF-8" standalone="no"?>
<!-- Created with Inkscape (http://www.inkscape.org/) -->

<svg
   xmlns:dc="http://purl.org/dc/elements/1.1/"
   xmlns:cc="http://creativecommons.org/ns#"
   xmlns:rdf="http://www.w3.org/1999/02/22-rdf-syntax-ns#"
   xmlns:svg="http://www.w3.org/2000/svg"
   xmlns="http://www.w3.org/2000/svg"
   xmlns:sodipodi="http://sodipodi.sourceforge.net/DTD/sodipodi-0.dtd"
   xmlns:inkscape="http://www.inkscape.org/namespaces/inkscape"
   width="960"
   height="960"
   id="svg2"
   version="1.1"
   inkscape:version="0.48.4 r9939"
   sodipodi:docname="social.svg">
  <defs
     id="defs4" />
  <sodipodi:namedview
     id="base"
     pagecolor="#ffffff"
     bordercolor="#666666"
     borderopacity="1.0"
     inkscape:pageopacity="0.0"
     inkscape:pageshadow="2"
     inkscape:zoom="0.35"
     inkscape:cx="783.32967"
     inkscape:cy="520.00001"
     inkscape:document-units="px"
     inkscape:current-layer="layer23"
     showgrid="false"
     fit-margin-top="0"
     fit-margin-left="0"
     fit-margin-right="0"
     fit-margin-bottom="0"
     inkscape:window-width="1600"
     inkscape:window-height="847"
     inkscape:window-x="-8"
     inkscape:window-y="-8"
     inkscape:window-maximized="1"
     showguides="true"
     inkscape:guide-bbox="true" />
  <metadata
     id="metadata7">
    <rdf:RDF>
      <cc:Work
         rdf:about="">
        <dc:format>image/svg+xml</dc:format>
        <dc:type
           rdf:resource="http://purl.org/dc/dcmitype/StillImage" />
        <dc:title />
      </cc:Work>
    </rdf:RDF>
  </metadata>
  <g
     inkscape:label="Layer 1"
     inkscape:groupmode="layer"
     id="layer1"
     transform="translate(1.2218952e-5,-92.36217)">
    <rect
       style="fill:#bb0000;fill-opacity:1;stroke:#ffffff;stroke-width:1.10000002;stroke-miterlimit:4;stroke-opacity:1;stroke-dasharray:none"
       id="rect2985"
       width="958.90002"
       height="958.90002"
       x="0.54997557"
       y="92.91217" />
    <g
       id="text3816"
       style="font-size:223.21177673px;font-style:normal;font-variant:normal;font-weight:normal;font-stretch:normal;line-height:125%;letter-spacing:0px;word-spacing:0px;fill:#666666;fill-opacity:1;stroke:#000000;stroke-width:1.83617353;stroke-miterlimit:4;stroke-opacity:1;font-family:FontAwesome;-inkscape-font-specification:FontAwesome"
       transform="matrix(2.1849732,0,0,2.171933,-420.56806,-164.42355)">
      <path
         style="stroke-width:1.32438457"
         inkscape:connector-curvature="0"
         id="path3610"
         d="m 378.3336,289.22355 c -0.0521,2.16948 -0.78907,3.96526 -2.211,5.38734 -1.42226,1.4221 -3.21804,2.1591 -5.38734,2.211 l -133.15784,0 c -2.1695,-0.0519 -3.96528,-0.78889 -5.38735,-2.211 -1.42212,-1.42208 -2.15912,-3.21786 -2.211,-5.38734 l 0,-80.71682 17.56339,0 c -0.8123,2.56401 -1.42992,5.22135 -1.85288,7.97203 -0.42303,2.75085 -0.63583,5.53275 -0.63838,8.34572 0.42815,16.35414 6.23589,29.95225 17.42325,40.79438 11.18724,10.84219 25.185,16.46828 41.9933,16.87829 16.86779,-0.41 30.90187,-6.03609 42.10228,-16.87829 11.20014,-10.84213 17.01308,-24.44024 17.43883,-40.79438 -0.003,-2.81297 -0.21555,-5.59488 -0.63839,-8.34573 -0.42315,-2.75067 -1.04078,-5.40801 -1.85287,-7.97202 l 16.816,0 0,0 0,80.71682 z m -35.37589,-66.39208 c -0.27261,10.54381 -4.02507,19.3203 -11.25738,26.3295 -7.23256,7.00931 -16.31008,10.64759 -27.23258,10.91484 -10.86303,-0.26725 -19.90422,-3.90553 -27.1236,-10.91484 -7.21953,-7.0092 -10.96679,-15.78569 -11.24181,-26.3295 0.27502,-10.54365 4.02229,-19.32015 11.24181,-26.32951 7.21939,-7.00914 16.26058,-10.64742 27.1236,-10.91482 10.9225,0.2674 20.00002,3.90568 27.23258,10.91483 7.2323,7.00936 10.98476,15.78585 11.25738,26.3295 z m 35.37589,-44.84268 c -0.0625,2.4291 -0.90325,4.45324 -2.5224,6.07244 -1.61949,1.61944 -3.64363,2.46024 -6.07245,2.52241 l -21.67396,0 c -2.42912,-0.0622 -4.45327,-0.90297 -6.07245,-2.5224 -1.61945,-1.6192 -2.46025,-3.64335 -2.52239,-6.07245 l 0,-20.55289 c 0.0622,-2.42883 0.90295,-4.45298 2.5224,-6.07245 1.61918,-1.61917 3.64333,-2.45997 6.07244,-2.5224 l 0,0 21.67396,0 c 2.42881,0.0624 4.45296,0.90323 6.07244,2.5224 1.61916,1.61947 2.45996,3.64362 2.52241,6.07245 l 0,20.55289 z m 21.67396,-25.9091 c -0.18184,-6.9079 -2.59006,-12.67932 -7.22465,-17.31426 -4.63497,-4.63461 -10.40638,-7.04282 -17.31426,-7.22465 l -142.25094,0 0,0 c -6.90808,0.18183 -12.67949,2.59005 -17.31426,7.22465 -4.63478,4.63495 -7.04299,10.40636 -7.22465,17.31426 l 0,142.25094 c 0.18166,6.90805 2.58987,12.67946 7.22466,17.31425 4.63477,4.63477 10.40618,7.04299 17.31425,7.22466 l 142.25094,0 c 6.90788,-0.18167 12.67929,-2.58988 17.31425,-7.22465 4.6346,-4.63479 7.04282,-10.40621 7.22466,-17.31426 z" />
    </g>
    <g
       id="text3824"
       style="font-size:223.21177673px;font-style:normal;font-variant:normal;font-weight:normal;font-stretch:normal;line-height:125%;letter-spacing:0px;word-spacing:0px;fill:#666666;fill-opacity:1;stroke:#000000;stroke-width:1.83617353;stroke-miterlimit:4;stroke-opacity:1;font-family:FontAwesome;-inkscape-font-specification:FontAwesome"
       transform="matrix(2.1849732,0,0,2.171933,-701.58462,-164.42355)">
      <path
         style="stroke-width:1.32438457"
         inkscape:connector-curvature="0"
         id="path3613"
         d="m 749.75525,162.41842 c -3.62031,1.56755 -7.37277,2.88584 -11.25738,3.95487 -3.885,1.0693 -7.85544,1.82706 -11.91134,2.27328 4.20122,-2.51967 7.81874,-5.67007 10.85255,-9.45122 3.03343,-3.78086 5.3119,-8.02118 6.83539,-12.72099 -3.87462,2.31235 -7.95924,4.28978 -12.25388,5.93231 -4.29501,1.64282 -8.72218,2.90402 -13.28153,3.7836 -3.7163,-3.96252 -8.08638,-7.06102 -13.11026,-9.29552 -5.02419,-2.23419 -10.45305,-3.37082 -16.28661,-3.40991 -11.43138,0.29081 -20.92411,4.22492 -28.47821,11.80235 -7.55433,7.57772 -11.47287,17.05488 -11.75563,28.4315 0.0207,3.13494 0.35283,6.2075 0.9965,9.21766 -16.82387,-0.99121 -32.34752,-5.17445 -46.57099,-12.54973 -14.22358,-7.37503 -26.35289,-17.22588 -36.38796,-29.55256 -1.75428,2.99485 -3.10372,6.19196 -4.04831,9.59135 -0.94462,3.39967 -1.42211,6.97048 -1.43246,10.71242 0.0701,7.04832 1.70493,13.47368 4.90466,19.27612 3.19969,5.80267 7.54382,10.54644 13.03241,14.23132 -3.31133,-0.13485 -6.49807,-0.64348 -9.56022,-1.5259 -3.06219,-0.88222 -5.93751,-2.07595 -8.62598,-3.58118 -1e-5,0.16619 -1e-5,0.33227 0,0.49825 0.19202,9.96773 3.26457,18.52624 9.21766,25.67555 5.95304,7.14946 13.63442,11.7531 23.04415,13.81092 -3.40476,0.89276 -6.93405,1.34949 -10.58785,1.37019 -2.5951,-0.0207 -5.12788,-0.2283 -7.59834,-0.62281 2.69624,8.11481 7.39329,14.71145 14.09118,19.78994 6.69781,5.07857 14.54008,7.78263 23.52684,8.11217 -6.95483,5.45744 -14.65697,9.67701 -23.10644,12.65871 -8.44956,2.98174 -17.39732,4.49207 -26.84332,4.53098 -3.30093,0.0208 -6.53957,-0.1453 -9.71591,-0.49825 8.94257,5.76624 18.61695,10.20898 29.02317,13.32824 10.40616,3.11926 21.32617,4.69706 32.76007,4.7334 24.70644,-0.42828 45.56072,-6.38116 62.56292,-17.85865 17.00193,-11.47745 29.89341,-25.90983 38.6745,-43.29717 8.78074,-17.38723 13.19273,-35.15974 13.23597,-53.31758 0.0206,-1.74377 -0.0209,-3.48765 -0.12456,-5.23164 3.93134,-2.87522 7.59037,-6.06195 10.97711,-9.56022 3.38636,-3.49801 6.45372,-7.24527 9.2021,-11.2418 z" />
    </g>
    <g
       id="text3812"
       style="font-size:223.21177673px;font-style:normal;font-variant:normal;font-weight:normal;font-stretch:normal;line-height:125%;letter-spacing:0px;word-spacing:0px;fill:#666666;fill-opacity:1;stroke:#000000;stroke-width:4;stroke-miterlimit:4;stroke-opacity:1;font-family:FontAwesome;-inkscape-font-specification:FontAwesome"
       transform="matrix(1.0037869,0,0,0.99622738,-0.40727484,12)">
      <path
         inkscape:connector-curvature="0"
         id="path3616"
         d="m 98.261738,970.62556 c 0.03625,-4.97469 -1.219759,-10.09734 -3.768032,-15.36796 -2.548425,-5.27052 -6.607098,-8.11989 -12.176031,-8.54814 -5.569065,0.42825 -9.62774,3.27763 -12.176038,8.54814 -2.5484,5.27061 -3.804408,10.39326 -3.768025,15.36796 -0.03638,4.97477 1.219632,10.09742 3.768035,15.36796 2.5483,5.27058 6.606972,8.11996 12.176028,8.54813 5.568933,-0.42817 9.627605,-3.27754 12.176028,-8.54813 2.54827,-5.27055 3.804281,-10.39319 3.768035,-15.36796 z m 79.720312,0 c 0.0362,-4.97469 -1.21983,-10.09734 -3.76803,-15.36796 -2.5485,-5.27052 -6.60718,-8.11989 -12.17603,-8.54814 -5.56914,0.42825 -9.62782,3.27763 -12.17604,8.54814 -2.54848,5.27061 -3.80448,10.39326 -3.76802,15.36796 -0.0365,4.97477 1.21955,10.09742 3.76803,15.36796 2.54822,5.27058 6.6069,8.11996 12.17603,8.54813 5.56885,-0.42817 9.62753,-3.27754 12.17603,-8.54813 2.54819,-5.27055 3.8042,-10.39319 3.76803,-15.36796 z m 19.93008,0 c -0.24315,12.54244 -3.63249,21.98923 -10.16803,28.34039 -6.53588,6.35115 -14.76011,10.58475 -24.6727,12.70085 -9.91289,2.116 -20.0563,3.0925 -30.43028,2.9295 l -20.92658,0 c -10.37418,0.163 -20.517595,-0.8135 -30.430276,-2.9295 -9.912805,-2.1161 -18.137031,-6.3497 -24.672702,-12.70085 -6.535747,-6.35116 -9.925087,-15.79794 -10.168029,-28.34039 0.05966,-9.83264 2.836374,-18.19393 8.330151,-25.08388 5.493704,-6.88982 13.346354,-10.48657 23.557975,-10.79026 4.10273,0.039 8.166592,0.33484 12.191601,0.88751 4.024864,0.55282 8.057588,1.12892 12.09818,1.72831 6.45643,0.95505 12.97522,1.41178 19.55639,1.37019 6.58097,0.0416 13.09976,-0.41514 19.55639,-1.37019 4.09488,-0.59939 8.14317,-1.1755 12.14489,-1.72832 4.00145,-0.55267 8.04975,-0.84851 12.1449,-0.8875 10.21141,0.30369 18.06406,3.90045 23.55797,10.79026 5.49357,6.88995 8.27029,15.25123 8.33015,25.08388 z m 27.90211,-21.92309 c 0.0413,-9.14233 -1.28735,-17.91883 -3.98601,-26.3295 -2.69907,-8.41051 -7.01725,-16.15935 -12.95455,-23.24657 2.24193,-6.78857 3.363,-13.76409 3.3632,-20.92658 -2e-4,-4.68914 -0.52959,-9.32392 -1.58819,-13.90435 -1.05897,-4.58013 -2.64715,-8.99692 -4.76452,-13.25038 -9.52666,0.10655 -17.9087,1.98019 -25.14616,5.6209 -7.23778,3.64102 -14.46762,8.41074 -21.68953,14.30917 -5.68073,-1.36486 -11.44696,-2.37175 -17.29869,-3.02065 -5.85198,-0.64863 -11.71163,-0.97041 -17.57895,-0.96536 -13.01693,-0.0414 -25.846901,1.41185 -38.489964,4.3597 -7.276619,-5.9685 -14.553167,-10.81608 -21.829667,-14.54273 -7.27659,-3.72636 -15.736484,-5.6467 -25.379708,-5.76103 -2.117591,4.25346 -3.705769,8.67025 -4.76454,13.25038 -1.0588,4.58043 -1.588191,9.21521 -1.588173,13.90435 -1.8e-5,3.56055 0.280248,7.12097 0.840799,10.68127 0.560522,3.56055 1.401322,7.05869 2.522402,10.49444 -5.937511,7.02234 -10.255691,14.7141 -12.954551,23.07529 -2.698869,8.36137 -4.027539,17.11192 -3.986016,26.25165 -0.07525,6.98077 0.417808,14.0082 1.47919,21.08229 1.061378,7.07417 3.142615,13.79019 6.243716,20.14806 5.972091,11.03848 14.525408,19.17498 25.659976,24.40978 11.134502,5.2347 23.147897,8.6009 36.040222,10.0988 12.892184,1.4978 24.960944,2.1606 36.206314,1.9884 11.05216,0.1653 22.75953,-0.5252 35.12215,-2.0715 12.36234,-1.5462 23.83903,-4.9402 34.43013,-10.1818 10.59074,-5.2417 18.755,-13.3229 24.49278,-24.24368 3.04121,-6.41237 5.08611,-13.14396 6.13472,-20.19477 1.0482,-7.05074 1.53607,-14.06259 1.46362,-21.03558 z" />
    </g>
    <path
       style="fill:#000000;stroke:#000000;stroke-width:4;stroke-linecap:butt;stroke-linejoin:miter;stroke-miterlimit:4;stroke-opacity:1;stroke-dasharray:none"
       d="m 78.571417,838.9336 802.857143,0"
       id="path3882"
       inkscape:connector-curvature="0" />
  </g>
  <g
     inkscape:groupmode="layer"
     id="layer22"
     inkscape:label="Text"
     style="display:none">
    <text
       xml:space="preserve"
       style="font-size:88.41346741px;font-style:normal;font-variant:normal;font-weight:normal;font-stretch:normal;text-align:end;line-height:125%;letter-spacing:0px;word-spacing:0px;text-anchor:end;fill:#ffffff;fill-opacity:1;stroke:#000000;stroke-width:3.99999976;stroke-miterlimit:4;stroke-opacity:1;stroke-dasharray:none;font-family:Arial;-inkscape-font-specification:Arial"
       x="937.71979"
       y="671.84259"
       id="text3759-1"
       sodipodi:linespacing="125%"
       transform="matrix(0.99927463,0,0,1.0007259,1.2218952e-5,-92.36217)"><tspan
         sodipodi:role="line"
         id="tspan3761-7"
         x="937.71979"
         y="671.84259"
         style="font-size:128px;text-align:end;text-anchor:end;stroke:#000000;stroke-width:3.99999976;stroke-opacity:1">@davidbradway</tspan><tspan
         sodipodi:role="line"
         x="937.71979"
         y="798.76514"
         style="text-align:end;text-anchor:end;stroke:#000000;stroke-width:3.99999976;stroke-opacity:1"
         id="tspan3827">#championshouseparty</tspan><tspan
         sodipodi:role="line"
         x="937.71979"
         y="909.28198"
         style="text-align:end;text-anchor:end;stroke:#000000;stroke-width:3.99999976;stroke-opacity:1"
         id="tspan3829" /><tspan
         sodipodi:role="line"
         x="937.71979"
         y="1019.7988"
         style="text-align:end;text-anchor:end;stroke:#000000;stroke-width:3.99999976;stroke-opacity:1"
         id="tspan3825" /></text>
    <text
       xml:space="preserve"
       style="font-size:85.24845123px;font-style:normal;font-variant:normal;font-weight:normal;font-stretch:normal;text-align:end;line-height:125%;letter-spacing:0px;word-spacing:0px;text-anchor:end;fill:#ffffff;fill-opacity:1;stroke:#000000;stroke-width:3.99999976;stroke-miterlimit:4;stroke-opacity:1;stroke-dasharray:none;font-family:Arial;-inkscape-font-specification:Arial"
       x="945.31989"
       y="967.56183"
       id="text3759-1-1"
       sodipodi:linespacing="125%"
       transform="matrix(1.0000467,0,0,0.99995331,1.2218952e-5,-92.36217)"><tspan
         sodipodi:role="line"
         x="945.31989"
         y="967.56183"
         style="text-align:end;text-anchor:end;stroke:#000000;stroke-width:3.99999976;stroke-opacity:1"
         id="tspan3825-9">/davidbradway/chp</tspan></text>
  </g>
  <g
     inkscape:groupmode="layer"
     id="layer23"
     inkscape:label="PathsFromText"
     style="display:inline">
    <g
       transform="scale(0.99927463,1.0007259)"
       style="font-size:88.41346741px;font-style:normal;font-variant:normal;font-weight:normal;font-stretch:normal;text-align:end;line-height:125%;letter-spacing:0px;word-spacing:0px;text-anchor:end;fill:#ffffff;fill-opacity:1;stroke:#000000;stroke-width:3.99999976;stroke-miterlimit:4;stroke-opacity:1;font-family:Arial;-inkscape-font-specification:Arial"
       id="text3759-1-3">
      <path
         d="m 89.782288,569.35992 c -2.708404,3.12501 -5.739651,5.63543 -9.09375,7.53125 -3.354227,1.89584 -6.718807,2.84375 -10.09375,2.84375 -3.708383,0 -7.312546,-1.08333 -10.8125,-3.25 -3.500039,-2.16666 -6.343787,-5.49999 -8.53125,-10 -2.187532,-4.49998 -3.281281,-9.43747 -3.28125,-14.8125 -3.1e-5,-6.62496 1.697884,-13.26037 5.09375,-19.90625 3.395794,-6.64577 7.614539,-11.63535 12.65625,-14.96875 5.041613,-3.33326 9.937441,-4.99993 14.6875,-5 3.624933,7e-5 7.083263,0.94799 10.375,2.84375 3.291589,1.8959 6.12492,4.78131 8.5,8.65625 l 2.125002,-9.6875 11.1875,0 -9,41.9375 c -1.25009,5.83336 -1.87509,9.06252 -1.875,9.6875 -9e-5,1.12502 0.427,2.09377 1.28125,2.90625 0.85408,0.81251 1.88533,1.21876 3.09375,1.21875 2.20824,10e-6 5.10407,-1.27082 8.6875,-3.8125 4.7499,-3.33331 8.51031,-7.80206 11.28125,-13.40625 2.77072,-5.60413 4.15613,-11.38537 4.15625,-17.34375 -1.2e-4,-6.95828 -1.78136,-13.45827 -5.34375,-19.5 -3.56261,-6.04159 -8.8751,-10.87492 -15.9375,-14.5 -7.06259,-3.62491 -14.864663,-5.43741 -23.406252,-5.4375 -9.750059,9e-5 -18.6563,2.28134 -26.71875,6.84375 -8.062534,4.56258 -14.312528,11.10424 -18.75,19.625 -4.437519,8.52089 -6.656267,17.65629 -6.65625,27.40625 -1.7e-5,10.20836 2.218731,19.00002 6.65625,26.375 4.437472,7.375 10.854133,12.82291 19.25,16.34375 8.395782,3.52082 17.697856,5.28124 27.90625,5.28125 10.916585,-10e-6 20.062412,-1.83334 27.437502,-5.5 7.37489,-3.66667 12.89572,-8.125 16.5625,-13.375 l 11.3125,0 c -2.12513,4.375 -5.77096,8.83333 -10.9375,13.375 -5.16678,4.54165 -11.31261,8.1354 -18.4375,10.78125 -7.12509,2.64581 -15.708416,3.96873 -25.750002,3.96875 -9.250061,-2e-5 -17.781303,-1.18752 -25.59375,-3.5625 -7.812537,-2.37502 -14.468781,-5.94793 -19.96875,-10.71875 -5.50002,-4.77084 -9.645849,-10.26041 -12.4375,-16.46875 -3.500009,-7.87498 -5.250007,-16.37498 -5.25,-25.5 -7e-6,-10.16662 2.083324,-19.85411 6.25,-29.0625 5.083315,-11.29159 12.302057,-19.93742 21.65625,-25.9375 9.354122,-5.99991 20.697861,-8.9999 34.03125,-9 10.333254,1e-4 19.614492,2.11468 27.843752,6.34375 8.22906,4.22925 14.71864,10.53133 19.46875,18.90625 4.04154,7.2084 6.06238,15.04172 6.0625,23.5 -1.2e-4,12.08337 -4.25012,22.81253 -12.75,32.1875 -7.58344,8.41667 -15.8751,12.625 -24.875,12.625 -2.875084,0 -5.197998,-0.4375 -6.968752,-1.3125 -1.77091,-0.87499 -3.072992,-2.12499 -3.90625,-3.75 -0.54174,-1.04166 -0.937573,-2.83332 -1.1875,-5.375 z m -30.25,-16.9375 c -4.3e-5,5.70836 1.354123,10.14585 4.0625,13.3125 2.708284,3.16668 5.812447,4.75001 9.3125,4.75 2.333275,10e-6 4.791606,-0.6979 7.375,-2.09375 2.583267,-1.39582 5.052015,-3.46873 7.40625,-6.21875 2.354093,-2.74998 4.281175,-6.23956 5.78125,-10.46875 1.499922,-4.22913 2.249921,-8.46871 2.25,-12.71875 -7.9e-5,-5.66662 -1.406327,-10.06245 -4.21875,-13.1875 -2.812572,-3.12494 -6.239652,-4.68744 -10.28125,-4.6875 -2.666728,6e-5 -5.177143,0.67715 -7.53125,2.03125 -2.354221,1.35423 -4.635469,3.53131 -6.84375,6.53125 -2.208381,3.00005 -3.979213,6.64588 -5.3125,10.9375 -1.333377,4.29171 -2.000043,8.2292 -2,11.8125 z"
         style="font-size:128px;stroke:#000000"
         id="path5660"
         inkscape:connector-curvature="0" />
      <path
         d="m 198.71979,579.54742 0,-8.375 c -4.20838,6.58334 -10.39588,9.875 -18.5625,9.875 -5.2917,0 -10.15628,-1.45833 -14.59375,-4.375 -4.43752,-2.91666 -7.87501,-6.98957 -10.3125,-12.21875 -2.43751,-5.22914 -3.65626,-11.23955 -3.65625,-18.03125 -1e-5,-6.62496 1.10416,-12.63537 3.3125,-18.03125 2.20832,-5.39577 5.52082,-9.53118 9.9375,-12.40625 4.41664,-2.87493 9.35414,-4.31243 14.8125,-4.3125 3.99996,7e-5 7.56246,0.84382 10.6875,2.53125 3.12495,1.68757 5.66662,3.88548 7.625,6.59375 l 0,-32.875 11.1875,0 0,91.625 z m -35.5625,-33.125 c -2e-5,8.50003 1.79165,14.85419 5.375,19.0625 3.58331,4.20835 7.81247,6.31251 12.6875,6.3125 4.91663,10e-6 9.0937,-2.0104 12.53125,-6.03125 3.43745,-4.02081 5.1562,-10.15622 5.15625,-18.40625 -5e-5,-9.08329 -1.75005,-15.74995 -5.25,-20 -3.50005,-4.24994 -7.81254,-6.37494 -12.9375,-6.375 -5.00003,6e-5 -9.17711,2.04173 -12.53125,6.125 -3.35419,4.08339 -5.03127,10.52088 -5.03125,19.3125 z"
         style="font-size:128px;stroke:#000000"
         id="path5662"
         inkscape:connector-curvature="0" />
      <path
         d="m 270.21979,571.35992 c -4.16672,3.54168 -8.17713,6.04167 -12.03125,7.5 -3.8542,1.45834 -7.98962,2.1875 -12.40625,2.1875 -7.29169,0 -12.89585,-1.78125 -16.8125,-5.34375 -3.91668,-3.56249 -5.87501,-8.11457 -5.875,-13.65625 -1e-5,-3.24997 0.73958,-6.21872 2.21875,-8.90625 1.47916,-2.68747 3.41665,-4.84371 5.8125,-6.46875 2.39582,-1.62496 5.09373,-2.85413 8.09375,-3.6875 2.20831,-0.58329 5.54164,-1.14579 10,-1.6875 9.08329,-1.08329 15.77078,-2.37496 20.0625,-3.875 0.0416,-1.54162 0.0625,-2.52078 0.0625,-2.9375 -5e-5,-4.58328 -1.06255,-7.81244 -3.1875,-9.6875 -2.87505,-2.54161 -7.14588,-3.81244 -12.8125,-3.8125 -5.2917,6e-5 -9.19794,0.92715 -11.71875,2.78125 -2.52086,1.85422 -4.38544,5.13547 -5.59375,9.84375 l -11,-1.5 c 0.99999,-4.70828 2.64582,-8.51036 4.9375,-11.40625 2.29165,-2.89577 5.60415,-5.12493 9.9375,-6.6875 4.33331,-1.56243 9.35413,-2.34368 15.0625,-2.34375 5.66662,7e-5 10.27078,0.66674 13.8125,2 3.54161,1.3334 6.14577,3.01048 7.8125,5.03125 1.6666,2.0209 2.83327,4.57298 3.5,7.65625 0.37494,1.91672 0.56244,5.37505 0.5625,10.375 l 0,15 c -6e-5,10.45836 0.23952,17.07293 0.71875,19.84375 0.4791,2.77084 1.42702,5.42709 2.84375,7.96875 l -11.75,0 c -1.16672,-2.33333 -1.91672,-5.06249 -2.25,-8.1875 z m -0.9375,-25.125 c -4.08338,1.6667 -10.20838,3.08337 -18.375,4.25 -4.62503,0.6667 -7.89586,1.4167 -9.8125,2.25 -1.91669,0.83336 -3.39585,2.05211 -4.4375,3.65625 -1.04169,1.60419 -1.56252,3.38544 -1.5625,5.34375 -2e-5,3.00002 1.1354,5.50002 3.40625,7.5 2.27081,2.00001 5.59372,3.00001 9.96875,3 4.3333,10e-6 8.18746,-0.9479 11.5625,-2.84375 3.37495,-1.89582 5.85412,-4.48956 7.4375,-7.78125 1.20828,-2.54164 1.81245,-6.29164 1.8125,-11.25 z"
         style="font-size:128px;stroke:#000000"
         id="path5664"
         inkscape:connector-curvature="0" />
      <path
         d="m 316.59479,579.54742 -25.25,-66.375 11.875,0 14.25,39.75 c 1.54163,4.29169 2.9583,8.75002 4.25,13.375 0.99996,-3.49998 2.3958,-7.70831 4.1875,-12.625 l 14.75,-40.5 11.5625,0 -25.125,66.375 z"
         style="font-size:128px;stroke:#000000"
         id="path5666"
         inkscape:connector-curvature="0" />
      <path
         d="m 362.21979,500.85992 0,-12.9375 11.25,0 0,12.9375 z m 0,78.6875 0,-66.375 11.25,0 0,66.375 z"
         style="font-size:128px;stroke:#000000"
         id="path5668"
         inkscape:connector-curvature="0" />
      <path
         d="m 433.71979,579.54742 0,-8.375 c -4.20838,6.58334 -10.39588,9.875 -18.5625,9.875 -5.2917,0 -10.15628,-1.45833 -14.59375,-4.375 -4.43752,-2.91666 -7.87501,-6.98957 -10.3125,-12.21875 -2.43751,-5.22914 -3.65626,-11.23955 -3.65625,-18.03125 -10e-6,-6.62496 1.10416,-12.63537 3.3125,-18.03125 2.20832,-5.39577 5.52082,-9.53118 9.9375,-12.40625 4.41664,-2.87493 9.35414,-4.31243 14.8125,-4.3125 3.99996,7e-5 7.56246,0.84382 10.6875,2.53125 3.12495,1.68757 5.66662,3.88548 7.625,6.59375 l 0,-32.875 11.1875,0 0,91.625 z m -35.5625,-33.125 c -2e-5,8.50003 1.79165,14.85419 5.375,19.0625 3.58331,4.20835 7.81247,6.31251 12.6875,6.3125 4.91663,10e-6 9.0937,-2.0104 12.53125,-6.03125 3.43745,-4.02081 5.1562,-10.15622 5.15625,-18.40625 -5e-5,-9.08329 -1.75005,-15.74995 -5.25,-20 -3.50005,-4.24994 -7.81254,-6.37494 -12.9375,-6.375 -5.00003,6e-5 -9.17711,2.04173 -12.53125,6.125 -3.35419,4.08339 -5.03127,10.52088 -5.03125,19.3125 z"
         style="font-size:128px;stroke:#000000"
         id="path5670"
         inkscape:connector-curvature="0" />
      <path
         d="m 472.28229,579.54742 -10.4375,0 0,-91.625 11.25,0 0,32.6875 c 4.74997,-5.95826 10.81247,-8.93743 18.1875,-8.9375 4.08329,7e-5 7.94787,0.82299 11.59375,2.46875 3.64578,1.6459 6.64577,3.9584 9,6.9375 2.3541,2.97923 4.19785,6.57297 5.53125,10.78125 1.33327,4.20838 1.99993,8.70838 2,13.5 -7e-5,11.37503 -2.81257,20.16669 -8.4375,26.375 -5.62505,6.20834 -12.37505,9.3125 -20.25,9.3125 -7.83337,0 -13.97919,-3.27083 -18.4375,-9.8125 z m -0.125,-33.6875 c -2e-5,7.95836 1.08331,13.70836 3.25,17.25 3.54164,5.79168 8.3333,8.68751 14.375,8.6875 4.91662,10e-6 9.16662,-2.1354 12.75,-6.40625 3.58328,-4.27081 5.37494,-10.63539 5.375,-19.09375 -6e-5,-8.66662 -1.71881,-15.06245 -5.15625,-19.1875 -3.43755,-4.12494 -7.59379,-6.18744 -12.46875,-6.1875 -4.9167,6e-5 -9.1667,2.13548 -12.75,6.40625 -3.58336,4.27089 -5.37502,10.44796 -5.375,18.53125 z"
         style="font-size:128px;stroke:#000000"
         id="path5672"
         inkscape:connector-curvature="0" />
      <path
         d="m 533.03229,579.54742 0,-66.375 10.125,0 0,10.0625 c 2.58331,-4.70827 4.96872,-7.81243 7.15625,-9.3125 2.18747,-1.49993 4.59372,-2.24993 7.21875,-2.25 3.79163,7e-5 7.64579,1.2084 11.5625,3.625 l -3.875,10.4375 c -2.75004,-1.62494 -5.50004,-2.43744 -8.25,-2.4375 -2.45837,6e-5 -4.6667,0.73964 -6.625,2.21875 -1.95836,1.47922 -3.35419,3.5313 -4.1875,6.15625 -1.25002,4.00005 -1.87502,8.37504 -1.875,13.125 l 0,34.75 z"
         style="font-size:128px;stroke:#000000"
         id="path5674"
         inkscape:connector-curvature="0" />
      <path
         d="m 619.21979,571.35992 c -4.16672,3.54168 -8.17713,6.04167 -12.03125,7.5 -3.8542,1.45834 -7.98962,2.1875 -12.40625,2.1875 -7.29169,0 -12.89585,-1.78125 -16.8125,-5.34375 -3.91668,-3.56249 -5.87501,-8.11457 -5.875,-13.65625 -10e-6,-3.24997 0.73958,-6.21872 2.21875,-8.90625 1.47916,-2.68747 3.41665,-4.84371 5.8125,-6.46875 2.39582,-1.62496 5.09373,-2.85413 8.09375,-3.6875 2.20831,-0.58329 5.54164,-1.14579 10,-1.6875 9.08329,-1.08329 15.77078,-2.37496 20.0625,-3.875 0.0416,-1.54162 0.0625,-2.52078 0.0625,-2.9375 -5e-5,-4.58328 -1.06255,-7.81244 -3.1875,-9.6875 -2.87505,-2.54161 -7.14588,-3.81244 -12.8125,-3.8125 -5.2917,6e-5 -9.19794,0.92715 -11.71875,2.78125 -2.52086,1.85422 -4.38544,5.13547 -5.59375,9.84375 l -11,-1.5 c 0.99999,-4.70828 2.64582,-8.51036 4.9375,-11.40625 2.29165,-2.89577 5.60415,-5.12493 9.9375,-6.6875 4.33331,-1.56243 9.35413,-2.34368 15.0625,-2.34375 5.66662,7e-5 10.27078,0.66674 13.8125,2 3.54161,1.3334 6.14577,3.01048 7.8125,5.03125 1.6666,2.0209 2.83327,4.57298 3.5,7.65625 0.37494,1.91672 0.56244,5.37505 0.5625,10.375 l 0,15 c -6e-5,10.45836 0.23952,17.07293 0.71875,19.84375 0.4791,2.77084 1.42702,5.42709 2.84375,7.96875 l -11.75,0 c -1.16672,-2.33333 -1.91672,-5.06249 -2.25,-8.1875 z m -0.9375,-25.125 c -4.08338,1.6667 -10.20838,3.08337 -18.375,4.25 -4.62503,0.6667 -7.89586,1.4167 -9.8125,2.25 -1.91669,0.83336 -3.39585,2.05211 -4.4375,3.65625 -1.04169,1.60419 -1.56252,3.38544 -1.5625,5.34375 -2e-5,3.00002 1.1354,5.50002 3.40625,7.5 2.27081,2.00001 5.59372,3.00001 9.96875,3 4.3333,10e-6 8.18746,-0.9479 11.5625,-2.84375 3.37495,-1.89582 5.85412,-4.48956 7.4375,-7.78125 1.20828,-2.54164 1.81245,-6.29164 1.8125,-11.25 z"
         style="font-size:128px;stroke:#000000"
         id="path5676"
         inkscape:connector-curvature="0" />
      <path
         d="m 690.21979,579.54742 0,-8.375 c -4.20838,6.58334 -10.39588,9.875 -18.5625,9.875 -5.2917,0 -10.15628,-1.45833 -14.59375,-4.375 -4.43752,-2.91666 -7.87501,-6.98957 -10.3125,-12.21875 -2.43751,-5.22914 -3.65626,-11.23955 -3.65625,-18.03125 -10e-6,-6.62496 1.10416,-12.63537 3.3125,-18.03125 2.20832,-5.39577 5.52082,-9.53118 9.9375,-12.40625 4.41664,-2.87493 9.35414,-4.31243 14.8125,-4.3125 3.99996,7e-5 7.56246,0.84382 10.6875,2.53125 3.12495,1.68757 5.66662,3.88548 7.625,6.59375 l 0,-32.875 11.1875,0 0,91.625 z m -35.5625,-33.125 c -2e-5,8.50003 1.79165,14.85419 5.375,19.0625 3.58331,4.20835 7.81247,6.31251 12.6875,6.3125 4.91663,10e-6 9.0937,-2.0104 12.53125,-6.03125 3.43745,-4.02081 5.1562,-10.15622 5.15625,-18.40625 -5e-5,-9.08329 -1.75005,-15.74995 -5.25,-20 -3.50005,-4.24994 -7.81254,-6.37494 -12.9375,-6.375 -5.00003,6e-5 -9.17711,2.04173 -12.53125,6.125 -3.35419,4.08339 -5.03127,10.52088 -5.03125,19.3125 z"
         style="font-size:128px;stroke:#000000"
         id="path5678"
         inkscape:connector-curvature="0" />
      <path
         d="m 730.65729,579.54742 -20.3125,-66.375 11.625,0 10.5625,38.3125 3.9375,14.25 c 0.16664,-0.70831 1.31247,-5.27081 3.4375,-13.6875 l 10.5625,-38.875 11.5625,0 9.9375,38.5 3.3125,12.6875 3.8125,-12.8125 11.375,-38.375 10.9375,0 -20.75,66.375 -11.6875,0 -10.5625,-39.75 -2.5625,-11.3125 -13.4375,51.0625 z"
         style="font-size:128px;stroke:#000000"
         id="path5680"
         inkscape:connector-curvature="0" />
      <path
         d="m 854.21979,571.35992 c -4.16672,3.54168 -8.17713,6.04167 -12.03125,7.5 -3.8542,1.45834 -7.98962,2.1875 -12.40625,2.1875 -7.29169,0 -12.89585,-1.78125 -16.8125,-5.34375 -3.91668,-3.56249 -5.87501,-8.11457 -5.875,-13.65625 -10e-6,-3.24997 0.73958,-6.21872 2.21875,-8.90625 1.47916,-2.68747 3.41665,-4.84371 5.8125,-6.46875 2.39582,-1.62496 5.09373,-2.85413 8.09375,-3.6875 2.20831,-0.58329 5.54164,-1.14579 10,-1.6875 9.08329,-1.08329 15.77078,-2.37496 20.0625,-3.875 0.0416,-1.54162 0.0625,-2.52078 0.0625,-2.9375 -5e-5,-4.58328 -1.06255,-7.81244 -3.1875,-9.6875 -2.87505,-2.54161 -7.14588,-3.81244 -12.8125,-3.8125 -5.2917,6e-5 -9.19794,0.92715 -11.71875,2.78125 -2.52086,1.85422 -4.38544,5.13547 -5.59375,9.84375 l -11,-1.5 c 0.99999,-4.70828 2.64582,-8.51036 4.9375,-11.40625 2.29165,-2.89577 5.60415,-5.12493 9.9375,-6.6875 4.33331,-1.56243 9.35413,-2.34368 15.0625,-2.34375 5.66662,7e-5 10.27078,0.66674 13.8125,2 3.54161,1.3334 6.14577,3.01048 7.8125,5.03125 1.6666,2.0209 2.83327,4.57298 3.5,7.65625 0.37494,1.91672 0.56244,5.37505 0.5625,10.375 l 0,15 c -6e-5,10.45836 0.23952,17.07293 0.71875,19.84375 0.4791,2.77084 1.42702,5.42709 2.84375,7.96875 l -11.75,0 c -1.16672,-2.33333 -1.91672,-5.06249 -2.25,-8.1875 z m -0.9375,-25.125 c -4.08338,1.6667 -10.20838,3.08337 -18.375,4.25 -4.62503,0.6667 -7.89586,1.4167 -9.8125,2.25 -1.91669,0.83336 -3.39585,2.05211 -4.4375,3.65625 -1.04169,1.60419 -1.56252,3.38544 -1.5625,5.34375 -2e-5,3.00002 1.1354,5.50002 3.40625,7.5 2.27081,2.00001 5.59372,3.00001 9.96875,3 4.3333,10e-6 8.18746,-0.9479 11.5625,-2.84375 3.37495,-1.89582 5.85412,-4.48956 7.4375,-7.78125 1.20828,-2.54164 1.81245,-6.29164 1.8125,-11.25 z"
         style="font-size:128px;stroke:#000000"
         id="path5682"
         inkscape:connector-curvature="0" />
      <path
         d="m 881.65729,605.10992 -1.25,-10.5625 c 2.45832,0.66666 4.60415,0.99999 6.4375,1 2.49998,-10e-6 4.49998,-0.41668 6,-1.25 1.49998,-0.83334 2.72914,-2.00001 3.6875,-3.5 0.70831,-1.12501 1.85414,-3.91667 3.4375,-8.375 0.2083,-0.625 0.54164,-1.54166 1,-2.75 l -25.1875,-66.5 12.125,0 13.8125,38.4375 c 1.79163,4.87503 3.3958,10.00002 4.8125,15.375 1.29163,-5.16664 2.8333,-10.20831 4.625,-15.125 l 14.1875,-38.6875 11.25,0 -25.25,67.5 c -2.70837,7.29166 -4.81254,12.31249 -6.3125,15.0625 -2.00003,3.70832 -4.2917,6.42707 -6.875,8.15625 -2.58336,1.72914 -5.66669,2.59373 -9.25,2.59375 -2.16668,-2e-5 -4.58335,-0.45836 -7.25,-1.375 z"
         style="font-size:128px;stroke:#000000"
         id="path5684"
         inkscape:connector-curvature="0" />
      <path
         d="m 27.294195,707.54923 3.755845,-18.39069 -7.295838,0 0,-6.43242 8.590957,0 3.194628,-15.67095 -11.785585,0 0,-6.43242 13.080704,0 3.755845,-18.5202 6.475596,0 -3.755845,18.5202 13.598751,0 3.755845,-18.5202 6.518767,0 -3.755846,18.5202 7.468521,0 0,6.43242 -8.76364,0 -3.237798,15.67095 12.001438,0 0,6.43242 -13.296557,0 -3.755846,18.39069 -6.475595,0 3.712674,-18.39069 -13.55558,0 -3.755845,18.39069 z m 11.52656,-24.82311 13.555581,0 3.237798,-15.67095 -13.598752,0 z"
         style="stroke:#000000"
         id="path5686"
         inkscape:connector-curvature="0" />
      <path
         d="m 107.80743,689.67659 7.64121,0.99292 c -0.83468,5.26683 -2.97162,9.38962 -6.41084,12.36839 -3.4393,2.97878 -7.66282,4.46816 -12.670584,4.46816 -6.274151,0 -11.317916,-2.0506 -15.131309,-6.15181 -3.813412,-4.1012 -5.720113,-9.9796 -5.72011,-17.63521 -3e-6,-4.9502 0.820238,-9.28165 2.460727,-12.99436 1.640476,-3.71264 4.137176,-6.49714 7.490105,-8.35352 3.352903,-1.85629 7.000818,-2.78446 10.943757,-2.78451 4.978984,5e-5 9.051414,1.25919 12.217294,3.77744 3.1658,2.51832 5.19482,6.09429 6.08706,10.7279 l -7.55486,1.16561 c -0.71955,-3.07948 -1.99308,-5.3963 -3.82061,-6.95048 -1.82758,-1.5541 -4.036478,-2.33117 -6.626689,-2.33121 -3.914159,4e-5 -7.094393,1.40308 -9.540711,4.20914 -2.446349,2.80612 -3.669516,7.2455 -3.669505,13.31814 -1.1e-5,6.15903 1.179985,10.63438 3.539993,13.42607 2.359977,2.7917 5.43948,4.18755 9.238516,4.18755 3.050698,0 5.597766,-0.93536 7.641206,-2.80609 2.04337,-1.87072 3.33849,-4.74876 3.88535,-8.63413 z"
         style="stroke:#000000"
         id="path5688"
         inkscape:connector-curvature="0" />
      <path
         d="m 122.09692,706.46997 0,-63.28816 7.77071,0 0,22.70776 c 3.62632,-4.2019 8.2024,-6.30287 13.72827,-6.30292 3.39606,5e-5 6.34605,0.6692 8.84998,2.00744 2.50386,1.33833 4.29544,3.18747 5.37474,5.54743 1.07923,2.36003 1.61886,5.7849 1.6189,10.27461 l 0,29.05384 -7.77071,0 0,-29.05384 c -4e-5,-3.88533 -0.84186,-6.713 -2.52549,-8.48303 -1.68368,-1.76996 -4.06526,-2.65496 -7.14474,-2.655 -2.30245,4e-5 -4.46818,0.59724 -6.49718,1.79158 -2.02903,1.19443 -3.47525,2.81333 -4.33865,4.8567 -0.86342,2.04344 -1.29513,4.86392 -1.29512,8.46145 l 0,25.08214 z"
         style="stroke:#000000"
         id="path5690"
         inkscape:connector-curvature="0" />
      <path
         d="m 201.2287,700.81461 c -2.87808,2.44634 -5.64819,4.17317 -8.31035,5.18048 -2.66222,1.00731 -5.51867,1.51097 -8.56937,1.51097 -5.03659,0 -8.90756,-1.23036 -11.61291,-3.69109 -2.70536,-2.46072 -4.05804,-5.60498 -4.05804,-9.43278 0,-2.24486 0.51085,-4.29546 1.53256,-6.15182 1.0217,-1.85631 2.35999,-3.3457 4.01487,-4.46816 1.65487,-1.12241 3.5184,-1.97143 5.5906,-2.54707 1.52535,-0.4029 3.82778,-0.79143 6.9073,-1.1656 6.27411,-0.74827 10.89336,-1.64046 13.85778,-2.67658 0.0287,-1.06485 0.0431,-1.74119 0.0432,-2.02902 -4e-5,-3.16582 -0.73394,-5.3963 -2.20171,-6.69145 -1.98588,-1.75557 -4.93587,-2.63337 -8.84998,-2.63341 -3.65513,4e-5 -6.35329,0.6404 -8.09449,1.92109 -1.74123,1.28077 -3.02915,3.54723 -3.86377,6.79938 l -7.59804,-1.0361 c 0.69073,-3.25215 1.82755,-5.87836 3.41048,-7.87864 1.58292,-2.0002 3.87096,-3.53995 6.86414,-4.61926 2.99314,-1.07922 6.46118,-1.61885 10.40412,-1.6189 3.91411,5e-5 7.09434,0.46054 9.54071,1.38146 2.4463,0.92102 4.24507,2.07943 5.39633,3.47524 1.15118,1.39589 1.95703,3.15869 2.41756,5.2884 0.25898,1.32394 0.38849,3.71271 0.38853,7.16633 l 0,10.36095 c -4e-5,7.2239 0.16545,11.79279 0.49646,13.70668 0.33094,1.9139 0.98569,3.74865 1.96427,5.50426 l -8.11608,0 c -0.80589,-1.6117 -1.32394,-3.49682 -1.55414,-5.65536 z m -0.64756,-17.35459 c -2.82052,1.15124 -7.05124,2.12977 -12.69217,2.9356 -3.19465,0.46051 -5.45391,0.97855 -6.77779,1.55414 -1.32392,0.57563 -2.34562,1.41746 -3.06512,2.52549 -0.71952,1.10806 -1.07927,2.33842 -1.07926,3.69109 -1e-5,2.0722 0.78425,3.79902 2.3528,5.18047 1.56851,1.38147 3.86375,2.0722 6.88571,2.07219 2.99314,10e-6 5.65533,-0.65475 7.98657,-1.96426 2.33118,-1.3095 4.04362,-3.10108 5.13731,-5.37475 0.8346,-1.75559 1.25191,-4.34582 1.25195,-7.77071 z"
         style="stroke:#000000"
         id="path5692"
         inkscape:connector-curvature="0" />
      <path
         d="m 220.52597,706.46997 0,-45.84722 6.95047,0 0,6.43242 c 1.43901,-2.24483 3.3529,-4.0508 5.74169,-5.41791 2.38876,-1.36702 5.10851,-2.05056 8.15925,-2.05061 3.39606,5e-5 6.18057,0.70517 8.35352,2.11537 2.17289,1.41028 3.70544,3.38174 4.59768,5.91437 3.62629,-5.35311 8.34627,-8.02969 14.15997,-8.02974 4.54724,5e-5 8.04406,1.25919 10.49046,3.77744 2.44627,2.51832 3.66944,6.39648 3.66951,11.63448 l 0,31.4714 -7.72755,0 0,-28.88116 c -6e-5,-3.10825 -0.25189,-5.34593 -0.75549,-6.71303 -0.50371,-1.36704 -1.41749,-2.46789 -2.74133,-3.30256 -1.32396,-0.83459 -2.8781,-1.25191 -4.66243,-1.25195 -3.22346,4e-5 -5.90003,1.07211 -8.02974,3.21622 -2.12979,2.14417 -3.19467,5.57624 -3.19463,10.29619 l 0,26.63629 -7.77071,0 0,-29.78774 c -3e-5,-3.45362 -0.6332,-6.04386 -1.89951,-7.77072 -1.26637,-1.72678 -3.33856,-2.5902 -6.21657,-2.59024 -2.18734,4e-5 -4.20916,0.57565 -6.06548,1.72683 -1.85635,1.15125 -3.20183,2.83491 -4.03645,5.05096 -0.83465,2.21613 -1.25196,5.41075 -1.25195,9.58389 l 0,23.78702 z"
         style="stroke:#000000"
         id="path5694"
         inkscape:connector-curvature="0" />
      <path
         d="m 294.26141,724.04042 0,-63.41767 7.07998,0 0,5.95755 c 1.66925,-2.33117 3.55437,-4.07958 5.65536,-5.24523 2.10095,-1.16557 4.64801,-1.74837 7.6412,-1.74842 3.91411,5e-5 7.36776,1.00737 10.36095,3.02195 2.99313,2.01467 5.25239,4.85673 6.77779,8.5262 1.52532,3.66954 2.288,7.6916 2.28805,12.06619 -5e-5,4.69123 -0.84187,8.91475 -2.52548,12.67059 -1.6837,3.75585 -4.13003,6.63389 -7.33901,8.63412 -3.20905,2.00024 -6.58355,3.00036 -10.12352,3.00036 -2.59026,0 -4.91428,-0.54683 -6.97206,-1.64048 -2.05781,-1.09366 -3.74866,-2.47511 -5.07255,-4.14438 l 0,22.31922 z m 7.03681,-40.23504 c -1e-5,5.90001 1.19438,10.26024 3.58317,13.08071 2.38875,2.82048 5.28118,4.23072 8.67729,4.23072 3.45363,0 6.41081,-1.4606 8.87157,-4.38182 2.46069,-2.9212 3.69105,-7.44692 3.69109,-13.57717 -4e-5,-5.84239 -1.20162,-10.21701 -3.60475,-13.12387 -2.40319,-2.90678 -5.27404,-4.36019 -8.61254,-4.36024 -3.30977,5e-5 -6.23818,1.54699 -8.78522,4.64085 -2.54709,3.09393 -3.82062,7.59086 -3.82061,13.49082 z"
         style="stroke:#000000"
         id="path5696"
         inkscape:connector-curvature="0" />
      <path
         d="m 343.51912,652.11813 0,-8.93632 7.77071,0 0,8.93632 z m 0,54.35184 0,-45.84722 7.77071,0 0,45.84722 z"
         style="stroke:#000000"
         id="path5698"
         inkscape:connector-curvature="0" />
      <path
         d="m 360.26934,683.54636 c -10e-6,-8.4902 2.35999,-14.77871 7.07998,-18.86557 3.94291,-3.39605 8.74923,-5.09409 14.41899,-5.09414 6.30289,5e-5 11.45458,2.06504 15.45509,6.19499 4.00044,4.13003 6.00068,9.83574 6.00072,17.11716 -4e-5,5.9 -0.88504,10.54084 -2.65499,13.92253 -1.77004,3.38171 -4.34589,6.00792 -7.72755,7.87864 -3.38173,1.87073 -7.07281,2.80609 -11.07327,2.80609 -6.41805,0 -11.60571,-2.0578 -15.56301,-6.1734 -3.95731,-4.11559 -5.93597,-10.04435 -5.93596,-17.7863 z m 7.98657,0 c -2e-5,5.87122 1.28071,10.26743 3.84218,13.18863 2.56144,2.92122 5.78485,4.38182 9.67022,4.38182 3.85655,0 7.06557,-1.4678 9.62706,-4.40341 2.56142,-2.93559 3.84215,-7.41094 3.84218,-13.42607 -3e-5,-5.66971 -1.28796,-9.96518 -3.86377,-12.88643 -2.57588,-2.92117 -5.7777,-4.38178 -9.60547,-4.38182 -3.88537,4e-5 -7.10878,1.45345 -9.67022,4.36023 -2.56147,2.90686 -3.8422,7.29587 -3.84218,13.16705 z"
         style="stroke:#000000"
         id="path5700"
         inkscape:connector-curvature="0" />
      <path
         d="m 412.37628,706.46997 0,-45.84722 6.99364,0 0,6.51877 c 3.36729,-5.03653 8.23118,-7.55482 14.59168,-7.55487 2.76289,5e-5 5.30276,0.49651 7.61961,1.48939 2.31679,0.99297 4.05081,2.29528 5.20207,3.90694 1.15117,1.61175 1.95702,3.52564 2.41755,5.7417 0.28776,1.43905 0.43167,3.95734 0.43171,7.55486 l 0,28.19043 -7.77072,0 0,-27.88823 c -3e-5,-3.16582 -0.30223,-5.53301 -0.90658,-7.10157 -0.60442,-1.5685 -1.67649,-2.82045 -3.21621,-3.75585 -1.53978,-0.93532 -3.34575,-1.40301 -5.41792,-1.40305 -3.30977,4e-5 -6.16622,1.05053 -8.56937,3.15146 -2.40318,2.10101 -3.60476,6.08709 -3.60475,11.95827 l 0,25.03897 z"
         style="stroke:#000000"
         id="path5702"
         inkscape:connector-curvature="0" />
      <path
         d="m 458.48253,692.78488 7.68437,-1.20878 c 0.4317,3.07951 1.63328,5.43951 3.60475,7.07998 1.97145,1.64049 4.72717,2.46073 8.26718,2.46073 3.56875,0 6.21654,-0.7267 7.9434,-2.18012 1.72679,-1.4534 2.5902,-3.15864 2.59024,-5.11572 -4e-5,-1.75559 -0.76272,-3.13705 -2.28805,-4.14438 -1.0649,-0.69071 -3.7127,-1.56852 -7.9434,-2.63341 -5.69854,-1.439 -9.64865,-2.68375 -11.85034,-3.73426 -2.20171,-1.05046 -3.87097,-2.50387 -5.00779,-4.36023 -1.13683,-1.85631 -1.70524,-3.90692 -1.70524,-6.15182 0,-2.04337 0.46768,-3.93569 1.40305,-5.67694 0.93535,-1.74117 2.20889,-3.18739 3.8206,-4.33865 1.20876,-0.89215 2.85644,-1.64763 4.94303,-2.26646 2.08657,-0.61873 4.32425,-0.92812 6.71304,-0.92817 3.59753,5e-5 6.75618,0.5181 9.47595,1.55415 2.71972,1.03614 4.72715,2.43918 6.02231,4.20913 1.29508,1.77004 2.18727,4.13723 2.67658,7.10157 l -7.59803,1.0361 c -0.3454,-2.35996 -1.34552,-4.20191 -3.00036,-5.52584 -1.65491,-1.32386 -3.99331,-1.98581 -7.01523,-1.98585 -3.56879,4e-5 -6.11586,0.59004 -7.64121,1.77 -1.52537,1.18003 -2.28805,2.56149 -2.28804,4.14438 -10e-6,1.00734 0.31657,1.91393 0.94975,2.71975 0.63316,0.83466 1.62608,1.52539 2.97878,2.07219 0.77705,0.28783 3.0651,0.94978 6.86413,1.98585 5.49703,1.46782 9.33202,2.66941 11.50498,3.60474 2.17288,0.93539 3.87812,2.29527 5.11572,4.07963 1.23751,1.7844 1.85629,4.0005 1.85633,6.64828 -4e-5,2.59025 -0.75552,5.02939 -2.26646,7.31742 -1.511,2.28805 -3.69112,4.05804 -6.54035,5.30999 -2.84929,1.25195 -6.07269,1.87792 -9.67022,1.87792 -5.95756,0 -10.49767,-1.23756 -13.62034,-3.71267 -3.12268,-2.47511 -5.11572,-6.14461 -5.97913,-11.00851 z"
         style="stroke:#000000"
         id="path5704"
         inkscape:connector-curvature="0" />
      <path
         d="m 505.79754,706.46997 0,-63.28816 7.77072,0 0,22.70776 c 3.62631,-4.2019 8.2024,-6.30287 13.72826,-6.30292 3.39606,5e-5 6.34605,0.6692 8.84998,2.00744 2.50386,1.33833 4.29544,3.18747 5.37475,5.54743 1.07922,2.36003 1.61885,5.7849 1.61889,10.27461 l 0,29.05384 -7.77071,0 0,-29.05384 c -4e-5,-3.88533 -0.84186,-6.713 -2.52548,-8.48303 -1.68369,-1.76996 -4.06527,-2.65496 -7.14474,-2.655 -2.30246,4e-5 -4.46819,0.59724 -6.49718,1.79158 -2.02904,1.19443 -3.47526,2.81333 -4.33865,4.8567 -0.86343,2.04344 -1.29514,4.86392 -1.29512,8.46145 l 0,25.08214 z"
         style="stroke:#000000"
         id="path5706"
         inkscape:connector-curvature="0" />
      <path
         d="m 552.11965,683.54636 c 0,-8.4902 2.35999,-14.77871 7.07998,-18.86557 3.94291,-3.39605 8.74923,-5.09409 14.419,-5.09414 6.30288,5e-5 11.45457,2.06504 15.45508,6.19499 4.00044,4.13003 6.00068,9.83574 6.00072,17.11716 -4e-5,5.9 -0.88504,10.54084 -2.65499,13.92253 -1.77004,3.38171 -4.34588,6.00792 -7.72755,7.87864 -3.38173,1.87073 -7.07281,2.80609 -11.07326,2.80609 -6.41806,0 -11.60572,-2.0578 -15.56302,-6.1734 -3.95731,-4.11559 -5.93596,-10.04435 -5.93596,-17.7863 z m 7.98657,0 c -10e-6,5.87122 1.28071,10.26743 3.84218,13.18863 2.56144,2.92122 5.78485,4.38182 9.67023,4.38182 3.85654,0 7.06556,-1.4678 9.62705,-4.40341 2.56142,-2.93559 3.84215,-7.41094 3.84219,-13.42607 -4e-5,-5.66971 -1.28797,-9.96518 -3.86378,-12.88643 -2.57588,-2.92117 -5.7777,-4.38178 -9.60546,-4.38182 -3.88538,4e-5 -7.10879,1.45345 -9.67023,4.36023 -2.56147,2.90686 -3.84219,7.29587 -3.84218,13.16705 z"
         style="stroke:#000000"
         id="path5708"
         inkscape:connector-curvature="0" />
      <path
         d="m 634.27338,706.46997 0,-6.73462 c -3.5688,5.18048 -8.4183,7.77071 -14.5485,7.77071 -2.70538,0 -5.23086,-0.51805 -7.57645,-1.55414 -2.34561,-1.03609 -4.08683,-2.33841 -5.22365,-3.90694 -1.13683,-1.56853 -1.93549,-3.48962 -2.39597,-5.76328 -0.31659,-1.52535 -0.47488,-3.94291 -0.47487,-7.25267 l 0,-28.40628 7.77071,0 0,25.42751 c -10e-6,4.05805 0.15828,6.79219 0.47488,8.20242 0.48925,2.04342 1.52535,3.64792 3.10828,4.81352 1.58291,1.16562 3.53998,1.74842 5.87121,1.74841 2.33119,10e-6 4.5185,-0.59718 6.56194,-1.79158 2.04338,-1.19438 3.48959,-2.82047 4.33865,-4.87828 0.84899,-2.05779 1.2735,-5.04375 1.27353,-8.95791 l 0,-24.56409 7.77072,0 0,45.84722 z"
         style="stroke:#000000"
         id="path5710"
         inkscape:connector-curvature="0" />
      <path
         d="m 650.33287,692.78488 7.68438,-1.20878 c 0.43169,3.07951 1.63327,5.43951 3.60474,7.07998 1.97145,1.64049 4.72717,2.46073 8.26718,2.46073 3.56875,0 6.21654,-0.7267 7.9434,-2.18012 1.72679,-1.4534 2.5902,-3.15864 2.59024,-5.11572 -4e-5,-1.75559 -0.76272,-3.13705 -2.28805,-4.14438 -1.0649,-0.69071 -3.7127,-1.56852 -7.94339,-2.63341 -5.69855,-1.439 -9.64865,-2.68375 -11.85034,-3.73426 -2.20172,-1.05046 -3.87098,-2.50387 -5.0078,-4.36023 -1.13683,-1.85631 -1.70524,-3.90692 -1.70524,-6.15182 0,-2.04337 0.46768,-3.93569 1.40305,-5.67694 0.93535,-1.74117 2.20889,-3.18739 3.8206,-4.33865 1.20877,-0.89215 2.85644,-1.64763 4.94304,-2.26646 2.08656,-0.61873 4.32424,-0.92812 6.71303,-0.92817 3.59753,5e-5 6.75618,0.5181 9.47596,1.55415 2.71971,1.03614 4.72715,2.43918 6.0223,4.20913 1.29508,1.77004 2.18727,4.13723 2.67658,7.10157 l -7.59803,1.0361 c -0.3454,-2.35996 -1.34552,-4.20191 -3.00036,-5.52584 -1.6549,-1.32386 -3.99331,-1.98581 -7.01523,-1.98585 -3.56879,4e-5 -6.11586,0.59004 -7.6412,1.77 -1.52538,1.18003 -2.28806,2.56149 -2.28805,4.14438 -10e-6,1.00734 0.31658,1.91393 0.94976,2.71975 0.63315,0.83466 1.62608,1.52539 2.97877,2.07219 0.77706,0.28783 3.0651,0.94978 6.86413,1.98585 5.49704,1.46782 9.33202,2.66941 11.50498,3.60474 2.17288,0.93539 3.87812,2.29527 5.11572,4.07963 1.23752,1.7844 1.85629,4.0005 1.85634,6.64828 -5e-5,2.59025 -0.75553,5.02939 -2.26646,7.31742 -1.51101,2.28805 -3.69113,4.05804 -6.54036,5.30999 -2.84929,1.25195 -6.07269,1.87792 -9.67022,1.87792 -5.95756,0 -10.49767,-1.23756 -13.62033,-3.71267 -3.12269,-2.47511 -5.11573,-6.14461 -5.97914,-11.00851 z"
         style="stroke:#000000"
         id="path5712"
         inkscape:connector-curvature="0" />
      <path
         d="m 729.03294,691.70561 8.02974,0.99292 c -1.26639,4.69122 -3.61199,8.33194 -7.03682,10.92218 -3.4249,2.59023 -7.79952,3.88535 -13.12387,3.88535 -6.70586,0 -12.02304,-2.06499 -15.95155,-6.19498 -3.92854,-4.12999 -5.8928,-9.92204 -5.89279,-17.37619 -10e-6,-7.71312 1.98584,-13.69944 5.95754,-17.95898 3.97169,-4.25946 9.12338,-6.38921 15.45509,-6.38926 6.1302,5e-5 11.13799,2.08663 15.02338,6.25975 3.88532,4.1732 5.828,10.0444 5.82804,17.61362 -4e-5,0.46051 -0.0144,1.15124 -0.0432,2.07219 l -34.19115,0 c 0.2878,5.03659 1.71243,8.89316 4.2739,11.56973 2.56144,2.67659 5.75606,4.01487 9.58388,4.01487 2.84923,0 5.28118,-0.74829 7.29584,-2.24487 2.01459,-1.49658 3.6119,-3.88535 4.79194,-7.16633 z m -25.51385,-12.56266 25.60019,0 c -0.3454,-3.85654 -1.32394,-6.74897 -2.9356,-8.67729 -2.47515,-2.99313 -5.68417,-4.48971 -9.62706,-4.48975 -3.56879,4e-5 -6.56915,1.19443 -9.00107,3.58316 -2.43196,2.38881 -3.77745,5.58344 -4.03646,9.58388 z"
         style="stroke:#000000"
         id="path5714"
         inkscape:connector-curvature="0" />
      <path
         d="m 746.86236,724.04042 0,-63.41767 7.07999,0 0,5.95755 c 1.66925,-2.33117 3.55436,-4.07958 5.65535,-5.24523 2.10095,-1.16557 4.64802,-1.74837 7.6412,-1.74842 3.91411,5e-5 7.36776,1.00737 10.36096,3.02195 2.99312,2.01467 5.25238,4.85673 6.77779,8.5262 1.52531,3.66954 2.28799,7.6916 2.28804,12.06619 -5e-5,4.69123 -0.84187,8.91475 -2.52548,12.67059 -1.6837,3.75585 -4.13003,6.63389 -7.33901,8.63412 -3.20905,2.00024 -6.58355,3.00036 -10.12352,3.00036 -2.59026,0 -4.91427,-0.54683 -6.97205,-1.64048 -2.05782,-1.09366 -3.74867,-2.47511 -5.07255,-4.14438 l 0,22.31922 z m 7.03682,-40.23504 c -2e-5,5.90001 1.19437,10.26024 3.58316,13.08071 2.38876,2.82048 5.28119,4.23072 8.6773,4.23072 3.45362,0 6.41081,-1.4606 8.87156,-4.38182 2.46069,-2.9212 3.69106,-7.44692 3.69109,-13.57717 -3e-5,-5.84239 -1.20162,-10.21701 -3.60475,-13.12387 -2.40319,-2.90678 -5.27404,-4.36019 -8.61254,-4.36024 -3.30977,5e-5 -6.23817,1.54699 -8.78522,4.64085 -2.54708,3.09393 -3.82062,7.59086 -3.8206,13.49082 z"
         style="stroke:#000000"
         id="path5716"
         inkscape:connector-curvature="0" />
      <path
         d="m 825.99415,700.81461 c -2.87807,2.44634 -5.64819,4.17317 -8.31035,5.18048 -2.66221,1.00731 -5.51866,1.51097 -8.56937,1.51097 -5.03659,0 -8.90755,-1.23036 -11.6129,-3.69109 -2.70536,-2.46072 -4.05804,-5.60498 -4.05804,-9.43278 0,-2.24486 0.51085,-4.29546 1.53256,-6.15182 1.0217,-1.85631 2.35999,-3.3457 4.01487,-4.46816 1.65486,-1.12241 3.51839,-1.97143 5.5906,-2.54707 1.52534,-0.4029 3.82777,-0.79143 6.9073,-1.1656 6.2741,-0.74827 10.89336,-1.64046 13.85777,-2.67658 0.0288,-1.06485 0.0431,-1.74119 0.0432,-2.02902 -3e-5,-3.16582 -0.73393,-5.3963 -2.2017,-6.69145 -1.98588,-1.75557 -4.93587,-2.63337 -8.84998,-2.63341 -3.65513,4e-5 -6.3533,0.6404 -8.09449,1.92109 -1.74123,1.28077 -3.02916,3.54723 -3.86378,6.79938 l -7.59803,-1.0361 c 0.69073,-3.25215 1.82755,-5.87836 3.41048,-7.87864 1.58292,-2.0002 3.87096,-3.53995 6.86413,-4.61926 2.99315,-1.07922 6.46119,-1.61885 10.40413,-1.6189 3.91411,5e-5 7.09434,0.46054 9.54071,1.38146 2.4463,0.92102 4.24507,2.07943 5.39633,3.47524 1.15117,1.39589 1.95702,3.15869 2.41755,5.2884 0.25898,1.32394 0.3885,3.71271 0.38854,7.16633 l 0,10.36095 c -4e-5,7.2239 0.16544,11.79279 0.49646,13.70668 0.33093,1.9139 0.98569,3.74865 1.96427,5.50426 l -8.11608,0 c -0.80589,-1.6117 -1.32394,-3.49682 -1.55415,-5.65536 z m -0.64756,-17.35459 c -2.82051,1.15124 -7.05123,2.12977 -12.69216,2.9356 -3.19465,0.46051 -5.45391,0.97855 -6.77779,1.55414 -1.32392,0.57563 -2.34562,1.41746 -3.06512,2.52549 -0.71952,1.10806 -1.07928,2.33842 -1.07927,3.69109 -10e-6,2.0722 0.78426,3.79902 2.3528,5.18047 1.56852,1.38147 3.86376,2.0722 6.88572,2.07219 2.99314,10e-6 5.65533,-0.65475 7.98657,-1.96426 2.33118,-1.3095 4.04362,-3.10108 5.1373,-5.37475 0.8346,-1.75559 1.25192,-4.34582 1.25195,-7.77071 z"
         style="stroke:#000000"
         id="path5718"
         inkscape:connector-curvature="0" />
      <path
         d="m 845.2051,706.46997 0,-45.84722 6.99364,0 0,6.95047 c 1.78437,-3.25214 3.43205,-5.39628 4.94304,-6.43242 1.51095,-1.03605 3.17302,-1.5541 4.98621,-1.55415 2.61899,5e-5 5.28118,0.83468 7.98657,2.5039 l -2.67658,7.2095 c -1.89954,-1.1224 -3.79904,-1.68362 -5.69853,-1.68366 -1.69806,4e-5 -3.22342,0.51089 -4.57609,1.53256 -1.35269,1.02174 -2.31684,2.43918 -2.89243,4.25231 -0.86343,2.76295 -1.29513,5.78489 -1.29512,9.06583 l 0,24.00288 z"
         style="stroke:#000000"
         id="path5720"
         inkscape:connector-curvature="0" />
      <path
         d="m 891.78625,699.51949 1.12243,6.86414 c -2.18733,0.46048 -4.1444,0.69073 -5.8712,0.69073 -2.8205,0 -5.00781,-0.4461 -6.56194,-1.33829 -1.55415,-0.89219 -2.64781,-2.065 -3.28097,-3.51841 -0.63318,-1.45341 -0.94976,-4.51132 -0.94975,-9.17376 l 0,-26.37726 -5.69853,0 0,-6.04389 5.69853,0 0,-11.35388 7.72754,-4.66243 0,16.01631 7.81389,0 0,6.04389 -7.81389,0 0,26.80897 c -10e-6,2.2161 0.13669,3.64073 0.41012,4.27389 0.2734,0.63318 0.7195,1.13683 1.33829,1.51097 0.61876,0.37415 1.50376,0.56123 2.655,0.56122 0.86339,10e-6 2.00022,-0.10073 3.41048,-0.3022 z"
         style="stroke:#000000"
         id="path5722"
         inkscape:connector-curvature="0" />
      <path
         d="m 898.9957,724.12676 -0.86342,-7.29584 c 1.69804,0.46048 3.18023,0.69072 4.44658,0.69073 1.72681,-10e-6 3.10827,-0.28781 4.14438,-0.86341 1.03608,-0.57562 1.8851,-1.38147 2.54707,-2.41756 0.48925,-0.77708 1.28071,-2.70536 2.37438,-5.78486 0.14389,-0.43171 0.37413,-1.06488 0.69073,-1.89951 l -17.39776,-45.93356 8.3751,0 9.54071,26.54994 c 1.23754,3.36733 2.34558,6.90732 3.32414,10.61998 0.89217,-3.56876 1.95704,-7.05119 3.19463,-10.4473 l 9.79973,-26.72262 7.77072,0 -17.44094,46.62429 c -1.87075,5.03657 -3.32416,8.50461 -4.36024,10.40412 -1.38148,2.56145 -2.9644,4.43937 -4.74877,5.63377 -1.7844,1.19437 -3.91415,1.79156 -6.38925,1.79158 -1.49659,-2e-5 -3.16585,-0.3166 -5.00779,-0.94975 z"
         style="stroke:#000000"
         id="path5724"
         inkscape:connector-curvature="0" />
    </g>
    <g
       transform="scale(1.0000467,0.99995331)"
       style="font-size:85.24845123px;font-style:normal;font-variant:normal;font-weight:normal;font-stretch:normal;text-align:end;line-height:125%;letter-spacing:0px;word-spacing:0px;text-anchor:end;fill:#ffffff;fill-opacity:1;stroke:#000000;stroke-width:3.99999976;stroke-miterlimit:4;stroke-opacity:1;font-family:Arial;-inkscape-font-specification:Arial"
       id="text3759-1-1-9">
      <path
         d="m 234.02812,876.236 17.69072,-63.10383 5.99403,0 -17.64909,63.10383 z"
         style="stroke:#000000"
         id="path5727"
         inkscape:connector-curvature="0" />
      <path
         d="m 291.97043,875.19537 0,-5.57778 c -2.8028,4.38453 -6.92369,6.57679 -12.36269,6.57679 -3.52429,0 -6.76412,-0.97126 -9.71949,-2.91377 -2.9554,-1.9425 -5.24479,-4.65508 -6.86816,-8.13773 -1.62339,-3.48263 -2.43508,-7.48558 -2.43508,-12.00887 0,-4.41225 0.73538,-8.4152 2.20614,-12.00888 1.47075,-3.59361 3.67688,-6.3478 6.61841,-8.26261 2.9415,-1.91471 6.22989,-2.87209 9.86518,-2.87214 2.66398,5e-5 5.03662,0.56199 7.11791,1.68583 2.08123,1.12392 3.77399,2.58774 5.07827,4.39146 l 0,-21.89487 7.45092,0 0,61.02257 z m -23.68475,-22.06136 c -1e-5,5.66104 1.19324,9.89294 3.57977,12.69569 2.38649,2.80277 5.20313,4.20415 8.44992,4.20415 3.27449,0 6.05644,-1.33894 8.34585,-4.01684 2.28936,-2.67787 3.43405,-6.76408 3.43408,-12.25862 -3e-5,-6.04951 -1.16554,-10.48953 -3.49652,-13.32008 -2.33104,-2.83047 -5.20317,-4.24573 -8.61642,-4.24577 -3.33003,4e-5 -6.11198,1.3598 -8.34585,4.07927 -2.2339,2.71955 -3.35084,7.00694 -3.35083,12.8622 z"
         style="stroke:#000000"
         id="path5729"
         inkscape:connector-curvature="0" />
      <path
         d="m 339.58968,869.74247 c -2.77505,2.35877 -5.44599,4.02377 -8.01285,4.99503 -2.56692,0.97125 -5.32112,1.45688 -8.26261,1.45688 -4.85629,0 -8.58868,-1.18632 -11.19718,-3.55896 -2.60852,-2.37263 -3.91278,-5.40433 -3.91277,-9.09511 -1e-5,-2.1645 0.49256,-4.14169 1.47769,-5.93159 0.98513,-1.78987 2.27551,-3.22594 3.87115,-4.30821 1.59562,-1.08224 3.39244,-1.90086 5.39046,-2.45589 1.47074,-0.38848 3.69075,-0.7631 6.66004,-1.12388 6.0495,-0.72148 10.5034,-1.58173 13.36169,-2.58076 0.0277,-1.02673 0.0416,-1.67886 0.0416,-1.95639 -4e-5,-3.05248 -0.70766,-5.20312 -2.12289,-6.45191 -1.91479,-1.69272 -4.75918,-2.5391 -8.53317,-2.53914 -3.52429,4e-5 -6.12586,0.61748 -7.80473,1.85232 -1.67889,1.23492 -2.92071,3.42024 -3.72545,6.55598 l -7.32604,-0.99901 c 0.666,-3.13573 1.76213,-5.66793 3.28839,-7.5966 1.52625,-1.9286 3.73238,-3.41323 6.61841,-4.4539 2.886,-1.04059 6.22989,-1.5609 10.03168,-1.56095 3.77399,5e-5 6.84038,0.44405 9.19917,1.33201 2.35873,0.88805 4.09311,2.00499 5.20315,3.35083 1.10997,1.34592 1.88697,3.04562 2.33102,5.09909 0.24971,1.27654 0.37458,3.5798 0.37462,6.90979 l 0,9.99005 c -4e-5,6.9653 0.15952,11.37063 0.47869,13.21601 0.31909,1.84539 0.9504,3.61446 1.89395,5.30721 l -7.82554,0 c -0.77704,-1.554 -1.27654,-3.37164 -1.49851,-5.4529 z m -0.62438,-16.73334 c -2.71954,1.11003 -6.79881,2.05353 -12.23781,2.83052 -3.08029,0.44402 -5.25867,0.94352 -6.53516,1.4985 -1.27652,0.55502 -2.26165,1.36672 -2.95539,2.43508 -0.69377,1.06839 -1.04064,2.25471 -1.04063,3.55896 -10e-6,1.99802 0.75618,3.66302 2.26857,4.99502 1.51237,1.33201 3.72544,1.99802 6.63922,1.99801 2.886,1e-5 5.45288,-0.63131 7.70067,-1.89394 2.24773,-1.26263 3.89886,-2.99007 4.9534,-5.18234 0.80472,-1.69275 1.2071,-4.19026 1.20713,-7.49254 z"
         style="stroke:#000000"
         id="path5731"
         inkscape:connector-curvature="0" />
      <path
         d="m 370.47559,875.19537 -16.81658,-44.20598 7.90879,0 9.49055,26.47364 c 1.02673,2.85828 1.97024,5.82754 2.83051,8.9078 0.66598,-2.331 1.59561,-5.13377 2.78889,-8.4083 l 9.82355,-26.97314 7.70067,0 -16.73334,44.20598 z"
         style="stroke:#000000"
         id="path5733"
         inkscape:connector-curvature="0" />
      <path
         d="m 400.862,822.78922 0,-8.61642 7.49254,0 0,8.61642 z m 0,52.40615 0,-44.20598 7.49254,0 0,44.20598 z"
         style="stroke:#000000"
         id="path5735"
         inkscape:connector-curvature="0" />
      <path
         d="m 448.48126,875.19537 0,-5.57778 c -2.80279,4.38453 -6.92369,6.57679 -12.36269,6.57679 -3.52428,0 -6.76411,-0.97126 -9.71949,-2.91377 -2.9554,-1.9425 -5.24478,-4.65508 -6.86816,-8.13773 -1.62339,-3.48263 -2.43508,-7.48558 -2.43507,-12.00887 -10e-6,-4.41225 0.73537,-8.4152 2.20613,-12.00888 1.47075,-3.59361 3.67689,-6.3478 6.61841,-8.26261 2.9415,-1.91471 6.22989,-2.87209 9.86518,-2.87214 2.66399,5e-5 5.03663,0.56199 7.11791,1.68583 2.08123,1.12392 3.77399,2.58774 5.07828,4.39146 l 0,-21.89487 7.45091,0 0,61.02257 z m -23.68475,-22.06136 c -1e-5,5.66104 1.19325,9.89294 3.57977,12.69569 2.3865,2.80277 5.20313,4.20415 8.44992,4.20415 3.27449,0 6.05644,-1.33894 8.34586,-4.01684 2.28935,-2.67787 3.43404,-6.76408 3.43408,-12.25862 -4e-5,-6.04951 -1.16554,-10.48953 -3.49652,-13.32008 -2.33104,-2.83047 -5.20318,-4.24573 -8.61642,-4.24577 -3.33004,4e-5 -6.11199,1.3598 -8.34586,4.07927 -2.2339,2.71955 -3.35084,7.00694 -3.35083,12.8622 z"
         style="stroke:#000000"
         id="path5737"
         inkscape:connector-curvature="0" />
      <path
         d="m 474.16402,875.19537 -6.95142,0 0,-61.02257 7.49254,0 0,21.76999 c 3.1635,-3.96823 7.20115,-5.95236 12.11294,-5.95241 2.71949,5e-5 5.29331,0.54811 7.72148,1.6442 2.4281,1.09617 4.42611,2.63631 5.99403,4.6204 1.56785,1.98417 2.79579,4.37762 3.68384,7.18035 0.88796,2.80279 1.33196,5.79981 1.332,8.99105 -4e-5,7.5758 -1.87317,13.43108 -5.6194,17.56584 -3.74631,4.13477 -8.24183,6.20216 -13.48657,6.20216 -5.21705,0 -9.31019,-2.17839 -12.27944,-6.53516 z m -0.0833,-22.43599 c -2e-5,5.30029 0.72149,9.12981 2.16451,11.48856 2.35874,3.85728 5.55001,5.78591 9.5738,5.78591 3.27449,0 6.105,-1.42219 8.49154,-4.26659 2.38648,-2.84438 3.57974,-7.08321 3.57977,-12.7165 -3e-5,-5.77201 -1.14473,-10.03165 -3.43408,-12.77895 -2.28942,-2.74722 -5.05749,-4.12085 -8.30423,-4.12089 -3.27454,4e-5 -6.10505,1.42223 -8.49155,4.26658 -2.38652,2.84442 -3.57978,6.95838 -3.57976,12.34188 z"
         style="stroke:#000000"
         id="path5739"
         inkscape:connector-curvature="0" />
      <path
         d="m 514.62372,875.19537 0,-44.20598 6.74329,0 0,6.70166 c 1.72049,-3.13573 3.30919,-5.20311 4.76609,-6.20216 1.45686,-0.99896 3.05943,-1.49846 4.80771,-1.49851 2.52524,5e-5 5.09212,0.8048 7.70066,2.41427 l -2.58076,6.95141 c -1.83153,-1.08222 -3.66304,-1.62335 -5.49453,-1.62338 -1.63728,3e-5 -3.10803,0.4926 -4.41227,1.47769 -1.30427,0.98517 -2.2339,2.35186 -2.78889,4.10008 -0.83252,2.66405 -1.24877,5.57781 -1.24876,8.7413 l 0,23.14362 z"
         style="stroke:#000000"
         id="path5741"
         inkscape:connector-curvature="0" />
      <path
         d="m 572.0249,869.74247 c -2.77505,2.35877 -5.446,4.02377 -8.01285,4.99503 -2.56692,0.97125 -5.32112,1.45688 -8.26261,1.45688 -4.85629,0 -8.58868,-1.18632 -11.19719,-3.55896 -2.60851,-2.37263 -3.91277,-5.40433 -3.91277,-9.09511 0,-2.1645 0.49257,-4.14169 1.4777,-5.93159 0.98512,-1.78987 2.2755,-3.22594 3.87114,-4.30821 1.59563,-1.08224 3.39245,-1.90086 5.39047,-2.45589 1.47074,-0.38848 3.69075,-0.7631 6.66004,-1.12388 6.0495,-0.72148 10.5034,-1.58173 13.36169,-2.58076 0.0277,-1.02673 0.0416,-1.67886 0.0416,-1.95639 -4e-5,-3.05248 -0.70766,-5.20312 -2.12289,-6.45191 -1.91479,-1.69272 -4.75918,-2.5391 -8.53317,-2.53914 -3.52429,4e-5 -6.12586,0.61748 -7.80473,1.85232 -1.6789,1.23492 -2.92071,3.42024 -3.72546,6.55598 l -7.32603,-0.99901 c 0.66599,-3.13573 1.76212,-5.66793 3.28839,-7.5966 1.52625,-1.9286 3.73238,-3.41323 6.61841,-4.4539 2.886,-1.04059 6.22989,-1.5609 10.03168,-1.56095 3.77399,5e-5 6.84038,0.44405 9.19917,1.33201 2.35873,0.88805 4.09311,2.00499 5.20315,3.35083 1.10997,1.34592 1.88697,3.04562 2.33101,5.09909 0.24971,1.27654 0.37459,3.5798 0.37463,6.90979 l 0,9.99005 c -4e-5,6.9653 0.15952,11.37063 0.47869,13.21601 0.31909,1.84539 0.9504,3.61446 1.89395,5.30721 l -7.82554,0 c -0.77704,-1.554 -1.27654,-3.37164 -1.49851,-5.4529 z m -0.62438,-16.73334 c -2.71954,1.11003 -6.79881,2.05353 -12.23781,2.83052 -3.08029,0.44402 -5.25867,0.94352 -6.53516,1.4985 -1.27652,0.55502 -2.26165,1.36672 -2.95539,2.43508 -0.69377,1.06839 -1.04064,2.25471 -1.04063,3.55896 -10e-6,1.99802 0.75618,3.66302 2.26857,4.99502 1.51237,1.33201 3.72544,1.99802 6.63922,1.99801 2.886,1e-5 5.45288,-0.63131 7.70067,-1.89394 2.24773,-1.26263 3.89886,-2.99007 4.9534,-5.18234 0.80472,-1.69275 1.2071,-4.19026 1.20713,-7.49254 z"
         style="stroke:#000000"
         id="path5743"
         inkscape:connector-curvature="0" />
      <path
         d="m 619.31116,875.19537 0,-5.57778 c -2.8028,4.38453 -6.92369,6.57679 -12.36269,6.57679 -3.52429,0 -6.76412,-0.97126 -9.71949,-2.91377 -2.9554,-1.9425 -5.24479,-4.65508 -6.86816,-8.13773 -1.62339,-3.48263 -2.43508,-7.48558 -2.43508,-12.00887 0,-4.41225 0.73538,-8.4152 2.20614,-12.00888 1.47075,-3.59361 3.67688,-6.3478 6.61841,-8.26261 2.9415,-1.91471 6.22989,-2.87209 9.86518,-2.87214 2.66399,5e-5 5.03662,0.56199 7.11791,1.68583 2.08123,1.12392 3.77399,2.58774 5.07828,4.39146 l 0,-21.89487 7.45091,0 0,61.02257 z m -23.68475,-22.06136 c -10e-6,5.66104 1.19324,9.89294 3.57977,12.69569 2.38649,2.80277 5.20313,4.20415 8.44992,4.20415 3.27449,0 6.05644,-1.33894 8.34585,-4.01684 2.28936,-2.67787 3.43405,-6.76408 3.43408,-12.25862 -3e-5,-6.04951 -1.16554,-10.48953 -3.49651,-13.32008 -2.33105,-2.83047 -5.20318,-4.24573 -8.61643,-4.24577 -3.33003,4e-5 -6.11198,1.3598 -8.34585,4.07927 -2.2339,2.71955 -3.35084,7.00694 -3.35083,12.8622 z"
         style="stroke:#000000"
         id="path5745"
         inkscape:connector-curvature="0" />
      <path
         d="m 646.24268,875.19537 -13.52819,-44.20598 7.74229,0 7.03466,25.51626 2.62239,9.49055 c 0.11098,-0.47174 0.87411,-3.51038 2.28939,-9.11592 l 7.03466,-25.89089 7.70066,0 6.61841,25.64114 2.20614,8.44991 2.53914,-8.53317 7.57579,-25.55788 7.28441,0 -13.81957,44.20598 -7.78392,0 -7.03466,-26.47364 -1.70663,-7.53416 -8.94943,34.0078 z"
         style="stroke:#000000"
         id="path5747"
         inkscape:connector-curvature="0" />
      <path
         d="m 728.53573,869.74247 c -2.77504,2.35877 -5.44599,4.02377 -8.01285,4.99503 -2.56691,0.97125 -5.32111,1.45688 -8.26261,1.45688 -4.85629,0 -8.58868,-1.18632 -11.19718,-3.55896 -2.60852,-2.37263 -3.91278,-5.40433 -3.91277,-9.09511 -10e-6,-2.1645 0.49256,-4.14169 1.47769,-5.93159 0.98513,-1.78987 2.27551,-3.22594 3.87115,-4.30821 1.59562,-1.08224 3.39244,-1.90086 5.39046,-2.45589 1.47075,-0.38848 3.69076,-0.7631 6.66004,-1.12388 6.04951,-0.72148 10.5034,-1.58173 13.3617,-2.58076 0.0277,-1.02673 0.0416,-1.67886 0.0416,-1.95639 -3e-5,-3.05248 -0.70766,-5.20312 -2.12289,-6.45191 -1.91479,-1.69272 -4.75917,-2.5391 -8.53317,-2.53914 -3.52428,4e-5 -6.12586,0.61748 -7.80472,1.85232 -1.6789,1.23492 -2.92072,3.42024 -3.72546,6.55598 l -7.32604,-0.99901 c 0.666,-3.13573 1.76213,-5.66793 3.28839,-7.5966 1.52625,-1.9286 3.73239,-3.41323 6.61841,-4.4539 2.886,-1.04059 6.22989,-1.5609 10.03168,-1.56095 3.77399,5e-5 6.84038,0.44405 9.19917,1.33201 2.35873,0.88805 4.09311,2.00499 5.20316,3.35083 1.10996,1.34592 1.88697,3.04562 2.33101,5.09909 0.24971,1.27654 0.37458,3.5798 0.37463,6.90979 l 0,9.99005 c -5e-5,6.9653 0.15952,11.37063 0.47869,13.21601 0.31908,1.84539 0.9504,3.61446 1.89394,5.30721 l -7.82554,0 c -0.77704,-1.554 -1.27654,-3.37164 -1.49851,-5.4529 z m -0.62437,-16.73334 c -2.71955,1.11003 -6.79882,2.05353 -12.23782,2.83052 -3.08028,0.44402 -5.25867,0.94352 -6.53516,1.4985 -1.27652,0.55502 -2.26165,1.36672 -2.95539,2.43508 -0.69376,1.06839 -1.04064,2.25471 -1.04063,3.55896 -1e-5,1.99802 0.75618,3.66302 2.26857,4.99502 1.51237,1.33201 3.72544,1.99802 6.63923,1.99801 2.88599,1e-5 5.45288,-0.63131 7.70066,-1.89394 2.24773,-1.26263 3.89887,-2.99007 4.9534,-5.18234 0.80472,-1.69275 1.2071,-4.19026 1.20714,-7.49254 z"
         style="stroke:#000000"
         id="path5749"
         inkscape:connector-curvature="0" />
      <path
         d="m 746.80921,892.22009 -0.8325,-7.03466 c 1.63725,0.44399 3.06638,0.66599 4.2874,0.666 1.66499,-1e-5 2.997,-0.27751 3.99602,-0.8325 0.99899,-0.55502 1.81762,-1.33202 2.45589,-2.33102 0.47173,-0.74926 1.23486,-2.60852 2.28938,-5.57778 0.13874,-0.41625 0.36074,-1.02675 0.66601,-1.83151 l -16.77497,-44.28923 8.0753,0 9.19917,25.59951 c 1.19324,3.24678 2.26161,6.66005 3.20514,10.2398 0.86023,-3.441 1.88699,-6.79877 3.08027,-10.0733 l 9.44892,-25.76601 7.49254,0 -16.81659,44.95524 c -1.80378,4.85627 -3.20516,8.20016 -4.20414,10.03168 -1.33203,2.46975 -2.85829,4.28044 -4.57878,5.43209 -1.72052,1.15161 -3.77403,1.72743 -6.16053,1.72744 -1.44302,-10e-6 -3.05252,-0.30527 -4.82853,-0.91575 z"
         style="stroke:#000000"
         id="path5751"
         inkscape:connector-curvature="0" />
      <path
         d="m 784.14702,876.236 17.69072,-63.10383 5.99403,0 -17.6491,63.10383 z"
         style="stroke:#000000"
         id="path5753"
         inkscape:connector-curvature="0" />
      <path
         d="m 842.25583,859.00316 7.36766,0.95738 c -0.80479,5.07829 -2.86524,9.05349 -6.18134,11.92563 -3.31618,2.87214 -7.38851,4.30821 -12.21701,4.30821 -6.04955,0 -10.91275,-1.9772 -14.58964,-5.9316 -3.6769,-3.95438 -5.51534,-9.62234 -5.51534,-17.0039 0,-4.773 0.79088,-8.94939 2.37264,-12.52919 1.58175,-3.57973 3.98907,-6.26455 7.22198,-8.05448 3.23287,-1.78984 6.7502,-2.68478 10.55199,-2.68483 4.80075,5e-5 8.72739,1.21412 11.77994,3.64221 3.05247,2.42818 5.00886,5.87613 5.86915,10.34387 l -7.28441,1.12388 c -0.69379,-2.96923 -1.92173,-5.20312 -3.68383,-6.70166 -1.76217,-1.49847 -3.89199,-2.24772 -6.38947,-2.24776 -3.77404,4e-5 -6.84043,1.35285 -9.19918,4.05846 -2.35877,2.70567 -3.53815,6.98612 -3.53814,12.84138 -10e-6,5.93854 1.13774,10.25369 3.41327,12.94544 2.27549,2.69177 5.24475,4.03765 8.90779,4.03765 2.94149,0 5.39738,-0.90188 7.36767,-2.70564 1.97022,-1.80375 3.21898,-4.57876 3.74627,-8.32505 z"
         style="stroke:#000000"
         id="path5755"
         inkscape:connector-curvature="0" />
      <path
         d="m 856.03382,875.19537 0,-61.02257 7.49254,0 0,21.89487 c 3.4965,-4.05148 7.90877,-6.07724 13.23682,-6.07729 3.27448,5e-5 6.11887,0.64524 8.53317,1.93558 2.41422,1.29042 4.14167,3.07337 5.18234,5.34884 1.04059,2.27555 1.5609,5.57781 1.56094,9.9068 l 0,28.01377 -7.49254,0 0,-28.01377 c -3e-5,-3.74624 -0.81172,-6.47269 -2.43507,-8.17936 -1.62342,-1.70659 -3.91974,-2.55991 -6.88898,-2.55995 -2.22003,4e-5 -4.30823,0.57586 -6.26459,1.72745 -1.9564,1.15167 -3.35085,2.71261 -4.18334,4.68284 -0.83252,1.97029 -1.24877,4.6898 -1.24875,8.15854 l 0,24.18425 z"
         style="stroke:#000000"
         id="path5757"
         inkscape:connector-curvature="0" />
      <path
         d="m 903.48651,892.13684 0,-61.14745 6.82654,0 0,5.74428 c 1.60949,-2.24772 3.42713,-3.93354 5.4529,-5.05746 2.02575,-1.12384 4.48163,-1.68578 7.36767,-1.68583 3.77399,5e-5 7.104,0.9713 9.99005,2.91377 2.88598,1.94255 5.06436,4.68287 6.53516,8.22098 1.47072,3.53817 2.20609,7.41625 2.20614,11.63425 -5e-5,4.52329 -0.81174,8.59562 -2.43508,12.217 -1.62342,3.6214 -3.98218,6.39641 -7.07629,8.32505 -3.09417,1.92863 -6.34787,2.89295 -9.76111,2.89295 -2.49754,0 -4.73836,-0.52725 -6.72247,-1.58176 -1.98415,-1.0545 -3.61447,-2.38651 -4.89097,-3.99602 l 0,21.52024 z m 6.78492,-38.79471 c -2e-5,5.6888 1.15161,9.89294 3.45489,12.61244 2.30324,2.71953 5.09213,4.07928 8.36667,4.07928 3.32999,0 6.18131,-1.40832 8.55398,-4.22496 2.3726,-2.81663 3.55892,-7.18034 3.55896,-13.09114 -4e-5,-5.63325 -1.15861,-9.85127 -3.47571,-12.65406 -2.31717,-2.80273 -5.08524,-4.20411 -8.30423,-4.20415 -3.19129,4e-5 -6.01486,1.49161 -8.47073,4.47471 -2.4559,2.98317 -3.68385,7.31913 -3.68383,13.00788 z"
         style="stroke:#000000"
         id="path5759"
         inkscape:connector-curvature="0" />
    </g>
  </g>
</svg>
