<?xml version="1.0" encoding="UTF-8" standalone="no"?>
<!-- Created with Inkscape (http://www.inkscape.org/) -->

<svg
   xmlns:dc="http://purl.org/dc/elements/1.1/"
   xmlns:cc="http://creativecommons.org/ns#"
   xmlns:rdf="http://www.w3.org/1999/02/22-rdf-syntax-ns#"
   xmlns:svg="http://www.w3.org/2000/svg"
   xmlns="http://www.w3.org/2000/svg"
   xmlns:sodipodi="http://sodipodi.sourceforge.net/DTD/sodipodi-0.dtd"
   xmlns:inkscape="http://www.inkscape.org/namespaces/inkscape"
   width="960"
   height="960"
   id="svg2"
   version="1.1"
   inkscape:version="0.48.4 r9939"
   sodipodi:docname="social.svg">
  <defs
     id="defs4" />
  <sodipodi:namedview
     id="base"
     pagecolor="#ffffff"
     bordercolor="#666666"
     borderopacity="1.0"
     inkscape:pageopacity="0.0"
     inkscape:pageshadow="2"
     inkscape:zoom="0.35"
     inkscape:cx="1111.9011"
     inkscape:cy="520.00001"
     inkscape:document-units="px"
     inkscape:current-layer="layer1"
     showgrid="false"
     fit-margin-top="0"
     fit-margin-left="0"
     fit-margin-right="0"
     fit-margin-bottom="0"
     inkscape:window-width="1600"
     inkscape:window-height="847"
     inkscape:window-x="-8"
     inkscape:window-y="-8"
     inkscape:window-maximized="1"
     showguides="true"
     inkscape:guide-bbox="true" />
  <metadata
     id="metadata7">
    <rdf:RDF>
      <cc:Work
         rdf:about="">
        <dc:format>image/svg+xml</dc:format>
        <dc:type
           rdf:resource="http://purl.org/dc/dcmitype/StillImage" />
        <dc:title />
      </cc:Work>
    </rdf:RDF>
  </metadata>
  <g
     inkscape:label="Layer 1"
     inkscape:groupmode="layer"
     id="layer1"
     transform="translate(1.2218952e-5,-92.36217)">
    <rect
       style="fill:#bb0000;fill-opacity:1;stroke:#ffffff;stroke-width:1.10000002;stroke-miterlimit:4;stroke-opacity:1;stroke-dasharray:none"
       id="rect2985"
       width="958.90002"
       height="958.90002"
       x="0.54997557"
       y="92.91217" />
    <text
       xml:space="preserve"
       style="font-size:88.41346741px;font-style:normal;font-variant:normal;font-weight:normal;font-stretch:normal;text-align:end;line-height:125%;letter-spacing:0px;word-spacing:0px;text-anchor:end;fill:#ffffff;fill-opacity:1;stroke:#000000;stroke-width:3.99999976;stroke-miterlimit:4;stroke-opacity:1;stroke-dasharray:none;font-family:Arial;-inkscape-font-specification:Arial"
       x="937.71979"
       y="671.84259"
       id="text3759-1"
       sodipodi:linespacing="125%"
       transform="scale(0.99927463,1.0007259)"><tspan
         sodipodi:role="line"
         id="tspan3761-7"
         x="937.71979"
         y="671.84259"
         style="font-size:128px;text-align:end;text-anchor:end;stroke:#000000;stroke-width:3.99999976;stroke-opacity:1">@davidbradway</tspan><tspan
         sodipodi:role="line"
         x="937.71979"
         y="798.76514"
         style="text-align:end;text-anchor:end;stroke:#000000;stroke-width:3.99999976;stroke-opacity:1"
         id="tspan3827">#championshouseparty</tspan><tspan
         sodipodi:role="line"
         x="937.71979"
         y="909.28198"
         style="text-align:end;text-anchor:end;stroke:#000000;stroke-width:3.99999976;stroke-opacity:1"
         id="tspan3829" /><tspan
         sodipodi:role="line"
         x="937.71979"
         y="1019.7988"
         style="text-align:end;text-anchor:end;stroke:#000000;stroke-width:3.99999976;stroke-opacity:1"
         id="tspan3825" /></text>
    <g
       id="text3816"
       style="font-size:223.21177673px;font-style:normal;font-variant:normal;font-weight:normal;font-stretch:normal;line-height:125%;letter-spacing:0px;word-spacing:0px;fill:#666666;fill-opacity:1;stroke:#000000;stroke-width:1.83617353;stroke-miterlimit:4;stroke-opacity:1;font-family:FontAwesome;-inkscape-font-specification:FontAwesome"
       transform="matrix(2.1849732,0,0,2.171933,-420.56806,-164.42355)">
      <path
         style="stroke-width:1.32438457"
         inkscape:connector-curvature="0"
         id="path3610"
         d="m 378.3336,289.22355 c -0.0521,2.16948 -0.78907,3.96526 -2.211,5.38734 -1.42226,1.4221 -3.21804,2.1591 -5.38734,2.211 l -133.15784,0 c -2.1695,-0.0519 -3.96528,-0.78889 -5.38735,-2.211 -1.42212,-1.42208 -2.15912,-3.21786 -2.211,-5.38734 l 0,-80.71682 17.56339,0 c -0.8123,2.56401 -1.42992,5.22135 -1.85288,7.97203 -0.42303,2.75085 -0.63583,5.53275 -0.63838,8.34572 0.42815,16.35414 6.23589,29.95225 17.42325,40.79438 11.18724,10.84219 25.185,16.46828 41.9933,16.87829 16.86779,-0.41 30.90187,-6.03609 42.10228,-16.87829 11.20014,-10.84213 17.01308,-24.44024 17.43883,-40.79438 -0.003,-2.81297 -0.21555,-5.59488 -0.63839,-8.34573 -0.42315,-2.75067 -1.04078,-5.40801 -1.85287,-7.97202 l 16.816,0 0,0 0,80.71682 z m -35.37589,-66.39208 c -0.27261,10.54381 -4.02507,19.3203 -11.25738,26.3295 -7.23256,7.00931 -16.31008,10.64759 -27.23258,10.91484 -10.86303,-0.26725 -19.90422,-3.90553 -27.1236,-10.91484 -7.21953,-7.0092 -10.96679,-15.78569 -11.24181,-26.3295 0.27502,-10.54365 4.02229,-19.32015 11.24181,-26.32951 7.21939,-7.00914 16.26058,-10.64742 27.1236,-10.91482 10.9225,0.2674 20.00002,3.90568 27.23258,10.91483 7.2323,7.00936 10.98476,15.78585 11.25738,26.3295 z m 35.37589,-44.84268 c -0.0625,2.4291 -0.90325,4.45324 -2.5224,6.07244 -1.61949,1.61944 -3.64363,2.46024 -6.07245,2.52241 l -21.67396,0 c -2.42912,-0.0622 -4.45327,-0.90297 -6.07245,-2.5224 -1.61945,-1.6192 -2.46025,-3.64335 -2.52239,-6.07245 l 0,-20.55289 c 0.0622,-2.42883 0.90295,-4.45298 2.5224,-6.07245 1.61918,-1.61917 3.64333,-2.45997 6.07244,-2.5224 l 0,0 21.67396,0 c 2.42881,0.0624 4.45296,0.90323 6.07244,2.5224 1.61916,1.61947 2.45996,3.64362 2.52241,6.07245 l 0,20.55289 z m 21.67396,-25.9091 c -0.18184,-6.9079 -2.59006,-12.67932 -7.22465,-17.31426 -4.63497,-4.63461 -10.40638,-7.04282 -17.31426,-7.22465 l -142.25094,0 0,0 c -6.90808,0.18183 -12.67949,2.59005 -17.31426,7.22465 -4.63478,4.63495 -7.04299,10.40636 -7.22465,17.31426 l 0,142.25094 c 0.18166,6.90805 2.58987,12.67946 7.22466,17.31425 4.63477,4.63477 10.40618,7.04299 17.31425,7.22466 l 142.25094,0 c 6.90788,-0.18167 12.67929,-2.58988 17.31425,-7.22465 4.6346,-4.63479 7.04282,-10.40621 7.22466,-17.31426 z" />
    </g>
    <g
       id="text3824"
       style="font-size:223.21177673px;font-style:normal;font-variant:normal;font-weight:normal;font-stretch:normal;line-height:125%;letter-spacing:0px;word-spacing:0px;fill:#666666;fill-opacity:1;stroke:#000000;stroke-width:1.83617353;stroke-miterlimit:4;stroke-opacity:1;font-family:FontAwesome;-inkscape-font-specification:FontAwesome"
       transform="matrix(2.1849732,0,0,2.171933,-701.58462,-164.42355)">
      <path
         style="stroke-width:1.32438457"
         inkscape:connector-curvature="0"
         id="path3613"
         d="m 749.75525,162.41842 c -3.62031,1.56755 -7.37277,2.88584 -11.25738,3.95487 -3.885,1.0693 -7.85544,1.82706 -11.91134,2.27328 4.20122,-2.51967 7.81874,-5.67007 10.85255,-9.45122 3.03343,-3.78086 5.3119,-8.02118 6.83539,-12.72099 -3.87462,2.31235 -7.95924,4.28978 -12.25388,5.93231 -4.29501,1.64282 -8.72218,2.90402 -13.28153,3.7836 -3.7163,-3.96252 -8.08638,-7.06102 -13.11026,-9.29552 -5.02419,-2.23419 -10.45305,-3.37082 -16.28661,-3.40991 -11.43138,0.29081 -20.92411,4.22492 -28.47821,11.80235 -7.55433,7.57772 -11.47287,17.05488 -11.75563,28.4315 0.0207,3.13494 0.35283,6.2075 0.9965,9.21766 -16.82387,-0.99121 -32.34752,-5.17445 -46.57099,-12.54973 -14.22358,-7.37503 -26.35289,-17.22588 -36.38796,-29.55256 -1.75428,2.99485 -3.10372,6.19196 -4.04831,9.59135 -0.94462,3.39967 -1.42211,6.97048 -1.43246,10.71242 0.0701,7.04832 1.70493,13.47368 4.90466,19.27612 3.19969,5.80267 7.54382,10.54644 13.03241,14.23132 -3.31133,-0.13485 -6.49807,-0.64348 -9.56022,-1.5259 -3.06219,-0.88222 -5.93751,-2.07595 -8.62598,-3.58118 -1e-5,0.16619 -1e-5,0.33227 0,0.49825 0.19202,9.96773 3.26457,18.52624 9.21766,25.67555 5.95304,7.14946 13.63442,11.7531 23.04415,13.81092 -3.40476,0.89276 -6.93405,1.34949 -10.58785,1.37019 -2.5951,-0.0207 -5.12788,-0.2283 -7.59834,-0.62281 2.69624,8.11481 7.39329,14.71145 14.09118,19.78994 6.69781,5.07857 14.54008,7.78263 23.52684,8.11217 -6.95483,5.45744 -14.65697,9.67701 -23.10644,12.65871 -8.44956,2.98174 -17.39732,4.49207 -26.84332,4.53098 -3.30093,0.0208 -6.53957,-0.1453 -9.71591,-0.49825 8.94257,5.76624 18.61695,10.20898 29.02317,13.32824 10.40616,3.11926 21.32617,4.69706 32.76007,4.7334 24.70644,-0.42828 45.56072,-6.38116 62.56292,-17.85865 17.00193,-11.47745 29.89341,-25.90983 38.6745,-43.29717 8.78074,-17.38723 13.19273,-35.15974 13.23597,-53.31758 0.0206,-1.74377 -0.0209,-3.48765 -0.12456,-5.23164 3.93134,-2.87522 7.59037,-6.06195 10.97711,-9.56022 3.38636,-3.49801 6.45372,-7.24527 9.2021,-11.2418 z" />
    </g>
    <g
       id="g3870"
       transform="translate(-0.40727484,12)">
      <g
         transform="scale(1.0037869,0.99622738)"
         style="font-size:223.21177673px;font-style:normal;font-variant:normal;font-weight:normal;font-stretch:normal;line-height:125%;letter-spacing:0px;word-spacing:0px;fill:#666666;fill-opacity:1;stroke:#000000;stroke-width:4;stroke-miterlimit:4;stroke-opacity:1;font-family:FontAwesome;-inkscape-font-specification:FontAwesome"
         id="text3812">
        <path
           d="m 98.261738,970.62556 c 0.03625,-4.97469 -1.219759,-10.09734 -3.768032,-15.36796 -2.548425,-5.27052 -6.607098,-8.11989 -12.176031,-8.54814 -5.569065,0.42825 -9.62774,3.27763 -12.176038,8.54814 -2.5484,5.27061 -3.804408,10.39326 -3.768025,15.36796 -0.03638,4.97477 1.219632,10.09742 3.768035,15.36796 2.5483,5.27058 6.606972,8.11996 12.176028,8.54813 5.568933,-0.42817 9.627605,-3.27754 12.176028,-8.54813 2.54827,-5.27055 3.804281,-10.39319 3.768035,-15.36796 z m 79.720312,0 c 0.0362,-4.97469 -1.21983,-10.09734 -3.76803,-15.36796 -2.5485,-5.27052 -6.60718,-8.11989 -12.17603,-8.54814 -5.56914,0.42825 -9.62782,3.27763 -12.17604,8.54814 -2.54848,5.27061 -3.80448,10.39326 -3.76802,15.36796 -0.0365,4.97477 1.21955,10.09742 3.76803,15.36796 2.54822,5.27058 6.6069,8.11996 12.17603,8.54813 5.56885,-0.42817 9.62753,-3.27754 12.17603,-8.54813 2.54819,-5.27055 3.8042,-10.39319 3.76803,-15.36796 z m 19.93008,0 c -0.24315,12.54244 -3.63249,21.98923 -10.16803,28.34039 -6.53588,6.35115 -14.76011,10.58475 -24.6727,12.70085 -9.91289,2.116 -20.0563,3.0925 -30.43028,2.9295 l -20.92658,0 c -10.37418,0.163 -20.517595,-0.8135 -30.430276,-2.9295 -9.912805,-2.1161 -18.137031,-6.3497 -24.672702,-12.70085 -6.535747,-6.35116 -9.925087,-15.79794 -10.168029,-28.34039 0.05966,-9.83264 2.836374,-18.19393 8.330151,-25.08388 5.493704,-6.88982 13.346354,-10.48657 23.557975,-10.79026 4.10273,0.039 8.166592,0.33484 12.191601,0.88751 4.024864,0.55282 8.057588,1.12892 12.09818,1.72831 6.45643,0.95505 12.97522,1.41178 19.55639,1.37019 6.58097,0.0416 13.09976,-0.41514 19.55639,-1.37019 4.09488,-0.59939 8.14317,-1.1755 12.14489,-1.72832 4.00145,-0.55267 8.04975,-0.84851 12.1449,-0.8875 10.21141,0.30369 18.06406,3.90045 23.55797,10.79026 5.49357,6.88995 8.27029,15.25123 8.33015,25.08388 z m 27.90211,-21.92309 c 0.0413,-9.14233 -1.28735,-17.91883 -3.98601,-26.3295 -2.69907,-8.41051 -7.01725,-16.15935 -12.95455,-23.24657 2.24193,-6.78857 3.363,-13.76409 3.3632,-20.92658 -2e-4,-4.68914 -0.52959,-9.32392 -1.58819,-13.90435 -1.05897,-4.58013 -2.64715,-8.99692 -4.76452,-13.25038 -9.52666,0.10655 -17.9087,1.98019 -25.14616,5.6209 -7.23778,3.64102 -14.46762,8.41074 -21.68953,14.30917 -5.68073,-1.36486 -11.44696,-2.37175 -17.29869,-3.02065 -5.85198,-0.64863 -11.71163,-0.97041 -17.57895,-0.96536 -13.01693,-0.0414 -25.846901,1.41185 -38.489964,4.3597 -7.276619,-5.9685 -14.553167,-10.81608 -21.829667,-14.54273 -7.27659,-3.72636 -15.736484,-5.6467 -25.379708,-5.76103 -2.117591,4.25346 -3.705769,8.67025 -4.76454,13.25038 -1.0588,4.58043 -1.588191,9.21521 -1.588173,13.90435 -1.8e-5,3.56055 0.280248,7.12097 0.840799,10.68127 0.560522,3.56055 1.401322,7.05869 2.522402,10.49444 -5.937511,7.02234 -10.255691,14.7141 -12.954551,23.07529 -2.698869,8.36137 -4.027539,17.11192 -3.986016,26.25165 -0.07525,6.98077 0.417808,14.0082 1.47919,21.08229 1.061378,7.07417 3.142615,13.79019 6.243716,20.14806 5.972091,11.03848 14.525408,19.17498 25.659976,24.40978 11.134502,5.2347 23.147897,8.6009 36.040222,10.0988 12.892184,1.4978 24.960944,2.1606 36.206314,1.9884 11.05216,0.1653 22.75953,-0.5252 35.12215,-2.0715 12.36234,-1.5462 23.83903,-4.9402 34.43013,-10.1818 10.59074,-5.2417 18.755,-13.3229 24.49278,-24.24368 3.04121,-6.41237 5.08611,-13.14396 6.13472,-20.19477 1.0482,-7.05074 1.53607,-14.06259 1.46362,-21.03558 z"
           id="path3616"
           inkscape:connector-curvature="0" />
      </g>
      <text
         transform="scale(1.0000467,0.99995331)"
         sodipodi:linespacing="125%"
         id="text3759-1-1"
         y="955.56128"
         x="945.72711"
         style="font-size:85.24845123px;font-style:normal;font-variant:normal;font-weight:normal;font-stretch:normal;text-align:end;line-height:125%;letter-spacing:0px;word-spacing:0px;text-anchor:end;fill:#ffffff;fill-opacity:1;stroke:#000000;stroke-width:3.99999976;stroke-miterlimit:4;stroke-opacity:1;stroke-dasharray:none;font-family:Arial;-inkscape-font-specification:Arial"
         xml:space="preserve"><tspan
           id="tspan3825-9"
           style="text-align:end;text-anchor:end;stroke:#000000;stroke-width:3.99999976;stroke-opacity:1"
           y="955.56128"
           x="945.72711"
           sodipodi:role="line">/davidbradway/chp</tspan></text>
    </g>
    <path
       style="fill:#000000;stroke:#000000;stroke-width:4;stroke-linecap:butt;stroke-linejoin:miter;stroke-miterlimit:4;stroke-opacity:1;stroke-dasharray:none"
       d="m 78.571417,838.9336 802.857143,0"
       id="path3882"
       inkscape:connector-curvature="0" />
  </g>
</svg>
