<?xml version="1.0" encoding="UTF-8" standalone="no"?>
<!-- Created with Inkscape (http://www.inkscape.org/) -->

<svg
   xmlns:dc="http://purl.org/dc/elements/1.1/"
   xmlns:cc="http://creativecommons.org/ns#"
   xmlns:rdf="http://www.w3.org/1999/02/22-rdf-syntax-ns#"
   xmlns:svg="http://www.w3.org/2000/svg"
   xmlns="http://www.w3.org/2000/svg"
   xmlns:sodipodi="http://sodipodi.sourceforge.net/DTD/sodipodi-0.dtd"
   xmlns:inkscape="http://www.inkscape.org/namespaces/inkscape"
   width="960"
   height="960"
   id="svg2"
   version="1.1"
   inkscape:version="0.48.4 r9939"
   sodipodi:docname="volume.svg">
  <defs
     id="defs4" />
  <sodipodi:namedview
     id="base"
     pagecolor="#ffffff"
     bordercolor="#666666"
     borderopacity="1.0"
     inkscape:pageopacity="0.0"
     inkscape:pageshadow="2"
     inkscape:zoom="0.35"
     inkscape:cx="503.65989"
     inkscape:cy="520.00001"
     inkscape:document-units="px"
     inkscape:current-layer="layer1"
     showgrid="false"
     fit-margin-top="0"
     fit-margin-left="0"
     fit-margin-right="0"
     fit-margin-bottom="0"
     inkscape:window-width="1600"
     inkscape:window-height="847"
     inkscape:window-x="-8"
     inkscape:window-y="-8"
     inkscape:window-maximized="1" />
  <metadata
     id="metadata7">
    <rdf:RDF>
      <cc:Work
         rdf:about="">
        <dc:format>image/svg+xml</dc:format>
        <dc:type
           rdf:resource="http://purl.org/dc/dcmitype/StillImage" />
        <dc:title />
      </cc:Work>
    </rdf:RDF>
  </metadata>
  <g
     inkscape:label="Layer 1"
     inkscape:groupmode="layer"
     id="layer1"
     transform="translate(1.2218952e-5,-92.36217)">
    <rect
       style="fill:#bb0000;fill-opacity:1;stroke:#ffffff;stroke-width:1.10000002;stroke-miterlimit:4;stroke-opacity:1;stroke-dasharray:none"
       id="rect2985"
       width="958.90002"
       height="958.90002"
       x="0.54997557"
       y="92.91217" />
    <g
       transform="scale(0.99788916,1.0021153)"
       style="font-size:1007.64575195px;font-style:normal;font-variant:normal;font-weight:normal;font-stretch:normal;line-height:125%;letter-spacing:0px;word-spacing:0px;fill:#666666;fill-opacity:1;stroke:#000000;stroke-width:4;stroke-miterlimit:4;stroke-opacity:1;font-family:FontAwesome;-inkscape-font-specification:FontAwesome"
       id="text3820">
      <path
         d="m 446.46036,328.83308 c -0.26988,-10.10929 -3.80779,-18.56744 -10.61372,-25.37449 -6.80677,-6.80566 -15.26492,-10.34355 -25.37445,-10.61369 -9.84092,0.18813 -18.27564,3.74946 -25.30419,10.68399 l -187.25095,187.25096 -147.326588,0 c -10.109987,0.26995 -18.56814,3.80785 -25.374484,10.6137 -6.806365,6.80684 -10.344257,15.26499 -10.613687,25.37447 l 0,215.92903 c 0.26945,10.11021 3.807348,18.56836 10.613702,25.37447 6.806334,6.80657 15.264482,10.34447 25.374469,10.61371 l 147.326588,0 187.25095,187.25095 c 7.02857,6.93524 15.46329,10.49656 25.30419,10.68399 10.10955,-0.26943 18.5677,-3.80733 25.37447,-10.61372 6.80592,-6.80632 10.34382,-15.26446 10.6137,-25.37445 z m 215.92903,305.89946 c -0.32866,-28.80657 -8.24792,-55.25879 -23.75782,-79.35674 -15.51115,-24.09708 -36.64481,-41.69284 -63.40103,-52.78733 -4.68653,-2.06134 -9.37248,-2.99853 -14.05788,-2.81158 -10.1105,0.23479 -18.56865,3.7024 -25.37449,10.40283 -6.80687,6.70141 -10.34476,15.22985 -10.61368,25.58535 2.71735,18.56856 13.58877,31.9001 32.61428,39.99466 19.02442,8.0954 29.89583,27.75298 32.61428,58.97281 -2.71843,31.22055 -13.58984,50.87813 -32.61428,58.97281 -19.02553,8.09528 -29.89695,21.42682 -32.61428,39.99466 0.26894,10.35622 3.80683,18.88466 10.6137,25.58534 6.80582,6.70116 15.26397,10.16876 25.37447,10.40283 4.6854,0.18766 9.37135,-0.74953 14.05788,-2.81157 26.75622,-11.33982 47.88987,-29.00589 63.40101,-52.99825 15.50989,-23.9918 23.42916,-50.37371 23.75784,-79.14582 z m 143.95269,0 c -0.65683,-58.1992 -16.49537,-111.05678 -47.51565,-158.57288 -31.02177,-47.51508 -73.28908,-82.9409 -126.80206,-106.27757 -4.59285,-1.78007 -9.46624,-2.71726 -14.62019,-2.81158 -10.11056,0.27008 -18.56871,3.80797 -25.37449,10.6137 -6.80693,6.80696 -10.34482,15.26511 -10.61369,25.37447 0.10488,7.84957 2.14327,14.50363 6.11517,19.96219 3.97076,5.4597 9.24246,9.8645 15.81513,13.21441 7.57892,3.84303 14.91243,7.68552 22.00054,11.52746 7.0869,3.84303 13.9987,8.24783 20.73541,13.21441 28.03308,20.6656 49.70561,46.11034 65.01766,76.33429 15.31066,30.22487 23.06593,62.69853 23.26582,97.4211 -0.19987,34.72328 -7.95514,67.19695 -23.2658,97.42108 -15.31207,30.22466 -36.9846,55.66941 -65.01768,76.33431 -6.73669,4.96727 -13.64848,9.37206 -20.73539,13.21438 -7.08813,3.84266 -14.42164,7.68515 -22.00056,11.52749 -6.57267,3.3506 -11.84438,7.7554 -15.81514,13.21439 -3.97192,5.45929 -6.0103,12.11335 -6.11516,19.96221 0.25716,10.11007 3.81848,18.56822 10.68398,25.37446 6.86434,6.80645 15.48651,10.34435 25.86651,10.61371 4.68534,-0.0936 9.3713,-1.03082 14.05788,-2.81158 53.513,-23.33598 95.78031,-58.7618 126.80208,-106.27758 31.02027,-47.51538 46.8588,-100.37295 47.51563,-158.57287 z m 143.95269,0 C 949.30978,546.9181 925.55199,467.6786 879.02131,397.01379 832.4889,326.35017 769.08793,273.2583 688.8182,237.73802 c -4.59292,-1.77994 -9.46631,-2.71713 -14.62019,-2.81158 -10.11063,0.27021 -18.56879,3.80811 -25.37451,10.6137 -6.80699,6.8071 -10.34488,15.26524 -10.61366,25.37447 0.0697,8.0254 2.03777,14.60916 5.90431,19.7513 3.86528,5.14355 9.20727,9.61865 16.02598,13.4253 3.9707,2.17966 8.11777,4.14775 12.4412,5.90429 4.32213,1.75791 8.60978,3.72602 12.86298,5.90433 15.93157,8.43539 31.3015,17.99473 46.10985,28.67807 46.46051,34.68844 82.44864,77.21349 107.96448,127.57526 25.5142,50.36283 38.44745,104.5559 38.79978,162.57938 -0.35231,58.0242 -13.28556,112.21727 -38.79976,162.57937 -25.51585,50.3625 -61.50399,92.88754 -107.9645,127.57526 -14.80837,10.68404 -30.1783,20.24339 -46.10985,28.67808 -4.2532,2.17901 -8.54085,4.14711 -12.86298,5.90431 -4.32343,1.75727 -8.4705,3.72537 -12.4412,5.90431 -6.81871,3.80737 -12.16071,8.28246 -16.02601,13.42528 -3.86656,5.14285 -5.83466,11.72661 -5.90428,19.75131 0.26882,10.10994 3.80672,18.56804 10.6137,25.37444 6.80571,6.8063 15.26386,10.3442 25.37447,10.6137 5.15386,-0.094 10.02725,-1.0309 14.62019,-2.8115 80.26973,-35.51962 143.6707,-88.6115 190.20309,-159.27584 46.53067,-70.66409 70.28847,-149.90359 71.27348,-237.71872 z"
         id="path3651"
         inkscape:connector-curvature="0" />
    </g>
    <text
       xml:space="preserve"
       style="font-size:150.67648315px;font-style:normal;font-variant:normal;font-weight:normal;font-stretch:normal;line-height:125%;letter-spacing:0px;word-spacing:0px;fill:#ffffff;fill-opacity:1;stroke:#000000;stroke-width:4;stroke-miterlimit:4;stroke-opacity:1;stroke-dasharray:none;font-family:Arial;-inkscape-font-specification:Arial"
       x="8.770298"
       y="231.24963"
       id="text3755"
       sodipodi:linespacing="125%"
       transform="scale(1.0000721,0.99992791)"><tspan
         sodipodi:role="line"
         id="tspan3757"
         x="8.770298"
         y="231.24963"
         style="stroke:#000000;stroke-width:4;stroke-opacity:1">CHAMPIONS</tspan></text>
    <text
       xml:space="preserve"
       style="font-size:306.09356689px;font-style:normal;font-variant:normal;font-weight:normal;font-stretch:normal;line-height:125%;letter-spacing:0px;word-spacing:0px;fill:#ffffff;fill-opacity:1;stroke:#000000;stroke-width:4;stroke-miterlimit:4;stroke-opacity:1;stroke-dasharray:none;font-family:Arial;-inkscape-font-specification:Arial"
       x="4.8876739"
       y="601.78815"
       id="text3759"
       sodipodi:linespacing="125%"
       transform="scale(1.0003487,0.9996514)"><tspan
         sodipodi:role="line"
         id="tspan3761"
         x="4.8876739"
         y="601.78815"
         style="stroke-width:4">turn up</tspan></text>
    <text
       xml:space="preserve"
       style="font-size:194.28468323px;font-style:normal;font-variant:normal;font-weight:normal;font-stretch:normal;line-height:125%;letter-spacing:0px;word-spacing:0px;fill:#ffffff;fill-opacity:1;stroke:#000000;stroke-width:3.99999952;stroke-miterlimit:4;stroke-opacity:1;stroke-dasharray:none;font-family:Arial;-inkscape-font-specification:Arial"
       x="-3.2948506"
       y="941.73535"
       id="text3759-1"
       sodipodi:linespacing="125%"
       transform="scale(1.0054944,0.99453563)"><tspan
         sodipodi:role="line"
         id="tspan3761-7"
         x="-3.2948506"
         y="941.73535"
         style="stroke:#000000;stroke-width:3.99999952;stroke-opacity:1">the volume</tspan></text>
  </g>
</svg>
