<?xml version="1.0" encoding="UTF-8" standalone="no"?>
<!-- Created with Inkscape (http://www.inkscape.org/) -->

<svg
   xmlns:dc="http://purl.org/dc/elements/1.1/"
   xmlns:cc="http://creativecommons.org/ns#"
   xmlns:rdf="http://www.w3.org/1999/02/22-rdf-syntax-ns#"
   xmlns:svg="http://www.w3.org/2000/svg"
   xmlns="http://www.w3.org/2000/svg"
   xmlns:sodipodi="http://sodipodi.sourceforge.net/DTD/sodipodi-0.dtd"
   xmlns:inkscape="http://www.inkscape.org/namespaces/inkscape"
   width="960"
   height="960"
   id="svg2"
   version="1.1"
   inkscape:version="0.48.4 r9939"
   sodipodi:docname="volume.svg">
  <defs
     id="defs4" />
  <sodipodi:namedview
     id="base"
     pagecolor="#ffffff"
     bordercolor="#666666"
     borderopacity="1.0"
     inkscape:pageopacity="0.0"
     inkscape:pageshadow="2"
     inkscape:zoom="0.35"
     inkscape:cx="175.08846"
     inkscape:cy="520.00001"
     inkscape:document-units="px"
     inkscape:current-layer="layer25"
     showgrid="false"
     fit-margin-top="0"
     fit-margin-left="0"
     fit-margin-right="0"
     fit-margin-bottom="0"
     inkscape:window-width="1600"
     inkscape:window-height="847"
     inkscape:window-x="-8"
     inkscape:window-y="-8"
     inkscape:window-maximized="1" />
  <metadata
     id="metadata7">
    <rdf:RDF>
      <cc:Work
         rdf:about="">
        <dc:format>image/svg+xml</dc:format>
        <dc:type
           rdf:resource="http://purl.org/dc/dcmitype/StillImage" />
        <dc:title />
      </cc:Work>
    </rdf:RDF>
  </metadata>
  <g
     inkscape:label="Layer 1"
     inkscape:groupmode="layer"
     id="layer1"
     transform="translate(1.2218952e-5,-92.36217)">
    <rect
       style="fill:#bb0000;fill-opacity:1;stroke:#ffffff;stroke-width:1.10000002;stroke-miterlimit:4;stroke-opacity:1;stroke-dasharray:none"
       id="rect2985"
       width="958.90002"
       height="958.90002"
       x="0.54997557"
       y="92.91217" />
    <g
       transform="scale(0.99788916,1.0021153)"
       style="font-size:1007.64575195px;font-style:normal;font-variant:normal;font-weight:normal;font-stretch:normal;line-height:125%;letter-spacing:0px;word-spacing:0px;fill:#666666;fill-opacity:1;stroke:#000000;stroke-width:4;stroke-miterlimit:4;stroke-opacity:1;font-family:FontAwesome;-inkscape-font-specification:FontAwesome"
       id="text3820">
      <path
         d="m 446.46036,328.83308 c -0.26988,-10.10929 -3.80779,-18.56744 -10.61372,-25.37449 -6.80677,-6.80566 -15.26492,-10.34355 -25.37445,-10.61369 -9.84092,0.18813 -18.27564,3.74946 -25.30419,10.68399 l -187.25095,187.25096 -147.326588,0 c -10.109987,0.26995 -18.56814,3.80785 -25.374484,10.6137 -6.806365,6.80684 -10.344257,15.26499 -10.613687,25.37447 l 0,215.92903 c 0.26945,10.11021 3.807348,18.56836 10.613702,25.37447 6.806334,6.80657 15.264482,10.34447 25.374469,10.61371 l 147.326588,0 187.25095,187.25095 c 7.02857,6.93524 15.46329,10.49656 25.30419,10.68399 10.10955,-0.26943 18.5677,-3.80733 25.37447,-10.61372 6.80592,-6.80632 10.34382,-15.26446 10.6137,-25.37445 z m 215.92903,305.89946 c -0.32866,-28.80657 -8.24792,-55.25879 -23.75782,-79.35674 -15.51115,-24.09708 -36.64481,-41.69284 -63.40103,-52.78733 -4.68653,-2.06134 -9.37248,-2.99853 -14.05788,-2.81158 -10.1105,0.23479 -18.56865,3.7024 -25.37449,10.40283 -6.80687,6.70141 -10.34476,15.22985 -10.61368,25.58535 2.71735,18.56856 13.58877,31.9001 32.61428,39.99466 19.02442,8.0954 29.89583,27.75298 32.61428,58.97281 -2.71843,31.22055 -13.58984,50.87813 -32.61428,58.97281 -19.02553,8.09528 -29.89695,21.42682 -32.61428,39.99466 0.26894,10.35622 3.80683,18.88466 10.6137,25.58534 6.80582,6.70116 15.26397,10.16876 25.37447,10.40283 4.6854,0.18766 9.37135,-0.74953 14.05788,-2.81157 26.75622,-11.33982 47.88987,-29.00589 63.40101,-52.99825 15.50989,-23.9918 23.42916,-50.37371 23.75784,-79.14582 z m 143.95269,0 c -0.65683,-58.1992 -16.49537,-111.05678 -47.51565,-158.57288 -31.02177,-47.51508 -73.28908,-82.9409 -126.80206,-106.27757 -4.59285,-1.78007 -9.46624,-2.71726 -14.62019,-2.81158 -10.11056,0.27008 -18.56871,3.80797 -25.37449,10.6137 -6.80693,6.80696 -10.34482,15.26511 -10.61369,25.37447 0.10488,7.84957 2.14327,14.50363 6.11517,19.96219 3.97076,5.4597 9.24246,9.8645 15.81513,13.21441 7.57892,3.84303 14.91243,7.68552 22.00054,11.52746 7.0869,3.84303 13.9987,8.24783 20.73541,13.21441 28.03308,20.6656 49.70561,46.11034 65.01766,76.33429 15.31066,30.22487 23.06593,62.69853 23.26582,97.4211 -0.19987,34.72328 -7.95514,67.19695 -23.2658,97.42108 -15.31207,30.22466 -36.9846,55.66941 -65.01768,76.33431 -6.73669,4.96727 -13.64848,9.37206 -20.73539,13.21438 -7.08813,3.84266 -14.42164,7.68515 -22.00056,11.52749 -6.57267,3.3506 -11.84438,7.7554 -15.81514,13.21439 -3.97192,5.45929 -6.0103,12.11335 -6.11516,19.96221 0.25716,10.11007 3.81848,18.56822 10.68398,25.37446 6.86434,6.80645 15.48651,10.34435 25.86651,10.61371 4.68534,-0.0936 9.3713,-1.03082 14.05788,-2.81158 53.513,-23.33598 95.78031,-58.7618 126.80208,-106.27758 31.02027,-47.51538 46.8588,-100.37295 47.51563,-158.57287 z m 143.95269,0 C 949.30978,546.9181 925.55199,467.6786 879.02131,397.01379 832.4889,326.35017 769.08793,273.2583 688.8182,237.73802 c -4.59292,-1.77994 -9.46631,-2.71713 -14.62019,-2.81158 -10.11063,0.27021 -18.56879,3.80811 -25.37451,10.6137 -6.80699,6.8071 -10.34488,15.26524 -10.61366,25.37447 0.0697,8.0254 2.03777,14.60916 5.90431,19.7513 3.86528,5.14355 9.20727,9.61865 16.02598,13.4253 3.9707,2.17966 8.11777,4.14775 12.4412,5.90429 4.32213,1.75791 8.60978,3.72602 12.86298,5.90433 15.93157,8.43539 31.3015,17.99473 46.10985,28.67807 46.46051,34.68844 82.44864,77.21349 107.96448,127.57526 25.5142,50.36283 38.44745,104.5559 38.79978,162.57938 -0.35231,58.0242 -13.28556,112.21727 -38.79976,162.57937 -25.51585,50.3625 -61.50399,92.88754 -107.9645,127.57526 -14.80837,10.68404 -30.1783,20.24339 -46.10985,28.67808 -4.2532,2.17901 -8.54085,4.14711 -12.86298,5.90431 -4.32343,1.75727 -8.4705,3.72537 -12.4412,5.90431 -6.81871,3.80737 -12.16071,8.28246 -16.02601,13.42528 -3.86656,5.14285 -5.83466,11.72661 -5.90428,19.75131 0.26882,10.10994 3.80672,18.56804 10.6137,25.37444 6.80571,6.8063 15.26386,10.3442 25.37447,10.6137 5.15386,-0.094 10.02725,-1.0309 14.62019,-2.8115 80.26973,-35.51962 143.6707,-88.6115 190.20309,-159.27584 46.53067,-70.66409 70.28847,-149.90359 71.27348,-237.71872 z"
         id="path3651"
         inkscape:connector-curvature="0" />
    </g>
  </g>
  <g
     inkscape:groupmode="layer"
     id="layer24"
     inkscape:label="Text"
     style="display:none">
    <text
       xml:space="preserve"
       style="font-size:150.67648315px;font-style:normal;font-variant:normal;font-weight:normal;font-stretch:normal;line-height:125%;letter-spacing:0px;word-spacing:0px;fill:#ffffff;fill-opacity:1;stroke:#000000;stroke-width:4;stroke-miterlimit:4;stroke-opacity:1;stroke-dasharray:none;font-family:Arial;-inkscape-font-specification:Arial"
       x="8.770298"
       y="231.24963"
       id="text3755"
       sodipodi:linespacing="125%"
       transform="matrix(1.0000721,0,0,0.99992791,1.2218952e-5,-92.36217)"><tspan
         sodipodi:role="line"
         id="tspan3757"
         x="8.770298"
         y="231.24963"
         style="stroke:#000000;stroke-width:4;stroke-opacity:1">CHAMPIONS</tspan></text>
    <text
       xml:space="preserve"
       style="font-size:306.09356689px;font-style:normal;font-variant:normal;font-weight:normal;font-stretch:normal;line-height:125%;letter-spacing:0px;word-spacing:0px;fill:#ffffff;fill-opacity:1;stroke:#000000;stroke-width:4;stroke-miterlimit:4;stroke-opacity:1;stroke-dasharray:none;font-family:Arial;-inkscape-font-specification:Arial"
       x="4.8876739"
       y="601.78815"
       id="text3759"
       sodipodi:linespacing="125%"
       transform="matrix(1.0003487,0,0,0.9996514,1.2218952e-5,-92.36217)"><tspan
         sodipodi:role="line"
         id="tspan3761"
         x="4.8876739"
         y="601.78815"
         style="stroke-width:4">turn up</tspan></text>
    <text
       xml:space="preserve"
       style="font-size:194.28468323px;font-style:normal;font-variant:normal;font-weight:normal;font-stretch:normal;line-height:125%;letter-spacing:0px;word-spacing:0px;fill:#ffffff;fill-opacity:1;stroke:#000000;stroke-width:3.99999952;stroke-miterlimit:4;stroke-opacity:1;stroke-dasharray:none;font-family:Arial;-inkscape-font-specification:Arial"
       x="-3.2948506"
       y="941.73535"
       id="text3759-1"
       sodipodi:linespacing="125%"
       transform="matrix(1.0054944,0,0,0.99453563,1.2218952e-5,-92.36217)"><tspan
         sodipodi:role="line"
         id="tspan3761-7"
         x="-3.2948506"
         y="941.73535"
         style="stroke:#000000;stroke-width:3.99999952;stroke-opacity:1">the volume</tspan></text>
  </g>
  <g
     inkscape:groupmode="layer"
     id="layer25"
     inkscape:label="PathsFromText"
     style="display:inline">
    <g
       transform="scale(1.0000721,0.99992791)"
       style="font-size:150.67648315px;font-style:normal;font-variant:normal;font-weight:normal;font-stretch:normal;line-height:125%;letter-spacing:0px;word-spacing:0px;fill:#ffffff;fill-opacity:1;stroke:#000000;stroke-width:4;stroke-miterlimit:4;stroke-opacity:1;font-family:Arial;-inkscape-font-specification:Arial"
       id="text3755-3">
      <path
         d="m 97.351602,101.06453 14.273068,3.60506 c -2.99205,11.72257 -8.3751,20.66162 -16.149167,26.81717 -7.774239,6.15557 -17.277345,9.23335 -28.509344,9.23335 -11.624502,0 -21.078559,-2.36658 -28.362199,-7.09975 -7.2837,-4.73315 -12.826157,-11.58765 -16.627386,-20.56351 -3.801255,-8.97581 -5.701876,-18.613798 -5.701868,-28.913993 -8e-6,-11.232002 2.145855,-21.029397 6.437593,-29.392214 4.291711,-8.362649 10.398223,-14.714402 18.319553,-19.055278 7.921266,-4.34067 16.639599,-6.511057 26.155025,-6.511166 10.790564,1.09e-4 19.864497,2.746813 27.221825,8.24012 7.357158,5.493509 12.482708,13.218614 15.376658,23.175338 l -14.052353,3.310762 c -2.501549,-7.84765 -6.131122,-13.561776 -10.88873,-17.142393 -4.75776,-3.580432 -10.741651,-5.370695 -17.95169,-5.370792 -8.289219,9.7e-5 -15.217289,1.986553 -20.784232,5.959372 -5.567018,3.973003 -9.478619,9.307004 -11.734814,16.00202 -2.256247,6.695166 -3.384357,13.598712 -3.384335,20.710659 -2.2e-5,9.172084 1.336543,17.179215 4.009701,24.021425 2.673106,6.84226 6.829948,11.95555 12.470539,15.33986 5.640514,3.38435 11.747026,5.07652 18.319553,5.07651 7.994814,1e-5 14.763477,-2.30526 20.306011,-6.91582 5.542378,-4.61052 9.294572,-11.45276 11.256592,-20.52673 z"
         style="stroke:#000000"
         id="path5848"
         inkscape:connector-curvature="0" />
      <path
         d="m 129.7235,138.8808 0,-107.857289 14.27306,0 0,44.290646 56.06225,0 0,-44.290646 14.27307,0 0,107.857289 -14.27307,0 0,-50.8386 -56.06225,0 0,50.8386 z"
         style="stroke:#000000"
         id="path5850"
         inkscape:connector-curvature="0" />
      <path
         d="m 226.32419,138.8808 41.42132,-107.857289 15.37665,0 44.1435,107.857289 -16.25952,0 -12.5809,-32.66619 -45.09994,0 -11.84517,32.66619 z m 31.12117,-44.290648 36.56553,0 -11.25659,-29.870435 c -3.43344,-9.073859 -5.98395,-16.529198 -7.65154,-22.366041 -1.3734,6.915905 -3.31081,13.782665 -5.81223,20.600301 z"
         style="stroke:#000000"
         id="path5852"
         inkscape:connector-curvature="0" />
      <path
         d="m 338.37511,138.8808 0,-107.857289 21.48317,0 25.52966,76.368259 c 2.35426,7.11203 4.07095,12.43377 5.15008,15.96523 1.22614,-3.92385 3.13902,-9.68702 5.73865,-17.28954 l 25.82395,-75.043949 19.20242,0 0,107.857289 -13.75805,0 0,-90.273461 -31.34189,90.273461 -12.87519,0 -31.19474,-91.818484 0,91.818484 z"
         style="stroke:#000000"
         id="path5854"
         inkscape:connector-curvature="0" />
      <path
         d="m 464.47838,138.8808 0,-107.857289 40.6856,0 c 7.16099,1.08e-4 12.62988,0.343446 16.40667,1.030015 5.29714,0.882976 9.73601,2.56288 13.31662,5.039716 3.58044,2.477041 6.46203,5.947207 8.64477,10.410509 2.18255,4.463486 3.27388,9.368314 3.27397,14.714501 -9e-5,9.172106 -2.91846,16.933997 -8.75512,23.285696 -5.83684,6.351807 -16.38222,9.527683 -31.63618,9.527639 l -27.66326,0 0,43.849213 z m 14.27307,-56.577255 27.88398,0 c 9.22102,5.6e-5 15.76897,-1.716634 19.64386,-5.150075 3.87474,-3.433319 5.81214,-8.264575 5.81222,-14.493783 -8e-5,-4.512366 -1.14045,-8.374919 -3.42112,-11.587669 -2.28082,-3.212575 -5.28503,-5.333913 -9.01263,-6.364022 -2.40343,-0.637533 -6.8423,-0.956347 -13.31662,-0.956442 l -27.58969,0 z"
         style="stroke:#000000"
         id="path5856"
         inkscape:connector-curvature="0" />
      <path
         d="m 567.55343,138.8808 0,-107.857289 14.27307,0 0,107.857289 z"
         style="stroke:#000000"
         id="path5858"
         inkscape:connector-curvature="0" />
      <path
         d="m 602.57395,86.350032 c -10e-6,-17.902571 4.80672,-31.918119 14.42021,-42.046684 9.61344,-10.128377 22.02266,-15.192612 37.22768,-15.192722 9.95675,1.1e-4 18.93258,2.378952 26.92754,7.136533 7.99478,4.757786 14.08903,11.391567 18.28276,19.901361 4.19353,8.509961 6.29034,18.160211 6.29045,28.95078 -1.1e-4,10.937821 -2.20728,20.72295 -6.62152,29.35543 -4.41445,8.63252 -10.66811,15.1682 -18.76099,19.60707 -8.09305,4.43887 -16.82365,6.65831 -26.19181,6.65831 -10.15305,0 -19.22699,-2.45242 -27.22183,-7.35725 -7.9949,-4.90482 -14.05236,-11.59991 -18.1724,-20.08529 -4.12007,-8.48533 -6.1801,-17.461166 -6.18009,-26.927538 z m 14.7145,0.220718 c -3e-5,12.997848 3.49467,23.23668 10.48408,30.71652 6.98935,7.47988 15.75673,11.21982 26.30217,11.21981 10.74151,1e-5 19.58247,-3.77671 26.52288,-11.33017 6.94025,-7.55341 10.41042,-18.270464 10.41051,-32.151183 -9e-5,-8.779589 -1.4838,-16.443384 -4.45113,-22.991407 -2.96752,-6.547869 -7.30829,-11.624366 -13.02234,-15.229507 -5.7142,-3.604957 -12.12726,-5.407482 -19.2392,-5.407579 -10.10401,9.7e-5 -18.79782,3.470263 -26.08146,10.410509 -7.2837,6.940419 -10.92554,18.528077 -10.92551,34.763007 z"
         style="stroke:#000000"
         id="path5860"
         inkscape:connector-curvature="0" />
      <path
         d="m 723.89502,138.8808 0,-107.857289 14.64093,0 56.65082,84.681949 0,-84.681949 13.68449,0 0,107.857289 -14.64093,0 -56.65082,-84.755523 0,84.755523 z"
         style="stroke:#000000"
         id="path5862"
         inkscape:connector-curvature="0" />
      <path
         d="m 828.07365,104.22815 13.46377,-1.17716 c 0.6376,5.39535 2.12131,9.82196 4.45113,13.27984 2.32977,3.45792 5.94708,6.25368 10.85195,8.38726 4.90479,2.13362 10.42272,3.20042 16.55381,3.20041 5.44431,1e-5 10.25104,-0.80929 14.42021,-2.4279 4.16904,-1.61858 7.27134,-3.83801 9.30692,-6.65831 2.03543,-2.82025 3.05318,-5.89803 3.05326,-9.23335 -8e-5,-3.3843 -0.98104,-6.33946 -2.9429,-8.86548 -1.96201,-2.525952 -5.19919,-4.647291 -9.71157,-6.364025 -2.89392,-1.128066 -9.29472,-2.881542 -19.20242,-5.260434 -9.9078,-2.378792 -16.84814,-4.622751 -20.82102,-6.731884 -5.1501,-2.697599 -8.98813,-6.045145 -11.5141,-10.042646 -2.526,-3.997369 -3.78899,-8.473025 -3.78898,-13.426982 -10e-6,-5.44428 1.54501,-10.533039 4.63507,-15.266294 3.09002,-4.733064 7.60246,-8.325851 13.53734,-10.778371 5.93481,-2.452309 12.5318,-3.678516 19.791,-3.678625 7.99482,1.09e-4 15.04551,1.287627 21.15209,3.862556 6.10645,2.575141 10.80282,6.364121 14.08914,11.366951 3.28615,5.00302 5.05189,10.668097 5.29722,16.995248 l -13.68449,1.030015 c -0.7358,-6.817635 -3.225,-11.967705 -7.46761,-15.450225 -4.24274,-3.482336 -10.50866,-5.223551 -18.79777,-5.223648 -8.63255,9.7e-5 -14.92299,1.581905 -18.87135,4.745427 -3.94841,3.163706 -5.92261,6.977211 -5.92258,11.440524 -3e-5,3.874895 1.39785,7.063034 4.19363,9.564425 2.74667,2.501534 9.91999,5.064307 21.51996,7.688326 11.59986,2.624147 19.55795,4.917155 23.87427,6.879029 6.27811,2.893906 10.91317,6.560265 13.90521,10.999089 2.99185,4.438916 4.48783,9.552204 4.48792,15.339864 -9e-5,5.73868 -1.64321,11.14626 -4.92936,16.22274 -3.28632,5.07651 -8.00722,9.0249 -14.16271,11.84517 -6.15563,2.82028 -13.0837,4.23042 -20.78423,4.23042 -9.76066,0 -17.93946,-1.4224 -24.53643,-4.2672 -6.59702,-2.8448 -11.77161,-7.12427 -15.5238,-12.83841 -3.7522,-5.71411 -5.7264,-12.17622 -5.92258,-19.38635 z"
         style="stroke:#000000"
         id="path5864"
         inkscape:connector-curvature="0" />
    </g>
    <g
       transform="scale(1.0003487,0.99965142)"
       style="font-size:306.09356689px;font-style:normal;font-variant:normal;font-weight:normal;font-stretch:normal;line-height:125%;letter-spacing:0px;word-spacing:0px;fill:#ffffff;fill-opacity:1;stroke:#000000;stroke-width:4;stroke-miterlimit:4;stroke-opacity:1;font-family:Arial;-inkscape-font-specification:Arial"
       id="text3759-9">
      <path
         d="m 83.802433,485.33075 3.885954,23.7641 c -7.572703,1.59423 -14.348204,2.39135 -20.326526,2.39135 -9.764756,0 -17.337376,-1.54441 -22.717882,-4.63325 -5.380585,-3.08883 -9.166895,-7.14915 -11.358941,-12.18097 -2.192102,-5.03179 -3.288139,-15.61851 -3.288114,-31.76019 l 0,-91.31991 -19.728687,0 0,-20.92437 19.728687,0 0,-39.30791 26.753295,-16.14165 0,55.44956 27.052214,0 0,20.92437 -27.052214,0 0,92.8145 c -5.2e-5,7.67231 0.473237,12.60447 1.419867,14.79652 0.946525,2.1921 2.490941,3.9358 4.633253,5.23109 2.142196,1.29534 5.206118,1.943 9.191774,1.94298 2.989125,2e-5 6.924895,-0.34872 11.80732,-1.04622 z"
         id="path5867"
         inkscape:connector-curvature="0" />
      <path
         d="m 213.98187,509.39377 0,-23.31572 c -12.35545,17.93517 -29.14474,26.90275 -50.36793,26.90275 -9.36621,0 -18.1096,-1.79352 -26.23019,-5.38055 -8.12068,-3.58703 -14.14889,-8.09573 -18.08463,-13.52611 -3.9358,-5.43035 -6.7008,-12.0813 -8.29501,-19.95287 -1.09606,-5.28087 -1.64408,-13.65061 -1.64406,-25.10924 l 0,-98.34452 26.90275,0 0,88.0318 c -4e-5,14.04927 0.54797,23.51504 1.64406,28.39735 1.69383,7.07446 5.28086,12.62938 10.7611,16.66476 5.48013,4.03544 12.25563,6.05314 20.32653,6.05312 8.07074,2e-5 15.64336,-2.0675 22.71788,-6.20258 7.07432,-4.13502 12.08122,-9.76467 15.0207,-16.88895 2.93926,-7.1242 4.40895,-17.46182 4.40907,-31.0129 l 0,-85.0426 26.90275,0 0,158.72626 z"
         id="path5869"
         inkscape:connector-curvature="0" />
      <path
         d="m 280.04308,509.39377 0,-158.72626 24.21248,0 0,24.06302 c 6.17762,-11.25915 11.882,-18.68231 17.11315,-22.2695 5.23102,-3.58687 10.98521,-5.38039 17.2626,-5.38055 9.06713,1.6e-4 18.28381,2.88971 27.65005,8.66867 l -9.2665,24.95977 c -6.57632,-3.88582 -13.15255,-5.82879 -19.72869,-5.82893 -5.87882,1.4e-4 -11.15973,1.76874 -15.84273,5.30582 -4.68313,3.53734 -8.02106,8.4446 -10.01381,14.72179 -2.98924,9.56553 -4.48384,20.0277 -4.48379,31.38655 l 0,83.09962 z"
         id="path5871"
         inkscape:connector-curvature="0" />
      <path
         d="m 382.57247,509.39377 0,-158.72626 24.21248,0 0,22.56843 c 11.65781,-17.43682 28.49692,-26.1553 50.5174,-26.15546 9.56532,1.6e-4 18.35852,1.71895 26.37964,5.15636 8.02088,3.43773 14.02417,7.94643 18.0099,13.52611 3.98545,5.57997 6.77537,12.20601 8.36975,19.87815 0.99625,4.98211 1.49445,13.70058 1.4946,26.15545 l 0,97.59722 -26.90276,0 0,-96.551 c -1.2e-4,-10.96027 -1.04634,-19.15564 -3.13865,-24.58613 -2.09256,-5.43024 -5.80414,-9.76457 -11.13475,-13.003 -5.33084,-3.23815 -11.58323,-4.8573 -18.7572,-4.85744 -11.45866,1.4e-4 -21.3479,3.63699 -29.66776,10.91056 -8.31998,7.27383 -12.47994,21.07393 -12.47989,41.40035 l 0,86.68666 z"
         id="path5873"
         inkscape:connector-curvature="0" />
      <path
         d="m 741.87371,509.39377 0,-23.31572 c -12.35545,17.93517 -29.14475,26.90275 -50.36793,26.90275 -9.36621,0 -18.1096,-1.79352 -26.23019,-5.38055 -8.12069,-3.58703 -14.14889,-8.09573 -18.08463,-13.52611 -3.9358,-5.43035 -6.7008,-12.0813 -8.29502,-19.95287 -1.09605,-5.28087 -1.64407,-13.65061 -1.64405,-25.10924 l 0,-98.34452 26.90275,0 0,88.0318 c -5e-5,14.04927 0.54797,23.51504 1.64406,28.39735 1.69383,7.07446 5.28086,12.62938 10.7611,16.66476 5.48013,4.03544 12.25563,6.05314 20.32653,6.05312 8.07074,2e-5 15.64336,-2.0675 22.71788,-6.20258 7.07432,-4.13502 12.08121,-9.76467 15.0207,-16.88895 2.93926,-7.1242 4.40894,-17.46182 4.40907,-31.0129 l 0,-85.0426 26.90275,0 0,158.72626 z"
         id="path5875"
         inkscape:connector-curvature="0" />
      <path
         d="m 808.23382,570.22389 0,-219.55638 24.5114,0 0,20.62545 c 5.77906,-8.07068 12.30546,-14.12379 19.57923,-18.15936 7.27363,-4.03525 16.09175,-6.05296 26.45437,-6.05312 13.55091,1.6e-4 25.50768,3.48755 35.87034,10.46218 10.36241,6.97494 18.18413,16.81436 23.46518,29.5183 5.28076,12.70419 7.92121,26.62884 7.92137,41.774 -1.6e-4,16.24136 -2.91462,30.86349 -8.7434,43.86644 -5.82907,13.00302 -14.29845,22.967 -25.40815,29.89195 -11.10996,6.92497 -22.79272,10.38745 -35.04832,10.38745 -8.96766,0 -17.01357,-1.89316 -24.13775,-5.67947 -7.1243,-3.78631 -12.97814,-8.56901 -17.56152,-14.34813 l 0,77.27069 z M 832.59576,430.9274 c -5e-5,20.42622 4.135,35.52164 12.40516,45.2863 8.27004,9.76473 18.28383,14.64708 30.04141,14.64706 11.95668,2e-5 22.19466,-5.0567 30.71398,-15.17017 8.51908,-10.11339 12.77867,-25.78174 12.7788,-47.00509 -1.3e-4,-20.22678 -4.16008,-35.37202 -12.47988,-45.43576 -8.32004,-10.06349 -18.2591,-15.09529 -29.81722,-15.09543 -11.45866,1.4e-4 -21.59701,5.35577 -30.41506,16.06692 -8.81818,10.71139 -13.22724,26.2801 -13.22719,46.70617 z"
         id="path5877"
         inkscape:connector-curvature="0" />
    </g>
    <g
       transform="scale(1.0054944,0.99453563)"
       style="font-size:194.28468323px;font-style:normal;font-variant:normal;font-weight:normal;font-stretch:normal;line-height:125%;letter-spacing:0px;word-spacing:0px;fill:#ffffff;fill-opacity:1;stroke:#000000;stroke-width:3.99999952;stroke-miterlimit:4;stroke-opacity:1;font-family:Arial;-inkscape-font-specification:Arial"
       id="text3759-1-4">
      <path
         d="m 46.794181,833.59231 2.466505,15.08362 c -4.80657,1.0119 -9.107138,1.51785 -12.901717,1.51785 -6.197917,0 -11.004435,-0.98028 -14.419566,-2.94083 -3.415183,-1.96055 -5.818441,-4.53773 -7.209784,-7.73155 -1.391378,-3.19379 -2.087058,-9.91343 -2.087042,-20.15893 l 0,-57.96286 -12.52225498,0 0,-13.28118 12.52225498,0 0,-24.94965 16.980937,-10.24548 0,35.19513 17.170667,0 0,13.28118 -17.170667,0 0,58.91152 c -3.3e-5,4.86979 0.300374,8.00035 0.901223,9.39169 0.60078,1.39138 1.581057,2.49814 2.940832,3.32029 1.359702,0.82219 3.304444,1.23327 5.834233,1.23325 1.897266,2e-5 4.395391,-0.22133 7.494379,-0.66405 z"
         style="stroke:#000000"
         id="path5880"
         inkscape:connector-curvature="0" />
      <path
         d="m 63.395657,848.86566 0,-139.07292 17.075803,0 0,49.89929 c 7.968669,-9.23349 18.02441,-13.85027 30.16725,-13.85038 7.46269,1.1e-4 13.94516,1.47052 19.44744,4.41125 5.50212,2.94093 9.43904,7.00434 11.81076,12.19023 2.37155,5.18606 3.55737,12.71206 3.55746,22.578 l 0,63.84453 -17.0758,0 0,-63.84453 c -8e-5,-8.53782 -1.84995,-14.75151 -5.54963,-18.64108 -3.69983,-3.8894 -8.93324,-5.83414 -15.70026,-5.83423 -5.05954,9e-5 -9.818629,1.31239 -14.277264,3.93692 -4.458719,2.62469 -7.636713,6.18215 -9.533989,10.67238 -1.897343,4.49037 -2.845997,10.68825 -2.845967,18.59365 l 0,55.11689 z"
         style="stroke:#000000"
         id="path5882"
         inkscape:connector-curvature="0" />
      <path
         d="m 240.50968,816.42164 17.64499,2.18191 c -2.78282,10.30874 -7.93718,18.30906 -15.46309,24.00098 -7.52607,5.69194 -17.13911,8.5379 -28.83913,8.53791 -14.73582,-10e-6 -26.42009,-4.53774 -35.05283,-13.61321 -8.63277,-9.07546 -12.94915,-21.80324 -12.94915,-38.18339 0,-16.94925 4.36381,-30.10393 13.09145,-39.46408 8.72761,-9.35997 20.04822,-14.04 33.96188,-14.04011 13.47084,1.1e-4 24.47523,4.58527 33.01321,13.75551 8.53781,9.17042 12.80676,22.07212 12.80686,38.70515 -10e-5,1.01195 -0.0317,2.5298 -0.0949,4.55355 l -75.13353,0 c 0.63241,11.06769 3.76297,19.54233 9.39169,25.42397 5.62865,5.88168 12.6487,8.82251 21.06016,8.8225 6.26106,10e-6 11.60515,-1.64432 16.03228,-4.93301 4.42698,-3.28865 7.93701,-8.53787 10.53008,-15.74768 z m -56.06555,-27.60588 56.25528,0 c -0.75901,-8.47459 -2.90929,-14.83058 -6.45086,-19.06798 -5.43903,-6.57726 -12.4907,-9.86593 -21.15502,-9.86602 -7.84227,9e-5 -14.43542,2.6247 -19.77947,7.87384 -5.34413,5.2493 -8.30077,12.26935 -8.86993,21.06016 z"
         style="stroke:#000000"
         id="path5884"
         inkscape:connector-curvature="0" />
      <path
         d="m 361.55815,848.86566 -38.32569,-100.74723 18.02446,0 21.62934,60.3345 c 2.33998,6.51414 4.49026,13.28121 6.45086,20.30123 1.5178,-5.31245 3.63646,-11.70005 6.356,-19.16284 l 22.38827,-61.47289 17.55013,0 -38.13596,100.74723 z"
         style="stroke:#000000"
         id="path5886"
         inkscape:connector-curvature="0" />
      <path
         d="m 424.35915,798.49205 c -10e-6,-18.65683 5.18597,-32.47557 15.55795,-41.45626 8.66436,-7.46266 19.22605,-11.19403 31.6851,-11.19414 13.8503,1.1e-4 25.17092,4.53784 33.96187,13.61321 8.79078,9.07556 13.18621,21.61361 13.18632,37.6142 -1.1e-4,12.965 -1.94485,23.16304 -5.83424,30.59415 -3.88958,7.43115 -9.54988,13.20213 -16.98093,17.31296 -7.43121,4.11084 -15.54221,6.16626 -24.33302,6.16627 -14.10339,-10e-6 -25.50306,-4.52193 -34.19904,-13.56578 -8.69602,-9.04383 -13.04402,-22.07202 -13.04401,-39.08461 z m 17.55013,0 c -3e-5,12.90175 2.81431,22.56222 8.44303,28.98143 5.62865,6.41925 12.71194,9.62886 21.24989,9.62885 8.47459,10e-6 15.52626,-3.22541 21.15502,-9.67629 5.62861,-6.45083 8.44295,-16.28521 8.44304,-29.50319 -9e-5,-12.45895 -2.83024,-21.89806 -8.49047,-28.31737 -5.66038,-6.41915 -12.69624,-9.62877 -21.10759,-9.62886 -8.53795,9e-5 -15.62124,3.1939 -21.24989,9.58143 -5.62872,6.38768 -8.44306,16.03234 -8.44303,28.934 z"
         style="stroke:#000000"
         id="path5888"
         inkscape:connector-curvature="0" />
      <path
         d="m 538.4824,848.86566 0,-139.07292 17.07581,0 0,139.07292 z"
         style="stroke:#000000"
         id="path5890"
         inkscape:connector-curvature="0" />
      <path
         d="m 648.14703,848.86566 0,-14.79903 c -7.84229,11.38387 -18.49885,17.0758 -31.9697,17.07581 -5.94495,-10e-6 -11.49458,-1.13839 -16.6489,-3.41517 -5.15439,-2.27677 -8.98063,-5.13854 -11.47874,-8.58533 -2.49814,-3.44677 -4.25315,-7.66828 -5.26504,-12.66455 -0.69569,-3.35189 -1.04353,-8.66436 -1.04352,-15.93742 l 0,-62.42154 17.0758,0 0,55.87582 c -2e-5,8.9174 0.34782,14.92554 1.04353,18.02446 1.07511,4.49032 3.35188,8.01616 6.83032,10.57751 3.47836,2.56138 7.77893,3.84206 12.90171,3.84205 5.12269,10e-6 9.92921,-1.31229 14.41957,-3.93692 4.49023,-2.62459 7.66823,-6.19786 9.53399,-10.71981 1.86561,-4.52189 2.79846,-11.08342 2.79853,-19.6846 l 0,-53.97851 17.07581,0 0,100.74723 z"
         style="stroke:#000000"
         id="path5892"
         inkscape:connector-curvature="0" />
      <path
         d="m 690.26732,848.86566 0,-100.74723 15.27336,0 0,14.13497 c 3.16215,-4.93292 7.36786,-8.90146 12.61712,-11.90563 5.24918,-3.00398 11.22571,-4.50601 17.92959,-4.50612 7.46269,1.1e-4 13.58152,1.54958 18.35649,4.64842 4.77482,3.09903 8.14254,7.43122 10.10318,12.99658 7.96862,-11.76323 18.34057,-17.64489 31.11591,-17.645 9.99238,1.1e-4 17.67648,2.76702 23.05233,8.30074 5.37557,5.53392 8.06343,14.056 8.06358,25.56627 l 0,69.157 -16.98094,0 0,-63.46506 c -1.3e-4,-6.83025 -0.55352,-11.74745 -1.66015,-14.7516 -1.10689,-3.00399 -3.11488,-5.42306 -6.02396,-7.25722 -2.90933,-1.83398 -6.32449,-2.75101 -10.24548,-2.7511 -7.08341,9e-5 -12.96507,2.35592 -17.645,7.06749 -4.68013,4.71173 -7.02014,12.25354 -7.02005,22.62544 l 0,58.53205 -17.0758,0 0,-65.45724 c -8e-5,-7.58917 -1.39144,-13.2811 -4.17409,-17.0758 -2.78279,-3.79454 -7.33633,-5.69185 -13.66064,-5.69194 -4.80657,9e-5 -9.24944,1.26496 -13.32861,3.79463 -4.07926,2.52983 -7.0359,6.22958 -8.86993,11.09927 -1.8341,4.86983 -2.75113,11.88988 -2.7511,21.06015 l 0,52.27093 z"
         style="stroke:#000000"
         id="path5894"
         inkscape:connector-curvature="0" />
      <path
         d="m 921.26499,816.42164 17.64499,2.18191 c -2.78282,10.30874 -7.93717,18.30906 -15.46309,24.00098 -7.52607,5.69194 -17.13911,8.5379 -28.83913,8.53791 -14.73582,-10e-6 -26.42009,-4.53774 -35.05283,-13.61321 -8.63277,-9.07546 -12.94915,-21.80324 -12.94915,-38.18339 0,-16.94925 4.36381,-30.10393 13.09145,-39.46408 8.72761,-9.35997 20.04822,-14.04 33.96188,-14.04011 13.47084,1.1e-4 24.47523,4.58527 33.01321,13.75551 8.53781,9.17042 12.80676,22.07212 12.80686,38.70515 -1e-4,1.01195 -0.0317,2.5298 -0.0949,4.55355 l -75.13353,0 c 0.63241,11.06769 3.76297,19.54233 9.39169,25.42397 5.62865,5.88168 12.6487,8.82251 21.06016,8.8225 6.26106,10e-6 11.60515,-1.64432 16.03228,-4.93301 4.42698,-3.28865 7.93701,-8.53787 10.53008,-15.74768 z m -56.06555,-27.60588 56.25528,0 c -0.75901,-8.47459 -2.90929,-14.83058 -6.45086,-19.06798 -5.43903,-6.57726 -12.4907,-9.86593 -21.15502,-9.86602 -7.84227,9e-5 -14.43542,2.6247 -19.77947,7.87384 -5.34413,5.2493 -8.30077,12.26935 -8.86993,21.06016 z"
         style="stroke:#000000"
         id="path5896"
         inkscape:connector-curvature="0" />
    </g>
  </g>
</svg>
